%TF.GenerationSoftware,KiCad,Pcbnew,(5.1.9)-1*%
%TF.CreationDate,2021-04-10T21:08:21+08:00*%
%TF.ProjectId,CSPS2ATX2.0,43535053-3241-4545-9832-2e302e6b6963,V2.0*%
%TF.SameCoordinates,Original*%
%TF.FileFunction,Legend,Bot*%
%TF.FilePolarity,Positive*%
%FSLAX46Y46*%
G04 Gerber Fmt 4.6, Leading zero omitted, Abs format (unit mm)*
G04 Created by KiCad (PCBNEW (5.1.9)-1) date 2021-04-10 21:08:21*
%MOMM*%
%LPD*%
G01*
G04 APERTURE LIST*
%ADD10C,0.150000*%
%ADD11C,0.120000*%
%ADD12C,0.300000*%
G04 APERTURE END LIST*
D10*
X91354142Y-86505023D02*
X91401761Y-86457404D01*
X91449380Y-86314547D01*
X91449380Y-86219309D01*
X91401761Y-86076452D01*
X91306523Y-85981214D01*
X91211285Y-85933595D01*
X91020809Y-85885976D01*
X90877952Y-85885976D01*
X90687476Y-85933595D01*
X90592238Y-85981214D01*
X90497000Y-86076452D01*
X90449380Y-86219309D01*
X90449380Y-86314547D01*
X90497000Y-86457404D01*
X90544619Y-86505023D01*
X91449380Y-87076452D02*
X91401761Y-86981214D01*
X91354142Y-86933595D01*
X91258904Y-86885976D01*
X90973190Y-86885976D01*
X90877952Y-86933595D01*
X90830333Y-86981214D01*
X90782714Y-87076452D01*
X90782714Y-87219309D01*
X90830333Y-87314547D01*
X90877952Y-87362166D01*
X90973190Y-87409785D01*
X91258904Y-87409785D01*
X91354142Y-87362166D01*
X91401761Y-87314547D01*
X91449380Y-87219309D01*
X91449380Y-87076452D01*
X90782714Y-87838357D02*
X91449380Y-87838357D01*
X90877952Y-87838357D02*
X90830333Y-87885976D01*
X90782714Y-87981214D01*
X90782714Y-88124071D01*
X90830333Y-88219309D01*
X90925571Y-88266928D01*
X91449380Y-88266928D01*
X90782714Y-88600261D02*
X90782714Y-88981214D01*
X90449380Y-88743119D02*
X91306523Y-88743119D01*
X91401761Y-88790738D01*
X91449380Y-88885976D01*
X91449380Y-88981214D01*
X91449380Y-89314547D02*
X90782714Y-89314547D01*
X90973190Y-89314547D02*
X90877952Y-89362166D01*
X90830333Y-89409785D01*
X90782714Y-89505023D01*
X90782714Y-89600261D01*
X91449380Y-89933595D02*
X90782714Y-89933595D01*
X90449380Y-89933595D02*
X90497000Y-89885976D01*
X90544619Y-89933595D01*
X90497000Y-89981214D01*
X90449380Y-89933595D01*
X90544619Y-89933595D01*
X91449380Y-90409785D02*
X90449380Y-90409785D01*
X90830333Y-90409785D02*
X90782714Y-90505023D01*
X90782714Y-90695500D01*
X90830333Y-90790738D01*
X90877952Y-90838357D01*
X90973190Y-90885976D01*
X91258904Y-90885976D01*
X91354142Y-90838357D01*
X91401761Y-90790738D01*
X91449380Y-90695500D01*
X91449380Y-90505023D01*
X91401761Y-90409785D01*
X90782714Y-91743119D02*
X91449380Y-91743119D01*
X90782714Y-91314547D02*
X91306523Y-91314547D01*
X91401761Y-91362166D01*
X91449380Y-91457404D01*
X91449380Y-91600261D01*
X91401761Y-91695500D01*
X91354142Y-91743119D01*
X90782714Y-92076452D02*
X90782714Y-92457404D01*
X90449380Y-92219309D02*
X91306523Y-92219309D01*
X91401761Y-92266928D01*
X91449380Y-92362166D01*
X91449380Y-92457404D01*
X91449380Y-92933595D02*
X91401761Y-92838357D01*
X91354142Y-92790738D01*
X91258904Y-92743119D01*
X90973190Y-92743119D01*
X90877952Y-92790738D01*
X90830333Y-92838357D01*
X90782714Y-92933595D01*
X90782714Y-93076452D01*
X90830333Y-93171690D01*
X90877952Y-93219309D01*
X90973190Y-93266928D01*
X91258904Y-93266928D01*
X91354142Y-93219309D01*
X91401761Y-93171690D01*
X91449380Y-93076452D01*
X91449380Y-92933595D01*
X91449380Y-93695500D02*
X90782714Y-93695500D01*
X90973190Y-93695500D02*
X90877952Y-93743119D01*
X90830333Y-93790738D01*
X90782714Y-93885976D01*
X90782714Y-93981214D01*
X91354142Y-94314547D02*
X91401761Y-94362166D01*
X91449380Y-94314547D01*
X91401761Y-94266928D01*
X91354142Y-94314547D01*
X91449380Y-94314547D01*
X90830333Y-94314547D02*
X90877952Y-94362166D01*
X90925571Y-94314547D01*
X90877952Y-94266928D01*
X90830333Y-94314547D01*
X90925571Y-94314547D01*
X92813666Y-85885976D02*
X92813666Y-86362166D01*
X93099380Y-85790738D02*
X92099380Y-86124071D01*
X93099380Y-86457404D01*
X93099380Y-86933595D02*
X93051761Y-86838357D01*
X92956523Y-86790738D01*
X92099380Y-86790738D01*
X92432714Y-87314547D02*
X93432714Y-87314547D01*
X92480333Y-87314547D02*
X92432714Y-87409785D01*
X92432714Y-87600261D01*
X92480333Y-87695500D01*
X92527952Y-87743119D01*
X92623190Y-87790738D01*
X92908904Y-87790738D01*
X93004142Y-87743119D01*
X93051761Y-87695500D01*
X93099380Y-87600261D01*
X93099380Y-87409785D01*
X93051761Y-87314547D01*
X93099380Y-88219309D02*
X92099380Y-88219309D01*
X93099380Y-88647880D02*
X92575571Y-88647880D01*
X92480333Y-88600261D01*
X92432714Y-88505023D01*
X92432714Y-88362166D01*
X92480333Y-88266928D01*
X92527952Y-88219309D01*
X93099380Y-89552642D02*
X92575571Y-89552642D01*
X92480333Y-89505023D01*
X92432714Y-89409785D01*
X92432714Y-89219309D01*
X92480333Y-89124071D01*
X93051761Y-89552642D02*
X93099380Y-89457404D01*
X93099380Y-89219309D01*
X93051761Y-89124071D01*
X92956523Y-89076452D01*
X92861285Y-89076452D01*
X92766047Y-89124071D01*
X92718428Y-89219309D01*
X92718428Y-89457404D01*
X92670809Y-89552642D01*
X92813666Y-89981214D02*
X92813666Y-90457404D01*
X93099380Y-89885976D02*
X92099380Y-90219309D01*
X93099380Y-90552642D01*
X93099380Y-90885976D02*
X92432714Y-90885976D01*
X92623190Y-90885976D02*
X92527952Y-90933595D01*
X92480333Y-90981214D01*
X92432714Y-91076452D01*
X92432714Y-91171690D01*
X93051761Y-91885976D02*
X93099380Y-91790738D01*
X93099380Y-91600261D01*
X93051761Y-91505023D01*
X92956523Y-91457404D01*
X92575571Y-91457404D01*
X92480333Y-91505023D01*
X92432714Y-91600261D01*
X92432714Y-91790738D01*
X92480333Y-91885976D01*
X92575571Y-91933595D01*
X92670809Y-91933595D01*
X92766047Y-91457404D01*
X93099380Y-92790738D02*
X92575571Y-92790738D01*
X92480333Y-92743119D01*
X92432714Y-92647880D01*
X92432714Y-92457404D01*
X92480333Y-92362166D01*
X93051761Y-92790738D02*
X93099380Y-92695500D01*
X93099380Y-92457404D01*
X93051761Y-92362166D01*
X92956523Y-92314547D01*
X92861285Y-92314547D01*
X92766047Y-92362166D01*
X92718428Y-92457404D01*
X92718428Y-92695500D01*
X92670809Y-92790738D01*
X93749380Y-85933595D02*
X94558904Y-85933595D01*
X94654142Y-85981214D01*
X94701761Y-86028833D01*
X94749380Y-86124071D01*
X94749380Y-86314547D01*
X94701761Y-86409785D01*
X94654142Y-86457404D01*
X94558904Y-86505023D01*
X93749380Y-86505023D01*
X94749380Y-86981214D02*
X93749380Y-86981214D01*
X94130333Y-86981214D02*
X94082714Y-87076452D01*
X94082714Y-87266928D01*
X94130333Y-87362166D01*
X94177952Y-87409785D01*
X94273190Y-87457404D01*
X94558904Y-87457404D01*
X94654142Y-87409785D01*
X94701761Y-87362166D01*
X94749380Y-87266928D01*
X94749380Y-87076452D01*
X94701761Y-86981214D01*
X94749380Y-87885976D02*
X94082714Y-87885976D01*
X93749380Y-87885976D02*
X93797000Y-87838357D01*
X93844619Y-87885976D01*
X93797000Y-87933595D01*
X93749380Y-87885976D01*
X93844619Y-87885976D01*
X94082714Y-88790738D02*
X95082714Y-88790738D01*
X94701761Y-88790738D02*
X94749380Y-88695500D01*
X94749380Y-88505023D01*
X94701761Y-88409785D01*
X94654142Y-88362166D01*
X94558904Y-88314547D01*
X94273190Y-88314547D01*
X94177952Y-88362166D01*
X94130333Y-88409785D01*
X94082714Y-88505023D01*
X94082714Y-88695500D01*
X94130333Y-88790738D01*
X95399380Y-85838357D02*
X96399380Y-86505023D01*
X95399380Y-86505023D02*
X96399380Y-85838357D01*
X96399380Y-86885976D02*
X95732714Y-86885976D01*
X95399380Y-86885976D02*
X95447000Y-86838357D01*
X95494619Y-86885976D01*
X95447000Y-86933595D01*
X95399380Y-86885976D01*
X95494619Y-86885976D01*
X96399380Y-87790738D02*
X95875571Y-87790738D01*
X95780333Y-87743119D01*
X95732714Y-87647880D01*
X95732714Y-87457404D01*
X95780333Y-87362166D01*
X96351761Y-87790738D02*
X96399380Y-87695500D01*
X96399380Y-87457404D01*
X96351761Y-87362166D01*
X96256523Y-87314547D01*
X96161285Y-87314547D01*
X96066047Y-87362166D01*
X96018428Y-87457404D01*
X96018428Y-87695500D01*
X95970809Y-87790738D01*
X95923190Y-88457404D02*
X96399380Y-88457404D01*
X95399380Y-88124071D02*
X95923190Y-88457404D01*
X95399380Y-88790738D01*
X95732714Y-89552642D02*
X96399380Y-89552642D01*
X95732714Y-89124071D02*
X96256523Y-89124071D01*
X96351761Y-89171690D01*
X96399380Y-89266928D01*
X96399380Y-89409785D01*
X96351761Y-89505023D01*
X96304142Y-89552642D01*
X96399380Y-90028833D02*
X95399380Y-90028833D01*
X95780333Y-90028833D02*
X95732714Y-90124071D01*
X95732714Y-90314547D01*
X95780333Y-90409785D01*
X95827952Y-90457404D01*
X95923190Y-90505023D01*
X96208904Y-90505023D01*
X96304142Y-90457404D01*
X96351761Y-90409785D01*
X96399380Y-90314547D01*
X96399380Y-90124071D01*
X96351761Y-90028833D01*
X96399380Y-90933595D02*
X95732714Y-90933595D01*
X95399380Y-90933595D02*
X95447000Y-90885976D01*
X95494619Y-90933595D01*
X95447000Y-90981214D01*
X95399380Y-90933595D01*
X95494619Y-90933595D01*
X95732714Y-91409785D02*
X96399380Y-91409785D01*
X95827952Y-91409785D02*
X95780333Y-91457404D01*
X95732714Y-91552642D01*
X95732714Y-91695500D01*
X95780333Y-91790738D01*
X95875571Y-91838357D01*
X96399380Y-91838357D01*
X101020000Y-120497000D02*
X100020000Y-120497000D01*
X100781904Y-121864380D02*
X100781904Y-120864380D01*
X100400952Y-120864380D01*
X100305714Y-120912000D01*
X100258095Y-120959619D01*
X100210476Y-121054857D01*
X100210476Y-121197714D01*
X100258095Y-121292952D01*
X100305714Y-121340571D01*
X100400952Y-121388190D01*
X100781904Y-121388190D01*
X100020000Y-120497000D02*
X98972380Y-120497000D01*
X99591428Y-120864380D02*
X99400952Y-120864380D01*
X99305714Y-120912000D01*
X99210476Y-121007238D01*
X99162857Y-121197714D01*
X99162857Y-121531047D01*
X99210476Y-121721523D01*
X99305714Y-121816761D01*
X99400952Y-121864380D01*
X99591428Y-121864380D01*
X99686666Y-121816761D01*
X99781904Y-121721523D01*
X99829523Y-121531047D01*
X99829523Y-121197714D01*
X99781904Y-121007238D01*
X99686666Y-120912000D01*
X99591428Y-120864380D01*
X97448571Y-120912000D02*
X97543809Y-120864380D01*
X97686666Y-120864380D01*
X97829523Y-120912000D01*
X97924761Y-121007238D01*
X97972380Y-121102476D01*
X98020000Y-121292952D01*
X98020000Y-121435809D01*
X97972380Y-121626285D01*
X97924761Y-121721523D01*
X97829523Y-121816761D01*
X97686666Y-121864380D01*
X97591428Y-121864380D01*
X97448571Y-121816761D01*
X97400952Y-121769142D01*
X97400952Y-121435809D01*
X97591428Y-121435809D01*
X95639047Y-121769142D02*
X95686666Y-121816761D01*
X95829523Y-121864380D01*
X95924761Y-121864380D01*
X96067619Y-121816761D01*
X96162857Y-121721523D01*
X96210476Y-121626285D01*
X96258095Y-121435809D01*
X96258095Y-121292952D01*
X96210476Y-121102476D01*
X96162857Y-121007238D01*
X96067619Y-120912000D01*
X95924761Y-120864380D01*
X95829523Y-120864380D01*
X95686666Y-120912000D01*
X95639047Y-120959619D01*
X94734285Y-121864380D02*
X95210476Y-121864380D01*
X95210476Y-120864380D01*
X93639047Y-121864380D02*
X93639047Y-120864380D01*
X93400952Y-120864380D01*
X93258095Y-120912000D01*
X93162857Y-121007238D01*
X93115238Y-121102476D01*
X93067619Y-121292952D01*
X93067619Y-121435809D01*
X93115238Y-121626285D01*
X93162857Y-121721523D01*
X93258095Y-121816761D01*
X93400952Y-121864380D01*
X93639047Y-121864380D01*
X92686666Y-121578666D02*
X92210476Y-121578666D01*
X92781904Y-121864380D02*
X92448571Y-120864380D01*
X92115238Y-121864380D01*
X146819333Y-120356380D02*
X146486000Y-121356380D01*
X146152666Y-120356380D01*
X145819333Y-120975428D02*
X145057428Y-120975428D01*
X145438380Y-121356380D02*
X145438380Y-120594476D01*
X143819333Y-121356380D02*
X143819333Y-120356380D01*
X143581238Y-120356380D01*
X143438380Y-120404000D01*
X143343142Y-120499238D01*
X143295523Y-120594476D01*
X143247904Y-120784952D01*
X143247904Y-120927809D01*
X143295523Y-121118285D01*
X143343142Y-121213523D01*
X143438380Y-121308761D01*
X143581238Y-121356380D01*
X143819333Y-121356380D01*
X142819333Y-120975428D02*
X142057428Y-120975428D01*
X140819333Y-121356380D02*
X140819333Y-120356380D01*
X140581238Y-120356380D01*
X140438380Y-120404000D01*
X140343142Y-120499238D01*
X140295523Y-120594476D01*
X140247904Y-120784952D01*
X140247904Y-120927809D01*
X140295523Y-121118285D01*
X140343142Y-121213523D01*
X140438380Y-121308761D01*
X140581238Y-121356380D01*
X140819333Y-121356380D01*
X139819333Y-120975428D02*
X139057428Y-120975428D01*
X139438380Y-121356380D02*
X139438380Y-120594476D01*
X137295523Y-120404000D02*
X137390761Y-120356380D01*
X137533619Y-120356380D01*
X137676476Y-120404000D01*
X137771714Y-120499238D01*
X137819333Y-120594476D01*
X137866952Y-120784952D01*
X137866952Y-120927809D01*
X137819333Y-121118285D01*
X137771714Y-121213523D01*
X137676476Y-121308761D01*
X137533619Y-121356380D01*
X137438380Y-121356380D01*
X137295523Y-121308761D01*
X137247904Y-121261142D01*
X137247904Y-120927809D01*
X137438380Y-120927809D01*
X132660380Y-102060857D02*
X131660380Y-102060857D01*
X132374666Y-102394190D01*
X131660380Y-102727523D01*
X132660380Y-102727523D01*
X132660380Y-103203714D02*
X131660380Y-103203714D01*
X132612761Y-103632285D02*
X132660380Y-103775142D01*
X132660380Y-104013238D01*
X132612761Y-104108476D01*
X132565142Y-104156095D01*
X132469904Y-104203714D01*
X132374666Y-104203714D01*
X132279428Y-104156095D01*
X132231809Y-104108476D01*
X132184190Y-104013238D01*
X132136571Y-103822761D01*
X132088952Y-103727523D01*
X132041333Y-103679904D01*
X131946095Y-103632285D01*
X131850857Y-103632285D01*
X131755619Y-103679904D01*
X131708000Y-103727523D01*
X131660380Y-103822761D01*
X131660380Y-104060857D01*
X131708000Y-104203714D01*
X131660380Y-104822761D02*
X131660380Y-105013238D01*
X131708000Y-105108476D01*
X131803238Y-105203714D01*
X131993714Y-105251333D01*
X132327047Y-105251333D01*
X132517523Y-105203714D01*
X132612761Y-105108476D01*
X132660380Y-105013238D01*
X132660380Y-104822761D01*
X132612761Y-104727523D01*
X132517523Y-104632285D01*
X132327047Y-104584666D01*
X131993714Y-104584666D01*
X131803238Y-104632285D01*
X131708000Y-104727523D01*
X131660380Y-104822761D01*
X132279428Y-107203714D02*
X132279428Y-107965619D01*
X132660380Y-107584666D02*
X131898476Y-107584666D01*
X131660380Y-108918000D02*
X131660380Y-108441809D01*
X132136571Y-108394190D01*
X132088952Y-108441809D01*
X132041333Y-108537047D01*
X132041333Y-108775142D01*
X132088952Y-108870380D01*
X132136571Y-108918000D01*
X132231809Y-108965619D01*
X132469904Y-108965619D01*
X132565142Y-108918000D01*
X132612761Y-108870380D01*
X132660380Y-108775142D01*
X132660380Y-108537047D01*
X132612761Y-108441809D01*
X132565142Y-108394190D01*
X131660380Y-109251333D02*
X132660380Y-109584666D01*
X131660380Y-109918000D01*
X134262761Y-102060857D02*
X134310380Y-102203714D01*
X134310380Y-102441809D01*
X134262761Y-102537047D01*
X134215142Y-102584666D01*
X134119904Y-102632285D01*
X134024666Y-102632285D01*
X133929428Y-102584666D01*
X133881809Y-102537047D01*
X133834190Y-102441809D01*
X133786571Y-102251333D01*
X133738952Y-102156095D01*
X133691333Y-102108476D01*
X133596095Y-102060857D01*
X133500857Y-102060857D01*
X133405619Y-102108476D01*
X133358000Y-102156095D01*
X133310380Y-102251333D01*
X133310380Y-102489428D01*
X133358000Y-102632285D01*
X134215142Y-103632285D02*
X134262761Y-103584666D01*
X134310380Y-103441809D01*
X134310380Y-103346571D01*
X134262761Y-103203714D01*
X134167523Y-103108476D01*
X134072285Y-103060857D01*
X133881809Y-103013238D01*
X133738952Y-103013238D01*
X133548476Y-103060857D01*
X133453238Y-103108476D01*
X133358000Y-103203714D01*
X133310380Y-103346571D01*
X133310380Y-103441809D01*
X133358000Y-103584666D01*
X133405619Y-103632285D01*
X134310380Y-104060857D02*
X133310380Y-104060857D01*
X134310380Y-104632285D02*
X133738952Y-104203714D01*
X133310380Y-104632285D02*
X133881809Y-104060857D01*
X134310380Y-106584666D02*
X133310380Y-106584666D01*
X134024666Y-106918000D01*
X133310380Y-107251333D01*
X134310380Y-107251333D01*
X133310380Y-107918000D02*
X133310380Y-108108476D01*
X133358000Y-108203714D01*
X133453238Y-108298952D01*
X133643714Y-108346571D01*
X133977047Y-108346571D01*
X134167523Y-108298952D01*
X134262761Y-108203714D01*
X134310380Y-108108476D01*
X134310380Y-107918000D01*
X134262761Y-107822761D01*
X134167523Y-107727523D01*
X133977047Y-107679904D01*
X133643714Y-107679904D01*
X133453238Y-107727523D01*
X133358000Y-107822761D01*
X133310380Y-107918000D01*
X134262761Y-108727523D02*
X134310380Y-108870380D01*
X134310380Y-109108476D01*
X134262761Y-109203714D01*
X134215142Y-109251333D01*
X134119904Y-109298952D01*
X134024666Y-109298952D01*
X133929428Y-109251333D01*
X133881809Y-109203714D01*
X133834190Y-109108476D01*
X133786571Y-108918000D01*
X133738952Y-108822761D01*
X133691333Y-108775142D01*
X133596095Y-108727523D01*
X133500857Y-108727523D01*
X133405619Y-108775142D01*
X133358000Y-108822761D01*
X133310380Y-108918000D01*
X133310380Y-109156095D01*
X133358000Y-109298952D01*
X134310380Y-109727523D02*
X133310380Y-109727523D01*
X134593000Y-101751333D02*
X134593000Y-102751333D01*
X135960380Y-102560857D02*
X135484190Y-102227523D01*
X135960380Y-101989428D02*
X134960380Y-101989428D01*
X134960380Y-102370380D01*
X135008000Y-102465619D01*
X135055619Y-102513238D01*
X135150857Y-102560857D01*
X135293714Y-102560857D01*
X135388952Y-102513238D01*
X135436571Y-102465619D01*
X135484190Y-102370380D01*
X135484190Y-101989428D01*
X134593000Y-102751333D02*
X134593000Y-103656095D01*
X135436571Y-102989428D02*
X135436571Y-103322761D01*
X135960380Y-103465619D02*
X135960380Y-102989428D01*
X134960380Y-102989428D01*
X134960380Y-103465619D01*
X134593000Y-103656095D02*
X134593000Y-104608476D01*
X135912761Y-103846571D02*
X135960380Y-103989428D01*
X135960380Y-104227523D01*
X135912761Y-104322761D01*
X135865142Y-104370380D01*
X135769904Y-104418000D01*
X135674666Y-104418000D01*
X135579428Y-104370380D01*
X135531809Y-104322761D01*
X135484190Y-104227523D01*
X135436571Y-104037047D01*
X135388952Y-103941809D01*
X135341333Y-103894190D01*
X135246095Y-103846571D01*
X135150857Y-103846571D01*
X135055619Y-103894190D01*
X135008000Y-103941809D01*
X134960380Y-104037047D01*
X134960380Y-104275142D01*
X135008000Y-104418000D01*
X134593000Y-104608476D02*
X134593000Y-105513238D01*
X135436571Y-104846571D02*
X135436571Y-105179904D01*
X135960380Y-105322761D02*
X135960380Y-104846571D01*
X134960380Y-104846571D01*
X134960380Y-105322761D01*
X134593000Y-105513238D02*
X134593000Y-106275142D01*
X134960380Y-105608476D02*
X134960380Y-106179904D01*
X135960380Y-105894190D02*
X134960380Y-105894190D01*
X135008000Y-107798952D02*
X134960380Y-107703714D01*
X134960380Y-107560857D01*
X135008000Y-107418000D01*
X135103238Y-107322761D01*
X135198476Y-107275142D01*
X135388952Y-107227523D01*
X135531809Y-107227523D01*
X135722285Y-107275142D01*
X135817523Y-107322761D01*
X135912761Y-107418000D01*
X135960380Y-107560857D01*
X135960380Y-107656095D01*
X135912761Y-107798952D01*
X135865142Y-107846571D01*
X135531809Y-107846571D01*
X135531809Y-107656095D01*
X135960380Y-108275142D02*
X134960380Y-108275142D01*
X135960380Y-108846571D01*
X134960380Y-108846571D01*
X135960380Y-109322761D02*
X134960380Y-109322761D01*
X134960380Y-109560857D01*
X135008000Y-109703714D01*
X135103238Y-109798952D01*
X135198476Y-109846571D01*
X135388952Y-109894190D01*
X135531809Y-109894190D01*
X135722285Y-109846571D01*
X135817523Y-109798952D01*
X135912761Y-109703714D01*
X135960380Y-109560857D01*
X135960380Y-109322761D01*
D11*
%TO.C,JP102*%
X107269000Y-89665000D02*
X107869000Y-89665000D01*
X106569000Y-87565000D02*
X106569000Y-88965000D01*
X107869000Y-86865000D02*
X107269000Y-86865000D01*
X108569000Y-88965000D02*
X108569000Y-87565000D01*
X108569000Y-87565000D02*
G75*
G03*
X107869000Y-86865000I-700000J0D01*
G01*
X107269000Y-86865000D02*
G75*
G03*
X106569000Y-87565000I0J-700000D01*
G01*
X106569000Y-88965000D02*
G75*
G03*
X107269000Y-89665000I700000J0D01*
G01*
X107869000Y-89665000D02*
G75*
G03*
X108569000Y-88965000I0J700000D01*
G01*
%TO.C,J101*%
X135280000Y-120107000D02*
X135280000Y-121907000D01*
X135280000Y-125617000D02*
X135280000Y-124157000D01*
X126340000Y-125617000D02*
X126340000Y-124157000D01*
X126340000Y-120107000D02*
X126340000Y-121907000D01*
X126340000Y-125617000D02*
X135280000Y-125617000D01*
%TO.C,J104*%
X101787000Y-124647000D02*
X101787000Y-123317000D01*
X100457000Y-124647000D02*
X101787000Y-124647000D01*
X99187000Y-124647000D02*
X99187000Y-121987000D01*
X99187000Y-121987000D02*
X91507000Y-121987000D01*
X99187000Y-124647000D02*
X91507000Y-124647000D01*
X91507000Y-124647000D02*
X91507000Y-121987000D01*
%TO.C,U4*%
X93980000Y-119380000D02*
X113665000Y-119380000D01*
X93980000Y-119380000D02*
X93980000Y-106045000D01*
X113665000Y-119380000D02*
X113665000Y-106045000D01*
X113665000Y-106045000D02*
X93980000Y-106045000D01*
D12*
X99695000Y-112395000D02*
X107950000Y-112395000D01*
X107950000Y-112395000D02*
X106045000Y-114300000D01*
D11*
X106045000Y-114300000D02*
X107950000Y-112395000D01*
D12*
X107950000Y-112395000D02*
X106045000Y-110490000D01*
D11*
%TO.C,Y101*%
X111865000Y-75749000D02*
X111865000Y-69999000D01*
X115465000Y-75749000D02*
X111865000Y-75749000D01*
X115465000Y-69999000D02*
X115465000Y-75749000D01*
%TO.C,U102*%
X121539000Y-114828000D02*
X124989000Y-114828000D01*
X121539000Y-114828000D02*
X119589000Y-114828000D01*
X121539000Y-124948000D02*
X123489000Y-124948000D01*
X121539000Y-124948000D02*
X119589000Y-124948000D01*
D10*
%TO.C,U101*%
X106836000Y-77655000D02*
X106836000Y-76230000D01*
X106611000Y-84905000D02*
X106611000Y-84580000D01*
X113861000Y-84905000D02*
X113861000Y-84580000D01*
X113861000Y-77655000D02*
X113861000Y-77980000D01*
X106611000Y-77655000D02*
X106611000Y-77980000D01*
X113861000Y-77655000D02*
X113536000Y-77655000D01*
X113861000Y-84905000D02*
X113536000Y-84905000D01*
X106611000Y-84905000D02*
X106936000Y-84905000D01*
X106611000Y-77655000D02*
X106836000Y-77655000D01*
D11*
%TO.C,SW101*%
X111754000Y-125508000D02*
X111754000Y-121888000D01*
X105634000Y-125508000D02*
X111754000Y-125508000D01*
X105634000Y-121888000D02*
X105634000Y-125508000D01*
X111754000Y-121888000D02*
X105634000Y-121888000D01*
%TO.C,R107*%
X113056936Y-89943000D02*
X113511064Y-89943000D01*
X113056936Y-91413000D02*
X113511064Y-91413000D01*
%TO.C,R106*%
X113511064Y-93318000D02*
X113056936Y-93318000D01*
X113511064Y-91848000D02*
X113056936Y-91848000D01*
%TO.C,R101*%
X110112436Y-119915000D02*
X110566564Y-119915000D01*
X110112436Y-121385000D02*
X110566564Y-121385000D01*
%TO.C,R6*%
X83539064Y-124179000D02*
X83084936Y-124179000D01*
X83539064Y-122709000D02*
X83084936Y-122709000D01*
%TO.C,R5*%
X86991564Y-124179000D02*
X86537436Y-124179000D01*
X86991564Y-122709000D02*
X86537436Y-122709000D01*
%TO.C,R1*%
X89562000Y-112114064D02*
X89562000Y-111659936D01*
X91032000Y-112114064D02*
X91032000Y-111659936D01*
%TO.C,J103*%
X146999000Y-124393000D02*
X146999000Y-123063000D01*
X145669000Y-124393000D02*
X146999000Y-124393000D01*
X144399000Y-124393000D02*
X144399000Y-121733000D01*
X144399000Y-121733000D02*
X136719000Y-121733000D01*
X144399000Y-124393000D02*
X136719000Y-124393000D01*
X136719000Y-124393000D02*
X136719000Y-121733000D01*
%TO.C,J102*%
X128083000Y-110176000D02*
X128083000Y-111506000D01*
X129413000Y-110176000D02*
X128083000Y-110176000D01*
X128083000Y-112776000D02*
X128083000Y-115376000D01*
X130683000Y-112776000D02*
X128083000Y-112776000D01*
X130683000Y-110176000D02*
X130683000Y-112776000D01*
X128083000Y-115376000D02*
X135823000Y-115376000D01*
X130683000Y-110176000D02*
X135823000Y-110176000D01*
X135823000Y-110176000D02*
X135823000Y-115376000D01*
%TO.C,J10*%
X134695000Y-77980000D02*
X131845000Y-77980000D01*
X134695000Y-75130000D02*
X134695000Y-77980000D01*
X123235000Y-71020000D02*
X123235000Y-72830000D01*
X124635000Y-71020000D02*
X123235000Y-71020000D01*
X124635000Y-67920000D02*
X124635000Y-71020000D01*
X134455000Y-67920000D02*
X124635000Y-67920000D01*
X134455000Y-72830000D02*
X134455000Y-67920000D01*
X123235000Y-74640000D02*
X123235000Y-72830000D01*
X124635000Y-74640000D02*
X123235000Y-74640000D01*
X124635000Y-77740000D02*
X124635000Y-74640000D01*
X134455000Y-77740000D02*
X124635000Y-77740000D01*
X134455000Y-72830000D02*
X134455000Y-77740000D01*
%TO.C,J9*%
X134695000Y-88775000D02*
X131845000Y-88775000D01*
X134695000Y-85925000D02*
X134695000Y-88775000D01*
X123235000Y-81815000D02*
X123235000Y-83625000D01*
X124635000Y-81815000D02*
X123235000Y-81815000D01*
X124635000Y-78715000D02*
X124635000Y-81815000D01*
X134455000Y-78715000D02*
X124635000Y-78715000D01*
X134455000Y-83625000D02*
X134455000Y-78715000D01*
X123235000Y-85435000D02*
X123235000Y-83625000D01*
X124635000Y-85435000D02*
X123235000Y-85435000D01*
X124635000Y-88535000D02*
X124635000Y-85435000D01*
X134455000Y-88535000D02*
X124635000Y-88535000D01*
X134455000Y-83625000D02*
X134455000Y-88535000D01*
%TO.C,J8*%
X139015000Y-55410000D02*
X148125000Y-55410000D01*
X148125000Y-55410000D02*
X148125000Y-65230000D01*
X148125000Y-65230000D02*
X140825000Y-65230000D01*
X140825000Y-65230000D02*
X140825000Y-66630000D01*
X140825000Y-66630000D02*
X139015000Y-66630000D01*
X139015000Y-55410000D02*
X129905000Y-55410000D01*
X129905000Y-55410000D02*
X129905000Y-65230000D01*
X129905000Y-65230000D02*
X137205000Y-65230000D01*
X137205000Y-65230000D02*
X137205000Y-66630000D01*
X137205000Y-66630000D02*
X139015000Y-66630000D01*
X145515000Y-55170000D02*
X148365000Y-55170000D01*
X148365000Y-55170000D02*
X148365000Y-58020000D01*
%TO.C,J7*%
X139015000Y-49120000D02*
X129905000Y-49120000D01*
X129905000Y-49120000D02*
X129905000Y-39300000D01*
X129905000Y-39300000D02*
X137205000Y-39300000D01*
X137205000Y-39300000D02*
X137205000Y-37900000D01*
X137205000Y-37900000D02*
X139015000Y-37900000D01*
X139015000Y-49120000D02*
X148125000Y-49120000D01*
X148125000Y-49120000D02*
X148125000Y-39300000D01*
X148125000Y-39300000D02*
X140825000Y-39300000D01*
X140825000Y-39300000D02*
X140825000Y-37900000D01*
X140825000Y-37900000D02*
X139015000Y-37900000D01*
X132515000Y-49360000D02*
X129665000Y-49360000D01*
X129665000Y-49360000D02*
X129665000Y-46510000D01*
%TO.C,J6*%
X119330000Y-55410000D02*
X128440000Y-55410000D01*
X128440000Y-55410000D02*
X128440000Y-65230000D01*
X128440000Y-65230000D02*
X121140000Y-65230000D01*
X121140000Y-65230000D02*
X121140000Y-66630000D01*
X121140000Y-66630000D02*
X119330000Y-66630000D01*
X119330000Y-55410000D02*
X110220000Y-55410000D01*
X110220000Y-55410000D02*
X110220000Y-65230000D01*
X110220000Y-65230000D02*
X117520000Y-65230000D01*
X117520000Y-65230000D02*
X117520000Y-66630000D01*
X117520000Y-66630000D02*
X119330000Y-66630000D01*
X125830000Y-55170000D02*
X128680000Y-55170000D01*
X128680000Y-55170000D02*
X128680000Y-58020000D01*
%TO.C,J5*%
X119330000Y-49120000D02*
X110220000Y-49120000D01*
X110220000Y-49120000D02*
X110220000Y-39300000D01*
X110220000Y-39300000D02*
X117520000Y-39300000D01*
X117520000Y-39300000D02*
X117520000Y-37900000D01*
X117520000Y-37900000D02*
X119330000Y-37900000D01*
X119330000Y-49120000D02*
X128440000Y-49120000D01*
X128440000Y-49120000D02*
X128440000Y-39300000D01*
X128440000Y-39300000D02*
X121140000Y-39300000D01*
X121140000Y-39300000D02*
X121140000Y-37900000D01*
X121140000Y-37900000D02*
X119330000Y-37900000D01*
X112830000Y-49360000D02*
X109980000Y-49360000D01*
X109980000Y-49360000D02*
X109980000Y-46510000D01*
%TO.C,J4*%
X99645000Y-55410000D02*
X108755000Y-55410000D01*
X108755000Y-55410000D02*
X108755000Y-65230000D01*
X108755000Y-65230000D02*
X101455000Y-65230000D01*
X101455000Y-65230000D02*
X101455000Y-66630000D01*
X101455000Y-66630000D02*
X99645000Y-66630000D01*
X99645000Y-55410000D02*
X90535000Y-55410000D01*
X90535000Y-55410000D02*
X90535000Y-65230000D01*
X90535000Y-65230000D02*
X97835000Y-65230000D01*
X97835000Y-65230000D02*
X97835000Y-66630000D01*
X97835000Y-66630000D02*
X99645000Y-66630000D01*
X106145000Y-55170000D02*
X108995000Y-55170000D01*
X108995000Y-55170000D02*
X108995000Y-58020000D01*
%TO.C,J3*%
X99645000Y-49120000D02*
X90535000Y-49120000D01*
X90535000Y-49120000D02*
X90535000Y-39300000D01*
X90535000Y-39300000D02*
X97835000Y-39300000D01*
X97835000Y-39300000D02*
X97835000Y-37900000D01*
X97835000Y-37900000D02*
X99645000Y-37900000D01*
X99645000Y-49120000D02*
X108755000Y-49120000D01*
X108755000Y-49120000D02*
X108755000Y-39300000D01*
X108755000Y-39300000D02*
X101455000Y-39300000D01*
X101455000Y-39300000D02*
X101455000Y-37900000D01*
X101455000Y-37900000D02*
X99645000Y-37900000D01*
X93145000Y-49360000D02*
X90295000Y-49360000D01*
X90295000Y-49360000D02*
X90295000Y-46510000D01*
%TO.C,J2*%
X136690000Y-93585000D02*
X136690000Y-67675000D01*
X136690000Y-67675000D02*
X146510000Y-67675000D01*
X146510000Y-67675000D02*
X146510000Y-91775000D01*
X146510000Y-91775000D02*
X147910000Y-91775000D01*
X147910000Y-91775000D02*
X147910000Y-93585000D01*
X136690000Y-93585000D02*
X136690000Y-119495000D01*
X136690000Y-119495000D02*
X146510000Y-119495000D01*
X146510000Y-119495000D02*
X146510000Y-95395000D01*
X146510000Y-95395000D02*
X147910000Y-95395000D01*
X147910000Y-95395000D02*
X147910000Y-93585000D01*
X136450000Y-70285000D02*
X136450000Y-67435000D01*
X136450000Y-67435000D02*
X139300000Y-67435000D01*
%TO.C,C108*%
X116273252Y-120115000D02*
X115750748Y-120115000D01*
X116273252Y-118645000D02*
X115750748Y-118645000D01*
%TO.C,C107*%
X123248748Y-112930000D02*
X123771252Y-112930000D01*
X123248748Y-114400000D02*
X123771252Y-114400000D01*
%TO.C,C106*%
X125757000Y-115577252D02*
X125757000Y-115054748D01*
X127227000Y-115577252D02*
X127227000Y-115054748D01*
%TO.C,C105*%
X106611748Y-119915000D02*
X107134252Y-119915000D01*
X106611748Y-121385000D02*
X107134252Y-121385000D01*
%TO.C,C104*%
X111352000Y-88714252D02*
X111352000Y-88191748D01*
X109882000Y-88714252D02*
X109882000Y-88191748D01*
%TO.C,C103*%
X109659748Y-74068000D02*
X110182252Y-74068000D01*
X109659748Y-75538000D02*
X110182252Y-75538000D01*
%TO.C,C102*%
X110182252Y-71220000D02*
X109659748Y-71220000D01*
X110182252Y-69750000D02*
X109659748Y-69750000D01*
%TO.C,C101*%
X110182252Y-73252000D02*
X109659748Y-73252000D01*
X110182252Y-71782000D02*
X109659748Y-71782000D01*
%TO.C,C7*%
X111172000Y-98336000D02*
X111172000Y-99336000D01*
X111672000Y-98836000D02*
X110672000Y-98836000D01*
X110432000Y-104541563D02*
X109367563Y-105606000D01*
X110432000Y-98150437D02*
X109367563Y-97086000D01*
X110432000Y-98150437D02*
X110432000Y-99836000D01*
X110432000Y-104541563D02*
X110432000Y-102856000D01*
X109367563Y-105606000D02*
X101912000Y-105606000D01*
X109367563Y-97086000D02*
X101912000Y-97086000D01*
X101912000Y-97086000D02*
X101912000Y-99836000D01*
X101912000Y-105606000D02*
X101912000Y-102856000D01*
%TO.C,JP102*%
D10*
X105243380Y-86606285D02*
X105957666Y-86606285D01*
X106100523Y-86558666D01*
X106195761Y-86463428D01*
X106243380Y-86320571D01*
X106243380Y-86225333D01*
X106243380Y-87082476D02*
X105243380Y-87082476D01*
X105243380Y-87463428D01*
X105291000Y-87558666D01*
X105338619Y-87606285D01*
X105433857Y-87653904D01*
X105576714Y-87653904D01*
X105671952Y-87606285D01*
X105719571Y-87558666D01*
X105767190Y-87463428D01*
X105767190Y-87082476D01*
X106243380Y-88606285D02*
X106243380Y-88034857D01*
X106243380Y-88320571D02*
X105243380Y-88320571D01*
X105386238Y-88225333D01*
X105481476Y-88130095D01*
X105529095Y-88034857D01*
X105243380Y-89225333D02*
X105243380Y-89320571D01*
X105291000Y-89415809D01*
X105338619Y-89463428D01*
X105433857Y-89511047D01*
X105624333Y-89558666D01*
X105862428Y-89558666D01*
X106052904Y-89511047D01*
X106148142Y-89463428D01*
X106195761Y-89415809D01*
X106243380Y-89320571D01*
X106243380Y-89225333D01*
X106195761Y-89130095D01*
X106148142Y-89082476D01*
X106052904Y-89034857D01*
X105862428Y-88987238D01*
X105624333Y-88987238D01*
X105433857Y-89034857D01*
X105338619Y-89082476D01*
X105291000Y-89130095D01*
X105243380Y-89225333D01*
X105338619Y-89939619D02*
X105291000Y-89987238D01*
X105243380Y-90082476D01*
X105243380Y-90320571D01*
X105291000Y-90415809D01*
X105338619Y-90463428D01*
X105433857Y-90511047D01*
X105529095Y-90511047D01*
X105671952Y-90463428D01*
X106243380Y-89892000D01*
X106243380Y-90511047D01*
%TO.C,J101*%
X135397714Y-115657380D02*
X135397714Y-116371666D01*
X135445333Y-116514523D01*
X135540571Y-116609761D01*
X135683428Y-116657380D01*
X135778666Y-116657380D01*
X134397714Y-116657380D02*
X134969142Y-116657380D01*
X134683428Y-116657380D02*
X134683428Y-115657380D01*
X134778666Y-115800238D01*
X134873904Y-115895476D01*
X134969142Y-115943095D01*
X133778666Y-115657380D02*
X133683428Y-115657380D01*
X133588190Y-115705000D01*
X133540571Y-115752619D01*
X133492952Y-115847857D01*
X133445333Y-116038333D01*
X133445333Y-116276428D01*
X133492952Y-116466904D01*
X133540571Y-116562142D01*
X133588190Y-116609761D01*
X133683428Y-116657380D01*
X133778666Y-116657380D01*
X133873904Y-116609761D01*
X133921523Y-116562142D01*
X133969142Y-116466904D01*
X134016761Y-116276428D01*
X134016761Y-116038333D01*
X133969142Y-115847857D01*
X133921523Y-115752619D01*
X133873904Y-115705000D01*
X133778666Y-115657380D01*
X132492952Y-116657380D02*
X133064380Y-116657380D01*
X132778666Y-116657380D02*
X132778666Y-115657380D01*
X132873904Y-115800238D01*
X132969142Y-115895476D01*
X133064380Y-115943095D01*
%TO.C,J104*%
X103334619Y-124602714D02*
X102620333Y-124602714D01*
X102477476Y-124650333D01*
X102382238Y-124745571D01*
X102334619Y-124888428D01*
X102334619Y-124983666D01*
X102334619Y-123602714D02*
X102334619Y-124174142D01*
X102334619Y-123888428D02*
X103334619Y-123888428D01*
X103191761Y-123983666D01*
X103096523Y-124078904D01*
X103048904Y-124174142D01*
X103334619Y-122983666D02*
X103334619Y-122888428D01*
X103287000Y-122793190D01*
X103239380Y-122745571D01*
X103144142Y-122697952D01*
X102953666Y-122650333D01*
X102715571Y-122650333D01*
X102525095Y-122697952D01*
X102429857Y-122745571D01*
X102382238Y-122793190D01*
X102334619Y-122888428D01*
X102334619Y-122983666D01*
X102382238Y-123078904D01*
X102429857Y-123126523D01*
X102525095Y-123174142D01*
X102715571Y-123221761D01*
X102953666Y-123221761D01*
X103144142Y-123174142D01*
X103239380Y-123126523D01*
X103287000Y-123078904D01*
X103334619Y-122983666D01*
X103001285Y-121793190D02*
X102334619Y-121793190D01*
X103382238Y-122031285D02*
X102667952Y-122269380D01*
X102667952Y-121650333D01*
%TO.C,U4*%
X96011904Y-104608380D02*
X96011904Y-105417904D01*
X95964285Y-105513142D01*
X95916666Y-105560761D01*
X95821428Y-105608380D01*
X95630952Y-105608380D01*
X95535714Y-105560761D01*
X95488095Y-105513142D01*
X95440476Y-105417904D01*
X95440476Y-104608380D01*
X94535714Y-104941714D02*
X94535714Y-105608380D01*
X94773809Y-104560761D02*
X95011904Y-105275047D01*
X94392857Y-105275047D01*
X107664047Y-116927380D02*
X107473571Y-116927380D01*
X107378333Y-116975000D01*
X107283095Y-117070238D01*
X107235476Y-117260714D01*
X107235476Y-117594047D01*
X107283095Y-117784523D01*
X107378333Y-117879761D01*
X107473571Y-117927380D01*
X107664047Y-117927380D01*
X107759285Y-117879761D01*
X107854523Y-117784523D01*
X107902142Y-117594047D01*
X107902142Y-117260714D01*
X107854523Y-117070238D01*
X107759285Y-116975000D01*
X107664047Y-116927380D01*
X106806904Y-116927380D02*
X106806904Y-117736904D01*
X106759285Y-117832142D01*
X106711666Y-117879761D01*
X106616428Y-117927380D01*
X106425952Y-117927380D01*
X106330714Y-117879761D01*
X106283095Y-117832142D01*
X106235476Y-117736904D01*
X106235476Y-116927380D01*
X105902142Y-116927380D02*
X105330714Y-116927380D01*
X105616428Y-117927380D02*
X105616428Y-116927380D01*
X104997380Y-117546428D02*
X104235476Y-117546428D01*
X100837857Y-117927380D02*
X100837857Y-116927380D01*
X100361666Y-117927380D02*
X100361666Y-116927380D01*
X99790238Y-117927380D01*
X99790238Y-116927380D01*
X99314047Y-117546428D02*
X98552142Y-117546428D01*
X107664047Y-108037380D02*
X107473571Y-108037380D01*
X107378333Y-108085000D01*
X107283095Y-108180238D01*
X107235476Y-108370714D01*
X107235476Y-108704047D01*
X107283095Y-108894523D01*
X107378333Y-108989761D01*
X107473571Y-109037380D01*
X107664047Y-109037380D01*
X107759285Y-108989761D01*
X107854523Y-108894523D01*
X107902142Y-108704047D01*
X107902142Y-108370714D01*
X107854523Y-108180238D01*
X107759285Y-108085000D01*
X107664047Y-108037380D01*
X106806904Y-108037380D02*
X106806904Y-108846904D01*
X106759285Y-108942142D01*
X106711666Y-108989761D01*
X106616428Y-109037380D01*
X106425952Y-109037380D01*
X106330714Y-108989761D01*
X106283095Y-108942142D01*
X106235476Y-108846904D01*
X106235476Y-108037380D01*
X105902142Y-108037380D02*
X105330714Y-108037380D01*
X105616428Y-109037380D02*
X105616428Y-108037380D01*
X104997380Y-108656428D02*
X104235476Y-108656428D01*
X104616428Y-109037380D02*
X104616428Y-108275476D01*
X100837857Y-109037380D02*
X100837857Y-108037380D01*
X100361666Y-109037380D02*
X100361666Y-108037380D01*
X99790238Y-109037380D01*
X99790238Y-108037380D01*
X99314047Y-108656428D02*
X98552142Y-108656428D01*
X98933095Y-109037380D02*
X98933095Y-108275476D01*
%TO.C,Y101*%
X116435190Y-71524428D02*
X116911380Y-71524428D01*
X115911380Y-71191095D02*
X116435190Y-71524428D01*
X115911380Y-71857761D01*
X116911380Y-72714904D02*
X116911380Y-72143476D01*
X116911380Y-72429190D02*
X115911380Y-72429190D01*
X116054238Y-72333952D01*
X116149476Y-72238714D01*
X116197095Y-72143476D01*
X115911380Y-73333952D02*
X115911380Y-73429190D01*
X115959000Y-73524428D01*
X116006619Y-73572047D01*
X116101857Y-73619666D01*
X116292333Y-73667285D01*
X116530428Y-73667285D01*
X116720904Y-73619666D01*
X116816142Y-73572047D01*
X116863761Y-73524428D01*
X116911380Y-73429190D01*
X116911380Y-73333952D01*
X116863761Y-73238714D01*
X116816142Y-73191095D01*
X116720904Y-73143476D01*
X116530428Y-73095857D01*
X116292333Y-73095857D01*
X116101857Y-73143476D01*
X116006619Y-73191095D01*
X115959000Y-73238714D01*
X115911380Y-73333952D01*
X116911380Y-74619666D02*
X116911380Y-74048238D01*
X116911380Y-74333952D02*
X115911380Y-74333952D01*
X116054238Y-74238714D01*
X116149476Y-74143476D01*
X116197095Y-74048238D01*
%TO.C,U102*%
X121602285Y-113244380D02*
X121602285Y-114053904D01*
X121554666Y-114149142D01*
X121507047Y-114196761D01*
X121411809Y-114244380D01*
X121221333Y-114244380D01*
X121126095Y-114196761D01*
X121078476Y-114149142D01*
X121030857Y-114053904D01*
X121030857Y-113244380D01*
X120030857Y-114244380D02*
X120602285Y-114244380D01*
X120316571Y-114244380D02*
X120316571Y-113244380D01*
X120411809Y-113387238D01*
X120507047Y-113482476D01*
X120602285Y-113530095D01*
X119411809Y-113244380D02*
X119316571Y-113244380D01*
X119221333Y-113292000D01*
X119173714Y-113339619D01*
X119126095Y-113434857D01*
X119078476Y-113625333D01*
X119078476Y-113863428D01*
X119126095Y-114053904D01*
X119173714Y-114149142D01*
X119221333Y-114196761D01*
X119316571Y-114244380D01*
X119411809Y-114244380D01*
X119507047Y-114196761D01*
X119554666Y-114149142D01*
X119602285Y-114053904D01*
X119649904Y-113863428D01*
X119649904Y-113625333D01*
X119602285Y-113434857D01*
X119554666Y-113339619D01*
X119507047Y-113292000D01*
X119411809Y-113244380D01*
X118697523Y-113339619D02*
X118649904Y-113292000D01*
X118554666Y-113244380D01*
X118316571Y-113244380D01*
X118221333Y-113292000D01*
X118173714Y-113339619D01*
X118126095Y-113434857D01*
X118126095Y-113530095D01*
X118173714Y-113672952D01*
X118745142Y-114244380D01*
X118126095Y-114244380D01*
%TO.C,U101*%
X103638380Y-79565714D02*
X104447904Y-79565714D01*
X104543142Y-79613333D01*
X104590761Y-79660952D01*
X104638380Y-79756190D01*
X104638380Y-79946666D01*
X104590761Y-80041904D01*
X104543142Y-80089523D01*
X104447904Y-80137142D01*
X103638380Y-80137142D01*
X104638380Y-81137142D02*
X104638380Y-80565714D01*
X104638380Y-80851428D02*
X103638380Y-80851428D01*
X103781238Y-80756190D01*
X103876476Y-80660952D01*
X103924095Y-80565714D01*
X103638380Y-81756190D02*
X103638380Y-81851428D01*
X103686000Y-81946666D01*
X103733619Y-81994285D01*
X103828857Y-82041904D01*
X104019333Y-82089523D01*
X104257428Y-82089523D01*
X104447904Y-82041904D01*
X104543142Y-81994285D01*
X104590761Y-81946666D01*
X104638380Y-81851428D01*
X104638380Y-81756190D01*
X104590761Y-81660952D01*
X104543142Y-81613333D01*
X104447904Y-81565714D01*
X104257428Y-81518095D01*
X104019333Y-81518095D01*
X103828857Y-81565714D01*
X103733619Y-81613333D01*
X103686000Y-81660952D01*
X103638380Y-81756190D01*
X104638380Y-83041904D02*
X104638380Y-82470476D01*
X104638380Y-82756190D02*
X103638380Y-82756190D01*
X103781238Y-82660952D01*
X103876476Y-82565714D01*
X103924095Y-82470476D01*
%TO.C,SW101*%
X116440714Y-122451761D02*
X116297857Y-122499380D01*
X116059761Y-122499380D01*
X115964523Y-122451761D01*
X115916904Y-122404142D01*
X115869285Y-122308904D01*
X115869285Y-122213666D01*
X115916904Y-122118428D01*
X115964523Y-122070809D01*
X116059761Y-122023190D01*
X116250238Y-121975571D01*
X116345476Y-121927952D01*
X116393095Y-121880333D01*
X116440714Y-121785095D01*
X116440714Y-121689857D01*
X116393095Y-121594619D01*
X116345476Y-121547000D01*
X116250238Y-121499380D01*
X116012142Y-121499380D01*
X115869285Y-121547000D01*
X115535952Y-121499380D02*
X115297857Y-122499380D01*
X115107380Y-121785095D01*
X114916904Y-122499380D01*
X114678809Y-121499380D01*
X113774047Y-122499380D02*
X114345476Y-122499380D01*
X114059761Y-122499380D02*
X114059761Y-121499380D01*
X114155000Y-121642238D01*
X114250238Y-121737476D01*
X114345476Y-121785095D01*
X113155000Y-121499380D02*
X113059761Y-121499380D01*
X112964523Y-121547000D01*
X112916904Y-121594619D01*
X112869285Y-121689857D01*
X112821666Y-121880333D01*
X112821666Y-122118428D01*
X112869285Y-122308904D01*
X112916904Y-122404142D01*
X112964523Y-122451761D01*
X113059761Y-122499380D01*
X113155000Y-122499380D01*
X113250238Y-122451761D01*
X113297857Y-122404142D01*
X113345476Y-122308904D01*
X113393095Y-122118428D01*
X113393095Y-121880333D01*
X113345476Y-121689857D01*
X113297857Y-121594619D01*
X113250238Y-121547000D01*
X113155000Y-121499380D01*
X111869285Y-122499380D02*
X112440714Y-122499380D01*
X112155000Y-122499380D02*
X112155000Y-121499380D01*
X112250238Y-121642238D01*
X112345476Y-121737476D01*
X112440714Y-121785095D01*
%TO.C,R107*%
X118213047Y-93162380D02*
X118546380Y-92686190D01*
X118784476Y-93162380D02*
X118784476Y-92162380D01*
X118403523Y-92162380D01*
X118308285Y-92210000D01*
X118260666Y-92257619D01*
X118213047Y-92352857D01*
X118213047Y-92495714D01*
X118260666Y-92590952D01*
X118308285Y-92638571D01*
X118403523Y-92686190D01*
X118784476Y-92686190D01*
X117260666Y-93162380D02*
X117832095Y-93162380D01*
X117546380Y-93162380D02*
X117546380Y-92162380D01*
X117641619Y-92305238D01*
X117736857Y-92400476D01*
X117832095Y-92448095D01*
X116641619Y-92162380D02*
X116546380Y-92162380D01*
X116451142Y-92210000D01*
X116403523Y-92257619D01*
X116355904Y-92352857D01*
X116308285Y-92543333D01*
X116308285Y-92781428D01*
X116355904Y-92971904D01*
X116403523Y-93067142D01*
X116451142Y-93114761D01*
X116546380Y-93162380D01*
X116641619Y-93162380D01*
X116736857Y-93114761D01*
X116784476Y-93067142D01*
X116832095Y-92971904D01*
X116879714Y-92781428D01*
X116879714Y-92543333D01*
X116832095Y-92352857D01*
X116784476Y-92257619D01*
X116736857Y-92210000D01*
X116641619Y-92162380D01*
X115974952Y-92162380D02*
X115308285Y-92162380D01*
X115736857Y-93162380D01*
%TO.C,R106*%
X118213047Y-91384380D02*
X118546380Y-90908190D01*
X118784476Y-91384380D02*
X118784476Y-90384380D01*
X118403523Y-90384380D01*
X118308285Y-90432000D01*
X118260666Y-90479619D01*
X118213047Y-90574857D01*
X118213047Y-90717714D01*
X118260666Y-90812952D01*
X118308285Y-90860571D01*
X118403523Y-90908190D01*
X118784476Y-90908190D01*
X117260666Y-91384380D02*
X117832095Y-91384380D01*
X117546380Y-91384380D02*
X117546380Y-90384380D01*
X117641619Y-90527238D01*
X117736857Y-90622476D01*
X117832095Y-90670095D01*
X116641619Y-90384380D02*
X116546380Y-90384380D01*
X116451142Y-90432000D01*
X116403523Y-90479619D01*
X116355904Y-90574857D01*
X116308285Y-90765333D01*
X116308285Y-91003428D01*
X116355904Y-91193904D01*
X116403523Y-91289142D01*
X116451142Y-91336761D01*
X116546380Y-91384380D01*
X116641619Y-91384380D01*
X116736857Y-91336761D01*
X116784476Y-91289142D01*
X116832095Y-91193904D01*
X116879714Y-91003428D01*
X116879714Y-90765333D01*
X116832095Y-90574857D01*
X116784476Y-90479619D01*
X116736857Y-90432000D01*
X116641619Y-90384380D01*
X115451142Y-90384380D02*
X115641619Y-90384380D01*
X115736857Y-90432000D01*
X115784476Y-90479619D01*
X115879714Y-90622476D01*
X115927333Y-90812952D01*
X115927333Y-91193904D01*
X115879714Y-91289142D01*
X115832095Y-91336761D01*
X115736857Y-91384380D01*
X115546380Y-91384380D01*
X115451142Y-91336761D01*
X115403523Y-91289142D01*
X115355904Y-91193904D01*
X115355904Y-90955809D01*
X115403523Y-90860571D01*
X115451142Y-90812952D01*
X115546380Y-90765333D01*
X115736857Y-90765333D01*
X115832095Y-90812952D01*
X115879714Y-90860571D01*
X115927333Y-90955809D01*
%TO.C,R101*%
X114784047Y-121229380D02*
X115117380Y-120753190D01*
X115355476Y-121229380D02*
X115355476Y-120229380D01*
X114974523Y-120229380D01*
X114879285Y-120277000D01*
X114831666Y-120324619D01*
X114784047Y-120419857D01*
X114784047Y-120562714D01*
X114831666Y-120657952D01*
X114879285Y-120705571D01*
X114974523Y-120753190D01*
X115355476Y-120753190D01*
X113831666Y-121229380D02*
X114403095Y-121229380D01*
X114117380Y-121229380D02*
X114117380Y-120229380D01*
X114212619Y-120372238D01*
X114307857Y-120467476D01*
X114403095Y-120515095D01*
X113212619Y-120229380D02*
X113117380Y-120229380D01*
X113022142Y-120277000D01*
X112974523Y-120324619D01*
X112926904Y-120419857D01*
X112879285Y-120610333D01*
X112879285Y-120848428D01*
X112926904Y-121038904D01*
X112974523Y-121134142D01*
X113022142Y-121181761D01*
X113117380Y-121229380D01*
X113212619Y-121229380D01*
X113307857Y-121181761D01*
X113355476Y-121134142D01*
X113403095Y-121038904D01*
X113450714Y-120848428D01*
X113450714Y-120610333D01*
X113403095Y-120419857D01*
X113355476Y-120324619D01*
X113307857Y-120277000D01*
X113212619Y-120229380D01*
X111926904Y-121229380D02*
X112498333Y-121229380D01*
X112212619Y-121229380D02*
X112212619Y-120229380D01*
X112307857Y-120372238D01*
X112403095Y-120467476D01*
X112498333Y-120515095D01*
%TO.C,R6*%
X81732380Y-123150333D02*
X81256190Y-122817000D01*
X81732380Y-122578904D02*
X80732380Y-122578904D01*
X80732380Y-122959857D01*
X80780000Y-123055095D01*
X80827619Y-123102714D01*
X80922857Y-123150333D01*
X81065714Y-123150333D01*
X81160952Y-123102714D01*
X81208571Y-123055095D01*
X81256190Y-122959857D01*
X81256190Y-122578904D01*
X80732380Y-124007476D02*
X80732380Y-123817000D01*
X80780000Y-123721761D01*
X80827619Y-123674142D01*
X80970476Y-123578904D01*
X81160952Y-123531285D01*
X81541904Y-123531285D01*
X81637142Y-123578904D01*
X81684761Y-123626523D01*
X81732380Y-123721761D01*
X81732380Y-123912238D01*
X81684761Y-124007476D01*
X81637142Y-124055095D01*
X81541904Y-124102714D01*
X81303809Y-124102714D01*
X81208571Y-124055095D01*
X81160952Y-124007476D01*
X81113333Y-123912238D01*
X81113333Y-123721761D01*
X81160952Y-123626523D01*
X81208571Y-123578904D01*
X81303809Y-123531285D01*
%TO.C,R5*%
X89629880Y-123150333D02*
X89153690Y-122817000D01*
X89629880Y-122578904D02*
X88629880Y-122578904D01*
X88629880Y-122959857D01*
X88677500Y-123055095D01*
X88725119Y-123102714D01*
X88820357Y-123150333D01*
X88963214Y-123150333D01*
X89058452Y-123102714D01*
X89106071Y-123055095D01*
X89153690Y-122959857D01*
X89153690Y-122578904D01*
X88629880Y-124055095D02*
X88629880Y-123578904D01*
X89106071Y-123531285D01*
X89058452Y-123578904D01*
X89010833Y-123674142D01*
X89010833Y-123912238D01*
X89058452Y-124007476D01*
X89106071Y-124055095D01*
X89201309Y-124102714D01*
X89439404Y-124102714D01*
X89534642Y-124055095D01*
X89582261Y-124007476D01*
X89629880Y-123912238D01*
X89629880Y-123674142D01*
X89582261Y-123578904D01*
X89534642Y-123531285D01*
%TO.C,R1*%
X90495380Y-109053333D02*
X90019190Y-108720000D01*
X90495380Y-108481904D02*
X89495380Y-108481904D01*
X89495380Y-108862857D01*
X89543000Y-108958095D01*
X89590619Y-109005714D01*
X89685857Y-109053333D01*
X89828714Y-109053333D01*
X89923952Y-109005714D01*
X89971571Y-108958095D01*
X90019190Y-108862857D01*
X90019190Y-108481904D01*
X90495380Y-110005714D02*
X90495380Y-109434285D01*
X90495380Y-109720000D02*
X89495380Y-109720000D01*
X89638238Y-109624761D01*
X89733476Y-109529523D01*
X89781095Y-109434285D01*
%TO.C,J103*%
X147451380Y-121777285D02*
X148165666Y-121777285D01*
X148308523Y-121729666D01*
X148403761Y-121634428D01*
X148451380Y-121491571D01*
X148451380Y-121396333D01*
X148451380Y-122777285D02*
X148451380Y-122205857D01*
X148451380Y-122491571D02*
X147451380Y-122491571D01*
X147594238Y-122396333D01*
X147689476Y-122301095D01*
X147737095Y-122205857D01*
X147451380Y-123396333D02*
X147451380Y-123491571D01*
X147499000Y-123586809D01*
X147546619Y-123634428D01*
X147641857Y-123682047D01*
X147832333Y-123729666D01*
X148070428Y-123729666D01*
X148260904Y-123682047D01*
X148356142Y-123634428D01*
X148403761Y-123586809D01*
X148451380Y-123491571D01*
X148451380Y-123396333D01*
X148403761Y-123301095D01*
X148356142Y-123253476D01*
X148260904Y-123205857D01*
X148070428Y-123158238D01*
X147832333Y-123158238D01*
X147641857Y-123205857D01*
X147546619Y-123253476D01*
X147499000Y-123301095D01*
X147451380Y-123396333D01*
X147451380Y-124063000D02*
X147451380Y-124682047D01*
X147832333Y-124348714D01*
X147832333Y-124491571D01*
X147879952Y-124586809D01*
X147927571Y-124634428D01*
X148022809Y-124682047D01*
X148260904Y-124682047D01*
X148356142Y-124634428D01*
X148403761Y-124586809D01*
X148451380Y-124491571D01*
X148451380Y-124205857D01*
X148403761Y-124110619D01*
X148356142Y-124063000D01*
%TO.C,J102*%
X130317714Y-108164380D02*
X130317714Y-108878666D01*
X130365333Y-109021523D01*
X130460571Y-109116761D01*
X130603428Y-109164380D01*
X130698666Y-109164380D01*
X129317714Y-109164380D02*
X129889142Y-109164380D01*
X129603428Y-109164380D02*
X129603428Y-108164380D01*
X129698666Y-108307238D01*
X129793904Y-108402476D01*
X129889142Y-108450095D01*
X128698666Y-108164380D02*
X128603428Y-108164380D01*
X128508190Y-108212000D01*
X128460571Y-108259619D01*
X128412952Y-108354857D01*
X128365333Y-108545333D01*
X128365333Y-108783428D01*
X128412952Y-108973904D01*
X128460571Y-109069142D01*
X128508190Y-109116761D01*
X128603428Y-109164380D01*
X128698666Y-109164380D01*
X128793904Y-109116761D01*
X128841523Y-109069142D01*
X128889142Y-108973904D01*
X128936761Y-108783428D01*
X128936761Y-108545333D01*
X128889142Y-108354857D01*
X128841523Y-108259619D01*
X128793904Y-108212000D01*
X128698666Y-108164380D01*
X127984380Y-108259619D02*
X127936761Y-108212000D01*
X127841523Y-108164380D01*
X127603428Y-108164380D01*
X127508190Y-108212000D01*
X127460571Y-108259619D01*
X127412952Y-108354857D01*
X127412952Y-108450095D01*
X127460571Y-108592952D01*
X128032000Y-109164380D01*
X127412952Y-109164380D01*
%TO.C,J10*%
X134997380Y-72020476D02*
X135711666Y-72020476D01*
X135854523Y-71972857D01*
X135949761Y-71877619D01*
X135997380Y-71734761D01*
X135997380Y-71639523D01*
X135997380Y-73020476D02*
X135997380Y-72449047D01*
X135997380Y-72734761D02*
X134997380Y-72734761D01*
X135140238Y-72639523D01*
X135235476Y-72544285D01*
X135283095Y-72449047D01*
X134997380Y-73639523D02*
X134997380Y-73734761D01*
X135045000Y-73830000D01*
X135092619Y-73877619D01*
X135187857Y-73925238D01*
X135378333Y-73972857D01*
X135616428Y-73972857D01*
X135806904Y-73925238D01*
X135902142Y-73877619D01*
X135949761Y-73830000D01*
X135997380Y-73734761D01*
X135997380Y-73639523D01*
X135949761Y-73544285D01*
X135902142Y-73496666D01*
X135806904Y-73449047D01*
X135616428Y-73401428D01*
X135378333Y-73401428D01*
X135187857Y-73449047D01*
X135092619Y-73496666D01*
X135045000Y-73544285D01*
X134997380Y-73639523D01*
%TO.C,J9*%
X134997380Y-83291666D02*
X135711666Y-83291666D01*
X135854523Y-83244047D01*
X135949761Y-83148809D01*
X135997380Y-83005952D01*
X135997380Y-82910714D01*
X135997380Y-83815476D02*
X135997380Y-84005952D01*
X135949761Y-84101190D01*
X135902142Y-84148809D01*
X135759285Y-84244047D01*
X135568809Y-84291666D01*
X135187857Y-84291666D01*
X135092619Y-84244047D01*
X135045000Y-84196428D01*
X134997380Y-84101190D01*
X134997380Y-83910714D01*
X135045000Y-83815476D01*
X135092619Y-83767857D01*
X135187857Y-83720238D01*
X135425952Y-83720238D01*
X135521190Y-83767857D01*
X135568809Y-83815476D01*
X135616428Y-83910714D01*
X135616428Y-84101190D01*
X135568809Y-84196428D01*
X135521190Y-84244047D01*
X135425952Y-84291666D01*
%TO.C,J8*%
X136223333Y-65492380D02*
X136223333Y-66206666D01*
X136270952Y-66349523D01*
X136366190Y-66444761D01*
X136509047Y-66492380D01*
X136604285Y-66492380D01*
X135604285Y-65920952D02*
X135699523Y-65873333D01*
X135747142Y-65825714D01*
X135794761Y-65730476D01*
X135794761Y-65682857D01*
X135747142Y-65587619D01*
X135699523Y-65540000D01*
X135604285Y-65492380D01*
X135413809Y-65492380D01*
X135318571Y-65540000D01*
X135270952Y-65587619D01*
X135223333Y-65682857D01*
X135223333Y-65730476D01*
X135270952Y-65825714D01*
X135318571Y-65873333D01*
X135413809Y-65920952D01*
X135604285Y-65920952D01*
X135699523Y-65968571D01*
X135747142Y-66016190D01*
X135794761Y-66111428D01*
X135794761Y-66301904D01*
X135747142Y-66397142D01*
X135699523Y-66444761D01*
X135604285Y-66492380D01*
X135413809Y-66492380D01*
X135318571Y-66444761D01*
X135270952Y-66397142D01*
X135223333Y-66301904D01*
X135223333Y-66111428D01*
X135270952Y-66016190D01*
X135318571Y-65968571D01*
X135413809Y-65920952D01*
%TO.C,J7*%
X136223333Y-38187380D02*
X136223333Y-38901666D01*
X136270952Y-39044523D01*
X136366190Y-39139761D01*
X136509047Y-39187380D01*
X136604285Y-39187380D01*
X135842380Y-38187380D02*
X135175714Y-38187380D01*
X135604285Y-39187380D01*
%TO.C,J6*%
X116538333Y-65492380D02*
X116538333Y-66206666D01*
X116585952Y-66349523D01*
X116681190Y-66444761D01*
X116824047Y-66492380D01*
X116919285Y-66492380D01*
X115633571Y-65492380D02*
X115824047Y-65492380D01*
X115919285Y-65540000D01*
X115966904Y-65587619D01*
X116062142Y-65730476D01*
X116109761Y-65920952D01*
X116109761Y-66301904D01*
X116062142Y-66397142D01*
X116014523Y-66444761D01*
X115919285Y-66492380D01*
X115728809Y-66492380D01*
X115633571Y-66444761D01*
X115585952Y-66397142D01*
X115538333Y-66301904D01*
X115538333Y-66063809D01*
X115585952Y-65968571D01*
X115633571Y-65920952D01*
X115728809Y-65873333D01*
X115919285Y-65873333D01*
X116014523Y-65920952D01*
X116062142Y-65968571D01*
X116109761Y-66063809D01*
%TO.C,J5*%
X116538333Y-38187380D02*
X116538333Y-38901666D01*
X116585952Y-39044523D01*
X116681190Y-39139761D01*
X116824047Y-39187380D01*
X116919285Y-39187380D01*
X115585952Y-38187380D02*
X116062142Y-38187380D01*
X116109761Y-38663571D01*
X116062142Y-38615952D01*
X115966904Y-38568333D01*
X115728809Y-38568333D01*
X115633571Y-38615952D01*
X115585952Y-38663571D01*
X115538333Y-38758809D01*
X115538333Y-38996904D01*
X115585952Y-39092142D01*
X115633571Y-39139761D01*
X115728809Y-39187380D01*
X115966904Y-39187380D01*
X116062142Y-39139761D01*
X116109761Y-39092142D01*
%TO.C,J4*%
X96853333Y-65492380D02*
X96853333Y-66206666D01*
X96900952Y-66349523D01*
X96996190Y-66444761D01*
X97139047Y-66492380D01*
X97234285Y-66492380D01*
X95948571Y-65825714D02*
X95948571Y-66492380D01*
X96186666Y-65444761D02*
X96424761Y-66159047D01*
X95805714Y-66159047D01*
%TO.C,J3*%
X96853333Y-38187380D02*
X96853333Y-38901666D01*
X96900952Y-39044523D01*
X96996190Y-39139761D01*
X97139047Y-39187380D01*
X97234285Y-39187380D01*
X96472380Y-38187380D02*
X95853333Y-38187380D01*
X96186666Y-38568333D01*
X96043809Y-38568333D01*
X95948571Y-38615952D01*
X95900952Y-38663571D01*
X95853333Y-38758809D01*
X95853333Y-38996904D01*
X95900952Y-39092142D01*
X95948571Y-39139761D01*
X96043809Y-39187380D01*
X96329523Y-39187380D01*
X96424761Y-39139761D01*
X96472380Y-39092142D01*
%TO.C,J2*%
X135052380Y-93251666D02*
X135766666Y-93251666D01*
X135909523Y-93204047D01*
X136004761Y-93108809D01*
X136052380Y-92965952D01*
X136052380Y-92870714D01*
X135147619Y-93680238D02*
X135100000Y-93727857D01*
X135052380Y-93823095D01*
X135052380Y-94061190D01*
X135100000Y-94156428D01*
X135147619Y-94204047D01*
X135242857Y-94251666D01*
X135338095Y-94251666D01*
X135480952Y-94204047D01*
X136052380Y-93632619D01*
X136052380Y-94251666D01*
%TO.C,C108*%
X117131047Y-118057142D02*
X117178666Y-118104761D01*
X117321523Y-118152380D01*
X117416761Y-118152380D01*
X117559619Y-118104761D01*
X117654857Y-118009523D01*
X117702476Y-117914285D01*
X117750095Y-117723809D01*
X117750095Y-117580952D01*
X117702476Y-117390476D01*
X117654857Y-117295238D01*
X117559619Y-117200000D01*
X117416761Y-117152380D01*
X117321523Y-117152380D01*
X117178666Y-117200000D01*
X117131047Y-117247619D01*
X116178666Y-118152380D02*
X116750095Y-118152380D01*
X116464380Y-118152380D02*
X116464380Y-117152380D01*
X116559619Y-117295238D01*
X116654857Y-117390476D01*
X116750095Y-117438095D01*
X115559619Y-117152380D02*
X115464380Y-117152380D01*
X115369142Y-117200000D01*
X115321523Y-117247619D01*
X115273904Y-117342857D01*
X115226285Y-117533333D01*
X115226285Y-117771428D01*
X115273904Y-117961904D01*
X115321523Y-118057142D01*
X115369142Y-118104761D01*
X115464380Y-118152380D01*
X115559619Y-118152380D01*
X115654857Y-118104761D01*
X115702476Y-118057142D01*
X115750095Y-117961904D01*
X115797714Y-117771428D01*
X115797714Y-117533333D01*
X115750095Y-117342857D01*
X115702476Y-117247619D01*
X115654857Y-117200000D01*
X115559619Y-117152380D01*
X114654857Y-117580952D02*
X114750095Y-117533333D01*
X114797714Y-117485714D01*
X114845333Y-117390476D01*
X114845333Y-117342857D01*
X114797714Y-117247619D01*
X114750095Y-117200000D01*
X114654857Y-117152380D01*
X114464380Y-117152380D01*
X114369142Y-117200000D01*
X114321523Y-117247619D01*
X114273904Y-117342857D01*
X114273904Y-117390476D01*
X114321523Y-117485714D01*
X114369142Y-117533333D01*
X114464380Y-117580952D01*
X114654857Y-117580952D01*
X114750095Y-117628571D01*
X114797714Y-117676190D01*
X114845333Y-117771428D01*
X114845333Y-117961904D01*
X114797714Y-118057142D01*
X114750095Y-118104761D01*
X114654857Y-118152380D01*
X114464380Y-118152380D01*
X114369142Y-118104761D01*
X114321523Y-118057142D01*
X114273904Y-117961904D01*
X114273904Y-117771428D01*
X114321523Y-117676190D01*
X114369142Y-117628571D01*
X114464380Y-117580952D01*
%TO.C,C107*%
X124629047Y-112498142D02*
X124676666Y-112545761D01*
X124819523Y-112593380D01*
X124914761Y-112593380D01*
X125057619Y-112545761D01*
X125152857Y-112450523D01*
X125200476Y-112355285D01*
X125248095Y-112164809D01*
X125248095Y-112021952D01*
X125200476Y-111831476D01*
X125152857Y-111736238D01*
X125057619Y-111641000D01*
X124914761Y-111593380D01*
X124819523Y-111593380D01*
X124676666Y-111641000D01*
X124629047Y-111688619D01*
X123676666Y-112593380D02*
X124248095Y-112593380D01*
X123962380Y-112593380D02*
X123962380Y-111593380D01*
X124057619Y-111736238D01*
X124152857Y-111831476D01*
X124248095Y-111879095D01*
X123057619Y-111593380D02*
X122962380Y-111593380D01*
X122867142Y-111641000D01*
X122819523Y-111688619D01*
X122771904Y-111783857D01*
X122724285Y-111974333D01*
X122724285Y-112212428D01*
X122771904Y-112402904D01*
X122819523Y-112498142D01*
X122867142Y-112545761D01*
X122962380Y-112593380D01*
X123057619Y-112593380D01*
X123152857Y-112545761D01*
X123200476Y-112498142D01*
X123248095Y-112402904D01*
X123295714Y-112212428D01*
X123295714Y-111974333D01*
X123248095Y-111783857D01*
X123200476Y-111688619D01*
X123152857Y-111641000D01*
X123057619Y-111593380D01*
X122390952Y-111593380D02*
X121724285Y-111593380D01*
X122152857Y-112593380D01*
%TO.C,C106*%
X126849142Y-110386952D02*
X126896761Y-110339333D01*
X126944380Y-110196476D01*
X126944380Y-110101238D01*
X126896761Y-109958380D01*
X126801523Y-109863142D01*
X126706285Y-109815523D01*
X126515809Y-109767904D01*
X126372952Y-109767904D01*
X126182476Y-109815523D01*
X126087238Y-109863142D01*
X125992000Y-109958380D01*
X125944380Y-110101238D01*
X125944380Y-110196476D01*
X125992000Y-110339333D01*
X126039619Y-110386952D01*
X126944380Y-111339333D02*
X126944380Y-110767904D01*
X126944380Y-111053619D02*
X125944380Y-111053619D01*
X126087238Y-110958380D01*
X126182476Y-110863142D01*
X126230095Y-110767904D01*
X125944380Y-111958380D02*
X125944380Y-112053619D01*
X125992000Y-112148857D01*
X126039619Y-112196476D01*
X126134857Y-112244095D01*
X126325333Y-112291714D01*
X126563428Y-112291714D01*
X126753904Y-112244095D01*
X126849142Y-112196476D01*
X126896761Y-112148857D01*
X126944380Y-112053619D01*
X126944380Y-111958380D01*
X126896761Y-111863142D01*
X126849142Y-111815523D01*
X126753904Y-111767904D01*
X126563428Y-111720285D01*
X126325333Y-111720285D01*
X126134857Y-111767904D01*
X126039619Y-111815523D01*
X125992000Y-111863142D01*
X125944380Y-111958380D01*
X125944380Y-113148857D02*
X125944380Y-112958380D01*
X125992000Y-112863142D01*
X126039619Y-112815523D01*
X126182476Y-112720285D01*
X126372952Y-112672666D01*
X126753904Y-112672666D01*
X126849142Y-112720285D01*
X126896761Y-112767904D01*
X126944380Y-112863142D01*
X126944380Y-113053619D01*
X126896761Y-113148857D01*
X126849142Y-113196476D01*
X126753904Y-113244095D01*
X126515809Y-113244095D01*
X126420571Y-113196476D01*
X126372952Y-113148857D01*
X126325333Y-113053619D01*
X126325333Y-112863142D01*
X126372952Y-112767904D01*
X126420571Y-112720285D01*
X126515809Y-112672666D01*
%TO.C,C105*%
X104248047Y-121388142D02*
X104295666Y-121435761D01*
X104438523Y-121483380D01*
X104533761Y-121483380D01*
X104676619Y-121435761D01*
X104771857Y-121340523D01*
X104819476Y-121245285D01*
X104867095Y-121054809D01*
X104867095Y-120911952D01*
X104819476Y-120721476D01*
X104771857Y-120626238D01*
X104676619Y-120531000D01*
X104533761Y-120483380D01*
X104438523Y-120483380D01*
X104295666Y-120531000D01*
X104248047Y-120578619D01*
X103295666Y-121483380D02*
X103867095Y-121483380D01*
X103581380Y-121483380D02*
X103581380Y-120483380D01*
X103676619Y-120626238D01*
X103771857Y-120721476D01*
X103867095Y-120769095D01*
X102676619Y-120483380D02*
X102581380Y-120483380D01*
X102486142Y-120531000D01*
X102438523Y-120578619D01*
X102390904Y-120673857D01*
X102343285Y-120864333D01*
X102343285Y-121102428D01*
X102390904Y-121292904D01*
X102438523Y-121388142D01*
X102486142Y-121435761D01*
X102581380Y-121483380D01*
X102676619Y-121483380D01*
X102771857Y-121435761D01*
X102819476Y-121388142D01*
X102867095Y-121292904D01*
X102914714Y-121102428D01*
X102914714Y-120864333D01*
X102867095Y-120673857D01*
X102819476Y-120578619D01*
X102771857Y-120531000D01*
X102676619Y-120483380D01*
X101438523Y-120483380D02*
X101914714Y-120483380D01*
X101962333Y-120959571D01*
X101914714Y-120911952D01*
X101819476Y-120864333D01*
X101581380Y-120864333D01*
X101486142Y-120911952D01*
X101438523Y-120959571D01*
X101390904Y-121054809D01*
X101390904Y-121292904D01*
X101438523Y-121388142D01*
X101486142Y-121435761D01*
X101581380Y-121483380D01*
X101819476Y-121483380D01*
X101914714Y-121435761D01*
X101962333Y-121388142D01*
%TO.C,C104*%
X110847142Y-91082952D02*
X110894761Y-91035333D01*
X110942380Y-90892476D01*
X110942380Y-90797238D01*
X110894761Y-90654380D01*
X110799523Y-90559142D01*
X110704285Y-90511523D01*
X110513809Y-90463904D01*
X110370952Y-90463904D01*
X110180476Y-90511523D01*
X110085238Y-90559142D01*
X109990000Y-90654380D01*
X109942380Y-90797238D01*
X109942380Y-90892476D01*
X109990000Y-91035333D01*
X110037619Y-91082952D01*
X110942380Y-92035333D02*
X110942380Y-91463904D01*
X110942380Y-91749619D02*
X109942380Y-91749619D01*
X110085238Y-91654380D01*
X110180476Y-91559142D01*
X110228095Y-91463904D01*
X109942380Y-92654380D02*
X109942380Y-92749619D01*
X109990000Y-92844857D01*
X110037619Y-92892476D01*
X110132857Y-92940095D01*
X110323333Y-92987714D01*
X110561428Y-92987714D01*
X110751904Y-92940095D01*
X110847142Y-92892476D01*
X110894761Y-92844857D01*
X110942380Y-92749619D01*
X110942380Y-92654380D01*
X110894761Y-92559142D01*
X110847142Y-92511523D01*
X110751904Y-92463904D01*
X110561428Y-92416285D01*
X110323333Y-92416285D01*
X110132857Y-92463904D01*
X110037619Y-92511523D01*
X109990000Y-92559142D01*
X109942380Y-92654380D01*
X110275714Y-93844857D02*
X110942380Y-93844857D01*
X109894761Y-93606761D02*
X110609047Y-93368666D01*
X110609047Y-93987714D01*
%TO.C,C103*%
X107672047Y-75160142D02*
X107719666Y-75207761D01*
X107862523Y-75255380D01*
X107957761Y-75255380D01*
X108100619Y-75207761D01*
X108195857Y-75112523D01*
X108243476Y-75017285D01*
X108291095Y-74826809D01*
X108291095Y-74683952D01*
X108243476Y-74493476D01*
X108195857Y-74398238D01*
X108100619Y-74303000D01*
X107957761Y-74255380D01*
X107862523Y-74255380D01*
X107719666Y-74303000D01*
X107672047Y-74350619D01*
X106719666Y-75255380D02*
X107291095Y-75255380D01*
X107005380Y-75255380D02*
X107005380Y-74255380D01*
X107100619Y-74398238D01*
X107195857Y-74493476D01*
X107291095Y-74541095D01*
X106100619Y-74255380D02*
X106005380Y-74255380D01*
X105910142Y-74303000D01*
X105862523Y-74350619D01*
X105814904Y-74445857D01*
X105767285Y-74636333D01*
X105767285Y-74874428D01*
X105814904Y-75064904D01*
X105862523Y-75160142D01*
X105910142Y-75207761D01*
X106005380Y-75255380D01*
X106100619Y-75255380D01*
X106195857Y-75207761D01*
X106243476Y-75160142D01*
X106291095Y-75064904D01*
X106338714Y-74874428D01*
X106338714Y-74636333D01*
X106291095Y-74445857D01*
X106243476Y-74350619D01*
X106195857Y-74303000D01*
X106100619Y-74255380D01*
X105433952Y-74255380D02*
X104814904Y-74255380D01*
X105148238Y-74636333D01*
X105005380Y-74636333D01*
X104910142Y-74683952D01*
X104862523Y-74731571D01*
X104814904Y-74826809D01*
X104814904Y-75064904D01*
X104862523Y-75160142D01*
X104910142Y-75207761D01*
X105005380Y-75255380D01*
X105291095Y-75255380D01*
X105386333Y-75207761D01*
X105433952Y-75160142D01*
%TO.C,C102*%
X107418047Y-70842142D02*
X107465666Y-70889761D01*
X107608523Y-70937380D01*
X107703761Y-70937380D01*
X107846619Y-70889761D01*
X107941857Y-70794523D01*
X107989476Y-70699285D01*
X108037095Y-70508809D01*
X108037095Y-70365952D01*
X107989476Y-70175476D01*
X107941857Y-70080238D01*
X107846619Y-69985000D01*
X107703761Y-69937380D01*
X107608523Y-69937380D01*
X107465666Y-69985000D01*
X107418047Y-70032619D01*
X106465666Y-70937380D02*
X107037095Y-70937380D01*
X106751380Y-70937380D02*
X106751380Y-69937380D01*
X106846619Y-70080238D01*
X106941857Y-70175476D01*
X107037095Y-70223095D01*
X105846619Y-69937380D02*
X105751380Y-69937380D01*
X105656142Y-69985000D01*
X105608523Y-70032619D01*
X105560904Y-70127857D01*
X105513285Y-70318333D01*
X105513285Y-70556428D01*
X105560904Y-70746904D01*
X105608523Y-70842142D01*
X105656142Y-70889761D01*
X105751380Y-70937380D01*
X105846619Y-70937380D01*
X105941857Y-70889761D01*
X105989476Y-70842142D01*
X106037095Y-70746904D01*
X106084714Y-70556428D01*
X106084714Y-70318333D01*
X106037095Y-70127857D01*
X105989476Y-70032619D01*
X105941857Y-69985000D01*
X105846619Y-69937380D01*
X105132333Y-70032619D02*
X105084714Y-69985000D01*
X104989476Y-69937380D01*
X104751380Y-69937380D01*
X104656142Y-69985000D01*
X104608523Y-70032619D01*
X104560904Y-70127857D01*
X104560904Y-70223095D01*
X104608523Y-70365952D01*
X105179952Y-70937380D01*
X104560904Y-70937380D01*
%TO.C,C101*%
X107418047Y-72874142D02*
X107465666Y-72921761D01*
X107608523Y-72969380D01*
X107703761Y-72969380D01*
X107846619Y-72921761D01*
X107941857Y-72826523D01*
X107989476Y-72731285D01*
X108037095Y-72540809D01*
X108037095Y-72397952D01*
X107989476Y-72207476D01*
X107941857Y-72112238D01*
X107846619Y-72017000D01*
X107703761Y-71969380D01*
X107608523Y-71969380D01*
X107465666Y-72017000D01*
X107418047Y-72064619D01*
X106465666Y-72969380D02*
X107037095Y-72969380D01*
X106751380Y-72969380D02*
X106751380Y-71969380D01*
X106846619Y-72112238D01*
X106941857Y-72207476D01*
X107037095Y-72255095D01*
X105846619Y-71969380D02*
X105751380Y-71969380D01*
X105656142Y-72017000D01*
X105608523Y-72064619D01*
X105560904Y-72159857D01*
X105513285Y-72350333D01*
X105513285Y-72588428D01*
X105560904Y-72778904D01*
X105608523Y-72874142D01*
X105656142Y-72921761D01*
X105751380Y-72969380D01*
X105846619Y-72969380D01*
X105941857Y-72921761D01*
X105989476Y-72874142D01*
X106037095Y-72778904D01*
X106084714Y-72588428D01*
X106084714Y-72350333D01*
X106037095Y-72159857D01*
X105989476Y-72064619D01*
X105941857Y-72017000D01*
X105846619Y-71969380D01*
X104560904Y-72969380D02*
X105132333Y-72969380D01*
X104846619Y-72969380D02*
X104846619Y-71969380D01*
X104941857Y-72112238D01*
X105037095Y-72207476D01*
X105132333Y-72255095D01*
%TO.C,C7*%
X106338666Y-96503142D02*
X106386285Y-96550761D01*
X106529142Y-96598380D01*
X106624380Y-96598380D01*
X106767238Y-96550761D01*
X106862476Y-96455523D01*
X106910095Y-96360285D01*
X106957714Y-96169809D01*
X106957714Y-96026952D01*
X106910095Y-95836476D01*
X106862476Y-95741238D01*
X106767238Y-95646000D01*
X106624380Y-95598380D01*
X106529142Y-95598380D01*
X106386285Y-95646000D01*
X106338666Y-95693619D01*
X106005333Y-95598380D02*
X105338666Y-95598380D01*
X105767238Y-96598380D01*
%TD*%
M02*
