%TF.GenerationSoftware,KiCad,Pcbnew,(5.1.9)-1*%
%TF.CreationDate,2021-04-20T21:45:39+08:00*%
%TF.ProjectId,CSPS2ATX2.0,43535053-3241-4545-9832-2e302e6b6963,V2.0*%
%TF.SameCoordinates,Original*%
%TF.FileFunction,Soldermask,Top*%
%TF.FilePolarity,Negative*%
%FSLAX46Y46*%
G04 Gerber Fmt 4.6, Leading zero omitted, Abs format (unit mm)*
G04 Created by KiCad (PCBNEW (5.1.9)-1) date 2021-04-20 21:45:39*
%MOMM*%
%LPD*%
G01*
G04 APERTURE LIST*
%ADD10C,0.150000*%
%ADD11C,0.300000*%
%ADD12C,0.600000*%
%ADD13O,0.900000X1.700000*%
%ADD14O,0.900000X2.000000*%
%ADD15O,1.700000X1.700000*%
%ADD16R,1.700000X1.700000*%
%ADD17R,0.700000X0.600000*%
%ADD18R,2.600000X4.500000*%
%ADD19C,0.100000*%
%ADD20R,1.500000X1.000000*%
%ADD21O,3.700000X2.700000*%
%ADD22O,2.700000X3.700000*%
%ADD23O,2.080000X1.700000*%
%ADD24C,1.700000*%
%ADD25C,2.600000*%
%ADD26C,0.254000*%
G04 APERTURE END LIST*
D10*
X112259333Y-53078000D02*
X112192666Y-53144666D01*
X111992666Y-53211333D01*
X111859333Y-53211333D01*
X111659333Y-53144666D01*
X111526000Y-53011333D01*
X111459333Y-52878000D01*
X111392666Y-52611333D01*
X111392666Y-52411333D01*
X111459333Y-52144666D01*
X111526000Y-52011333D01*
X111659333Y-51878000D01*
X111859333Y-51811333D01*
X111992666Y-51811333D01*
X112192666Y-51878000D01*
X112259333Y-51944666D01*
X112792666Y-53144666D02*
X112992666Y-53211333D01*
X113326000Y-53211333D01*
X113459333Y-53144666D01*
X113526000Y-53078000D01*
X113592666Y-52944666D01*
X113592666Y-52811333D01*
X113526000Y-52678000D01*
X113459333Y-52611333D01*
X113326000Y-52544666D01*
X113059333Y-52478000D01*
X112926000Y-52411333D01*
X112859333Y-52344666D01*
X112792666Y-52211333D01*
X112792666Y-52078000D01*
X112859333Y-51944666D01*
X112926000Y-51878000D01*
X113059333Y-51811333D01*
X113392666Y-51811333D01*
X113592666Y-51878000D01*
X114192666Y-53211333D02*
X114192666Y-51811333D01*
X114726000Y-51811333D01*
X114859333Y-51878000D01*
X114926000Y-51944666D01*
X114992666Y-52078000D01*
X114992666Y-52278000D01*
X114926000Y-52411333D01*
X114859333Y-52478000D01*
X114726000Y-52544666D01*
X114192666Y-52544666D01*
X115526000Y-53144666D02*
X115726000Y-53211333D01*
X116059333Y-53211333D01*
X116192666Y-53144666D01*
X116259333Y-53078000D01*
X116326000Y-52944666D01*
X116326000Y-52811333D01*
X116259333Y-52678000D01*
X116192666Y-52611333D01*
X116059333Y-52544666D01*
X115792666Y-52478000D01*
X115659333Y-52411333D01*
X115592666Y-52344666D01*
X115526000Y-52211333D01*
X115526000Y-52078000D01*
X115592666Y-51944666D01*
X115659333Y-51878000D01*
X115792666Y-51811333D01*
X116126000Y-51811333D01*
X116326000Y-51878000D01*
X116859333Y-51944666D02*
X116926000Y-51878000D01*
X117059333Y-51811333D01*
X117392666Y-51811333D01*
X117526000Y-51878000D01*
X117592666Y-51944666D01*
X117659333Y-52078000D01*
X117659333Y-52211333D01*
X117592666Y-52411333D01*
X116792666Y-53211333D01*
X117659333Y-53211333D01*
X118192666Y-52811333D02*
X118859333Y-52811333D01*
X118059333Y-53211333D02*
X118526000Y-51811333D01*
X118992666Y-53211333D01*
X119259333Y-51811333D02*
X120059333Y-51811333D01*
X119659333Y-53211333D02*
X119659333Y-51811333D01*
X120392666Y-51811333D02*
X121326000Y-53211333D01*
X121326000Y-51811333D02*
X120392666Y-53211333D01*
X121526000Y-53344666D02*
X122592666Y-53344666D01*
X122726000Y-51811333D02*
X123192666Y-53211333D01*
X123659333Y-51811333D01*
X124059333Y-51944666D02*
X124126000Y-51878000D01*
X124259333Y-51811333D01*
X124592666Y-51811333D01*
X124726000Y-51878000D01*
X124792666Y-51944666D01*
X124859333Y-52078000D01*
X124859333Y-52211333D01*
X124792666Y-52411333D01*
X123992666Y-53211333D01*
X124859333Y-53211333D01*
X125459333Y-53078000D02*
X125526000Y-53144666D01*
X125459333Y-53211333D01*
X125392666Y-53144666D01*
X125459333Y-53078000D01*
X125459333Y-53211333D01*
X126392666Y-51811333D02*
X126526000Y-51811333D01*
X126659333Y-51878000D01*
X126726000Y-51944666D01*
X126792666Y-52078000D01*
X126859333Y-52344666D01*
X126859333Y-52678000D01*
X126792666Y-52944666D01*
X126726000Y-53078000D01*
X126659333Y-53144666D01*
X126526000Y-53211333D01*
X126392666Y-53211333D01*
X126259333Y-53144666D01*
X126192666Y-53078000D01*
X126126000Y-52944666D01*
X126059333Y-52678000D01*
X126059333Y-52344666D01*
X126126000Y-52078000D01*
X126192666Y-51944666D01*
X126259333Y-51878000D01*
X126392666Y-51811333D01*
D11*
X93377428Y-53482761D02*
X93377428Y-51482761D01*
X94520285Y-53482761D02*
X93663142Y-52339904D01*
X94520285Y-51482761D02*
X93377428Y-52625619D01*
X96520285Y-53292285D02*
X96425047Y-53387523D01*
X96139333Y-53482761D01*
X95948857Y-53482761D01*
X95663142Y-53387523D01*
X95472666Y-53197047D01*
X95377428Y-53006571D01*
X95282190Y-52625619D01*
X95282190Y-52339904D01*
X95377428Y-51958952D01*
X95472666Y-51768476D01*
X95663142Y-51578000D01*
X95948857Y-51482761D01*
X96139333Y-51482761D01*
X96425047Y-51578000D01*
X96520285Y-51673238D01*
X97758380Y-51482761D02*
X98139333Y-51482761D01*
X98329809Y-51578000D01*
X98520285Y-51768476D01*
X98615523Y-52149428D01*
X98615523Y-52816095D01*
X98520285Y-53197047D01*
X98329809Y-53387523D01*
X98139333Y-53482761D01*
X97758380Y-53482761D01*
X97567904Y-53387523D01*
X97377428Y-53197047D01*
X97282190Y-52816095D01*
X97282190Y-52149428D01*
X97377428Y-51768476D01*
X97567904Y-51578000D01*
X97758380Y-51482761D01*
X100615523Y-53482761D02*
X99948857Y-52530380D01*
X99472666Y-53482761D02*
X99472666Y-51482761D01*
X100234571Y-51482761D01*
X100425047Y-51578000D01*
X100520285Y-51673238D01*
X100615523Y-51863714D01*
X100615523Y-52149428D01*
X100520285Y-52339904D01*
X100425047Y-52435142D01*
X100234571Y-52530380D01*
X99472666Y-52530380D01*
X101472666Y-52435142D02*
X102139333Y-52435142D01*
X102425047Y-53482761D02*
X101472666Y-53482761D01*
X101472666Y-51482761D01*
X102425047Y-51482761D01*
X103186952Y-53387523D02*
X103472666Y-53482761D01*
X103948857Y-53482761D01*
X104139333Y-53387523D01*
X104234571Y-53292285D01*
X104329809Y-53101809D01*
X104329809Y-52911333D01*
X104234571Y-52720857D01*
X104139333Y-52625619D01*
X103948857Y-52530380D01*
X103567904Y-52435142D01*
X103377428Y-52339904D01*
X103282190Y-52244666D01*
X103186952Y-52054190D01*
X103186952Y-51863714D01*
X103282190Y-51673238D01*
X103377428Y-51578000D01*
X103567904Y-51482761D01*
X104044095Y-51482761D01*
X104329809Y-51578000D01*
D12*
%TO.C,J101*%
X133700000Y-119327000D03*
X127920000Y-119327000D03*
D13*
X126490000Y-123017000D03*
X135130000Y-123017000D03*
D14*
X126490000Y-118847000D03*
X135130000Y-118847000D03*
%TD*%
D15*
%TO.C,J104*%
X92837000Y-123317000D03*
X95377000Y-123317000D03*
X97917000Y-123317000D03*
D16*
X100457000Y-123317000D03*
%TD*%
D17*
%TO.C,D2*%
X131318000Y-101095000D03*
X131318000Y-99695000D03*
%TD*%
%TO.C,D1*%
X132842000Y-101095000D03*
X132842000Y-99695000D03*
%TD*%
D18*
%TO.C,U3*%
X113210000Y-119420000D03*
X109810000Y-119420000D03*
X120500000Y-119420000D03*
X109810000Y-100330000D03*
X113610000Y-100330000D03*
X120510000Y-100330000D03*
%TD*%
%TO.C,U2*%
X106350000Y-72985000D03*
X109750000Y-72985000D03*
X99060000Y-72985000D03*
X109750000Y-92075000D03*
X105950000Y-92075000D03*
X99050000Y-92075000D03*
%TD*%
%TO.C,R10*%
G36*
G01*
X111906000Y-123640002D02*
X111906000Y-122739998D01*
G75*
G02*
X112155998Y-122490000I249998J0D01*
G01*
X112681002Y-122490000D01*
G75*
G02*
X112931000Y-122739998I0J-249998D01*
G01*
X112931000Y-123640002D01*
G75*
G02*
X112681002Y-123890000I-249998J0D01*
G01*
X112155998Y-123890000D01*
G75*
G02*
X111906000Y-123640002I0J249998D01*
G01*
G37*
G36*
G01*
X110081000Y-123640002D02*
X110081000Y-122739998D01*
G75*
G02*
X110330998Y-122490000I249998J0D01*
G01*
X110856002Y-122490000D01*
G75*
G02*
X111106000Y-122739998I0J-249998D01*
G01*
X111106000Y-123640002D01*
G75*
G02*
X110856002Y-123890000I-249998J0D01*
G01*
X110330998Y-123890000D01*
G75*
G02*
X110081000Y-123640002I0J249998D01*
G01*
G37*
%TD*%
%TO.C,R8*%
G36*
G01*
X108477000Y-69665002D02*
X108477000Y-68764998D01*
G75*
G02*
X108726998Y-68515000I249998J0D01*
G01*
X109252002Y-68515000D01*
G75*
G02*
X109502000Y-68764998I0J-249998D01*
G01*
X109502000Y-69665002D01*
G75*
G02*
X109252002Y-69915000I-249998J0D01*
G01*
X108726998Y-69915000D01*
G75*
G02*
X108477000Y-69665002I0J249998D01*
G01*
G37*
G36*
G01*
X106652000Y-69665002D02*
X106652000Y-68764998D01*
G75*
G02*
X106901998Y-68515000I249998J0D01*
G01*
X107427002Y-68515000D01*
G75*
G02*
X107677000Y-68764998I0J-249998D01*
G01*
X107677000Y-69665002D01*
G75*
G02*
X107427002Y-69915000I-249998J0D01*
G01*
X106901998Y-69915000D01*
G75*
G02*
X106652000Y-69665002I0J249998D01*
G01*
G37*
%TD*%
%TO.C,C6*%
G36*
G01*
X117840000Y-87400000D02*
X115840000Y-87400000D01*
G75*
G02*
X115590000Y-87150000I0J250000D01*
G01*
X115590000Y-84150000D01*
G75*
G02*
X115840000Y-83900000I250000J0D01*
G01*
X117840000Y-83900000D01*
G75*
G02*
X118090000Y-84150000I0J-250000D01*
G01*
X118090000Y-87150000D01*
G75*
G02*
X117840000Y-87400000I-250000J0D01*
G01*
G37*
G36*
G01*
X117840000Y-93900000D02*
X115840000Y-93900000D01*
G75*
G02*
X115590000Y-93650000I0J250000D01*
G01*
X115590000Y-90650000D01*
G75*
G02*
X115840000Y-90400000I250000J0D01*
G01*
X117840000Y-90400000D01*
G75*
G02*
X118090000Y-90650000I0J-250000D01*
G01*
X118090000Y-93650000D01*
G75*
G02*
X117840000Y-93900000I-250000J0D01*
G01*
G37*
%TD*%
%TO.C,C5*%
G36*
G01*
X103235000Y-114070000D02*
X101235000Y-114070000D01*
G75*
G02*
X100985000Y-113820000I0J250000D01*
G01*
X100985000Y-110820000D01*
G75*
G02*
X101235000Y-110570000I250000J0D01*
G01*
X103235000Y-110570000D01*
G75*
G02*
X103485000Y-110820000I0J-250000D01*
G01*
X103485000Y-113820000D01*
G75*
G02*
X103235000Y-114070000I-250000J0D01*
G01*
G37*
G36*
G01*
X103235000Y-120570000D02*
X101235000Y-120570000D01*
G75*
G02*
X100985000Y-120320000I0J250000D01*
G01*
X100985000Y-117320000D01*
G75*
G02*
X101235000Y-117070000I250000J0D01*
G01*
X103235000Y-117070000D01*
G75*
G02*
X103485000Y-117320000I0J-250000D01*
G01*
X103485000Y-120320000D01*
G75*
G02*
X103235000Y-120570000I-250000J0D01*
G01*
G37*
%TD*%
%TO.C,C4*%
G36*
G01*
X117840000Y-74700000D02*
X115840000Y-74700000D01*
G75*
G02*
X115590000Y-74450000I0J250000D01*
G01*
X115590000Y-71450000D01*
G75*
G02*
X115840000Y-71200000I250000J0D01*
G01*
X117840000Y-71200000D01*
G75*
G02*
X118090000Y-71450000I0J-250000D01*
G01*
X118090000Y-74450000D01*
G75*
G02*
X117840000Y-74700000I-250000J0D01*
G01*
G37*
G36*
G01*
X117840000Y-81200000D02*
X115840000Y-81200000D01*
G75*
G02*
X115590000Y-80950000I0J250000D01*
G01*
X115590000Y-77950000D01*
G75*
G02*
X115840000Y-77700000I250000J0D01*
G01*
X117840000Y-77700000D01*
G75*
G02*
X118090000Y-77950000I0J-250000D01*
G01*
X118090000Y-80950000D01*
G75*
G02*
X117840000Y-81200000I-250000J0D01*
G01*
G37*
%TD*%
%TO.C,C3*%
G36*
G01*
X101235000Y-105005000D02*
X103235000Y-105005000D01*
G75*
G02*
X103485000Y-105255000I0J-250000D01*
G01*
X103485000Y-108255000D01*
G75*
G02*
X103235000Y-108505000I-250000J0D01*
G01*
X101235000Y-108505000D01*
G75*
G02*
X100985000Y-108255000I0J250000D01*
G01*
X100985000Y-105255000D01*
G75*
G02*
X101235000Y-105005000I250000J0D01*
G01*
G37*
G36*
G01*
X101235000Y-98505000D02*
X103235000Y-98505000D01*
G75*
G02*
X103485000Y-98755000I0J-250000D01*
G01*
X103485000Y-101755000D01*
G75*
G02*
X103235000Y-102005000I-250000J0D01*
G01*
X101235000Y-102005000D01*
G75*
G02*
X100985000Y-101755000I0J250000D01*
G01*
X100985000Y-98755000D01*
G75*
G02*
X101235000Y-98505000I250000J0D01*
G01*
G37*
%TD*%
%TO.C,U1*%
G36*
G01*
X126769000Y-104037000D02*
X126469000Y-104037000D01*
G75*
G02*
X126319000Y-103887000I0J150000D01*
G01*
X126319000Y-102237000D01*
G75*
G02*
X126469000Y-102087000I150000J0D01*
G01*
X126769000Y-102087000D01*
G75*
G02*
X126919000Y-102237000I0J-150000D01*
G01*
X126919000Y-103887000D01*
G75*
G02*
X126769000Y-104037000I-150000J0D01*
G01*
G37*
G36*
G01*
X128039000Y-104037000D02*
X127739000Y-104037000D01*
G75*
G02*
X127589000Y-103887000I0J150000D01*
G01*
X127589000Y-102237000D01*
G75*
G02*
X127739000Y-102087000I150000J0D01*
G01*
X128039000Y-102087000D01*
G75*
G02*
X128189000Y-102237000I0J-150000D01*
G01*
X128189000Y-103887000D01*
G75*
G02*
X128039000Y-104037000I-150000J0D01*
G01*
G37*
G36*
G01*
X129309000Y-104037000D02*
X129009000Y-104037000D01*
G75*
G02*
X128859000Y-103887000I0J150000D01*
G01*
X128859000Y-102237000D01*
G75*
G02*
X129009000Y-102087000I150000J0D01*
G01*
X129309000Y-102087000D01*
G75*
G02*
X129459000Y-102237000I0J-150000D01*
G01*
X129459000Y-103887000D01*
G75*
G02*
X129309000Y-104037000I-150000J0D01*
G01*
G37*
G36*
G01*
X130579000Y-104037000D02*
X130279000Y-104037000D01*
G75*
G02*
X130129000Y-103887000I0J150000D01*
G01*
X130129000Y-102237000D01*
G75*
G02*
X130279000Y-102087000I150000J0D01*
G01*
X130579000Y-102087000D01*
G75*
G02*
X130729000Y-102237000I0J-150000D01*
G01*
X130729000Y-103887000D01*
G75*
G02*
X130579000Y-104037000I-150000J0D01*
G01*
G37*
G36*
G01*
X130579000Y-108987000D02*
X130279000Y-108987000D01*
G75*
G02*
X130129000Y-108837000I0J150000D01*
G01*
X130129000Y-107187000D01*
G75*
G02*
X130279000Y-107037000I150000J0D01*
G01*
X130579000Y-107037000D01*
G75*
G02*
X130729000Y-107187000I0J-150000D01*
G01*
X130729000Y-108837000D01*
G75*
G02*
X130579000Y-108987000I-150000J0D01*
G01*
G37*
G36*
G01*
X129309000Y-108987000D02*
X129009000Y-108987000D01*
G75*
G02*
X128859000Y-108837000I0J150000D01*
G01*
X128859000Y-107187000D01*
G75*
G02*
X129009000Y-107037000I150000J0D01*
G01*
X129309000Y-107037000D01*
G75*
G02*
X129459000Y-107187000I0J-150000D01*
G01*
X129459000Y-108837000D01*
G75*
G02*
X129309000Y-108987000I-150000J0D01*
G01*
G37*
G36*
G01*
X128039000Y-108987000D02*
X127739000Y-108987000D01*
G75*
G02*
X127589000Y-108837000I0J150000D01*
G01*
X127589000Y-107187000D01*
G75*
G02*
X127739000Y-107037000I150000J0D01*
G01*
X128039000Y-107037000D01*
G75*
G02*
X128189000Y-107187000I0J-150000D01*
G01*
X128189000Y-108837000D01*
G75*
G02*
X128039000Y-108987000I-150000J0D01*
G01*
G37*
G36*
G01*
X126769000Y-108987000D02*
X126469000Y-108987000D01*
G75*
G02*
X126319000Y-108837000I0J150000D01*
G01*
X126319000Y-107187000D01*
G75*
G02*
X126469000Y-107037000I150000J0D01*
G01*
X126769000Y-107037000D01*
G75*
G02*
X126919000Y-107187000I0J-150000D01*
G01*
X126919000Y-108837000D01*
G75*
G02*
X126769000Y-108987000I-150000J0D01*
G01*
G37*
%TD*%
%TO.C,R111*%
G36*
G01*
X134931998Y-103119500D02*
X135832002Y-103119500D01*
G75*
G02*
X136082000Y-103369498I0J-249998D01*
G01*
X136082000Y-103894502D01*
G75*
G02*
X135832002Y-104144500I-249998J0D01*
G01*
X134931998Y-104144500D01*
G75*
G02*
X134682000Y-103894502I0J249998D01*
G01*
X134682000Y-103369498D01*
G75*
G02*
X134931998Y-103119500I249998J0D01*
G01*
G37*
G36*
G01*
X134931998Y-101294500D02*
X135832002Y-101294500D01*
G75*
G02*
X136082000Y-101544498I0J-249998D01*
G01*
X136082000Y-102069502D01*
G75*
G02*
X135832002Y-102319500I-249998J0D01*
G01*
X134931998Y-102319500D01*
G75*
G02*
X134682000Y-102069502I0J249998D01*
G01*
X134682000Y-101544498D01*
G75*
G02*
X134931998Y-101294500I249998J0D01*
G01*
G37*
%TD*%
%TO.C,R110*%
G36*
G01*
X134931998Y-99737500D02*
X135832002Y-99737500D01*
G75*
G02*
X136082000Y-99987498I0J-249998D01*
G01*
X136082000Y-100512502D01*
G75*
G02*
X135832002Y-100762500I-249998J0D01*
G01*
X134931998Y-100762500D01*
G75*
G02*
X134682000Y-100512502I0J249998D01*
G01*
X134682000Y-99987498D01*
G75*
G02*
X134931998Y-99737500I249998J0D01*
G01*
G37*
G36*
G01*
X134931998Y-97912500D02*
X135832002Y-97912500D01*
G75*
G02*
X136082000Y-98162498I0J-249998D01*
G01*
X136082000Y-98687502D01*
G75*
G02*
X135832002Y-98937500I-249998J0D01*
G01*
X134931998Y-98937500D01*
G75*
G02*
X134682000Y-98687502I0J249998D01*
G01*
X134682000Y-98162498D01*
G75*
G02*
X134931998Y-97912500I249998J0D01*
G01*
G37*
%TD*%
%TO.C,R109*%
G36*
G01*
X90889500Y-118675998D02*
X90889500Y-119576002D01*
G75*
G02*
X90639502Y-119826000I-249998J0D01*
G01*
X90114498Y-119826000D01*
G75*
G02*
X89864500Y-119576002I0J249998D01*
G01*
X89864500Y-118675998D01*
G75*
G02*
X90114498Y-118426000I249998J0D01*
G01*
X90639502Y-118426000D01*
G75*
G02*
X90889500Y-118675998I0J-249998D01*
G01*
G37*
G36*
G01*
X92714500Y-118675998D02*
X92714500Y-119576002D01*
G75*
G02*
X92464502Y-119826000I-249998J0D01*
G01*
X91939498Y-119826000D01*
G75*
G02*
X91689500Y-119576002I0J249998D01*
G01*
X91689500Y-118675998D01*
G75*
G02*
X91939498Y-118426000I249998J0D01*
G01*
X92464502Y-118426000D01*
G75*
G02*
X92714500Y-118675998I0J-249998D01*
G01*
G37*
%TD*%
%TO.C,R108*%
G36*
G01*
X91689500Y-117671002D02*
X91689500Y-116770998D01*
G75*
G02*
X91939498Y-116521000I249998J0D01*
G01*
X92464502Y-116521000D01*
G75*
G02*
X92714500Y-116770998I0J-249998D01*
G01*
X92714500Y-117671002D01*
G75*
G02*
X92464502Y-117921000I-249998J0D01*
G01*
X91939498Y-117921000D01*
G75*
G02*
X91689500Y-117671002I0J249998D01*
G01*
G37*
G36*
G01*
X89864500Y-117671002D02*
X89864500Y-116770998D01*
G75*
G02*
X90114498Y-116521000I249998J0D01*
G01*
X90639502Y-116521000D01*
G75*
G02*
X90889500Y-116770998I0J-249998D01*
G01*
X90889500Y-117671002D01*
G75*
G02*
X90639502Y-117921000I-249998J0D01*
G01*
X90114498Y-117921000D01*
G75*
G02*
X89864500Y-117671002I0J249998D01*
G01*
G37*
%TD*%
%TO.C,R105*%
G36*
G01*
X104055500Y-88842002D02*
X104055500Y-87941998D01*
G75*
G02*
X104305498Y-87692000I249998J0D01*
G01*
X104830502Y-87692000D01*
G75*
G02*
X105080500Y-87941998I0J-249998D01*
G01*
X105080500Y-88842002D01*
G75*
G02*
X104830502Y-89092000I-249998J0D01*
G01*
X104305498Y-89092000D01*
G75*
G02*
X104055500Y-88842002I0J249998D01*
G01*
G37*
G36*
G01*
X102230500Y-88842002D02*
X102230500Y-87941998D01*
G75*
G02*
X102480498Y-87692000I249998J0D01*
G01*
X103005502Y-87692000D01*
G75*
G02*
X103255500Y-87941998I0J-249998D01*
G01*
X103255500Y-88842002D01*
G75*
G02*
X103005502Y-89092000I-249998J0D01*
G01*
X102480498Y-89092000D01*
G75*
G02*
X102230500Y-88842002I0J249998D01*
G01*
G37*
%TD*%
%TO.C,R104*%
G36*
G01*
X100603000Y-88842002D02*
X100603000Y-87941998D01*
G75*
G02*
X100852998Y-87692000I249998J0D01*
G01*
X101378002Y-87692000D01*
G75*
G02*
X101628000Y-87941998I0J-249998D01*
G01*
X101628000Y-88842002D01*
G75*
G02*
X101378002Y-89092000I-249998J0D01*
G01*
X100852998Y-89092000D01*
G75*
G02*
X100603000Y-88842002I0J249998D01*
G01*
G37*
G36*
G01*
X98778000Y-88842002D02*
X98778000Y-87941998D01*
G75*
G02*
X99027998Y-87692000I249998J0D01*
G01*
X99553002Y-87692000D01*
G75*
G02*
X99803000Y-87941998I0J-249998D01*
G01*
X99803000Y-88842002D01*
G75*
G02*
X99553002Y-89092000I-249998J0D01*
G01*
X99027998Y-89092000D01*
G75*
G02*
X98778000Y-88842002I0J249998D01*
G01*
G37*
%TD*%
%TO.C,R103*%
G36*
G01*
X131629998Y-121200500D02*
X132530002Y-121200500D01*
G75*
G02*
X132780000Y-121450498I0J-249998D01*
G01*
X132780000Y-121975502D01*
G75*
G02*
X132530002Y-122225500I-249998J0D01*
G01*
X131629998Y-122225500D01*
G75*
G02*
X131380000Y-121975502I0J249998D01*
G01*
X131380000Y-121450498D01*
G75*
G02*
X131629998Y-121200500I249998J0D01*
G01*
G37*
G36*
G01*
X131629998Y-119375500D02*
X132530002Y-119375500D01*
G75*
G02*
X132780000Y-119625498I0J-249998D01*
G01*
X132780000Y-120150502D01*
G75*
G02*
X132530002Y-120400500I-249998J0D01*
G01*
X131629998Y-120400500D01*
G75*
G02*
X131380000Y-120150502I0J249998D01*
G01*
X131380000Y-119625498D01*
G75*
G02*
X131629998Y-119375500I249998J0D01*
G01*
G37*
%TD*%
%TO.C,R102*%
G36*
G01*
X129597998Y-121200500D02*
X130498002Y-121200500D01*
G75*
G02*
X130748000Y-121450498I0J-249998D01*
G01*
X130748000Y-121975502D01*
G75*
G02*
X130498002Y-122225500I-249998J0D01*
G01*
X129597998Y-122225500D01*
G75*
G02*
X129348000Y-121975502I0J249998D01*
G01*
X129348000Y-121450498D01*
G75*
G02*
X129597998Y-121200500I249998J0D01*
G01*
G37*
G36*
G01*
X129597998Y-119375500D02*
X130498002Y-119375500D01*
G75*
G02*
X130748000Y-119625498I0J-249998D01*
G01*
X130748000Y-120150502D01*
G75*
G02*
X130498002Y-120400500I-249998J0D01*
G01*
X129597998Y-120400500D01*
G75*
G02*
X129348000Y-120150502I0J249998D01*
G01*
X129348000Y-119625498D01*
G75*
G02*
X129597998Y-119375500I249998J0D01*
G01*
G37*
%TD*%
%TO.C,R4*%
G36*
G01*
X124009998Y-103373500D02*
X124910002Y-103373500D01*
G75*
G02*
X125160000Y-103623498I0J-249998D01*
G01*
X125160000Y-104148502D01*
G75*
G02*
X124910002Y-104398500I-249998J0D01*
G01*
X124009998Y-104398500D01*
G75*
G02*
X123760000Y-104148502I0J249998D01*
G01*
X123760000Y-103623498D01*
G75*
G02*
X124009998Y-103373500I249998J0D01*
G01*
G37*
G36*
G01*
X124009998Y-101548500D02*
X124910002Y-101548500D01*
G75*
G02*
X125160000Y-101798498I0J-249998D01*
G01*
X125160000Y-102323502D01*
G75*
G02*
X124910002Y-102573500I-249998J0D01*
G01*
X124009998Y-102573500D01*
G75*
G02*
X123760000Y-102323502I0J249998D01*
G01*
X123760000Y-101798498D01*
G75*
G02*
X124009998Y-101548500I249998J0D01*
G01*
G37*
%TD*%
%TO.C,R3*%
G36*
G01*
X124009998Y-99944500D02*
X124910002Y-99944500D01*
G75*
G02*
X125160000Y-100194498I0J-249998D01*
G01*
X125160000Y-100719502D01*
G75*
G02*
X124910002Y-100969500I-249998J0D01*
G01*
X124009998Y-100969500D01*
G75*
G02*
X123760000Y-100719502I0J249998D01*
G01*
X123760000Y-100194498D01*
G75*
G02*
X124009998Y-99944500I249998J0D01*
G01*
G37*
G36*
G01*
X124009998Y-98119500D02*
X124910002Y-98119500D01*
G75*
G02*
X125160000Y-98369498I0J-249998D01*
G01*
X125160000Y-98894502D01*
G75*
G02*
X124910002Y-99144500I-249998J0D01*
G01*
X124009998Y-99144500D01*
G75*
G02*
X123760000Y-98894502I0J249998D01*
G01*
X123760000Y-98369498D01*
G75*
G02*
X124009998Y-98119500I249998J0D01*
G01*
G37*
%TD*%
%TO.C,R2*%
G36*
G01*
X127131500Y-100260998D02*
X127131500Y-101161002D01*
G75*
G02*
X126881502Y-101411000I-249998J0D01*
G01*
X126356498Y-101411000D01*
G75*
G02*
X126106500Y-101161002I0J249998D01*
G01*
X126106500Y-100260998D01*
G75*
G02*
X126356498Y-100011000I249998J0D01*
G01*
X126881502Y-100011000D01*
G75*
G02*
X127131500Y-100260998I0J-249998D01*
G01*
G37*
G36*
G01*
X128956500Y-100260998D02*
X128956500Y-101161002D01*
G75*
G02*
X128706502Y-101411000I-249998J0D01*
G01*
X128181498Y-101411000D01*
G75*
G02*
X127931500Y-101161002I0J249998D01*
G01*
X127931500Y-100260998D01*
G75*
G02*
X128181498Y-100011000I249998J0D01*
G01*
X128706502Y-100011000D01*
G75*
G02*
X128956500Y-100260998I0J-249998D01*
G01*
G37*
%TD*%
D19*
%TO.C,JP101*%
G36*
X148196398Y-120665000D02*
G01*
X148196398Y-120689534D01*
X148191588Y-120738365D01*
X148182016Y-120786490D01*
X148167772Y-120833445D01*
X148148995Y-120878778D01*
X148125864Y-120922051D01*
X148098604Y-120962850D01*
X148067476Y-121000779D01*
X148032779Y-121035476D01*
X147994850Y-121066604D01*
X147954051Y-121093864D01*
X147910778Y-121116995D01*
X147865445Y-121135772D01*
X147818490Y-121150016D01*
X147770365Y-121159588D01*
X147721534Y-121164398D01*
X147697000Y-121164398D01*
X147697000Y-121165000D01*
X147197000Y-121165000D01*
X147197000Y-121164398D01*
X147172466Y-121164398D01*
X147123635Y-121159588D01*
X147075510Y-121150016D01*
X147028555Y-121135772D01*
X146983222Y-121116995D01*
X146939949Y-121093864D01*
X146899150Y-121066604D01*
X146861221Y-121035476D01*
X146826524Y-121000779D01*
X146795396Y-120962850D01*
X146768136Y-120922051D01*
X146745005Y-120878778D01*
X146726228Y-120833445D01*
X146711984Y-120786490D01*
X146702412Y-120738365D01*
X146697602Y-120689534D01*
X146697602Y-120665000D01*
X146697000Y-120665000D01*
X146697000Y-120165000D01*
X148197000Y-120165000D01*
X148197000Y-120665000D01*
X148196398Y-120665000D01*
G37*
G36*
X146697000Y-119865000D02*
G01*
X146697000Y-119365000D01*
X146697602Y-119365000D01*
X146697602Y-119340466D01*
X146702412Y-119291635D01*
X146711984Y-119243510D01*
X146726228Y-119196555D01*
X146745005Y-119151222D01*
X146768136Y-119107949D01*
X146795396Y-119067150D01*
X146826524Y-119029221D01*
X146861221Y-118994524D01*
X146899150Y-118963396D01*
X146939949Y-118936136D01*
X146983222Y-118913005D01*
X147028555Y-118894228D01*
X147075510Y-118879984D01*
X147123635Y-118870412D01*
X147172466Y-118865602D01*
X147197000Y-118865602D01*
X147197000Y-118865000D01*
X147697000Y-118865000D01*
X147697000Y-118865602D01*
X147721534Y-118865602D01*
X147770365Y-118870412D01*
X147818490Y-118879984D01*
X147865445Y-118894228D01*
X147910778Y-118913005D01*
X147954051Y-118936136D01*
X147994850Y-118963396D01*
X148032779Y-118994524D01*
X148067476Y-119029221D01*
X148098604Y-119067150D01*
X148125864Y-119107949D01*
X148148995Y-119151222D01*
X148167772Y-119196555D01*
X148182016Y-119243510D01*
X148191588Y-119291635D01*
X148196398Y-119340466D01*
X148196398Y-119365000D01*
X148197000Y-119365000D01*
X148197000Y-119865000D01*
X146697000Y-119865000D01*
G37*
%TD*%
%TO.C,JP1*%
G36*
X125210000Y-107781000D02*
G01*
X125210000Y-108331000D01*
X125209398Y-108331000D01*
X125209398Y-108355534D01*
X125204588Y-108404365D01*
X125195016Y-108452490D01*
X125180772Y-108499445D01*
X125161995Y-108544778D01*
X125138864Y-108588051D01*
X125111604Y-108628850D01*
X125080476Y-108666779D01*
X125045779Y-108701476D01*
X125007850Y-108732604D01*
X124967051Y-108759864D01*
X124923778Y-108782995D01*
X124878445Y-108801772D01*
X124831490Y-108816016D01*
X124783365Y-108825588D01*
X124734534Y-108830398D01*
X124710000Y-108830398D01*
X124710000Y-108831000D01*
X124210000Y-108831000D01*
X124210000Y-108830398D01*
X124185466Y-108830398D01*
X124136635Y-108825588D01*
X124088510Y-108816016D01*
X124041555Y-108801772D01*
X123996222Y-108782995D01*
X123952949Y-108759864D01*
X123912150Y-108732604D01*
X123874221Y-108701476D01*
X123839524Y-108666779D01*
X123808396Y-108628850D01*
X123781136Y-108588051D01*
X123758005Y-108544778D01*
X123739228Y-108499445D01*
X123724984Y-108452490D01*
X123715412Y-108404365D01*
X123710602Y-108355534D01*
X123710602Y-108331000D01*
X123710000Y-108331000D01*
X123710000Y-107781000D01*
X125210000Y-107781000D01*
G37*
D20*
X124460000Y-107031000D03*
D19*
G36*
X123710602Y-105731000D02*
G01*
X123710602Y-105706466D01*
X123715412Y-105657635D01*
X123724984Y-105609510D01*
X123739228Y-105562555D01*
X123758005Y-105517222D01*
X123781136Y-105473949D01*
X123808396Y-105433150D01*
X123839524Y-105395221D01*
X123874221Y-105360524D01*
X123912150Y-105329396D01*
X123952949Y-105302136D01*
X123996222Y-105279005D01*
X124041555Y-105260228D01*
X124088510Y-105245984D01*
X124136635Y-105236412D01*
X124185466Y-105231602D01*
X124210000Y-105231602D01*
X124210000Y-105231000D01*
X124710000Y-105231000D01*
X124710000Y-105231602D01*
X124734534Y-105231602D01*
X124783365Y-105236412D01*
X124831490Y-105245984D01*
X124878445Y-105260228D01*
X124923778Y-105279005D01*
X124967051Y-105302136D01*
X125007850Y-105329396D01*
X125045779Y-105360524D01*
X125080476Y-105395221D01*
X125111604Y-105433150D01*
X125138864Y-105473949D01*
X125161995Y-105517222D01*
X125180772Y-105562555D01*
X125195016Y-105609510D01*
X125204588Y-105657635D01*
X125209398Y-105706466D01*
X125209398Y-105731000D01*
X125210000Y-105731000D01*
X125210000Y-106281000D01*
X123710000Y-106281000D01*
X123710000Y-105731000D01*
X123710602Y-105731000D01*
G37*
%TD*%
D15*
%TO.C,J103*%
X138049000Y-123063000D03*
X140589000Y-123063000D03*
X143129000Y-123063000D03*
D16*
X145669000Y-123063000D03*
%TD*%
D15*
%TO.C,J102*%
X134493000Y-114046000D03*
X134493000Y-111506000D03*
X131953000Y-114046000D03*
X131953000Y-111506000D03*
X129413000Y-114046000D03*
D16*
X129413000Y-111506000D03*
%TD*%
%TO.C,J10*%
G36*
G01*
X133043900Y-76280000D02*
X129846100Y-76280000D01*
G75*
G02*
X129595000Y-76028900I0J251100D01*
G01*
X129595000Y-73831100D01*
G75*
G02*
X129846100Y-73580000I251100J0D01*
G01*
X133043900Y-73580000D01*
G75*
G02*
X133295000Y-73831100I0J-251100D01*
G01*
X133295000Y-76028900D01*
G75*
G02*
X133043900Y-76280000I-251100J0D01*
G01*
G37*
D21*
X131445000Y-70730000D03*
X127245000Y-74930000D03*
X127245000Y-70730000D03*
%TD*%
%TO.C,J9*%
G36*
G01*
X133043900Y-87075000D02*
X129846100Y-87075000D01*
G75*
G02*
X129595000Y-86823900I0J251100D01*
G01*
X129595000Y-84626100D01*
G75*
G02*
X129846100Y-84375000I251100J0D01*
G01*
X133043900Y-84375000D01*
G75*
G02*
X133295000Y-84626100I0J-251100D01*
G01*
X133295000Y-86823900D01*
G75*
G02*
X133043900Y-87075000I-251100J0D01*
G01*
G37*
X131445000Y-81525000D03*
X127245000Y-85725000D03*
X127245000Y-81525000D03*
%TD*%
D22*
%TO.C,J8*%
X132715000Y-62620000D03*
X136915000Y-62620000D03*
X141115000Y-62620000D03*
X145315000Y-62620000D03*
X132715000Y-58420000D03*
X136915000Y-58420000D03*
G36*
G01*
X146665000Y-56821100D02*
X146665000Y-60018900D01*
G75*
G02*
X146413900Y-60270000I-251100J0D01*
G01*
X144216100Y-60270000D01*
G75*
G02*
X143965000Y-60018900I0J251100D01*
G01*
X143965000Y-56821100D01*
G75*
G02*
X144216100Y-56570000I251100J0D01*
G01*
X146413900Y-56570000D01*
G75*
G02*
X146665000Y-56821100I0J-251100D01*
G01*
G37*
X141115000Y-58420000D03*
%TD*%
%TO.C,J7*%
X145315000Y-41910000D03*
X141115000Y-41910000D03*
X136915000Y-41910000D03*
X132715000Y-41910000D03*
X145315000Y-46110000D03*
X141115000Y-46110000D03*
G36*
G01*
X131365000Y-47708900D02*
X131365000Y-44511100D01*
G75*
G02*
X131616100Y-44260000I251100J0D01*
G01*
X133813900Y-44260000D01*
G75*
G02*
X134065000Y-44511100I0J-251100D01*
G01*
X134065000Y-47708900D01*
G75*
G02*
X133813900Y-47960000I-251100J0D01*
G01*
X131616100Y-47960000D01*
G75*
G02*
X131365000Y-47708900I0J251100D01*
G01*
G37*
X136915000Y-46110000D03*
%TD*%
%TO.C,J6*%
X113030000Y-62620000D03*
X117230000Y-62620000D03*
X121430000Y-62620000D03*
X125630000Y-62620000D03*
X113030000Y-58420000D03*
X117230000Y-58420000D03*
G36*
G01*
X126980000Y-56821100D02*
X126980000Y-60018900D01*
G75*
G02*
X126728900Y-60270000I-251100J0D01*
G01*
X124531100Y-60270000D01*
G75*
G02*
X124280000Y-60018900I0J251100D01*
G01*
X124280000Y-56821100D01*
G75*
G02*
X124531100Y-56570000I251100J0D01*
G01*
X126728900Y-56570000D01*
G75*
G02*
X126980000Y-56821100I0J-251100D01*
G01*
G37*
X121430000Y-58420000D03*
%TD*%
%TO.C,J5*%
X125630000Y-41910000D03*
X121430000Y-41910000D03*
X117230000Y-41910000D03*
X113030000Y-41910000D03*
X125630000Y-46110000D03*
X121430000Y-46110000D03*
G36*
G01*
X111680000Y-47708900D02*
X111680000Y-44511100D01*
G75*
G02*
X111931100Y-44260000I251100J0D01*
G01*
X114128900Y-44260000D01*
G75*
G02*
X114380000Y-44511100I0J-251100D01*
G01*
X114380000Y-47708900D01*
G75*
G02*
X114128900Y-47960000I-251100J0D01*
G01*
X111931100Y-47960000D01*
G75*
G02*
X111680000Y-47708900I0J251100D01*
G01*
G37*
X117230000Y-46110000D03*
%TD*%
%TO.C,J4*%
X93345000Y-62620000D03*
X97545000Y-62620000D03*
X101745000Y-62620000D03*
X105945000Y-62620000D03*
X93345000Y-58420000D03*
X97545000Y-58420000D03*
G36*
G01*
X107295000Y-56821100D02*
X107295000Y-60018900D01*
G75*
G02*
X107043900Y-60270000I-251100J0D01*
G01*
X104846100Y-60270000D01*
G75*
G02*
X104595000Y-60018900I0J251100D01*
G01*
X104595000Y-56821100D01*
G75*
G02*
X104846100Y-56570000I251100J0D01*
G01*
X107043900Y-56570000D01*
G75*
G02*
X107295000Y-56821100I0J-251100D01*
G01*
G37*
X101745000Y-58420000D03*
%TD*%
%TO.C,J3*%
X105945000Y-41910000D03*
X101745000Y-41910000D03*
X97545000Y-41910000D03*
X93345000Y-41910000D03*
X105945000Y-46110000D03*
X101745000Y-46110000D03*
G36*
G01*
X91995000Y-47708900D02*
X91995000Y-44511100D01*
G75*
G02*
X92246100Y-44260000I251100J0D01*
G01*
X94443900Y-44260000D01*
G75*
G02*
X94695000Y-44511100I0J-251100D01*
G01*
X94695000Y-47708900D01*
G75*
G02*
X94443900Y-47960000I-251100J0D01*
G01*
X92246100Y-47960000D01*
G75*
G02*
X91995000Y-47708900I0J251100D01*
G01*
G37*
X97545000Y-46110000D03*
%TD*%
D21*
%TO.C,J2*%
X143900000Y-116685000D03*
X143900000Y-112485000D03*
X143900000Y-108285000D03*
X143900000Y-104085000D03*
X143900000Y-99885000D03*
X143900000Y-95685000D03*
X143900000Y-91485000D03*
X143900000Y-87285000D03*
X143900000Y-83085000D03*
X143900000Y-78885000D03*
X143900000Y-74685000D03*
X143900000Y-70485000D03*
X139700000Y-116685000D03*
X139700000Y-112485000D03*
X139700000Y-108285000D03*
X139700000Y-104085000D03*
X139700000Y-99885000D03*
X139700000Y-95685000D03*
X139700000Y-91485000D03*
X139700000Y-87285000D03*
X139700000Y-83085000D03*
X139700000Y-78885000D03*
G36*
G01*
X138101100Y-69135000D02*
X141298900Y-69135000D01*
G75*
G02*
X141550000Y-69386100I0J-251100D01*
G01*
X141550000Y-71583900D01*
G75*
G02*
X141298900Y-71835000I-251100J0D01*
G01*
X138101100Y-71835000D01*
G75*
G02*
X137850000Y-71583900I0J251100D01*
G01*
X137850000Y-69386100D01*
G75*
G02*
X138101100Y-69135000I251100J0D01*
G01*
G37*
X139700000Y-74685000D03*
%TD*%
D23*
%TO.C,J1*%
X88075000Y-41910000D03*
X88075000Y-44450000D03*
X88075000Y-46990000D03*
X88075000Y-49530000D03*
X88075000Y-52070000D03*
X88075000Y-54610000D03*
X88075000Y-57150000D03*
X88075000Y-59690000D03*
X88075000Y-62230000D03*
X88075000Y-64770000D03*
X88075000Y-67310000D03*
X88075000Y-69850000D03*
X88075000Y-72390000D03*
X88075000Y-74930000D03*
X88075000Y-77470000D03*
X88075000Y-80010000D03*
X88075000Y-82550000D03*
X88075000Y-85090000D03*
X88075000Y-87630000D03*
X88075000Y-90170000D03*
X88075000Y-92710000D03*
X88075000Y-95250000D03*
X88075000Y-97790000D03*
X88075000Y-100330000D03*
X88075000Y-102870000D03*
X88075000Y-105410000D03*
X88075000Y-107950000D03*
X88075000Y-110490000D03*
X88075000Y-113030000D03*
X88075000Y-115570000D03*
X88075000Y-118110000D03*
X88075000Y-120650000D03*
D24*
X82805000Y-120650000D03*
X82805000Y-118110000D03*
X82805000Y-115570000D03*
X82805000Y-113030000D03*
X82805000Y-110490000D03*
X82805000Y-107950000D03*
X82805000Y-105410000D03*
X82805000Y-102870000D03*
X82805000Y-100330000D03*
X82805000Y-97790000D03*
X82805000Y-95250000D03*
X82805000Y-92710000D03*
X82805000Y-90170000D03*
X82805000Y-87630000D03*
X82805000Y-85090000D03*
X82805000Y-82550000D03*
X82805000Y-80010000D03*
X82805000Y-77470000D03*
X82805000Y-74930000D03*
X82805000Y-72390000D03*
X82805000Y-69850000D03*
X82805000Y-67310000D03*
X82805000Y-64770000D03*
X82805000Y-62230000D03*
X82805000Y-59690000D03*
X82805000Y-57150000D03*
X82805000Y-54610000D03*
X82805000Y-52070000D03*
X82805000Y-49530000D03*
X82805000Y-46990000D03*
X82805000Y-44450000D03*
X84455000Y-120650000D03*
X84455000Y-118110000D03*
X84455000Y-115570000D03*
X84455000Y-113030000D03*
X84455000Y-110490000D03*
X84455000Y-107950000D03*
X84455000Y-105410000D03*
X84455000Y-102870000D03*
X84455000Y-100330000D03*
X84455000Y-97790000D03*
X84455000Y-95250000D03*
X84455000Y-92710000D03*
X84455000Y-90170000D03*
X84455000Y-87630000D03*
X84455000Y-85090000D03*
X84455000Y-82550000D03*
X84455000Y-80010000D03*
X84455000Y-77470000D03*
X84455000Y-74930000D03*
X84455000Y-72390000D03*
X84455000Y-69850000D03*
X84455000Y-67310000D03*
X84455000Y-64770000D03*
X84455000Y-62230000D03*
X84455000Y-59690000D03*
X84455000Y-57150000D03*
X84455000Y-54610000D03*
X84455000Y-52070000D03*
X84455000Y-49530000D03*
X84455000Y-46990000D03*
X84455000Y-44450000D03*
D25*
X75605000Y-112800000D03*
X75605000Y-49760000D03*
D24*
X82805000Y-41910000D03*
X84455000Y-41910000D03*
%TD*%
%TO.C,C2*%
G36*
G01*
X132113000Y-104021000D02*
X133063000Y-104021000D01*
G75*
G02*
X133313000Y-104271000I0J-250000D01*
G01*
X133313000Y-104771000D01*
G75*
G02*
X133063000Y-105021000I-250000J0D01*
G01*
X132113000Y-105021000D01*
G75*
G02*
X131863000Y-104771000I0J250000D01*
G01*
X131863000Y-104271000D01*
G75*
G02*
X132113000Y-104021000I250000J0D01*
G01*
G37*
G36*
G01*
X132113000Y-102121000D02*
X133063000Y-102121000D01*
G75*
G02*
X133313000Y-102371000I0J-250000D01*
G01*
X133313000Y-102871000D01*
G75*
G02*
X133063000Y-103121000I-250000J0D01*
G01*
X132113000Y-103121000D01*
G75*
G02*
X131863000Y-102871000I0J250000D01*
G01*
X131863000Y-102371000D01*
G75*
G02*
X132113000Y-102121000I250000J0D01*
G01*
G37*
%TD*%
%TO.C,C1*%
G36*
G01*
X133063000Y-107058000D02*
X132113000Y-107058000D01*
G75*
G02*
X131863000Y-106808000I0J250000D01*
G01*
X131863000Y-106308000D01*
G75*
G02*
X132113000Y-106058000I250000J0D01*
G01*
X133063000Y-106058000D01*
G75*
G02*
X133313000Y-106308000I0J-250000D01*
G01*
X133313000Y-106808000D01*
G75*
G02*
X133063000Y-107058000I-250000J0D01*
G01*
G37*
G36*
G01*
X133063000Y-108958000D02*
X132113000Y-108958000D01*
G75*
G02*
X131863000Y-108708000I0J250000D01*
G01*
X131863000Y-108208000D01*
G75*
G02*
X132113000Y-107958000I250000J0D01*
G01*
X133063000Y-107958000D01*
G75*
G02*
X133313000Y-108208000I0J-250000D01*
G01*
X133313000Y-108708000D01*
G75*
G02*
X133063000Y-108958000I-250000J0D01*
G01*
G37*
%TD*%
D26*
X147193000Y-61520606D02*
X147193000Y-66241394D01*
X146505394Y-66929000D01*
X96266000Y-66929000D01*
X96241224Y-66931440D01*
X96217399Y-66938667D01*
X96195443Y-66950403D01*
X96176197Y-66966197D01*
X95668197Y-67474197D01*
X95652403Y-67493443D01*
X95640667Y-67515399D01*
X95633440Y-67539224D01*
X95631000Y-67564000D01*
X95631000Y-76147394D01*
X90080197Y-81698197D01*
X90064403Y-81717443D01*
X90052667Y-81739399D01*
X90045440Y-81763224D01*
X90043000Y-81788000D01*
X90043000Y-105611394D01*
X89355394Y-106299000D01*
X82094606Y-106299000D01*
X81407000Y-105611394D01*
X81407000Y-74982606D01*
X82348606Y-74041000D01*
X90170000Y-74041000D01*
X90194776Y-74038560D01*
X90218601Y-74031333D01*
X90240557Y-74019597D01*
X90259803Y-74003803D01*
X90767803Y-73495803D01*
X90783597Y-73476557D01*
X90795333Y-73454601D01*
X90802560Y-73430776D01*
X90805000Y-73406000D01*
X90805000Y-61774606D01*
X91746606Y-60833000D01*
X146505394Y-60833000D01*
X147193000Y-61520606D01*
D19*
G36*
X147193000Y-61520606D02*
G01*
X147193000Y-66241394D01*
X146505394Y-66929000D01*
X96266000Y-66929000D01*
X96241224Y-66931440D01*
X96217399Y-66938667D01*
X96195443Y-66950403D01*
X96176197Y-66966197D01*
X95668197Y-67474197D01*
X95652403Y-67493443D01*
X95640667Y-67515399D01*
X95633440Y-67539224D01*
X95631000Y-67564000D01*
X95631000Y-76147394D01*
X90080197Y-81698197D01*
X90064403Y-81717443D01*
X90052667Y-81739399D01*
X90045440Y-81763224D01*
X90043000Y-81788000D01*
X90043000Y-105611394D01*
X89355394Y-106299000D01*
X82094606Y-106299000D01*
X81407000Y-105611394D01*
X81407000Y-74982606D01*
X82348606Y-74041000D01*
X90170000Y-74041000D01*
X90194776Y-74038560D01*
X90218601Y-74031333D01*
X90240557Y-74019597D01*
X90259803Y-74003803D01*
X90767803Y-73495803D01*
X90783597Y-73476557D01*
X90795333Y-73454601D01*
X90802560Y-73430776D01*
X90805000Y-73406000D01*
X90805000Y-61774606D01*
X91746606Y-60833000D01*
X146505394Y-60833000D01*
X147193000Y-61520606D01*
G37*
D26*
X110871000Y-61595000D02*
X108077000Y-61595000D01*
X108077000Y-41529000D01*
X110871000Y-41529000D01*
X110871000Y-61595000D01*
D19*
G36*
X110871000Y-61595000D02*
G01*
X108077000Y-61595000D01*
X108077000Y-41529000D01*
X110871000Y-41529000D01*
X110871000Y-61595000D01*
G37*
D26*
X130556000Y-61849000D02*
X127762000Y-61849000D01*
X127762000Y-41529000D01*
X130556000Y-41529000D01*
X130556000Y-61849000D01*
D19*
G36*
X130556000Y-61849000D02*
G01*
X127762000Y-61849000D01*
X127762000Y-41529000D01*
X130556000Y-41529000D01*
X130556000Y-61849000D01*
G37*
D26*
X147193000Y-38914606D02*
X147193000Y-42873394D01*
X146482768Y-43583626D01*
X146274020Y-43688000D01*
X91752413Y-43688000D01*
X91059000Y-42879019D01*
X91059000Y-38914606D01*
X91746606Y-38227000D01*
X146505394Y-38227000D01*
X147193000Y-38914606D01*
D19*
G36*
X147193000Y-38914606D02*
G01*
X147193000Y-42873394D01*
X146482768Y-43583626D01*
X146274020Y-43688000D01*
X91752413Y-43688000D01*
X91059000Y-42879019D01*
X91059000Y-38914606D01*
X91746606Y-38227000D01*
X146505394Y-38227000D01*
X147193000Y-38914606D01*
G37*
M02*
