M48
; DRILL file {KiCad (5.1.9)-1} date 04/20/21 21:45:37
; FORMAT={-:-/ absolute / inch / decimal}
; #@! TF.CreationDate,2021-04-20T21:45:37+08:00
; #@! TF.GenerationSoftware,Kicad,Pcbnew,(5.1.9)-1
; #@! TF.FileFunction,Plated,1,2,PTH
FMAT,2
INCH
T1C0.0157
T2C0.0236
T3C0.0394
T4C0.0433
T5C0.0709
%
G90
G05
T1
X3.53Y-4.695
X3.785Y-3.915
X3.785Y-3.95
X3.785Y-3.985
X3.82Y-3.07
X3.82Y-3.11
X3.82Y-3.15
X3.82Y-3.19
X3.82Y-3.23
X3.82Y-3.27
X3.82Y-3.31
X3.82Y-3.915
X3.82Y-3.95
X3.82Y-3.985
X3.855Y-3.915
X3.855Y-3.95
X3.855Y-3.985
X3.89Y-3.915
X3.89Y-3.95
X3.89Y-3.985
X3.925Y-3.915
X3.925Y-3.95
X3.925Y-3.985
X3.945Y-3.0976
X3.945Y-3.42
X3.985Y-3.1251
X3.985Y-3.42
X4.025Y-3.155
X4.025Y-3.42
X4.04Y-4.29
X4.04Y-4.325
X4.04Y-4.36
X4.065Y-3.42
X4.075Y-4.29
X4.075Y-4.325
X4.075Y-4.36
X4.085Y-3.34
X4.11Y-4.29
X4.11Y-4.325
X4.11Y-4.36
X4.145Y-4.29
X4.145Y-4.325
X4.145Y-4.36
X4.18Y-4.29
X4.18Y-4.325
X4.18Y-4.36
X4.205Y-3.035
X4.215Y-4.29
X4.215Y-4.325
X4.215Y-4.36
X4.25Y-4.29
X4.25Y-4.325
X4.25Y-4.36
X4.285Y-3.275
X4.355Y-3.25
X4.3556Y-3.0975
X4.385Y-3.68
X4.3872Y-3.3072
X4.415Y-4.5325
X4.42Y-3.425
X4.42Y-3.715
X4.52Y-3.425
X4.575Y-3.88
X4.575Y-3.915
X4.575Y-3.95
X4.575Y-3.985
X4.575Y-4.02
X4.61Y-3.88
X4.61Y-3.915
X4.61Y-3.95
X4.61Y-3.985
X4.61Y-4.02
X4.645Y-3.88
X4.645Y-3.915
X4.645Y-3.95
X4.645Y-3.985
X4.645Y-4.02
X4.68Y-3.045
X4.71Y-4.4874
X4.735Y-4.215
X4.74Y-4.455
X4.76Y-3.3
X4.76Y-4.58
X4.81Y-2.65
X4.81Y-2.685
X4.81Y-2.72
X4.81Y-2.755
X4.81Y-2.79
X4.81Y-2.825
X4.815Y-4.58
X4.845Y-2.65
X4.845Y-2.685
X4.845Y-2.72
X4.845Y-2.755
X4.845Y-2.79
X4.845Y-2.825
X4.86Y-4.1626
X4.88Y-2.65
X4.88Y-2.685
X4.88Y-2.72
X4.88Y-2.755
X4.88Y-2.79
X4.88Y-2.825
X4.955Y-3.92
X5.02Y-4.76
X5.025Y-4.39
X5.0811Y-4.7189
X5.09Y-3.9085
X5.1149Y-3.945
X5.13Y-3.695
X5.1621Y-4.8779
X5.1992Y-4.7392
X5.3Y-3.98
T3
X3.26Y-1.65
X3.26Y-1.75
X3.26Y-1.85
X3.26Y-1.95
X3.26Y-2.05
X3.26Y-2.15
X3.26Y-2.25
X3.26Y-2.35
X3.26Y-2.45
X3.26Y-2.55
X3.26Y-2.65
X3.26Y-2.75
X3.26Y-2.85
X3.26Y-2.95
X3.26Y-3.05
X3.26Y-3.15
X3.26Y-3.25
X3.26Y-3.35
X3.26Y-3.45
X3.26Y-3.55
X3.26Y-3.65
X3.26Y-3.75
X3.26Y-3.85
X3.26Y-3.95
X3.26Y-4.05
X3.26Y-4.15
X3.26Y-4.25
X3.26Y-4.35
X3.26Y-4.45
X3.26Y-4.55
X3.26Y-4.65
X3.26Y-4.75
X3.655Y-4.855
X3.755Y-4.855
X3.855Y-4.855
X3.955Y-4.855
X5.095Y-4.39
X5.095Y-4.49
X5.195Y-4.39
X5.195Y-4.49
X5.295Y-4.39
X5.295Y-4.49
X5.435Y-4.845
X5.535Y-4.845
X5.635Y-4.845
X5.735Y-4.845
T4
X3.325Y-1.65
X3.325Y-1.75
X3.325Y-1.85
X3.325Y-1.95
X3.325Y-2.05
X3.325Y-2.15
X3.325Y-2.25
X3.325Y-2.35
X3.325Y-2.45
X3.325Y-2.55
X3.325Y-2.65
X3.325Y-2.75
X3.325Y-2.85
X3.325Y-2.95
X3.325Y-3.05
X3.325Y-3.15
X3.325Y-3.25
X3.325Y-3.35
X3.325Y-3.45
X3.325Y-3.55
X3.325Y-3.65
X3.325Y-3.75
X3.325Y-3.85
X3.325Y-3.95
X3.325Y-4.05
X3.325Y-4.15
X3.325Y-4.25
X3.325Y-4.35
X3.325Y-4.45
X3.325Y-4.55
X3.325Y-4.65
X3.325Y-4.75
T5
X3.675Y-1.65
X3.675Y-1.8154
X3.675Y-2.3
X3.675Y-2.4654
X3.8404Y-1.65
X3.8404Y-1.8154
X3.8404Y-2.3
X3.8404Y-2.4654
X4.0057Y-1.65
X4.0057Y-1.8154
X4.0057Y-2.3
X4.0057Y-2.4654
X4.1711Y-1.65
X4.1711Y-1.8154
X4.1711Y-2.3
X4.1711Y-2.4654
X4.45Y-1.65
X4.45Y-1.8154
X4.45Y-2.3
X4.45Y-2.4654
X4.6154Y-1.65
X4.6154Y-1.8154
X4.6154Y-2.3
X4.6154Y-2.4654
X4.7807Y-1.65
X4.7807Y-1.8154
X4.7807Y-2.3
X4.7807Y-2.4654
X4.9461Y-1.65
X4.9461Y-1.8154
X4.9461Y-2.3
X4.9461Y-2.4654
X5.0096Y-2.7846
X5.0096Y-2.95
X5.0096Y-3.2096
X5.0096Y-3.375
X5.175Y-2.7846
X5.175Y-2.95
X5.175Y-3.2096
X5.175Y-3.375
X5.225Y-1.65
X5.225Y-1.8154
X5.225Y-2.3
X5.225Y-2.4654
X5.3904Y-1.65
X5.3904Y-1.8154
X5.3904Y-2.3
X5.3904Y-2.4654
X5.5Y-2.775
X5.5Y-2.9404
X5.5Y-3.1057
X5.5Y-3.2711
X5.5Y-3.4364
X5.5Y-3.6018
X5.5Y-3.7671
X5.5Y-3.9325
X5.5Y-4.0978
X5.5Y-4.2632
X5.5Y-4.4285
X5.5Y-4.5939
X5.5557Y-1.65
X5.5557Y-1.8154
X5.5557Y-2.3
X5.5557Y-2.4654
X5.6654Y-2.775
X5.6654Y-2.9404
X5.6654Y-3.1057
X5.6654Y-3.2711
X5.6654Y-3.4364
X5.6654Y-3.6018
X5.6654Y-3.7671
X5.6654Y-3.9325
X5.6654Y-4.0978
X5.6654Y-4.2632
X5.6654Y-4.4285
X5.6654Y-4.5939
X5.7211Y-1.65
X5.7211Y-1.8154
X5.7211Y-2.3
X5.7211Y-2.4654
T2
G00X4.9799Y-4.7007
M15
G01X4.9799Y-4.6574
M16
G05
G00X4.9799Y-4.8589
M15
G01X4.9799Y-4.8274
M16
G05
G00X5.3201Y-4.7007
M15
G01X5.3201Y-4.6574
M16
G05
G00X5.3201Y-4.8589
M15
G01X5.3201Y-4.8274
M16
G05
T4
G00X3.475Y-1.65
M15
G01X3.46Y-1.65
M16
G05
G00X3.475Y-1.75
M15
G01X3.46Y-1.75
M16
G05
G00X3.475Y-1.85
M15
G01X3.46Y-1.85
M16
G05
G00X3.475Y-1.95
M15
G01X3.46Y-1.95
M16
G05
G00X3.475Y-2.05
M15
G01X3.46Y-2.05
M16
G05
G00X3.475Y-2.15
M15
G01X3.46Y-2.15
M16
G05
G00X3.475Y-2.25
M15
G01X3.46Y-2.25
M16
G05
G00X3.475Y-2.35
M15
G01X3.46Y-2.35
M16
G05
G00X3.475Y-2.45
M15
G01X3.46Y-2.45
M16
G05
G00X3.475Y-2.55
M15
G01X3.46Y-2.55
M16
G05
G00X3.475Y-2.65
M15
G01X3.46Y-2.65
M16
G05
G00X3.475Y-2.75
M15
G01X3.46Y-2.75
M16
G05
G00X3.475Y-2.85
M15
G01X3.46Y-2.85
M16
G05
G00X3.475Y-2.95
M15
G01X3.46Y-2.95
M16
G05
G00X3.475Y-3.05
M15
G01X3.46Y-3.05
M16
G05
G00X3.475Y-3.15
M15
G01X3.46Y-3.15
M16
G05
G00X3.475Y-3.25
M15
G01X3.46Y-3.25
M16
G05
G00X3.475Y-3.35
M15
G01X3.46Y-3.35
M16
G05
G00X3.475Y-3.45
M15
G01X3.46Y-3.45
M16
G05
G00X3.475Y-3.55
M15
G01X3.46Y-3.55
M16
G05
G00X3.475Y-3.65
M15
G01X3.46Y-3.65
M16
G05
G00X3.475Y-3.75
M15
G01X3.46Y-3.75
M16
G05
G00X3.475Y-3.85
M15
G01X3.46Y-3.85
M16
G05
G00X3.475Y-3.95
M15
G01X3.46Y-3.95
M16
G05
G00X3.475Y-4.05
M15
G01X3.46Y-4.05
M16
G05
G00X3.475Y-4.15
M15
G01X3.46Y-4.15
M16
G05
G00X3.475Y-4.25
M15
G01X3.46Y-4.25
M16
G05
G00X3.475Y-4.35
M15
G01X3.46Y-4.35
M16
G05
G00X3.475Y-4.45
M15
G01X3.46Y-4.45
M16
G05
G00X3.475Y-4.55
M15
G01X3.46Y-4.55
M16
G05
G00X3.475Y-4.65
M15
G01X3.46Y-4.65
M16
G05
G00X3.475Y-4.75
M15
G01X3.46Y-4.75
M16
G05
T0
M30
