%TF.GenerationSoftware,KiCad,Pcbnew,(5.1.9)-1*%
%TF.CreationDate,2021-04-10T21:08:21+08:00*%
%TF.ProjectId,CSPS2ATX2.0,43535053-3241-4545-9832-2e302e6b6963,V2.0*%
%TF.SameCoordinates,Original*%
%TF.FileFunction,Copper,L2,Bot*%
%TF.FilePolarity,Positive*%
%FSLAX46Y46*%
G04 Gerber Fmt 4.6, Leading zero omitted, Abs format (unit mm)*
G04 Created by KiCad (PCBNEW (5.1.9)-1) date 2021-04-10 21:08:21*
%MOMM*%
%LPD*%
G01*
G04 APERTURE LIST*
%TA.AperFunction,SMDPad,CuDef*%
%ADD10C,0.100000*%
%TD*%
%TA.AperFunction,SMDPad,CuDef*%
%ADD11R,0.600000X1.160000*%
%TD*%
%TA.AperFunction,SMDPad,CuDef*%
%ADD12R,0.300000X1.160000*%
%TD*%
%TA.AperFunction,ComponentPad*%
%ADD13O,0.900000X1.700000*%
%TD*%
%TA.AperFunction,ComponentPad*%
%ADD14O,0.900000X2.000000*%
%TD*%
%TA.AperFunction,ComponentPad*%
%ADD15O,1.700000X1.700000*%
%TD*%
%TA.AperFunction,ComponentPad*%
%ADD16R,1.700000X1.700000*%
%TD*%
%TA.AperFunction,SMDPad,CuDef*%
%ADD17R,3.500000X3.500000*%
%TD*%
%TA.AperFunction,SMDPad,CuDef*%
%ADD18R,2.400000X2.000000*%
%TD*%
%TA.AperFunction,SMDPad,CuDef*%
%ADD19R,1.600000X0.550000*%
%TD*%
%TA.AperFunction,SMDPad,CuDef*%
%ADD20R,0.550000X1.600000*%
%TD*%
%TA.AperFunction,SMDPad,CuDef*%
%ADD21R,2.180000X1.400000*%
%TD*%
%TA.AperFunction,ComponentPad*%
%ADD22O,3.700000X2.700000*%
%TD*%
%TA.AperFunction,ComponentPad*%
%ADD23O,2.700000X3.700000*%
%TD*%
%TA.AperFunction,ComponentPad*%
%ADD24O,2.080000X1.700000*%
%TD*%
%TA.AperFunction,ComponentPad*%
%ADD25C,1.700000*%
%TD*%
%TA.AperFunction,ViaPad*%
%ADD26C,0.800000*%
%TD*%
%TA.AperFunction,Conductor*%
%ADD27C,3.000000*%
%TD*%
%TA.AperFunction,Conductor*%
%ADD28C,0.250000*%
%TD*%
%TA.AperFunction,Conductor*%
%ADD29C,1.270000*%
%TD*%
%TA.AperFunction,Conductor*%
%ADD30C,0.500000*%
%TD*%
%TA.AperFunction,Conductor*%
%ADD31C,0.200000*%
%TD*%
%TA.AperFunction,Conductor*%
%ADD32C,1.000000*%
%TD*%
%TA.AperFunction,Conductor*%
%ADD33C,2.000000*%
%TD*%
%TA.AperFunction,Conductor*%
%ADD34C,0.254000*%
%TD*%
%TA.AperFunction,Conductor*%
%ADD35C,0.100000*%
%TD*%
G04 APERTURE END LIST*
%TA.AperFunction,SMDPad,CuDef*%
D10*
%TO.P,JP102,1*%
%TO.N,+3V3*%
G36*
X108319000Y-88415000D02*
G01*
X108319000Y-88915000D01*
X108318398Y-88915000D01*
X108318398Y-88939534D01*
X108313588Y-88988365D01*
X108304016Y-89036490D01*
X108289772Y-89083445D01*
X108270995Y-89128778D01*
X108247864Y-89172051D01*
X108220604Y-89212850D01*
X108189476Y-89250779D01*
X108154779Y-89285476D01*
X108116850Y-89316604D01*
X108076051Y-89343864D01*
X108032778Y-89366995D01*
X107987445Y-89385772D01*
X107940490Y-89400016D01*
X107892365Y-89409588D01*
X107843534Y-89414398D01*
X107819000Y-89414398D01*
X107819000Y-89415000D01*
X107319000Y-89415000D01*
X107319000Y-89414398D01*
X107294466Y-89414398D01*
X107245635Y-89409588D01*
X107197510Y-89400016D01*
X107150555Y-89385772D01*
X107105222Y-89366995D01*
X107061949Y-89343864D01*
X107021150Y-89316604D01*
X106983221Y-89285476D01*
X106948524Y-89250779D01*
X106917396Y-89212850D01*
X106890136Y-89172051D01*
X106867005Y-89128778D01*
X106848228Y-89083445D01*
X106833984Y-89036490D01*
X106824412Y-88988365D01*
X106819602Y-88939534D01*
X106819602Y-88915000D01*
X106819000Y-88915000D01*
X106819000Y-88415000D01*
X108319000Y-88415000D01*
G37*
%TD.AperFunction*%
%TA.AperFunction,SMDPad,CuDef*%
%TO.P,JP102,2*%
%TO.N,/A0*%
G36*
X106819602Y-87615000D02*
G01*
X106819602Y-87590466D01*
X106824412Y-87541635D01*
X106833984Y-87493510D01*
X106848228Y-87446555D01*
X106867005Y-87401222D01*
X106890136Y-87357949D01*
X106917396Y-87317150D01*
X106948524Y-87279221D01*
X106983221Y-87244524D01*
X107021150Y-87213396D01*
X107061949Y-87186136D01*
X107105222Y-87163005D01*
X107150555Y-87144228D01*
X107197510Y-87129984D01*
X107245635Y-87120412D01*
X107294466Y-87115602D01*
X107319000Y-87115602D01*
X107319000Y-87115000D01*
X107819000Y-87115000D01*
X107819000Y-87115602D01*
X107843534Y-87115602D01*
X107892365Y-87120412D01*
X107940490Y-87129984D01*
X107987445Y-87144228D01*
X108032778Y-87163005D01*
X108076051Y-87186136D01*
X108116850Y-87213396D01*
X108154779Y-87244524D01*
X108189476Y-87279221D01*
X108220604Y-87317150D01*
X108247864Y-87357949D01*
X108270995Y-87401222D01*
X108289772Y-87446555D01*
X108304016Y-87493510D01*
X108313588Y-87541635D01*
X108318398Y-87590466D01*
X108318398Y-87615000D01*
X108319000Y-87615000D01*
X108319000Y-88115000D01*
X106819000Y-88115000D01*
X106819000Y-87615000D01*
X106819602Y-87615000D01*
G37*
%TD.AperFunction*%
%TD*%
D11*
%TO.P,J101,A12*%
%TO.N,GND*%
X127610000Y-118267000D03*
%TO.P,J101,A9*%
%TO.N,/VBUS*%
X128410000Y-118267000D03*
%TO.P,J101,B1*%
%TO.N,GND*%
X127610000Y-118267000D03*
%TO.P,J101,B4*%
%TO.N,/VBUS*%
X128410000Y-118267000D03*
%TO.P,J101,B12*%
%TO.N,GND*%
X134010000Y-118267000D03*
%TO.P,J101,A1*%
X134010000Y-118267000D03*
%TO.P,J101,B9*%
%TO.N,/VBUS*%
X133210000Y-118267000D03*
%TO.P,J101,A4*%
X133210000Y-118267000D03*
D12*
%TO.P,J101,B5*%
%TO.N,Net-(J101-PadB5)*%
X129060000Y-118267000D03*
%TO.P,J101,B6*%
%TO.N,/D+*%
X130060000Y-118267000D03*
%TO.P,J101,A8*%
%TO.N,Net-(J101-PadA8)*%
X129560000Y-118267000D03*
%TO.P,J101,A5*%
%TO.N,Net-(J101-PadA5)*%
X132060000Y-118267000D03*
%TO.P,J101,B8*%
%TO.N,Net-(J101-PadB8)*%
X132560000Y-118267000D03*
%TO.P,J101,A7*%
%TO.N,/D-*%
X130560000Y-118267000D03*
%TO.P,J101,A6*%
%TO.N,/D+*%
X131060000Y-118267000D03*
%TO.P,J101,B7*%
%TO.N,/D-*%
X131560000Y-118267000D03*
D13*
%TO.P,J101,S1*%
%TO.N,GND*%
X126490000Y-123017000D03*
X135130000Y-123017000D03*
D14*
X126490000Y-118847000D03*
X135130000Y-118847000D03*
%TD*%
D15*
%TO.P,J104,4*%
%TO.N,/SDA*%
X92837000Y-123317000D03*
%TO.P,J104,3*%
%TO.N,/SCL*%
X95377000Y-123317000D03*
%TO.P,J104,2*%
%TO.N,GND*%
X97917000Y-123317000D03*
D16*
%TO.P,J104,1*%
%TO.N,/~PSON*%
X100457000Y-123317000D03*
%TD*%
D17*
%TO.P,U4,2*%
%TO.N,GND*%
X111760000Y-117475000D03*
%TO.P,U4,3*%
%TO.N,/+5VSB*%
X111760000Y-107950000D03*
%TO.P,U4,2*%
%TO.N,GND*%
X95885000Y-117475000D03*
%TO.P,U4,1*%
%TO.N,/+12VSB*%
X95885000Y-107950000D03*
%TD*%
D18*
%TO.P,Y101,2*%
%TO.N,Net-(C102-Pad1)*%
X113665000Y-70849000D03*
%TO.P,Y101,1*%
%TO.N,Net-(C101-Pad1)*%
X113665000Y-74549000D03*
%TD*%
%TO.P,U102,16*%
%TO.N,+5V*%
%TA.AperFunction,SMDPad,CuDef*%
G36*
G01*
X120039000Y-115293000D02*
X120039000Y-115593000D01*
G75*
G02*
X119889000Y-115743000I-150000J0D01*
G01*
X118239000Y-115743000D01*
G75*
G02*
X118089000Y-115593000I0J150000D01*
G01*
X118089000Y-115293000D01*
G75*
G02*
X118239000Y-115143000I150000J0D01*
G01*
X119889000Y-115143000D01*
G75*
G02*
X120039000Y-115293000I0J-150000D01*
G01*
G37*
%TD.AperFunction*%
%TO.P,U102,15*%
%TO.N,Net-(U102-Pad15)*%
%TA.AperFunction,SMDPad,CuDef*%
G36*
G01*
X120039000Y-116563000D02*
X120039000Y-116863000D01*
G75*
G02*
X119889000Y-117013000I-150000J0D01*
G01*
X118239000Y-117013000D01*
G75*
G02*
X118089000Y-116863000I0J150000D01*
G01*
X118089000Y-116563000D01*
G75*
G02*
X118239000Y-116413000I150000J0D01*
G01*
X119889000Y-116413000D01*
G75*
G02*
X120039000Y-116563000I0J-150000D01*
G01*
G37*
%TD.AperFunction*%
%TO.P,U102,14*%
%TO.N,Net-(U102-Pad14)*%
%TA.AperFunction,SMDPad,CuDef*%
G36*
G01*
X120039000Y-117833000D02*
X120039000Y-118133000D01*
G75*
G02*
X119889000Y-118283000I-150000J0D01*
G01*
X118239000Y-118283000D01*
G75*
G02*
X118089000Y-118133000I0J150000D01*
G01*
X118089000Y-117833000D01*
G75*
G02*
X118239000Y-117683000I150000J0D01*
G01*
X119889000Y-117683000D01*
G75*
G02*
X120039000Y-117833000I0J-150000D01*
G01*
G37*
%TD.AperFunction*%
%TO.P,U102,13*%
%TO.N,Net-(C108-Pad1)*%
%TA.AperFunction,SMDPad,CuDef*%
G36*
G01*
X120039000Y-119103000D02*
X120039000Y-119403000D01*
G75*
G02*
X119889000Y-119553000I-150000J0D01*
G01*
X118239000Y-119553000D01*
G75*
G02*
X118089000Y-119403000I0J150000D01*
G01*
X118089000Y-119103000D01*
G75*
G02*
X118239000Y-118953000I150000J0D01*
G01*
X119889000Y-118953000D01*
G75*
G02*
X120039000Y-119103000I0J-150000D01*
G01*
G37*
%TD.AperFunction*%
%TO.P,U102,12*%
%TO.N,Net-(U102-Pad12)*%
%TA.AperFunction,SMDPad,CuDef*%
G36*
G01*
X120039000Y-120373000D02*
X120039000Y-120673000D01*
G75*
G02*
X119889000Y-120823000I-150000J0D01*
G01*
X118239000Y-120823000D01*
G75*
G02*
X118089000Y-120673000I0J150000D01*
G01*
X118089000Y-120373000D01*
G75*
G02*
X118239000Y-120223000I150000J0D01*
G01*
X119889000Y-120223000D01*
G75*
G02*
X120039000Y-120373000I0J-150000D01*
G01*
G37*
%TD.AperFunction*%
%TO.P,U102,11*%
%TO.N,Net-(U102-Pad11)*%
%TA.AperFunction,SMDPad,CuDef*%
G36*
G01*
X120039000Y-121643000D02*
X120039000Y-121943000D01*
G75*
G02*
X119889000Y-122093000I-150000J0D01*
G01*
X118239000Y-122093000D01*
G75*
G02*
X118089000Y-121943000I0J150000D01*
G01*
X118089000Y-121643000D01*
G75*
G02*
X118239000Y-121493000I150000J0D01*
G01*
X119889000Y-121493000D01*
G75*
G02*
X120039000Y-121643000I0J-150000D01*
G01*
G37*
%TD.AperFunction*%
%TO.P,U102,10*%
%TO.N,Net-(U102-Pad10)*%
%TA.AperFunction,SMDPad,CuDef*%
G36*
G01*
X120039000Y-122913000D02*
X120039000Y-123213000D01*
G75*
G02*
X119889000Y-123363000I-150000J0D01*
G01*
X118239000Y-123363000D01*
G75*
G02*
X118089000Y-123213000I0J150000D01*
G01*
X118089000Y-122913000D01*
G75*
G02*
X118239000Y-122763000I150000J0D01*
G01*
X119889000Y-122763000D01*
G75*
G02*
X120039000Y-122913000I0J-150000D01*
G01*
G37*
%TD.AperFunction*%
%TO.P,U102,9*%
%TO.N,Net-(U102-Pad9)*%
%TA.AperFunction,SMDPad,CuDef*%
G36*
G01*
X120039000Y-124183000D02*
X120039000Y-124483000D01*
G75*
G02*
X119889000Y-124633000I-150000J0D01*
G01*
X118239000Y-124633000D01*
G75*
G02*
X118089000Y-124483000I0J150000D01*
G01*
X118089000Y-124183000D01*
G75*
G02*
X118239000Y-124033000I150000J0D01*
G01*
X119889000Y-124033000D01*
G75*
G02*
X120039000Y-124183000I0J-150000D01*
G01*
G37*
%TD.AperFunction*%
%TO.P,U102,8*%
%TO.N,Net-(U102-Pad8)*%
%TA.AperFunction,SMDPad,CuDef*%
G36*
G01*
X124989000Y-124183000D02*
X124989000Y-124483000D01*
G75*
G02*
X124839000Y-124633000I-150000J0D01*
G01*
X123189000Y-124633000D01*
G75*
G02*
X123039000Y-124483000I0J150000D01*
G01*
X123039000Y-124183000D01*
G75*
G02*
X123189000Y-124033000I150000J0D01*
G01*
X124839000Y-124033000D01*
G75*
G02*
X124989000Y-124183000I0J-150000D01*
G01*
G37*
%TD.AperFunction*%
%TO.P,U102,7*%
%TO.N,Net-(U102-Pad7)*%
%TA.AperFunction,SMDPad,CuDef*%
G36*
G01*
X124989000Y-122913000D02*
X124989000Y-123213000D01*
G75*
G02*
X124839000Y-123363000I-150000J0D01*
G01*
X123189000Y-123363000D01*
G75*
G02*
X123039000Y-123213000I0J150000D01*
G01*
X123039000Y-122913000D01*
G75*
G02*
X123189000Y-122763000I150000J0D01*
G01*
X124839000Y-122763000D01*
G75*
G02*
X124989000Y-122913000I0J-150000D01*
G01*
G37*
%TD.AperFunction*%
%TO.P,U102,6*%
%TO.N,/D-*%
%TA.AperFunction,SMDPad,CuDef*%
G36*
G01*
X124989000Y-121643000D02*
X124989000Y-121943000D01*
G75*
G02*
X124839000Y-122093000I-150000J0D01*
G01*
X123189000Y-122093000D01*
G75*
G02*
X123039000Y-121943000I0J150000D01*
G01*
X123039000Y-121643000D01*
G75*
G02*
X123189000Y-121493000I150000J0D01*
G01*
X124839000Y-121493000D01*
G75*
G02*
X124989000Y-121643000I0J-150000D01*
G01*
G37*
%TD.AperFunction*%
%TO.P,U102,5*%
%TO.N,/D+*%
%TA.AperFunction,SMDPad,CuDef*%
G36*
G01*
X124989000Y-120373000D02*
X124989000Y-120673000D01*
G75*
G02*
X124839000Y-120823000I-150000J0D01*
G01*
X123189000Y-120823000D01*
G75*
G02*
X123039000Y-120673000I0J150000D01*
G01*
X123039000Y-120373000D01*
G75*
G02*
X123189000Y-120223000I150000J0D01*
G01*
X124839000Y-120223000D01*
G75*
G02*
X124989000Y-120373000I0J-150000D01*
G01*
G37*
%TD.AperFunction*%
%TO.P,U102,4*%
%TO.N,Net-(C106-Pad1)*%
%TA.AperFunction,SMDPad,CuDef*%
G36*
G01*
X124989000Y-119103000D02*
X124989000Y-119403000D01*
G75*
G02*
X124839000Y-119553000I-150000J0D01*
G01*
X123189000Y-119553000D01*
G75*
G02*
X123039000Y-119403000I0J150000D01*
G01*
X123039000Y-119103000D01*
G75*
G02*
X123189000Y-118953000I150000J0D01*
G01*
X124839000Y-118953000D01*
G75*
G02*
X124989000Y-119103000I0J-150000D01*
G01*
G37*
%TD.AperFunction*%
%TO.P,U102,3*%
%TO.N,/RXD*%
%TA.AperFunction,SMDPad,CuDef*%
G36*
G01*
X124989000Y-117833000D02*
X124989000Y-118133000D01*
G75*
G02*
X124839000Y-118283000I-150000J0D01*
G01*
X123189000Y-118283000D01*
G75*
G02*
X123039000Y-118133000I0J150000D01*
G01*
X123039000Y-117833000D01*
G75*
G02*
X123189000Y-117683000I150000J0D01*
G01*
X124839000Y-117683000D01*
G75*
G02*
X124989000Y-117833000I0J-150000D01*
G01*
G37*
%TD.AperFunction*%
%TO.P,U102,2*%
%TO.N,/TXD*%
%TA.AperFunction,SMDPad,CuDef*%
G36*
G01*
X124989000Y-116563000D02*
X124989000Y-116863000D01*
G75*
G02*
X124839000Y-117013000I-150000J0D01*
G01*
X123189000Y-117013000D01*
G75*
G02*
X123039000Y-116863000I0J150000D01*
G01*
X123039000Y-116563000D01*
G75*
G02*
X123189000Y-116413000I150000J0D01*
G01*
X124839000Y-116413000D01*
G75*
G02*
X124989000Y-116563000I0J-150000D01*
G01*
G37*
%TD.AperFunction*%
%TO.P,U102,1*%
%TO.N,GND*%
%TA.AperFunction,SMDPad,CuDef*%
G36*
G01*
X124989000Y-115293000D02*
X124989000Y-115593000D01*
G75*
G02*
X124839000Y-115743000I-150000J0D01*
G01*
X123189000Y-115743000D01*
G75*
G02*
X123039000Y-115593000I0J150000D01*
G01*
X123039000Y-115293000D01*
G75*
G02*
X123189000Y-115143000I150000J0D01*
G01*
X124839000Y-115143000D01*
G75*
G02*
X124989000Y-115293000I0J-150000D01*
G01*
G37*
%TD.AperFunction*%
%TD*%
D19*
%TO.P,U101,32*%
%TO.N,/PS_INTERRUPT*%
X105986000Y-78480000D03*
%TO.P,U101,31*%
%TO.N,/RXD*%
X105986000Y-79280000D03*
%TO.P,U101,30*%
%TO.N,/TXD*%
X105986000Y-80080000D03*
%TO.P,U101,29*%
%TO.N,/~RESET*%
X105986000Y-80880000D03*
%TO.P,U101,28*%
%TO.N,/SCL*%
X105986000Y-81680000D03*
%TO.P,U101,27*%
%TO.N,/SDA*%
X105986000Y-82480000D03*
%TO.P,U101,26*%
%TO.N,/A3*%
X105986000Y-83280000D03*
%TO.P,U101,25*%
%TO.N,/A2*%
X105986000Y-84080000D03*
D20*
%TO.P,U101,24*%
%TO.N,/A1*%
X107436000Y-85530000D03*
%TO.P,U101,23*%
%TO.N,/A0*%
X108236000Y-85530000D03*
%TO.P,U101,22*%
%TO.N,/A7*%
X109036000Y-85530000D03*
%TO.P,U101,21*%
%TO.N,GND*%
X109836000Y-85530000D03*
%TO.P,U101,20*%
%TO.N,Net-(C104-Pad2)*%
X110636000Y-85530000D03*
%TO.P,U101,19*%
%TO.N,/A6*%
X111436000Y-85530000D03*
%TO.P,U101,18*%
%TO.N,+5V*%
X112236000Y-85530000D03*
%TO.P,U101,17*%
%TO.N,/SCK*%
X113036000Y-85530000D03*
D19*
%TO.P,U101,16*%
%TO.N,/MISO*%
X114486000Y-84080000D03*
%TO.P,U101,15*%
%TO.N,/MOSI*%
X114486000Y-83280000D03*
%TO.P,U101,14*%
%TO.N,Net-(U101-Pad14)*%
X114486000Y-82480000D03*
%TO.P,U101,13*%
%TO.N,Net-(U101-Pad13)*%
X114486000Y-81680000D03*
%TO.P,U101,12*%
%TO.N,Net-(U101-Pad12)*%
X114486000Y-80880000D03*
%TO.P,U101,11*%
%TO.N,Net-(U101-Pad11)*%
X114486000Y-80080000D03*
%TO.P,U101,10*%
%TO.N,/~PSON*%
X114486000Y-79280000D03*
%TO.P,U101,9*%
%TO.N,/~PRESENT*%
X114486000Y-78480000D03*
D20*
%TO.P,U101,8*%
%TO.N,Net-(C101-Pad1)*%
X113036000Y-77030000D03*
%TO.P,U101,7*%
%TO.N,Net-(C102-Pad1)*%
X112236000Y-77030000D03*
%TO.P,U101,6*%
%TO.N,+5V*%
X111436000Y-77030000D03*
%TO.P,U101,5*%
%TO.N,GND*%
X110636000Y-77030000D03*
%TO.P,U101,4*%
%TO.N,+5V*%
X109836000Y-77030000D03*
%TO.P,U101,3*%
%TO.N,GND*%
X109036000Y-77030000D03*
%TO.P,U101,2*%
%TO.N,/ATX_PWOK*%
X108236000Y-77030000D03*
%TO.P,U101,1*%
%TO.N,/~ATX_PSON*%
X107436000Y-77030000D03*
%TD*%
D21*
%TO.P,SW101,2*%
%TO.N,GND*%
X104104000Y-123698000D03*
%TO.P,SW101,1*%
%TO.N,/~RESET*%
X113284000Y-123698000D03*
%TD*%
%TO.P,R107,2*%
%TO.N,GND*%
%TA.AperFunction,SMDPad,CuDef*%
G36*
G01*
X113684000Y-91128001D02*
X113684000Y-90227999D01*
G75*
G02*
X113933999Y-89978000I249999J0D01*
G01*
X114459001Y-89978000D01*
G75*
G02*
X114709000Y-90227999I0J-249999D01*
G01*
X114709000Y-91128001D01*
G75*
G02*
X114459001Y-91378000I-249999J0D01*
G01*
X113933999Y-91378000D01*
G75*
G02*
X113684000Y-91128001I0J249999D01*
G01*
G37*
%TD.AperFunction*%
%TO.P,R107,1*%
%TO.N,/A7*%
%TA.AperFunction,SMDPad,CuDef*%
G36*
G01*
X111859000Y-91128001D02*
X111859000Y-90227999D01*
G75*
G02*
X112108999Y-89978000I249999J0D01*
G01*
X112634001Y-89978000D01*
G75*
G02*
X112884000Y-90227999I0J-249999D01*
G01*
X112884000Y-91128001D01*
G75*
G02*
X112634001Y-91378000I-249999J0D01*
G01*
X112108999Y-91378000D01*
G75*
G02*
X111859000Y-91128001I0J249999D01*
G01*
G37*
%TD.AperFunction*%
%TD*%
%TO.P,R106,2*%
%TO.N,/A7*%
%TA.AperFunction,SMDPad,CuDef*%
G36*
G01*
X112884000Y-92132999D02*
X112884000Y-93033001D01*
G75*
G02*
X112634001Y-93283000I-249999J0D01*
G01*
X112108999Y-93283000D01*
G75*
G02*
X111859000Y-93033001I0J249999D01*
G01*
X111859000Y-92132999D01*
G75*
G02*
X112108999Y-91883000I249999J0D01*
G01*
X112634001Y-91883000D01*
G75*
G02*
X112884000Y-92132999I0J-249999D01*
G01*
G37*
%TD.AperFunction*%
%TO.P,R106,1*%
%TO.N,+5V*%
%TA.AperFunction,SMDPad,CuDef*%
G36*
G01*
X114709000Y-92132999D02*
X114709000Y-93033001D01*
G75*
G02*
X114459001Y-93283000I-249999J0D01*
G01*
X113933999Y-93283000D01*
G75*
G02*
X113684000Y-93033001I0J249999D01*
G01*
X113684000Y-92132999D01*
G75*
G02*
X113933999Y-91883000I249999J0D01*
G01*
X114459001Y-91883000D01*
G75*
G02*
X114709000Y-92132999I0J-249999D01*
G01*
G37*
%TD.AperFunction*%
%TD*%
%TO.P,R101,2*%
%TO.N,+5V*%
%TA.AperFunction,SMDPad,CuDef*%
G36*
G01*
X110739500Y-121100001D02*
X110739500Y-120199999D01*
G75*
G02*
X110989499Y-119950000I249999J0D01*
G01*
X111514501Y-119950000D01*
G75*
G02*
X111764500Y-120199999I0J-249999D01*
G01*
X111764500Y-121100001D01*
G75*
G02*
X111514501Y-121350000I-249999J0D01*
G01*
X110989499Y-121350000D01*
G75*
G02*
X110739500Y-121100001I0J249999D01*
G01*
G37*
%TD.AperFunction*%
%TO.P,R101,1*%
%TO.N,/~RESET*%
%TA.AperFunction,SMDPad,CuDef*%
G36*
G01*
X108914500Y-121100001D02*
X108914500Y-120199999D01*
G75*
G02*
X109164499Y-119950000I249999J0D01*
G01*
X109689501Y-119950000D01*
G75*
G02*
X109939500Y-120199999I0J-249999D01*
G01*
X109939500Y-121100001D01*
G75*
G02*
X109689501Y-121350000I-249999J0D01*
G01*
X109164499Y-121350000D01*
G75*
G02*
X108914500Y-121100001I0J249999D01*
G01*
G37*
%TD.AperFunction*%
%TD*%
%TO.P,R6,2*%
%TO.N,GND*%
%TA.AperFunction,SMDPad,CuDef*%
G36*
G01*
X82912000Y-122993999D02*
X82912000Y-123894001D01*
G75*
G02*
X82662001Y-124144000I-249999J0D01*
G01*
X82136999Y-124144000D01*
G75*
G02*
X81887000Y-123894001I0J249999D01*
G01*
X81887000Y-122993999D01*
G75*
G02*
X82136999Y-122744000I249999J0D01*
G01*
X82662001Y-122744000D01*
G75*
G02*
X82912000Y-122993999I0J-249999D01*
G01*
G37*
%TD.AperFunction*%
%TO.P,R6,1*%
%TO.N,/ADDR*%
%TA.AperFunction,SMDPad,CuDef*%
G36*
G01*
X84737000Y-122993999D02*
X84737000Y-123894001D01*
G75*
G02*
X84487001Y-124144000I-249999J0D01*
G01*
X83961999Y-124144000D01*
G75*
G02*
X83712000Y-123894001I0J249999D01*
G01*
X83712000Y-122993999D01*
G75*
G02*
X83961999Y-122744000I249999J0D01*
G01*
X84487001Y-122744000D01*
G75*
G02*
X84737000Y-122993999I0J-249999D01*
G01*
G37*
%TD.AperFunction*%
%TD*%
%TO.P,R5,2*%
%TO.N,/ADDR*%
%TA.AperFunction,SMDPad,CuDef*%
G36*
G01*
X86364500Y-122993999D02*
X86364500Y-123894001D01*
G75*
G02*
X86114501Y-124144000I-249999J0D01*
G01*
X85589499Y-124144000D01*
G75*
G02*
X85339500Y-123894001I0J249999D01*
G01*
X85339500Y-122993999D01*
G75*
G02*
X85589499Y-122744000I249999J0D01*
G01*
X86114501Y-122744000D01*
G75*
G02*
X86364500Y-122993999I0J-249999D01*
G01*
G37*
%TD.AperFunction*%
%TO.P,R5,1*%
%TO.N,/+12VSB*%
%TA.AperFunction,SMDPad,CuDef*%
G36*
G01*
X88189500Y-122993999D02*
X88189500Y-123894001D01*
G75*
G02*
X87939501Y-124144000I-249999J0D01*
G01*
X87414499Y-124144000D01*
G75*
G02*
X87164500Y-123894001I0J249999D01*
G01*
X87164500Y-122993999D01*
G75*
G02*
X87414499Y-122744000I249999J0D01*
G01*
X87939501Y-122744000D01*
G75*
G02*
X88189500Y-122993999I0J-249999D01*
G01*
G37*
%TD.AperFunction*%
%TD*%
%TO.P,R1,2*%
%TO.N,/+12VSB*%
%TA.AperFunction,SMDPad,CuDef*%
G36*
G01*
X90747001Y-111487000D02*
X89846999Y-111487000D01*
G75*
G02*
X89597000Y-111237001I0J249999D01*
G01*
X89597000Y-110711999D01*
G75*
G02*
X89846999Y-110462000I249999J0D01*
G01*
X90747001Y-110462000D01*
G75*
G02*
X90997000Y-110711999I0J-249999D01*
G01*
X90997000Y-111237001D01*
G75*
G02*
X90747001Y-111487000I-249999J0D01*
G01*
G37*
%TD.AperFunction*%
%TO.P,R1,1*%
%TO.N,/~PRESENT*%
%TA.AperFunction,SMDPad,CuDef*%
G36*
G01*
X90747001Y-113312000D02*
X89846999Y-113312000D01*
G75*
G02*
X89597000Y-113062001I0J249999D01*
G01*
X89597000Y-112536999D01*
G75*
G02*
X89846999Y-112287000I249999J0D01*
G01*
X90747001Y-112287000D01*
G75*
G02*
X90997000Y-112536999I0J-249999D01*
G01*
X90997000Y-113062001D01*
G75*
G02*
X90747001Y-113312000I-249999J0D01*
G01*
G37*
%TD.AperFunction*%
%TD*%
D15*
%TO.P,J103,4*%
%TO.N,GND*%
X138049000Y-123063000D03*
%TO.P,J103,3*%
%TO.N,/D+*%
X140589000Y-123063000D03*
%TO.P,J103,2*%
%TO.N,/D-*%
X143129000Y-123063000D03*
D16*
%TO.P,J103,1*%
%TO.N,/VBUS*%
X145669000Y-123063000D03*
%TD*%
D15*
%TO.P,J102,6*%
%TO.N,GND*%
X134493000Y-114046000D03*
%TO.P,J102,5*%
%TO.N,/~RESET*%
X134493000Y-111506000D03*
%TO.P,J102,4*%
%TO.N,/MOSI*%
X131953000Y-114046000D03*
%TO.P,J102,3*%
%TO.N,/SCK*%
X131953000Y-111506000D03*
%TO.P,J102,2*%
%TO.N,+5V*%
X129413000Y-114046000D03*
D16*
%TO.P,J102,1*%
%TO.N,/MISO*%
X129413000Y-111506000D03*
%TD*%
%TO.P,J10,1*%
%TO.N,GND*%
%TA.AperFunction,ComponentPad*%
G36*
G01*
X133043900Y-76280000D02*
X129846100Y-76280000D01*
G75*
G02*
X129595000Y-76028900I0J251100D01*
G01*
X129595000Y-73831100D01*
G75*
G02*
X129846100Y-73580000I251100J0D01*
G01*
X133043900Y-73580000D01*
G75*
G02*
X133295000Y-73831100I0J-251100D01*
G01*
X133295000Y-76028900D01*
G75*
G02*
X133043900Y-76280000I-251100J0D01*
G01*
G37*
%TD.AperFunction*%
D22*
%TO.P,J10,2*%
%TO.N,+12V*%
X131445000Y-70730000D03*
%TO.P,J10,3*%
%TO.N,+5V*%
X127245000Y-74930000D03*
%TO.P,J10,4*%
%TO.N,Net-(J10-Pad4)*%
X127245000Y-70730000D03*
%TD*%
%TO.P,J9,1*%
%TO.N,GND*%
%TA.AperFunction,ComponentPad*%
G36*
G01*
X133043900Y-87075000D02*
X129846100Y-87075000D01*
G75*
G02*
X129595000Y-86823900I0J251100D01*
G01*
X129595000Y-84626100D01*
G75*
G02*
X129846100Y-84375000I251100J0D01*
G01*
X133043900Y-84375000D01*
G75*
G02*
X133295000Y-84626100I0J-251100D01*
G01*
X133295000Y-86823900D01*
G75*
G02*
X133043900Y-87075000I-251100J0D01*
G01*
G37*
%TD.AperFunction*%
%TO.P,J9,2*%
%TO.N,+12V*%
X131445000Y-81525000D03*
%TO.P,J9,3*%
%TO.N,+5V*%
X127245000Y-85725000D03*
%TO.P,J9,4*%
%TO.N,Net-(J9-Pad4)*%
X127245000Y-81525000D03*
%TD*%
D23*
%TO.P,J8,8*%
%TO.N,GND*%
X132715000Y-62620000D03*
%TO.P,J8,7*%
X136915000Y-62620000D03*
%TO.P,J8,6*%
X141115000Y-62620000D03*
%TO.P,J8,5*%
X145315000Y-62620000D03*
%TO.P,J8,4*%
%TO.N,+12V*%
X132715000Y-58420000D03*
%TO.P,J8,3*%
X136915000Y-58420000D03*
%TO.P,J8,1*%
%TA.AperFunction,ComponentPad*%
G36*
G01*
X146665000Y-56821100D02*
X146665000Y-60018900D01*
G75*
G02*
X146413900Y-60270000I-251100J0D01*
G01*
X144216100Y-60270000D01*
G75*
G02*
X143965000Y-60018900I0J251100D01*
G01*
X143965000Y-56821100D01*
G75*
G02*
X144216100Y-56570000I251100J0D01*
G01*
X146413900Y-56570000D01*
G75*
G02*
X146665000Y-56821100I0J-251100D01*
G01*
G37*
%TD.AperFunction*%
%TO.P,J8,2*%
X141115000Y-58420000D03*
%TD*%
%TO.P,J7,8*%
%TO.N,GND*%
X145315000Y-41910000D03*
%TO.P,J7,7*%
X141115000Y-41910000D03*
%TO.P,J7,6*%
X136915000Y-41910000D03*
%TO.P,J7,5*%
X132715000Y-41910000D03*
%TO.P,J7,4*%
%TO.N,+12V*%
X145315000Y-46110000D03*
%TO.P,J7,3*%
X141115000Y-46110000D03*
%TO.P,J7,1*%
%TA.AperFunction,ComponentPad*%
G36*
G01*
X131365000Y-47708900D02*
X131365000Y-44511100D01*
G75*
G02*
X131616100Y-44260000I251100J0D01*
G01*
X133813900Y-44260000D01*
G75*
G02*
X134065000Y-44511100I0J-251100D01*
G01*
X134065000Y-47708900D01*
G75*
G02*
X133813900Y-47960000I-251100J0D01*
G01*
X131616100Y-47960000D01*
G75*
G02*
X131365000Y-47708900I0J251100D01*
G01*
G37*
%TD.AperFunction*%
%TO.P,J7,2*%
X136915000Y-46110000D03*
%TD*%
%TO.P,J6,8*%
%TO.N,GND*%
X113030000Y-62620000D03*
%TO.P,J6,7*%
X117230000Y-62620000D03*
%TO.P,J6,6*%
X121430000Y-62620000D03*
%TO.P,J6,5*%
X125630000Y-62620000D03*
%TO.P,J6,4*%
%TO.N,+12V*%
X113030000Y-58420000D03*
%TO.P,J6,3*%
X117230000Y-58420000D03*
%TO.P,J6,1*%
%TA.AperFunction,ComponentPad*%
G36*
G01*
X126980000Y-56821100D02*
X126980000Y-60018900D01*
G75*
G02*
X126728900Y-60270000I-251100J0D01*
G01*
X124531100Y-60270000D01*
G75*
G02*
X124280000Y-60018900I0J251100D01*
G01*
X124280000Y-56821100D01*
G75*
G02*
X124531100Y-56570000I251100J0D01*
G01*
X126728900Y-56570000D01*
G75*
G02*
X126980000Y-56821100I0J-251100D01*
G01*
G37*
%TD.AperFunction*%
%TO.P,J6,2*%
X121430000Y-58420000D03*
%TD*%
%TO.P,J5,8*%
%TO.N,GND*%
X125630000Y-41910000D03*
%TO.P,J5,7*%
X121430000Y-41910000D03*
%TO.P,J5,6*%
X117230000Y-41910000D03*
%TO.P,J5,5*%
X113030000Y-41910000D03*
%TO.P,J5,4*%
%TO.N,+12V*%
X125630000Y-46110000D03*
%TO.P,J5,3*%
X121430000Y-46110000D03*
%TO.P,J5,1*%
%TA.AperFunction,ComponentPad*%
G36*
G01*
X111680000Y-47708900D02*
X111680000Y-44511100D01*
G75*
G02*
X111931100Y-44260000I251100J0D01*
G01*
X114128900Y-44260000D01*
G75*
G02*
X114380000Y-44511100I0J-251100D01*
G01*
X114380000Y-47708900D01*
G75*
G02*
X114128900Y-47960000I-251100J0D01*
G01*
X111931100Y-47960000D01*
G75*
G02*
X111680000Y-47708900I0J251100D01*
G01*
G37*
%TD.AperFunction*%
%TO.P,J5,2*%
X117230000Y-46110000D03*
%TD*%
%TO.P,J4,8*%
%TO.N,GND*%
X93345000Y-62620000D03*
%TO.P,J4,7*%
X97545000Y-62620000D03*
%TO.P,J4,6*%
X101745000Y-62620000D03*
%TO.P,J4,5*%
X105945000Y-62620000D03*
%TO.P,J4,4*%
%TO.N,+12V*%
X93345000Y-58420000D03*
%TO.P,J4,3*%
X97545000Y-58420000D03*
%TO.P,J4,1*%
%TA.AperFunction,ComponentPad*%
G36*
G01*
X107295000Y-56821100D02*
X107295000Y-60018900D01*
G75*
G02*
X107043900Y-60270000I-251100J0D01*
G01*
X104846100Y-60270000D01*
G75*
G02*
X104595000Y-60018900I0J251100D01*
G01*
X104595000Y-56821100D01*
G75*
G02*
X104846100Y-56570000I251100J0D01*
G01*
X107043900Y-56570000D01*
G75*
G02*
X107295000Y-56821100I0J-251100D01*
G01*
G37*
%TD.AperFunction*%
%TO.P,J4,2*%
X101745000Y-58420000D03*
%TD*%
%TO.P,J3,8*%
%TO.N,GND*%
X105945000Y-41910000D03*
%TO.P,J3,7*%
X101745000Y-41910000D03*
%TO.P,J3,6*%
X97545000Y-41910000D03*
%TO.P,J3,5*%
X93345000Y-41910000D03*
%TO.P,J3,4*%
%TO.N,+12V*%
X105945000Y-46110000D03*
%TO.P,J3,3*%
X101745000Y-46110000D03*
%TO.P,J3,1*%
%TA.AperFunction,ComponentPad*%
G36*
G01*
X91995000Y-47708900D02*
X91995000Y-44511100D01*
G75*
G02*
X92246100Y-44260000I251100J0D01*
G01*
X94443900Y-44260000D01*
G75*
G02*
X94695000Y-44511100I0J-251100D01*
G01*
X94695000Y-47708900D01*
G75*
G02*
X94443900Y-47960000I-251100J0D01*
G01*
X92246100Y-47960000D01*
G75*
G02*
X91995000Y-47708900I0J251100D01*
G01*
G37*
%TD.AperFunction*%
%TO.P,J3,2*%
X97545000Y-46110000D03*
%TD*%
D22*
%TO.P,J2,24*%
%TO.N,+12V*%
X143900000Y-116685000D03*
%TO.P,J2,23*%
%TO.N,GND*%
X143900000Y-112485000D03*
%TO.P,J2,22*%
X143900000Y-108285000D03*
%TO.P,J2,21*%
%TO.N,/ATX_PWOK*%
X143900000Y-104085000D03*
%TO.P,J2,20*%
%TO.N,/~ATX_PSON*%
X143900000Y-99885000D03*
%TO.P,J2,19*%
%TO.N,Net-(J2-Pad19)*%
X143900000Y-95685000D03*
%TO.P,J2,18*%
%TO.N,/+5VSB*%
X143900000Y-91485000D03*
%TO.P,J2,17*%
%TO.N,+3V3*%
X143900000Y-87285000D03*
%TO.P,J2,16*%
X143900000Y-83085000D03*
%TO.P,J2,15*%
%TO.N,Net-(J2-Pad15)*%
X143900000Y-78885000D03*
%TO.P,J2,14*%
%TO.N,+5V*%
X143900000Y-74685000D03*
%TO.P,J2,13*%
X143900000Y-70485000D03*
%TO.P,J2,12*%
%TO.N,+12V*%
X139700000Y-116685000D03*
%TO.P,J2,11*%
%TO.N,GND*%
X139700000Y-112485000D03*
%TO.P,J2,10*%
X139700000Y-108285000D03*
%TO.P,J2,9*%
X139700000Y-104085000D03*
%TO.P,J2,8*%
X139700000Y-99885000D03*
%TO.P,J2,7*%
X139700000Y-95685000D03*
%TO.P,J2,6*%
X139700000Y-91485000D03*
%TO.P,J2,5*%
%TO.N,+3V3*%
X139700000Y-87285000D03*
%TO.P,J2,4*%
X139700000Y-83085000D03*
%TO.P,J2,3*%
%TO.N,+5V*%
X139700000Y-78885000D03*
%TO.P,J2,1*%
%TA.AperFunction,ComponentPad*%
G36*
G01*
X138101100Y-69135000D02*
X141298900Y-69135000D01*
G75*
G02*
X141550000Y-69386100I0J-251100D01*
G01*
X141550000Y-71583900D01*
G75*
G02*
X141298900Y-71835000I-251100J0D01*
G01*
X138101100Y-71835000D01*
G75*
G02*
X137850000Y-71583900I0J251100D01*
G01*
X137850000Y-69386100D01*
G75*
G02*
X138101100Y-69135000I251100J0D01*
G01*
G37*
%TD.AperFunction*%
%TO.P,J2,2*%
X139700000Y-74685000D03*
%TD*%
D24*
%TO.P,J1,64*%
%TO.N,+12V*%
X88075000Y-41910000D03*
%TO.P,J1,63*%
X88075000Y-44450000D03*
%TO.P,J1,62*%
X88075000Y-46990000D03*
%TO.P,J1,61*%
X88075000Y-49530000D03*
%TO.P,J1,60*%
X88075000Y-52070000D03*
%TO.P,J1,59*%
X88075000Y-54610000D03*
%TO.P,J1,58*%
X88075000Y-57150000D03*
%TO.P,J1,57*%
X88075000Y-59690000D03*
%TO.P,J1,56*%
X88075000Y-62230000D03*
%TO.P,J1,55*%
X88075000Y-64770000D03*
%TO.P,J1,54*%
X88075000Y-67310000D03*
%TO.P,J1,53*%
X88075000Y-69850000D03*
%TO.P,J1,52*%
X88075000Y-72390000D03*
%TO.P,J1,51*%
%TO.N,GND*%
X88075000Y-74930000D03*
%TO.P,J1,50*%
X88075000Y-77470000D03*
%TO.P,J1,49*%
X88075000Y-80010000D03*
%TO.P,J1,48*%
X88075000Y-82550000D03*
%TO.P,J1,47*%
X88075000Y-85090000D03*
%TO.P,J1,46*%
X88075000Y-87630000D03*
%TO.P,J1,45*%
X88075000Y-90170000D03*
%TO.P,J1,44*%
X88075000Y-92710000D03*
%TO.P,J1,43*%
X88075000Y-95250000D03*
%TO.P,J1,42*%
X88075000Y-97790000D03*
%TO.P,J1,41*%
X88075000Y-100330000D03*
%TO.P,J1,40*%
X88075000Y-102870000D03*
%TO.P,J1,39*%
X88075000Y-105410000D03*
%TO.P,J1,38*%
%TO.N,/PS_INTERRUPT*%
X88075000Y-107950000D03*
%TO.P,J1,37*%
%TO.N,/+12VSB*%
X88075000Y-110490000D03*
%TO.P,J1,36*%
%TO.N,/~PRESENT*%
X88075000Y-113030000D03*
%TO.P,J1,35*%
%TO.N,/A3*%
X88075000Y-115570000D03*
%TO.P,J1,34*%
%TO.N,/IMONITOR*%
X88075000Y-118110000D03*
%TO.P,J1,33*%
%TO.N,/~PSON*%
X88075000Y-120650000D03*
D25*
%TO.P,J1,32*%
%TO.N,/SDA*%
X82805000Y-120650000D03*
%TO.P,J1,31*%
%TO.N,/SCL*%
X82805000Y-118110000D03*
%TO.P,J1,30*%
%TO.N,GND*%
X82805000Y-115570000D03*
%TO.P,J1,29*%
%TO.N,Net-(J1-Pad29)*%
X82805000Y-113030000D03*
%TO.P,J1,28*%
%TO.N,Net-(J1-Pad28)*%
X82805000Y-110490000D03*
%TO.P,J1,27*%
%TO.N,/ADDR*%
X82805000Y-107950000D03*
%TO.P,J1,26*%
%TO.N,GND*%
X82805000Y-105410000D03*
%TO.P,J1,25*%
X82805000Y-102870000D03*
%TO.P,J1,24*%
X82805000Y-100330000D03*
%TO.P,J1,23*%
X82805000Y-97790000D03*
%TO.P,J1,22*%
X82805000Y-95250000D03*
%TO.P,J1,21*%
X82805000Y-92710000D03*
%TO.P,J1,20*%
X82805000Y-90170000D03*
%TO.P,J1,19*%
X82805000Y-87630000D03*
%TO.P,J1,18*%
X82805000Y-85090000D03*
%TO.P,J1,17*%
X82805000Y-82550000D03*
%TO.P,J1,16*%
X82805000Y-80010000D03*
%TO.P,J1,15*%
X82805000Y-77470000D03*
%TO.P,J1,14*%
X82805000Y-74930000D03*
%TO.P,J1,13*%
%TO.N,+12V*%
X82805000Y-72390000D03*
%TO.P,J1,12*%
X82805000Y-69850000D03*
%TO.P,J1,11*%
X82805000Y-67310000D03*
%TO.P,J1,10*%
X82805000Y-64770000D03*
%TO.P,J1,9*%
X82805000Y-62230000D03*
%TO.P,J1,8*%
X82805000Y-59690000D03*
%TO.P,J1,7*%
X82805000Y-57150000D03*
%TO.P,J1,6*%
X82805000Y-54610000D03*
%TO.P,J1,5*%
X82805000Y-52070000D03*
%TO.P,J1,4*%
X82805000Y-49530000D03*
%TO.P,J1,3*%
X82805000Y-46990000D03*
%TO.P,J1,2*%
X82805000Y-44450000D03*
%TO.P,J1,32*%
%TO.N,/SDA*%
X84455000Y-120650000D03*
%TO.P,J1,31*%
%TO.N,/SCL*%
X84455000Y-118110000D03*
%TO.P,J1,30*%
%TO.N,GND*%
X84455000Y-115570000D03*
%TO.P,J1,29*%
%TO.N,Net-(J1-Pad29)*%
X84455000Y-113030000D03*
%TO.P,J1,28*%
%TO.N,Net-(J1-Pad28)*%
X84455000Y-110490000D03*
%TO.P,J1,27*%
%TO.N,/ADDR*%
X84455000Y-107950000D03*
%TO.P,J1,26*%
%TO.N,GND*%
X84455000Y-105410000D03*
%TO.P,J1,25*%
X84455000Y-102870000D03*
%TO.P,J1,24*%
X84455000Y-100330000D03*
%TO.P,J1,23*%
X84455000Y-97790000D03*
%TO.P,J1,22*%
X84455000Y-95250000D03*
%TO.P,J1,21*%
X84455000Y-92710000D03*
%TO.P,J1,20*%
X84455000Y-90170000D03*
%TO.P,J1,19*%
X84455000Y-87630000D03*
%TO.P,J1,18*%
X84455000Y-85090000D03*
%TO.P,J1,17*%
X84455000Y-82550000D03*
%TO.P,J1,16*%
X84455000Y-80010000D03*
%TO.P,J1,15*%
X84455000Y-77470000D03*
%TO.P,J1,14*%
X84455000Y-74930000D03*
%TO.P,J1,13*%
%TO.N,+12V*%
X84455000Y-72390000D03*
%TO.P,J1,12*%
X84455000Y-69850000D03*
%TO.P,J1,11*%
X84455000Y-67310000D03*
%TO.P,J1,10*%
X84455000Y-64770000D03*
%TO.P,J1,9*%
X84455000Y-62230000D03*
%TO.P,J1,8*%
X84455000Y-59690000D03*
%TO.P,J1,7*%
X84455000Y-57150000D03*
%TO.P,J1,6*%
X84455000Y-54610000D03*
%TO.P,J1,5*%
X84455000Y-52070000D03*
%TO.P,J1,4*%
X84455000Y-49530000D03*
%TO.P,J1,3*%
X84455000Y-46990000D03*
%TO.P,J1,2*%
X84455000Y-44450000D03*
%TO.P,J1,1*%
X82805000Y-41910000D03*
X84455000Y-41910000D03*
%TD*%
%TO.P,C108,2*%
%TO.N,/~RESET*%
%TA.AperFunction,SMDPad,CuDef*%
G36*
G01*
X115562000Y-118905000D02*
X115562000Y-119855000D01*
G75*
G02*
X115312000Y-120105000I-250000J0D01*
G01*
X114812000Y-120105000D01*
G75*
G02*
X114562000Y-119855000I0J250000D01*
G01*
X114562000Y-118905000D01*
G75*
G02*
X114812000Y-118655000I250000J0D01*
G01*
X115312000Y-118655000D01*
G75*
G02*
X115562000Y-118905000I0J-250000D01*
G01*
G37*
%TD.AperFunction*%
%TO.P,C108,1*%
%TO.N,Net-(C108-Pad1)*%
%TA.AperFunction,SMDPad,CuDef*%
G36*
G01*
X117462000Y-118905000D02*
X117462000Y-119855000D01*
G75*
G02*
X117212000Y-120105000I-250000J0D01*
G01*
X116712000Y-120105000D01*
G75*
G02*
X116462000Y-119855000I0J250000D01*
G01*
X116462000Y-118905000D01*
G75*
G02*
X116712000Y-118655000I250000J0D01*
G01*
X117212000Y-118655000D01*
G75*
G02*
X117462000Y-118905000I0J-250000D01*
G01*
G37*
%TD.AperFunction*%
%TD*%
%TO.P,C107,2*%
%TO.N,GND*%
%TA.AperFunction,SMDPad,CuDef*%
G36*
G01*
X123960000Y-114140000D02*
X123960000Y-113190000D01*
G75*
G02*
X124210000Y-112940000I250000J0D01*
G01*
X124710000Y-112940000D01*
G75*
G02*
X124960000Y-113190000I0J-250000D01*
G01*
X124960000Y-114140000D01*
G75*
G02*
X124710000Y-114390000I-250000J0D01*
G01*
X124210000Y-114390000D01*
G75*
G02*
X123960000Y-114140000I0J250000D01*
G01*
G37*
%TD.AperFunction*%
%TO.P,C107,1*%
%TO.N,+5V*%
%TA.AperFunction,SMDPad,CuDef*%
G36*
G01*
X122060000Y-114140000D02*
X122060000Y-113190000D01*
G75*
G02*
X122310000Y-112940000I250000J0D01*
G01*
X122810000Y-112940000D01*
G75*
G02*
X123060000Y-113190000I0J-250000D01*
G01*
X123060000Y-114140000D01*
G75*
G02*
X122810000Y-114390000I-250000J0D01*
G01*
X122310000Y-114390000D01*
G75*
G02*
X122060000Y-114140000I0J250000D01*
G01*
G37*
%TD.AperFunction*%
%TD*%
%TO.P,C106,2*%
%TO.N,GND*%
%TA.AperFunction,SMDPad,CuDef*%
G36*
G01*
X126967000Y-114866000D02*
X126017000Y-114866000D01*
G75*
G02*
X125767000Y-114616000I0J250000D01*
G01*
X125767000Y-114116000D01*
G75*
G02*
X126017000Y-113866000I250000J0D01*
G01*
X126967000Y-113866000D01*
G75*
G02*
X127217000Y-114116000I0J-250000D01*
G01*
X127217000Y-114616000D01*
G75*
G02*
X126967000Y-114866000I-250000J0D01*
G01*
G37*
%TD.AperFunction*%
%TO.P,C106,1*%
%TO.N,Net-(C106-Pad1)*%
%TA.AperFunction,SMDPad,CuDef*%
G36*
G01*
X126967000Y-116766000D02*
X126017000Y-116766000D01*
G75*
G02*
X125767000Y-116516000I0J250000D01*
G01*
X125767000Y-116016000D01*
G75*
G02*
X126017000Y-115766000I250000J0D01*
G01*
X126967000Y-115766000D01*
G75*
G02*
X127217000Y-116016000I0J-250000D01*
G01*
X127217000Y-116516000D01*
G75*
G02*
X126967000Y-116766000I-250000J0D01*
G01*
G37*
%TD.AperFunction*%
%TD*%
%TO.P,C105,2*%
%TO.N,/~RESET*%
%TA.AperFunction,SMDPad,CuDef*%
G36*
G01*
X107323000Y-121125000D02*
X107323000Y-120175000D01*
G75*
G02*
X107573000Y-119925000I250000J0D01*
G01*
X108073000Y-119925000D01*
G75*
G02*
X108323000Y-120175000I0J-250000D01*
G01*
X108323000Y-121125000D01*
G75*
G02*
X108073000Y-121375000I-250000J0D01*
G01*
X107573000Y-121375000D01*
G75*
G02*
X107323000Y-121125000I0J250000D01*
G01*
G37*
%TD.AperFunction*%
%TO.P,C105,1*%
%TO.N,GND*%
%TA.AperFunction,SMDPad,CuDef*%
G36*
G01*
X105423000Y-121125000D02*
X105423000Y-120175000D01*
G75*
G02*
X105673000Y-119925000I250000J0D01*
G01*
X106173000Y-119925000D01*
G75*
G02*
X106423000Y-120175000I0J-250000D01*
G01*
X106423000Y-121125000D01*
G75*
G02*
X106173000Y-121375000I-250000J0D01*
G01*
X105673000Y-121375000D01*
G75*
G02*
X105423000Y-121125000I0J250000D01*
G01*
G37*
%TD.AperFunction*%
%TD*%
%TO.P,C104,1*%
%TO.N,GND*%
%TA.AperFunction,SMDPad,CuDef*%
G36*
G01*
X111092000Y-89903000D02*
X110142000Y-89903000D01*
G75*
G02*
X109892000Y-89653000I0J250000D01*
G01*
X109892000Y-89153000D01*
G75*
G02*
X110142000Y-88903000I250000J0D01*
G01*
X111092000Y-88903000D01*
G75*
G02*
X111342000Y-89153000I0J-250000D01*
G01*
X111342000Y-89653000D01*
G75*
G02*
X111092000Y-89903000I-250000J0D01*
G01*
G37*
%TD.AperFunction*%
%TO.P,C104,2*%
%TO.N,Net-(C104-Pad2)*%
%TA.AperFunction,SMDPad,CuDef*%
G36*
G01*
X111092000Y-88003000D02*
X110142000Y-88003000D01*
G75*
G02*
X109892000Y-87753000I0J250000D01*
G01*
X109892000Y-87253000D01*
G75*
G02*
X110142000Y-87003000I250000J0D01*
G01*
X111092000Y-87003000D01*
G75*
G02*
X111342000Y-87253000I0J-250000D01*
G01*
X111342000Y-87753000D01*
G75*
G02*
X111092000Y-88003000I-250000J0D01*
G01*
G37*
%TD.AperFunction*%
%TD*%
%TO.P,C103,2*%
%TO.N,+5V*%
%TA.AperFunction,SMDPad,CuDef*%
G36*
G01*
X110371000Y-75278000D02*
X110371000Y-74328000D01*
G75*
G02*
X110621000Y-74078000I250000J0D01*
G01*
X111121000Y-74078000D01*
G75*
G02*
X111371000Y-74328000I0J-250000D01*
G01*
X111371000Y-75278000D01*
G75*
G02*
X111121000Y-75528000I-250000J0D01*
G01*
X110621000Y-75528000D01*
G75*
G02*
X110371000Y-75278000I0J250000D01*
G01*
G37*
%TD.AperFunction*%
%TO.P,C103,1*%
%TO.N,GND*%
%TA.AperFunction,SMDPad,CuDef*%
G36*
G01*
X108471000Y-75278000D02*
X108471000Y-74328000D01*
G75*
G02*
X108721000Y-74078000I250000J0D01*
G01*
X109221000Y-74078000D01*
G75*
G02*
X109471000Y-74328000I0J-250000D01*
G01*
X109471000Y-75278000D01*
G75*
G02*
X109221000Y-75528000I-250000J0D01*
G01*
X108721000Y-75528000D01*
G75*
G02*
X108471000Y-75278000I0J250000D01*
G01*
G37*
%TD.AperFunction*%
%TD*%
%TO.P,C102,2*%
%TO.N,GND*%
%TA.AperFunction,SMDPad,CuDef*%
G36*
G01*
X109471000Y-70010000D02*
X109471000Y-70960000D01*
G75*
G02*
X109221000Y-71210000I-250000J0D01*
G01*
X108721000Y-71210000D01*
G75*
G02*
X108471000Y-70960000I0J250000D01*
G01*
X108471000Y-70010000D01*
G75*
G02*
X108721000Y-69760000I250000J0D01*
G01*
X109221000Y-69760000D01*
G75*
G02*
X109471000Y-70010000I0J-250000D01*
G01*
G37*
%TD.AperFunction*%
%TO.P,C102,1*%
%TO.N,Net-(C102-Pad1)*%
%TA.AperFunction,SMDPad,CuDef*%
G36*
G01*
X111371000Y-70010000D02*
X111371000Y-70960000D01*
G75*
G02*
X111121000Y-71210000I-250000J0D01*
G01*
X110621000Y-71210000D01*
G75*
G02*
X110371000Y-70960000I0J250000D01*
G01*
X110371000Y-70010000D01*
G75*
G02*
X110621000Y-69760000I250000J0D01*
G01*
X111121000Y-69760000D01*
G75*
G02*
X111371000Y-70010000I0J-250000D01*
G01*
G37*
%TD.AperFunction*%
%TD*%
%TO.P,C101,2*%
%TO.N,GND*%
%TA.AperFunction,SMDPad,CuDef*%
G36*
G01*
X109471000Y-72042000D02*
X109471000Y-72992000D01*
G75*
G02*
X109221000Y-73242000I-250000J0D01*
G01*
X108721000Y-73242000D01*
G75*
G02*
X108471000Y-72992000I0J250000D01*
G01*
X108471000Y-72042000D01*
G75*
G02*
X108721000Y-71792000I250000J0D01*
G01*
X109221000Y-71792000D01*
G75*
G02*
X109471000Y-72042000I0J-250000D01*
G01*
G37*
%TD.AperFunction*%
%TO.P,C101,1*%
%TO.N,Net-(C101-Pad1)*%
%TA.AperFunction,SMDPad,CuDef*%
G36*
G01*
X111371000Y-72042000D02*
X111371000Y-72992000D01*
G75*
G02*
X111121000Y-73242000I-250000J0D01*
G01*
X110621000Y-73242000D01*
G75*
G02*
X110371000Y-72992000I0J250000D01*
G01*
X110371000Y-72042000D01*
G75*
G02*
X110621000Y-71792000I250000J0D01*
G01*
X111121000Y-71792000D01*
G75*
G02*
X111371000Y-72042000I0J-250000D01*
G01*
G37*
%TD.AperFunction*%
%TD*%
%TO.P,C7,2*%
%TO.N,GND*%
%TA.AperFunction,SMDPad,CuDef*%
G36*
G01*
X104672000Y-100346000D02*
X104672000Y-102346000D01*
G75*
G02*
X104422000Y-102596000I-250000J0D01*
G01*
X101422000Y-102596000D01*
G75*
G02*
X101172000Y-102346000I0J250000D01*
G01*
X101172000Y-100346000D01*
G75*
G02*
X101422000Y-100096000I250000J0D01*
G01*
X104422000Y-100096000D01*
G75*
G02*
X104672000Y-100346000I0J-250000D01*
G01*
G37*
%TD.AperFunction*%
%TO.P,C7,1*%
%TO.N,/+5VSB*%
%TA.AperFunction,SMDPad,CuDef*%
G36*
G01*
X111172000Y-100346000D02*
X111172000Y-102346000D01*
G75*
G02*
X110922000Y-102596000I-250000J0D01*
G01*
X107922000Y-102596000D01*
G75*
G02*
X107672000Y-102346000I0J250000D01*
G01*
X107672000Y-100346000D01*
G75*
G02*
X107922000Y-100096000I250000J0D01*
G01*
X110922000Y-100096000D01*
G75*
G02*
X111172000Y-100346000I0J-250000D01*
G01*
G37*
%TD.AperFunction*%
%TD*%
D26*
%TO.N,GND*%
X123952000Y-71755000D03*
X123063000Y-71755000D03*
X122174000Y-71755000D03*
X123952000Y-70866000D03*
X122174000Y-70866000D03*
X123063000Y-70866000D03*
X123952000Y-69977000D03*
X123952000Y-69088000D03*
X123952000Y-68199000D03*
X123952000Y-67310000D03*
X122174000Y-67310000D03*
X122174000Y-68199000D03*
X122174000Y-69088000D03*
X122174000Y-69977000D03*
X107950000Y-110744000D03*
X107061000Y-110744000D03*
X106172000Y-110744000D03*
X105283000Y-110744000D03*
X104394000Y-110744000D03*
X103505000Y-110744000D03*
X102616000Y-110744000D03*
X102616000Y-108966000D03*
X103505000Y-108966000D03*
X104394000Y-108966000D03*
X105283000Y-108966000D03*
X106172000Y-108966000D03*
X107061000Y-108966000D03*
X107950000Y-108966000D03*
X107950000Y-109855000D03*
X107061000Y-109855000D03*
X106172000Y-109855000D03*
X105283000Y-109855000D03*
X104394000Y-109855000D03*
X103505000Y-109855000D03*
X102616000Y-109855000D03*
X123063000Y-67310000D03*
X123063000Y-68199000D03*
X123063000Y-69088000D03*
X123063000Y-69977000D03*
X89662000Y-119253000D03*
X113210000Y-115623000D03*
X110631498Y-78676456D03*
X108839000Y-83185000D03*
%TO.N,/~PSON*%
X97028000Y-84074000D03*
X112141000Y-115124998D03*
X120269000Y-107061000D03*
%TO.N,+12V*%
X99695000Y-101219000D03*
X98806000Y-101219000D03*
X97917000Y-101219000D03*
X97028000Y-101219000D03*
X96139000Y-101219000D03*
X99695000Y-99441000D03*
X98806000Y-99441000D03*
X97917000Y-99441000D03*
X97028000Y-99441000D03*
X96139000Y-99441000D03*
X96139000Y-100330000D03*
X97028000Y-100330000D03*
X97917000Y-100330000D03*
X98806000Y-100330000D03*
X99695000Y-100330000D03*
%TO.N,+5V*%
X111436000Y-84004000D03*
X129286000Y-99277000D03*
X120903994Y-83820000D03*
X111379000Y-93472000D03*
%TO.N,+3V3*%
X129917999Y-100202919D03*
X130302000Y-93853000D03*
X112268000Y-94361000D03*
%TO.N,/+5VSB*%
X117983000Y-98552000D03*
X117983000Y-99441000D03*
X117983000Y-100330000D03*
X117983000Y-101219000D03*
X117983000Y-102108000D03*
X116205000Y-102108000D03*
X116205000Y-101219000D03*
X116205000Y-100330000D03*
X116205000Y-99441000D03*
X116205000Y-98552000D03*
X117094000Y-98552000D03*
X117094000Y-102108000D03*
X117094000Y-101219000D03*
X117094000Y-100330000D03*
X117094000Y-99441000D03*
%TO.N,/~RESET*%
X102235000Y-86868000D03*
X102235000Y-80137000D03*
%TO.N,/PS_INTERRUPT*%
X97028000Y-77978000D03*
%TO.N,/~PRESENT*%
X97028000Y-81026000D03*
%TO.N,/SDA*%
X97028000Y-80010000D03*
%TO.N,/SCL*%
X97028000Y-78994000D03*
%TO.N,/~ATX_PSON*%
X123444004Y-105731000D03*
X103251000Y-86868000D03*
X106807000Y-77089000D03*
%TO.N,Net-(J101-PadB5)*%
X129060000Y-119860000D03*
%TO.N,/D+*%
X127508000Y-120904000D03*
X131116859Y-123899141D03*
%TO.N,Net-(J101-PadA5)*%
X132060000Y-120376000D03*
%TO.N,/SCK*%
X127635000Y-111506000D03*
%TO.N,/A2*%
X97028000Y-83058000D03*
%TO.N,/ATX_PWOK*%
X125857000Y-99568000D03*
X110617000Y-82550000D03*
X118872000Y-77343000D03*
%TO.N,/A1*%
X103759000Y-84836000D03*
%TO.N,/A3*%
X97028000Y-82042000D03*
%TO.N,/A6*%
X114808000Y-86995000D03*
X134620000Y-101092000D03*
X112268000Y-86995000D03*
%TO.N,/RXD*%
X120904000Y-116332000D03*
X119634000Y-113981000D03*
X100203000Y-86868000D03*
X100203000Y-78678000D03*
%TO.N,/TXD*%
X122301000Y-116332000D03*
X120396000Y-113157000D03*
X101219000Y-86868000D03*
X101219000Y-79378000D03*
%TD*%
D27*
%TO.N,GND*%
X102235000Y-109855000D02*
X102235000Y-109855000D01*
X103124000Y-109855000D02*
X103505000Y-109855000D01*
X104013000Y-109855000D02*
X104394000Y-109855000D01*
X104902000Y-109855000D02*
X105283000Y-109855000D01*
X105791000Y-109855000D02*
X106172000Y-109855000D01*
X106680000Y-109855000D02*
X107061000Y-109855000D01*
X107950000Y-109855000D02*
X107950000Y-109855000D01*
X107061000Y-109855000D02*
X107950000Y-109855000D01*
X106172000Y-109855000D02*
X106680000Y-109855000D01*
X105283000Y-109855000D02*
X105791000Y-109855000D01*
X104394000Y-109855000D02*
X104902000Y-109855000D01*
X103505000Y-109855000D02*
X104013000Y-109855000D01*
X102616000Y-109855000D02*
X103124000Y-109855000D01*
X131445000Y-85725000D02*
X131445000Y-86995000D01*
X131445000Y-86995000D02*
X129286000Y-89154000D01*
X123063000Y-80137000D02*
X124968000Y-78232000D01*
X131445000Y-76280000D02*
X131445000Y-74930000D01*
X129493000Y-78232000D02*
X131445000Y-76280000D01*
X124968000Y-78232000D02*
X129493000Y-78232000D01*
X123063000Y-80137000D02*
X123063000Y-70866000D01*
X129286000Y-89154000D02*
X131617000Y-91485000D01*
X143900000Y-108285000D02*
X139700000Y-108285000D01*
X143900000Y-108285000D02*
X143900000Y-112485000D01*
X143900000Y-112485000D02*
X139700000Y-112485000D01*
X139700000Y-112485000D02*
X139700000Y-108285000D01*
X139700000Y-112485000D02*
X143900000Y-108285000D01*
X143900000Y-108285000D02*
X141813000Y-108285000D01*
X139700000Y-106172000D02*
X139700000Y-108285000D01*
X141813000Y-108285000D02*
X139700000Y-106172000D01*
X139700000Y-91485000D02*
X139700000Y-106172000D01*
X139700000Y-94705000D02*
X136480000Y-91485000D01*
X139700000Y-95685000D02*
X139700000Y-94705000D01*
X136480000Y-91485000D02*
X139700000Y-91485000D01*
X131617000Y-91485000D02*
X136480000Y-91485000D01*
X102235000Y-109855000D02*
X102616000Y-109855000D01*
X102235000Y-106299000D02*
X102235000Y-109855000D01*
X88900000Y-104140000D02*
X100076000Y-104140000D01*
X88075000Y-103315000D02*
X88900000Y-104140000D01*
X88075000Y-102870000D02*
X88075000Y-103315000D01*
X102922000Y-103453000D02*
X101155500Y-105219500D01*
X102922000Y-101346000D02*
X102922000Y-103453000D01*
X101155500Y-105219500D02*
X102235000Y-106299000D01*
X100076000Y-104140000D02*
X101155500Y-105219500D01*
X102235000Y-106299000D02*
X102235000Y-117475000D01*
D28*
X82399500Y-123444000D02*
X82399500Y-123293500D01*
X81534000Y-116841000D02*
X82805000Y-115570000D01*
X81534000Y-121878500D02*
X81534000Y-116841000D01*
X82399500Y-122744000D02*
X81534000Y-121878500D01*
X82399500Y-123444000D02*
X82399500Y-122744000D01*
D29*
X82805000Y-115570000D02*
X84455000Y-115570000D01*
D28*
X125415000Y-115443000D02*
X126492000Y-114366000D01*
X124014000Y-115443000D02*
X125415000Y-115443000D01*
X124460000Y-114997000D02*
X124014000Y-115443000D01*
X124460000Y-113792000D02*
X124460000Y-114997000D01*
X134550000Y-118267000D02*
X135130000Y-118847000D01*
X134010000Y-118267000D02*
X134550000Y-118267000D01*
X127070000Y-118267000D02*
X126490000Y-118847000D01*
X127610000Y-118267000D02*
X127070000Y-118267000D01*
X127610000Y-118267000D02*
X127610000Y-117500000D01*
X128651000Y-116459000D02*
X128778000Y-116332000D01*
X127610000Y-117500000D02*
X128651000Y-116459000D01*
X134010000Y-117500000D02*
X134010000Y-118267000D01*
X132715000Y-116205000D02*
X134010000Y-117500000D01*
X128905000Y-116205000D02*
X132715000Y-116205000D01*
X128651000Y-116459000D02*
X128905000Y-116205000D01*
X128585000Y-116459000D02*
X128651000Y-116459000D01*
X126492000Y-114366000D02*
X128585000Y-116459000D01*
X108971000Y-70485000D02*
X108971000Y-72517000D01*
X108971000Y-72517000D02*
X108971000Y-74803000D01*
X109036000Y-74868000D02*
X108971000Y-74803000D01*
X109036000Y-77030000D02*
X109036000Y-74868000D01*
X110617000Y-89403000D02*
X109601000Y-88387000D01*
X109601000Y-88387000D02*
X109596000Y-88387000D01*
X109596000Y-88387000D02*
X109474000Y-88265000D01*
X109836000Y-86293001D02*
X109836000Y-85530000D01*
X109474000Y-86655001D02*
X109836000Y-86293001D01*
X109474000Y-88265000D02*
X109474000Y-86655001D01*
D30*
X84455000Y-115570000D02*
X86106000Y-113919000D01*
X86106000Y-113919000D02*
X86106000Y-105918000D01*
D27*
X123063000Y-70866000D02*
X123063000Y-67000000D01*
D31*
X97917000Y-117983000D02*
X97409000Y-117475000D01*
X97917000Y-123317000D02*
X97917000Y-117983000D01*
D27*
X97409000Y-117475000D02*
X102235000Y-117475000D01*
X95885000Y-117475000D02*
X97409000Y-117475000D01*
D31*
X86233000Y-118745000D02*
X86233000Y-117348000D01*
X86868000Y-119380000D02*
X86233000Y-118745000D01*
X89154000Y-119380000D02*
X86868000Y-119380000D01*
X86233000Y-117348000D02*
X84455000Y-115570000D01*
X89281000Y-119253000D02*
X89154000Y-119380000D01*
X89662000Y-119253000D02*
X89281000Y-119253000D01*
X104122000Y-122192000D02*
X105918000Y-120396000D01*
X104122000Y-123444000D02*
X104122000Y-122192000D01*
X105918000Y-117602000D02*
X105791000Y-117475000D01*
X105918000Y-120396000D02*
X105918000Y-117602000D01*
D27*
X105791000Y-117475000D02*
X111760000Y-117475000D01*
X102235000Y-117475000D02*
X105791000Y-117475000D01*
D32*
X113210000Y-116025000D02*
X113210000Y-115623000D01*
X111760000Y-117475000D02*
X113210000Y-116025000D01*
D31*
X110636000Y-77030000D02*
X110636000Y-78671954D01*
X110636000Y-78671954D02*
X110631498Y-78676456D01*
X109836000Y-84182000D02*
X108966000Y-83312000D01*
X109836000Y-85530000D02*
X109836000Y-84182000D01*
D27*
X123131009Y-80205009D02*
X123063000Y-80137000D01*
X129286000Y-89154000D02*
X125095000Y-89154000D01*
X123131009Y-87190009D02*
X123131009Y-80205009D01*
X125095000Y-89154000D02*
X123131009Y-87190009D01*
D31*
X112921500Y-89403000D02*
X110617000Y-89403000D01*
X114196500Y-90678000D02*
X112921500Y-89403000D01*
D28*
X134493000Y-114427000D02*
X134493000Y-114046000D01*
X132715000Y-116205000D02*
X134493000Y-114427000D01*
X109036000Y-78048000D02*
X109036000Y-77030000D01*
X109220000Y-78232000D02*
X109036000Y-78048000D01*
X110490000Y-78232000D02*
X109220000Y-78232000D01*
X110636000Y-78086000D02*
X110490000Y-78232000D01*
X110636000Y-77030000D02*
X110636000Y-78086000D01*
D31*
%TO.N,/~PSON*%
X115468699Y-79280000D02*
X114486000Y-79280000D01*
X116351010Y-78397689D02*
X115468699Y-79280000D01*
X116351010Y-69811311D02*
X116351010Y-78397689D01*
X115354689Y-68814990D02*
X116351010Y-69811311D01*
X97751311Y-68814990D02*
X115354689Y-68814990D01*
X95865990Y-80429689D02*
X95865990Y-70700311D01*
X95865992Y-82911992D02*
X95865992Y-80429691D01*
X95865990Y-70700311D02*
X97751311Y-68814990D01*
X95865992Y-80429691D02*
X95865990Y-80429689D01*
X97028000Y-84074000D02*
X95865992Y-82911992D01*
X120204998Y-107061000D02*
X120269000Y-107061000D01*
X112141000Y-115124998D02*
X120204998Y-107061000D01*
D27*
%TO.N,+12V*%
X88075000Y-69850000D02*
X91440000Y-69850000D01*
X91440000Y-69850000D02*
X92710000Y-71120000D01*
X92710000Y-71120000D02*
X92710000Y-97790000D01*
X92710000Y-97790000D02*
X95250000Y-100330000D01*
X95250000Y-100330000D02*
X99060000Y-100330000D01*
X134230000Y-70730000D02*
X131445000Y-70730000D01*
X135382000Y-71882000D02*
X134230000Y-70730000D01*
X135382000Y-77216000D02*
X135382000Y-71882000D01*
X131445000Y-81153000D02*
X135382000Y-77216000D01*
X131445000Y-81525000D02*
X131445000Y-81153000D01*
X131445000Y-70730000D02*
X131445000Y-68199000D01*
X131445000Y-68199000D02*
X129159000Y-65913000D01*
X129159000Y-65913000D02*
X129159000Y-59055000D01*
D33*
X131445000Y-68199000D02*
X132588000Y-67056000D01*
X132588000Y-67056000D02*
X145796000Y-67056000D01*
X145796000Y-67056000D02*
X147364990Y-68624990D01*
X147364990Y-68624990D02*
X147364990Y-114763010D01*
X145443000Y-116685000D02*
X143900000Y-116685000D01*
X147364990Y-114763010D02*
X145443000Y-116685000D01*
X139700000Y-116685000D02*
X143900000Y-116685000D01*
D28*
%TO.N,+5V*%
X111436000Y-75368000D02*
X111436000Y-77030000D01*
X110871000Y-74803000D02*
X111436000Y-75368000D01*
X109836000Y-75838000D02*
X109836000Y-77030000D01*
X110871000Y-74803000D02*
X109836000Y-75838000D01*
D31*
X112236000Y-84804000D02*
X112236000Y-85530000D01*
X111436000Y-84004000D02*
X112236000Y-84804000D01*
X111436000Y-77030000D02*
X111436000Y-84004000D01*
X111436000Y-84004000D02*
X111436000Y-84004000D01*
X111252000Y-123969002D02*
X112052988Y-124769990D01*
X111252000Y-120650000D02*
X111252000Y-123969002D01*
X114515012Y-124769990D02*
X115951000Y-123334002D01*
X112052988Y-124769990D02*
X114515012Y-124769990D01*
X115951000Y-123334002D02*
X115951000Y-117348000D01*
X117856000Y-115443000D02*
X119064000Y-115443000D01*
X115951000Y-117348000D02*
X117856000Y-115443000D01*
X120963000Y-83947000D02*
X121031000Y-83947000D01*
X121031000Y-83947000D02*
X120904000Y-83820000D01*
X120903994Y-90423994D02*
X120903994Y-83820000D01*
X129286000Y-98806000D02*
X120903994Y-90423994D01*
X129286000Y-99277000D02*
X129286000Y-98806000D01*
X114196500Y-92583000D02*
X114196500Y-92686500D01*
X113299990Y-93583010D02*
X111490010Y-93583010D01*
X114196500Y-92686500D02*
X113299990Y-93583010D01*
X111490010Y-93583010D02*
X111379000Y-93472000D01*
D28*
X128907990Y-113540990D02*
X129413000Y-114046000D01*
X126240990Y-113540990D02*
X128907990Y-113540990D01*
X123785989Y-112566011D02*
X125266011Y-112566011D01*
X125266011Y-112566011D02*
X126240990Y-113540990D01*
X120909000Y-115443000D02*
X123785989Y-112566011D01*
X119064000Y-115443000D02*
X120909000Y-115443000D01*
D31*
%TO.N,+3V3*%
X130317998Y-94054998D02*
X130302000Y-94039000D01*
X130317998Y-99802920D02*
X130317998Y-94054998D01*
X129917999Y-100202919D02*
X130317998Y-99802920D01*
X110109000Y-94361000D02*
X112268000Y-94361000D01*
X107569000Y-91821000D02*
X110109000Y-94361000D01*
X107569000Y-88915000D02*
X107569000Y-91821000D01*
D27*
%TO.N,/+5VSB*%
X111760000Y-103684000D02*
X109422000Y-101346000D01*
X111760000Y-107950000D02*
X111760000Y-103684000D01*
X111760000Y-103684000D02*
X115518000Y-103684000D01*
X115518000Y-103684000D02*
X117094000Y-102108000D01*
X117094000Y-102108000D02*
X117094000Y-101219000D01*
X117094000Y-102108000D02*
X117094000Y-102108000D01*
X117094000Y-101219000D02*
X117094000Y-100330000D01*
X117094000Y-100330000D02*
X117094000Y-99441000D01*
X117094000Y-99441000D02*
X117094000Y-98806000D01*
D28*
%TO.N,Net-(C101-Pad1)*%
X113036000Y-75178000D02*
X113665000Y-74549000D01*
X113036000Y-77030000D02*
X113036000Y-75178000D01*
X111633000Y-72517000D02*
X113665000Y-74549000D01*
X110871000Y-72517000D02*
X111633000Y-72517000D01*
%TO.N,Net-(C102-Pad1)*%
X110981000Y-70849000D02*
X110871000Y-70739000D01*
X113665000Y-70849000D02*
X110981000Y-70849000D01*
X110871000Y-70485000D02*
X110045990Y-71310010D01*
X110045990Y-71310010D02*
X110045990Y-73469990D01*
X110045990Y-73469990D02*
X110109000Y-73533000D01*
X112236000Y-76170002D02*
X112236000Y-77030000D01*
X112139999Y-74039999D02*
X112139999Y-76074001D01*
X111760000Y-73660000D02*
X112139999Y-74039999D01*
X110236000Y-73660000D02*
X111760000Y-73660000D01*
X112139999Y-76074001D02*
X112236000Y-76170002D01*
X110045990Y-73469990D02*
X110236000Y-73660000D01*
%TO.N,Net-(C104-Pad2)*%
X110617000Y-85549000D02*
X110636000Y-85530000D01*
X110617000Y-87503000D02*
X110617000Y-85549000D01*
D31*
%TO.N,/~RESET*%
X107818000Y-120650000D02*
X109427000Y-120650000D01*
X112475000Y-123444000D02*
X113302000Y-123444000D01*
X113302000Y-121140000D02*
X115062000Y-119380000D01*
X113302000Y-123444000D02*
X113302000Y-121140000D01*
X109427000Y-120650000D02*
X109474000Y-120650000D01*
X114792010Y-119649990D02*
X115062000Y-119380000D01*
X110474010Y-119649990D02*
X114792010Y-119649990D01*
X109474000Y-120650000D02*
X110474010Y-119649990D01*
X104121000Y-80880000D02*
X105986000Y-80880000D01*
X103378000Y-80137000D02*
X104121000Y-80880000D01*
X102235000Y-80137000D02*
X103378000Y-80137000D01*
X120015000Y-114681000D02*
X122555000Y-112141000D01*
X117729000Y-114681000D02*
X120015000Y-114681000D01*
X115062000Y-117348000D02*
X117729000Y-114681000D01*
X115062000Y-119380000D02*
X115062000Y-117348000D01*
X122555000Y-112141000D02*
X122682000Y-112014000D01*
X102235000Y-87699302D02*
X102235000Y-87433685D01*
X110642753Y-96107055D02*
X102235000Y-87699302D01*
X118320452Y-96107055D02*
X110642753Y-96107055D01*
X102235000Y-87433685D02*
X102235000Y-86868000D01*
X122066010Y-99852613D02*
X118320452Y-96107055D01*
X122066010Y-111398010D02*
X122066010Y-99852613D01*
X122682000Y-112014000D02*
X122066010Y-111398010D01*
X133223000Y-114681000D02*
X133223000Y-112776000D01*
X132461000Y-115443000D02*
X133223000Y-114681000D01*
X133223000Y-112776000D02*
X134493000Y-111506000D01*
X131318000Y-115443000D02*
X132461000Y-115443000D01*
X130802999Y-113530999D02*
X130802999Y-114927999D01*
X130048000Y-112776000D02*
X130802999Y-113530999D01*
X126365000Y-112776000D02*
X130048000Y-112776000D01*
X125603000Y-112014000D02*
X126365000Y-112776000D01*
X130802999Y-114927999D02*
X131318000Y-115443000D01*
X122682000Y-112014000D02*
X125603000Y-112014000D01*
D28*
%TO.N,Net-(C106-Pad1)*%
X124014000Y-119253000D02*
X125095000Y-119253000D01*
X125095000Y-119253000D02*
X125476000Y-118872000D01*
X125476000Y-117282000D02*
X126492000Y-116266000D01*
X125476000Y-118872000D02*
X125476000Y-117282000D01*
D31*
%TO.N,Net-(C108-Pad1)*%
X117089000Y-119253000D02*
X116962000Y-119380000D01*
X119064000Y-119253000D02*
X117089000Y-119253000D01*
%TO.N,/PS_INTERRUPT*%
X105404000Y-78480000D02*
X105986000Y-78480000D01*
X104902000Y-77978000D02*
X105404000Y-78480000D01*
X97028000Y-77978000D02*
X104902000Y-77978000D01*
D33*
%TO.N,/+12VSB*%
X93345000Y-110490000D02*
X95885000Y-107950000D01*
D31*
X87526500Y-123444000D02*
X87757000Y-123444000D01*
X91297010Y-119903990D02*
X91297010Y-113934990D01*
X87757000Y-123444000D02*
X91297010Y-119903990D01*
X91948000Y-113284000D02*
X91948000Y-110490000D01*
X91297010Y-113934990D02*
X91948000Y-113284000D01*
D33*
X91948000Y-110490000D02*
X93345000Y-110490000D01*
X88075000Y-110490000D02*
X91948000Y-110490000D01*
D28*
%TO.N,/~PRESENT*%
X90320500Y-113030000D02*
X90551000Y-112799500D01*
D30*
X88075000Y-113030000D02*
X90320500Y-113030000D01*
D31*
X114486000Y-78480000D02*
X115703000Y-78480000D01*
X115703000Y-78480000D02*
X115951000Y-78232000D01*
X115951000Y-78232000D02*
X115951000Y-69977000D01*
X115951000Y-69977000D02*
X115189000Y-69215000D01*
X115189000Y-69215000D02*
X97917000Y-69215000D01*
X97917000Y-69215000D02*
X96266000Y-70866000D01*
X96266000Y-80264000D02*
X97028000Y-81026000D01*
X96266000Y-70866000D02*
X96266000Y-80264000D01*
D32*
%TO.N,/SDA*%
X82805000Y-120650000D02*
X84455000Y-120650000D01*
D31*
X100260000Y-82480000D02*
X105986000Y-82480000D01*
X97790000Y-80010000D02*
X100260000Y-82480000D01*
X97028000Y-80010000D02*
X97790000Y-80010000D01*
D32*
%TO.N,/SCL*%
X82805000Y-118110000D02*
X84455000Y-118110000D01*
D31*
X100476000Y-81680000D02*
X105986000Y-81680000D01*
X97790000Y-78994000D02*
X100476000Y-81680000D01*
X97028000Y-78994000D02*
X97790000Y-78994000D01*
X87249000Y-124587000D02*
X94107000Y-124587000D01*
X86741000Y-124079000D02*
X87249000Y-124587000D01*
X86741000Y-122301000D02*
X86741000Y-124079000D01*
X86233000Y-121793000D02*
X86741000Y-122301000D01*
X86233000Y-119888000D02*
X86233000Y-121793000D01*
X94107000Y-124587000D02*
X95377000Y-123317000D01*
X84455000Y-118110000D02*
X86233000Y-119888000D01*
D32*
%TO.N,Net-(J1-Pad29)*%
X82805000Y-113030000D02*
X84455000Y-113030000D01*
%TO.N,Net-(J1-Pad28)*%
X82805000Y-110490000D02*
X84455000Y-110490000D01*
D28*
%TO.N,/ADDR*%
X83810990Y-124469010D02*
X84224500Y-124055500D01*
X81289010Y-124469010D02*
X83810990Y-124469010D01*
X81026000Y-124206000D02*
X81289010Y-124469010D01*
X84224500Y-124055500D02*
X84224500Y-123444000D01*
X81026000Y-109729000D02*
X81026000Y-124206000D01*
X82805000Y-107950000D02*
X81026000Y-109729000D01*
X84224500Y-123444000D02*
X85701500Y-123444000D01*
D32*
X82805000Y-107950000D02*
X84455000Y-107950000D01*
D31*
%TO.N,/~ATX_PSON*%
X107377000Y-77089000D02*
X107436000Y-77030000D01*
X106807000Y-77089000D02*
X107377000Y-77089000D01*
X103251000Y-88149604D02*
X103251000Y-86868000D01*
X110808440Y-95707044D02*
X103251000Y-88149604D01*
X118486141Y-95707044D02*
X110808440Y-95707044D01*
X123444004Y-100664907D02*
X118486141Y-95707044D01*
X123444004Y-105731000D02*
X123444004Y-100664907D01*
D28*
%TO.N,/VBUS*%
X133210000Y-117437000D02*
X133210000Y-118267000D01*
X132486000Y-116713000D02*
X133210000Y-117437000D01*
X129159000Y-116713000D02*
X132486000Y-116713000D01*
X128410000Y-117462000D02*
X129159000Y-116713000D01*
X128410000Y-118267000D02*
X128410000Y-117462000D01*
X144145000Y-121539000D02*
X145669000Y-123063000D01*
X134620000Y-121539000D02*
X144145000Y-121539000D01*
X133044250Y-119963250D02*
X134620000Y-121539000D01*
X133044250Y-118745000D02*
X133044250Y-119963250D01*
X133210000Y-118579250D02*
X133044250Y-118745000D01*
X133210000Y-118267000D02*
X133210000Y-118579250D01*
%TO.N,Net-(J101-PadB5)*%
X129060000Y-118267000D02*
X129060000Y-119860000D01*
%TO.N,/D+*%
X131060000Y-117451998D02*
X131060000Y-118267000D01*
X130829002Y-117221000D02*
X131060000Y-117451998D01*
X130290998Y-117221000D02*
X130829002Y-117221000D01*
X130060000Y-117451998D02*
X130290998Y-117221000D01*
X130060000Y-118267000D02*
X130060000Y-117451998D01*
X130060000Y-120892000D02*
X130060000Y-119082002D01*
X130060000Y-119082002D02*
X130060000Y-118267000D01*
X129609010Y-121342990D02*
X130060000Y-120892000D01*
X125095000Y-120523000D02*
X125914990Y-121342990D01*
X124014000Y-120523000D02*
X125095000Y-120523000D01*
X131455719Y-124238001D02*
X131116859Y-123899141D01*
X140589000Y-123063000D02*
X139413999Y-124238001D01*
X139413999Y-124238001D02*
X131455719Y-124238001D01*
X127508000Y-121273980D02*
X127438990Y-121342990D01*
X127508000Y-120904000D02*
X127508000Y-121273980D01*
X127438990Y-121342990D02*
X129609010Y-121342990D01*
X125914990Y-121342990D02*
X127438990Y-121342990D01*
%TO.N,Net-(J101-PadA5)*%
X132060000Y-118344000D02*
X132080000Y-118364000D01*
X132060000Y-118267000D02*
X132060000Y-118344000D01*
X132060000Y-118267000D02*
X132060000Y-120376000D01*
%TO.N,/D-*%
X131560000Y-119082002D02*
X131560000Y-118267000D01*
X130560000Y-119218412D02*
X130560000Y-118267000D01*
X124014000Y-121793000D02*
X127985412Y-121793000D01*
X131423590Y-119218412D02*
X130560000Y-119218412D01*
X131560000Y-119082002D02*
X131423590Y-119218412D01*
X130906412Y-124714000D02*
X127985412Y-121793000D01*
X142748000Y-124714000D02*
X130906412Y-124714000D01*
X143129000Y-124333000D02*
X142748000Y-124714000D01*
X143129000Y-123063000D02*
X143129000Y-124333000D01*
X127985412Y-121793000D02*
X129921000Y-121793000D01*
X130560000Y-121154000D02*
X130560000Y-119218412D01*
X129921000Y-121793000D02*
X130560000Y-121154000D01*
D31*
%TO.N,/MOSI*%
X115486000Y-83280000D02*
X114486000Y-83280000D01*
X115824000Y-83618000D02*
X115486000Y-83280000D01*
X114046000Y-87249000D02*
X114046000Y-86135002D01*
X114046000Y-86135002D02*
X115824000Y-84357002D01*
X118002011Y-91205011D02*
X114046000Y-87249000D01*
X118002011Y-93491011D02*
X118002011Y-91205011D01*
X128435020Y-103924020D02*
X118002011Y-93491011D01*
X128435020Y-107530312D02*
X128435020Y-103924020D01*
X130683000Y-109778292D02*
X128435020Y-107530312D01*
X115824000Y-84357002D02*
X115824000Y-83618000D01*
X130683000Y-112776000D02*
X130683000Y-109778292D01*
X131953000Y-114046000D02*
X130683000Y-112776000D01*
%TO.N,/SCK*%
X113036000Y-87636000D02*
X113036000Y-85530000D01*
X127635000Y-104267000D02*
X117094000Y-93726000D01*
X127635000Y-111506000D02*
X127635000Y-104267000D01*
X117094000Y-93726000D02*
X117094000Y-91694000D01*
X117094000Y-91694000D02*
X113036000Y-87636000D01*
%TO.N,/MISO*%
X113645989Y-84920011D02*
X114486000Y-84080000D01*
X113645989Y-87483989D02*
X113645989Y-84920011D01*
X117602000Y-91440000D02*
X113645989Y-87483989D01*
X117602000Y-93668300D02*
X117602000Y-91440000D01*
X128035011Y-104101311D02*
X117602000Y-93668300D01*
X128035011Y-110128011D02*
X128035011Y-104101311D01*
X129413000Y-111506000D02*
X128035011Y-110128011D01*
%TO.N,/A2*%
X98806000Y-83058000D02*
X97028000Y-83058000D01*
X99828000Y-84080000D02*
X98806000Y-83058000D01*
X105986000Y-84080000D02*
X99828000Y-84080000D01*
%TO.N,/ATX_PWOK*%
X125857000Y-99568000D02*
X118872000Y-92583000D01*
X118872000Y-92583000D02*
X118872000Y-78105000D01*
X108236000Y-77030000D02*
X108236000Y-80169000D01*
X108236000Y-80169000D02*
X110617000Y-82550000D01*
X118872000Y-78105000D02*
X118872000Y-77343000D01*
%TO.N,/A0*%
X108236000Y-86948000D02*
X108236000Y-85530000D01*
X107569000Y-87615000D02*
X108236000Y-86948000D01*
%TO.N,/A1*%
X107188000Y-84836000D02*
X103759000Y-84836000D01*
X107436000Y-85084000D02*
X107188000Y-84836000D01*
X107436000Y-85530000D02*
X107436000Y-85084000D01*
%TO.N,/A3*%
X100044000Y-83280000D02*
X98806000Y-82042000D01*
X98806000Y-82042000D02*
X97028000Y-82042000D01*
X105986000Y-83280000D02*
X100044000Y-83280000D01*
%TO.N,/A6*%
X112014000Y-86995000D02*
X112268000Y-86995000D01*
X111436000Y-86417000D02*
X112014000Y-86995000D01*
X111436000Y-85530000D02*
X111436000Y-86417000D01*
X134054315Y-101092000D02*
X134620000Y-101092000D01*
X114808000Y-86995000D02*
X118402022Y-90589022D01*
X126238000Y-101092000D02*
X134054315Y-101092000D01*
X118402022Y-90589022D02*
X118402022Y-93256022D01*
X118402022Y-93256022D02*
X126238000Y-101092000D01*
%TO.N,/RXD*%
X124014000Y-117983000D02*
X122682000Y-117983000D01*
X122682000Y-117983000D02*
X122047000Y-117348000D01*
X122047000Y-117348000D02*
X122047000Y-117094000D01*
X122047000Y-117094000D02*
X121285000Y-116332000D01*
X121285000Y-116332000D02*
X120904000Y-116332000D01*
X104299000Y-79280000D02*
X105986000Y-79280000D01*
X103697000Y-78678000D02*
X104299000Y-79280000D01*
X100203000Y-78678000D02*
X103697000Y-78678000D01*
X121138989Y-111036689D02*
X121138989Y-100056992D01*
X119634000Y-113981000D02*
X119634000Y-112541678D01*
X119634000Y-112541678D02*
X121138989Y-111036689D01*
X121138989Y-100056992D02*
X117989074Y-96907077D01*
X110242077Y-96907077D02*
X100203000Y-86868000D01*
X117989074Y-96907077D02*
X110242077Y-96907077D01*
%TO.N,/TXD*%
X124014000Y-116713000D02*
X122682000Y-116713000D01*
X122682000Y-116713000D02*
X122301000Y-116332000D01*
X101219000Y-79378000D02*
X103508000Y-79378000D01*
X104210000Y-80080000D02*
X105986000Y-80080000D01*
X103508000Y-79378000D02*
X104210000Y-80080000D01*
X101219000Y-87249000D02*
X101219000Y-86868000D01*
X120396000Y-113157000D02*
X121539000Y-112014000D01*
X121539000Y-112014000D02*
X121539000Y-99891303D01*
X118154763Y-96507066D02*
X110477066Y-96507066D01*
X110477066Y-96507066D02*
X101219000Y-87249000D01*
X121539000Y-99891303D02*
X118154763Y-96507066D01*
%TO.N,/A7*%
X109474000Y-90297000D02*
X111887000Y-90297000D01*
X109036000Y-89846000D02*
X109029500Y-89852500D01*
X109036000Y-85530000D02*
X109036000Y-89846000D01*
X109029500Y-89852500D02*
X109474000Y-90297000D01*
X112371500Y-90678000D02*
X112371500Y-92583000D01*
%TD*%
D34*
%TO.N,+12V*%
X89340189Y-38244376D02*
X89503850Y-38294022D01*
X89654672Y-38374638D01*
X89786870Y-38483130D01*
X89895362Y-38615328D01*
X89975978Y-38766150D01*
X90025624Y-38929811D01*
X90043000Y-39106234D01*
X90043000Y-43196000D01*
X90043612Y-43208448D01*
X90062827Y-43403538D01*
X90067683Y-43427956D01*
X90124588Y-43615549D01*
X90134116Y-43638550D01*
X90226526Y-43811437D01*
X90240358Y-43832138D01*
X90364721Y-43983675D01*
X90382325Y-44001279D01*
X90533862Y-44125642D01*
X90554563Y-44139474D01*
X90727450Y-44231884D01*
X90750451Y-44241412D01*
X90938044Y-44298317D01*
X90962462Y-44303173D01*
X91157552Y-44322388D01*
X91170000Y-44323000D01*
X92813204Y-44323000D01*
X92955873Y-44366278D01*
X93345000Y-44404604D01*
X93734128Y-44366278D01*
X93876797Y-44323000D01*
X97013204Y-44323000D01*
X97155873Y-44366278D01*
X97545000Y-44404604D01*
X97934128Y-44366278D01*
X98076797Y-44323000D01*
X101213204Y-44323000D01*
X101355873Y-44366278D01*
X101745000Y-44404604D01*
X102134128Y-44366278D01*
X102276797Y-44323000D01*
X105413204Y-44323000D01*
X105555873Y-44366278D01*
X105945000Y-44404604D01*
X106334128Y-44366278D01*
X106476797Y-44323000D01*
X112498204Y-44323000D01*
X112640873Y-44366278D01*
X113030000Y-44404604D01*
X113419128Y-44366278D01*
X113561797Y-44323000D01*
X116698204Y-44323000D01*
X116840873Y-44366278D01*
X117230000Y-44404604D01*
X117619128Y-44366278D01*
X117761797Y-44323000D01*
X120898204Y-44323000D01*
X121040873Y-44366278D01*
X121430000Y-44404604D01*
X121819128Y-44366278D01*
X121961797Y-44323000D01*
X125098204Y-44323000D01*
X125240873Y-44366278D01*
X125630000Y-44404604D01*
X126019128Y-44366278D01*
X126161797Y-44323000D01*
X132183204Y-44323000D01*
X132325873Y-44366278D01*
X132715000Y-44404604D01*
X133104128Y-44366278D01*
X133246797Y-44323000D01*
X136383204Y-44323000D01*
X136525873Y-44366278D01*
X136915000Y-44404604D01*
X137304128Y-44366278D01*
X137446797Y-44323000D01*
X140583204Y-44323000D01*
X140725873Y-44366278D01*
X141115000Y-44404604D01*
X141504128Y-44366278D01*
X141646797Y-44323000D01*
X144783204Y-44323000D01*
X144925873Y-44366278D01*
X145315000Y-44404604D01*
X145704128Y-44366278D01*
X145846797Y-44323000D01*
X146313766Y-44323000D01*
X146490189Y-44340376D01*
X146653850Y-44390022D01*
X146804672Y-44470638D01*
X146936870Y-44579130D01*
X147045362Y-44711328D01*
X147125978Y-44862150D01*
X147175624Y-45025811D01*
X147193000Y-45202234D01*
X147193000Y-59318766D01*
X147175624Y-59495189D01*
X147125978Y-59658850D01*
X147045362Y-59809672D01*
X146936870Y-59941870D01*
X146804672Y-60050362D01*
X146653850Y-60130978D01*
X146490189Y-60180624D01*
X146313766Y-60198000D01*
X145817128Y-60198000D01*
X145704128Y-60163722D01*
X145315000Y-60125396D01*
X144925873Y-60163722D01*
X144812873Y-60198000D01*
X141617128Y-60198000D01*
X141504128Y-60163722D01*
X141115000Y-60125396D01*
X140725873Y-60163722D01*
X140612873Y-60198000D01*
X137417128Y-60198000D01*
X137304128Y-60163722D01*
X136915000Y-60125396D01*
X136525873Y-60163722D01*
X136412873Y-60198000D01*
X133217128Y-60198000D01*
X133104128Y-60163722D01*
X132715000Y-60125396D01*
X132325873Y-60163722D01*
X132212873Y-60198000D01*
X126132128Y-60198000D01*
X126019128Y-60163722D01*
X125630000Y-60125396D01*
X125240873Y-60163722D01*
X125127873Y-60198000D01*
X121932128Y-60198000D01*
X121819128Y-60163722D01*
X121430000Y-60125396D01*
X121040873Y-60163722D01*
X120927873Y-60198000D01*
X117732128Y-60198000D01*
X117619128Y-60163722D01*
X117230000Y-60125396D01*
X116840873Y-60163722D01*
X116727873Y-60198000D01*
X113532128Y-60198000D01*
X113419128Y-60163722D01*
X113030000Y-60125396D01*
X112640873Y-60163722D01*
X112527873Y-60198000D01*
X106447128Y-60198000D01*
X106334128Y-60163722D01*
X105945000Y-60125396D01*
X105555873Y-60163722D01*
X105442873Y-60198000D01*
X102247128Y-60198000D01*
X102134128Y-60163722D01*
X101745000Y-60125396D01*
X101355873Y-60163722D01*
X101242873Y-60198000D01*
X98047128Y-60198000D01*
X97934128Y-60163722D01*
X97545000Y-60125396D01*
X97155873Y-60163722D01*
X97042873Y-60198000D01*
X93847128Y-60198000D01*
X93734128Y-60163722D01*
X93345000Y-60125396D01*
X92955873Y-60163722D01*
X92842873Y-60198000D01*
X91170000Y-60198000D01*
X91157552Y-60198612D01*
X90962462Y-60217827D01*
X90938044Y-60222683D01*
X90750451Y-60279588D01*
X90727450Y-60289116D01*
X90554563Y-60381526D01*
X90533862Y-60395358D01*
X90382325Y-60519721D01*
X90364721Y-60537325D01*
X90240358Y-60688862D01*
X90226526Y-60709563D01*
X90134116Y-60882450D01*
X90124588Y-60905451D01*
X90067683Y-61093044D01*
X90062827Y-61117462D01*
X90043612Y-61312552D01*
X90043000Y-61325000D01*
X90043000Y-72399766D01*
X90025624Y-72576189D01*
X89975978Y-72739850D01*
X89895362Y-72890672D01*
X89786870Y-73022870D01*
X89654672Y-73131362D01*
X89503850Y-73211978D01*
X89340189Y-73261624D01*
X89163766Y-73279000D01*
X82286234Y-73279000D01*
X82109811Y-73261624D01*
X81946150Y-73211978D01*
X81795328Y-73131362D01*
X81663130Y-73022870D01*
X81554638Y-72890672D01*
X81474022Y-72739850D01*
X81424376Y-72576189D01*
X81407000Y-72399766D01*
X81407000Y-39106234D01*
X81424376Y-38929811D01*
X81474022Y-38766150D01*
X81554638Y-38615328D01*
X81663130Y-38483130D01*
X81795328Y-38374638D01*
X81946150Y-38294022D01*
X82109811Y-38244376D01*
X82286234Y-38227000D01*
X89163766Y-38227000D01*
X89340189Y-38244376D01*
%TA.AperFunction,Conductor*%
D35*
G36*
X89340189Y-38244376D02*
G01*
X89503850Y-38294022D01*
X89654672Y-38374638D01*
X89786870Y-38483130D01*
X89895362Y-38615328D01*
X89975978Y-38766150D01*
X90025624Y-38929811D01*
X90043000Y-39106234D01*
X90043000Y-43196000D01*
X90043612Y-43208448D01*
X90062827Y-43403538D01*
X90067683Y-43427956D01*
X90124588Y-43615549D01*
X90134116Y-43638550D01*
X90226526Y-43811437D01*
X90240358Y-43832138D01*
X90364721Y-43983675D01*
X90382325Y-44001279D01*
X90533862Y-44125642D01*
X90554563Y-44139474D01*
X90727450Y-44231884D01*
X90750451Y-44241412D01*
X90938044Y-44298317D01*
X90962462Y-44303173D01*
X91157552Y-44322388D01*
X91170000Y-44323000D01*
X92813204Y-44323000D01*
X92955873Y-44366278D01*
X93345000Y-44404604D01*
X93734128Y-44366278D01*
X93876797Y-44323000D01*
X97013204Y-44323000D01*
X97155873Y-44366278D01*
X97545000Y-44404604D01*
X97934128Y-44366278D01*
X98076797Y-44323000D01*
X101213204Y-44323000D01*
X101355873Y-44366278D01*
X101745000Y-44404604D01*
X102134128Y-44366278D01*
X102276797Y-44323000D01*
X105413204Y-44323000D01*
X105555873Y-44366278D01*
X105945000Y-44404604D01*
X106334128Y-44366278D01*
X106476797Y-44323000D01*
X112498204Y-44323000D01*
X112640873Y-44366278D01*
X113030000Y-44404604D01*
X113419128Y-44366278D01*
X113561797Y-44323000D01*
X116698204Y-44323000D01*
X116840873Y-44366278D01*
X117230000Y-44404604D01*
X117619128Y-44366278D01*
X117761797Y-44323000D01*
X120898204Y-44323000D01*
X121040873Y-44366278D01*
X121430000Y-44404604D01*
X121819128Y-44366278D01*
X121961797Y-44323000D01*
X125098204Y-44323000D01*
X125240873Y-44366278D01*
X125630000Y-44404604D01*
X126019128Y-44366278D01*
X126161797Y-44323000D01*
X132183204Y-44323000D01*
X132325873Y-44366278D01*
X132715000Y-44404604D01*
X133104128Y-44366278D01*
X133246797Y-44323000D01*
X136383204Y-44323000D01*
X136525873Y-44366278D01*
X136915000Y-44404604D01*
X137304128Y-44366278D01*
X137446797Y-44323000D01*
X140583204Y-44323000D01*
X140725873Y-44366278D01*
X141115000Y-44404604D01*
X141504128Y-44366278D01*
X141646797Y-44323000D01*
X144783204Y-44323000D01*
X144925873Y-44366278D01*
X145315000Y-44404604D01*
X145704128Y-44366278D01*
X145846797Y-44323000D01*
X146313766Y-44323000D01*
X146490189Y-44340376D01*
X146653850Y-44390022D01*
X146804672Y-44470638D01*
X146936870Y-44579130D01*
X147045362Y-44711328D01*
X147125978Y-44862150D01*
X147175624Y-45025811D01*
X147193000Y-45202234D01*
X147193000Y-59318766D01*
X147175624Y-59495189D01*
X147125978Y-59658850D01*
X147045362Y-59809672D01*
X146936870Y-59941870D01*
X146804672Y-60050362D01*
X146653850Y-60130978D01*
X146490189Y-60180624D01*
X146313766Y-60198000D01*
X145817128Y-60198000D01*
X145704128Y-60163722D01*
X145315000Y-60125396D01*
X144925873Y-60163722D01*
X144812873Y-60198000D01*
X141617128Y-60198000D01*
X141504128Y-60163722D01*
X141115000Y-60125396D01*
X140725873Y-60163722D01*
X140612873Y-60198000D01*
X137417128Y-60198000D01*
X137304128Y-60163722D01*
X136915000Y-60125396D01*
X136525873Y-60163722D01*
X136412873Y-60198000D01*
X133217128Y-60198000D01*
X133104128Y-60163722D01*
X132715000Y-60125396D01*
X132325873Y-60163722D01*
X132212873Y-60198000D01*
X126132128Y-60198000D01*
X126019128Y-60163722D01*
X125630000Y-60125396D01*
X125240873Y-60163722D01*
X125127873Y-60198000D01*
X121932128Y-60198000D01*
X121819128Y-60163722D01*
X121430000Y-60125396D01*
X121040873Y-60163722D01*
X120927873Y-60198000D01*
X117732128Y-60198000D01*
X117619128Y-60163722D01*
X117230000Y-60125396D01*
X116840873Y-60163722D01*
X116727873Y-60198000D01*
X113532128Y-60198000D01*
X113419128Y-60163722D01*
X113030000Y-60125396D01*
X112640873Y-60163722D01*
X112527873Y-60198000D01*
X106447128Y-60198000D01*
X106334128Y-60163722D01*
X105945000Y-60125396D01*
X105555873Y-60163722D01*
X105442873Y-60198000D01*
X102247128Y-60198000D01*
X102134128Y-60163722D01*
X101745000Y-60125396D01*
X101355873Y-60163722D01*
X101242873Y-60198000D01*
X98047128Y-60198000D01*
X97934128Y-60163722D01*
X97545000Y-60125396D01*
X97155873Y-60163722D01*
X97042873Y-60198000D01*
X93847128Y-60198000D01*
X93734128Y-60163722D01*
X93345000Y-60125396D01*
X92955873Y-60163722D01*
X92842873Y-60198000D01*
X91170000Y-60198000D01*
X91157552Y-60198612D01*
X90962462Y-60217827D01*
X90938044Y-60222683D01*
X90750451Y-60279588D01*
X90727450Y-60289116D01*
X90554563Y-60381526D01*
X90533862Y-60395358D01*
X90382325Y-60519721D01*
X90364721Y-60537325D01*
X90240358Y-60688862D01*
X90226526Y-60709563D01*
X90134116Y-60882450D01*
X90124588Y-60905451D01*
X90067683Y-61093044D01*
X90062827Y-61117462D01*
X90043612Y-61312552D01*
X90043000Y-61325000D01*
X90043000Y-72399766D01*
X90025624Y-72576189D01*
X89975978Y-72739850D01*
X89895362Y-72890672D01*
X89786870Y-73022870D01*
X89654672Y-73131362D01*
X89503850Y-73211978D01*
X89340189Y-73261624D01*
X89163766Y-73279000D01*
X82286234Y-73279000D01*
X82109811Y-73261624D01*
X81946150Y-73211978D01*
X81795328Y-73131362D01*
X81663130Y-73022870D01*
X81554638Y-72890672D01*
X81474022Y-72739850D01*
X81424376Y-72576189D01*
X81407000Y-72399766D01*
X81407000Y-39106234D01*
X81424376Y-38929811D01*
X81474022Y-38766150D01*
X81554638Y-38615328D01*
X81663130Y-38483130D01*
X81795328Y-38374638D01*
X81946150Y-38294022D01*
X82109811Y-38244376D01*
X82286234Y-38227000D01*
X89163766Y-38227000D01*
X89340189Y-38244376D01*
G37*
%TD.AperFunction*%
%TD*%
D34*
%TO.N,GND*%
X89340189Y-74058376D02*
X89503850Y-74108022D01*
X89654672Y-74188638D01*
X89786870Y-74297130D01*
X89895362Y-74429328D01*
X89975978Y-74580150D01*
X90025624Y-74743811D01*
X90043000Y-74920234D01*
X90043000Y-105419766D01*
X90025624Y-105596189D01*
X89975978Y-105759850D01*
X89895362Y-105910672D01*
X89786870Y-106042870D01*
X89654672Y-106151362D01*
X89503850Y-106231978D01*
X89340189Y-106281624D01*
X89163766Y-106299000D01*
X82286234Y-106299000D01*
X82109811Y-106281624D01*
X81946150Y-106231978D01*
X81795328Y-106151362D01*
X81663130Y-106042870D01*
X81554638Y-105910672D01*
X81474022Y-105759850D01*
X81424376Y-105596189D01*
X81407000Y-105419766D01*
X81407000Y-74920234D01*
X81424376Y-74743811D01*
X81474022Y-74580150D01*
X81554638Y-74429328D01*
X81663130Y-74297130D01*
X81795328Y-74188638D01*
X81946150Y-74108022D01*
X82109811Y-74058376D01*
X82286234Y-74041000D01*
X89163766Y-74041000D01*
X89340189Y-74058376D01*
%TA.AperFunction,Conductor*%
D35*
G36*
X89340189Y-74058376D02*
G01*
X89503850Y-74108022D01*
X89654672Y-74188638D01*
X89786870Y-74297130D01*
X89895362Y-74429328D01*
X89975978Y-74580150D01*
X90025624Y-74743811D01*
X90043000Y-74920234D01*
X90043000Y-105419766D01*
X90025624Y-105596189D01*
X89975978Y-105759850D01*
X89895362Y-105910672D01*
X89786870Y-106042870D01*
X89654672Y-106151362D01*
X89503850Y-106231978D01*
X89340189Y-106281624D01*
X89163766Y-106299000D01*
X82286234Y-106299000D01*
X82109811Y-106281624D01*
X81946150Y-106231978D01*
X81795328Y-106151362D01*
X81663130Y-106042870D01*
X81554638Y-105910672D01*
X81474022Y-105759850D01*
X81424376Y-105596189D01*
X81407000Y-105419766D01*
X81407000Y-74920234D01*
X81424376Y-74743811D01*
X81474022Y-74580150D01*
X81554638Y-74429328D01*
X81663130Y-74297130D01*
X81795328Y-74188638D01*
X81946150Y-74108022D01*
X82109811Y-74058376D01*
X82286234Y-74041000D01*
X89163766Y-74041000D01*
X89340189Y-74058376D01*
G37*
%TD.AperFunction*%
%TD*%
D34*
%TO.N,GND*%
X127176974Y-66733981D02*
X127375223Y-67104881D01*
X127642023Y-67429977D01*
X127723492Y-67496837D01*
X129310000Y-69083346D01*
X129310000Y-69507985D01*
X129155398Y-69319602D01*
X128853143Y-69071547D01*
X128508302Y-68887226D01*
X128134128Y-68773722D01*
X127842510Y-68745000D01*
X126647490Y-68745000D01*
X126355872Y-68773722D01*
X125981698Y-68887226D01*
X125636857Y-69071547D01*
X125334602Y-69319602D01*
X125086547Y-69621857D01*
X124902226Y-69966698D01*
X124788722Y-70340872D01*
X124750396Y-70730000D01*
X124788722Y-71119128D01*
X124902226Y-71493302D01*
X125086547Y-71838143D01*
X125334602Y-72140398D01*
X125636857Y-72388453D01*
X125981698Y-72572774D01*
X126355872Y-72686278D01*
X126647490Y-72715000D01*
X127842510Y-72715000D01*
X128134128Y-72686278D01*
X128508302Y-72572774D01*
X128853143Y-72388453D01*
X129155398Y-72140398D01*
X129345000Y-71909368D01*
X129534602Y-72140398D01*
X129836857Y-72388453D01*
X130181698Y-72572774D01*
X130555872Y-72686278D01*
X130580359Y-72688690D01*
X130624018Y-72712026D01*
X131026467Y-72834108D01*
X131445000Y-72875330D01*
X131549882Y-72865000D01*
X133247001Y-72865000D01*
X133247000Y-76331654D01*
X130009491Y-79569164D01*
X129928023Y-79636023D01*
X129661223Y-79961119D01*
X129614025Y-80049421D01*
X129534602Y-80114602D01*
X129345000Y-80345632D01*
X129155398Y-80114602D01*
X128853143Y-79866547D01*
X128508302Y-79682226D01*
X128134128Y-79568722D01*
X127842510Y-79540000D01*
X126647490Y-79540000D01*
X126355872Y-79568722D01*
X125981698Y-79682226D01*
X125636857Y-79866547D01*
X125334602Y-80114602D01*
X125086547Y-80416857D01*
X124902226Y-80761698D01*
X124788722Y-81135872D01*
X124750396Y-81525000D01*
X124788722Y-81914128D01*
X124902226Y-82288302D01*
X125086547Y-82633143D01*
X125334602Y-82935398D01*
X125636857Y-83183453D01*
X125981698Y-83367774D01*
X126355872Y-83481278D01*
X126647490Y-83510000D01*
X127842510Y-83510000D01*
X128134128Y-83481278D01*
X128508302Y-83367774D01*
X128853143Y-83183453D01*
X129155398Y-82935398D01*
X129345000Y-82704368D01*
X129534602Y-82935398D01*
X129836857Y-83183453D01*
X130181698Y-83367774D01*
X130555872Y-83481278D01*
X130580359Y-83483690D01*
X130624018Y-83507026D01*
X131026467Y-83629108D01*
X131445000Y-83670330D01*
X131863532Y-83629108D01*
X132265981Y-83507026D01*
X132309640Y-83483690D01*
X132334128Y-83481278D01*
X132708302Y-83367774D01*
X133053143Y-83183453D01*
X133355398Y-82935398D01*
X133603453Y-82633143D01*
X133787774Y-82288302D01*
X133901278Y-81914128D01*
X133922917Y-81694429D01*
X136817513Y-78799833D01*
X136898977Y-78732977D01*
X136966660Y-78650506D01*
X137116379Y-78468072D01*
X137165777Y-78407881D01*
X137364026Y-78036982D01*
X137413447Y-77874063D01*
X137486108Y-77634534D01*
X137492692Y-77567680D01*
X137517000Y-77320882D01*
X137517000Y-77320875D01*
X137527329Y-77216000D01*
X137517000Y-77111126D01*
X137517000Y-75747219D01*
X137541547Y-75793143D01*
X137789602Y-76095398D01*
X138091857Y-76343453D01*
X138436698Y-76527774D01*
X138810872Y-76641278D01*
X139102490Y-76670000D01*
X140297510Y-76670000D01*
X140589128Y-76641278D01*
X140963302Y-76527774D01*
X141308143Y-76343453D01*
X141610398Y-76095398D01*
X141800000Y-75864368D01*
X141989602Y-76095398D01*
X142291857Y-76343453D01*
X142636698Y-76527774D01*
X143010872Y-76641278D01*
X143302490Y-76670000D01*
X144497510Y-76670000D01*
X144789128Y-76641278D01*
X145163302Y-76527774D01*
X145508143Y-76343453D01*
X145729990Y-76161387D01*
X145729990Y-77408613D01*
X145508143Y-77226547D01*
X145163302Y-77042226D01*
X144789128Y-76928722D01*
X144497510Y-76900000D01*
X143302490Y-76900000D01*
X143010872Y-76928722D01*
X142636698Y-77042226D01*
X142291857Y-77226547D01*
X141989602Y-77474602D01*
X141800000Y-77705632D01*
X141610398Y-77474602D01*
X141308143Y-77226547D01*
X140963302Y-77042226D01*
X140589128Y-76928722D01*
X140297510Y-76900000D01*
X139102490Y-76900000D01*
X138810872Y-76928722D01*
X138436698Y-77042226D01*
X138091857Y-77226547D01*
X137789602Y-77474602D01*
X137541547Y-77776857D01*
X137357226Y-78121698D01*
X137243722Y-78495872D01*
X137205396Y-78885000D01*
X137243722Y-79274128D01*
X137357226Y-79648302D01*
X137541547Y-79993143D01*
X137789602Y-80295398D01*
X138091857Y-80543453D01*
X138436698Y-80727774D01*
X138810872Y-80841278D01*
X139102490Y-80870000D01*
X140297510Y-80870000D01*
X140589128Y-80841278D01*
X140963302Y-80727774D01*
X141308143Y-80543453D01*
X141610398Y-80295398D01*
X141800000Y-80064368D01*
X141989602Y-80295398D01*
X142291857Y-80543453D01*
X142636698Y-80727774D01*
X143010872Y-80841278D01*
X143302490Y-80870000D01*
X144497510Y-80870000D01*
X144789128Y-80841278D01*
X145163302Y-80727774D01*
X145508143Y-80543453D01*
X145729990Y-80361387D01*
X145729990Y-81608613D01*
X145508143Y-81426547D01*
X145163302Y-81242226D01*
X144789128Y-81128722D01*
X144497510Y-81100000D01*
X143302490Y-81100000D01*
X143010872Y-81128722D01*
X142636698Y-81242226D01*
X142291857Y-81426547D01*
X141989602Y-81674602D01*
X141800000Y-81905632D01*
X141610398Y-81674602D01*
X141308143Y-81426547D01*
X140963302Y-81242226D01*
X140589128Y-81128722D01*
X140297510Y-81100000D01*
X139102490Y-81100000D01*
X138810872Y-81128722D01*
X138436698Y-81242226D01*
X138091857Y-81426547D01*
X137789602Y-81674602D01*
X137541547Y-81976857D01*
X137357226Y-82321698D01*
X137243722Y-82695872D01*
X137205396Y-83085000D01*
X137243722Y-83474128D01*
X137357226Y-83848302D01*
X137541547Y-84193143D01*
X137789602Y-84495398D01*
X138091857Y-84743453D01*
X138436698Y-84927774D01*
X138810872Y-85041278D01*
X139102490Y-85070000D01*
X140297510Y-85070000D01*
X140589128Y-85041278D01*
X140963302Y-84927774D01*
X141308143Y-84743453D01*
X141610398Y-84495398D01*
X141800000Y-84264368D01*
X141989602Y-84495398D01*
X142291857Y-84743453D01*
X142636698Y-84927774D01*
X143010872Y-85041278D01*
X143302490Y-85070000D01*
X144497510Y-85070000D01*
X144789128Y-85041278D01*
X145163302Y-84927774D01*
X145508143Y-84743453D01*
X145729990Y-84561387D01*
X145729990Y-85808613D01*
X145508143Y-85626547D01*
X145163302Y-85442226D01*
X144789128Y-85328722D01*
X144497510Y-85300000D01*
X143302490Y-85300000D01*
X143010872Y-85328722D01*
X142636698Y-85442226D01*
X142291857Y-85626547D01*
X141989602Y-85874602D01*
X141800000Y-86105632D01*
X141610398Y-85874602D01*
X141308143Y-85626547D01*
X140963302Y-85442226D01*
X140589128Y-85328722D01*
X140297510Y-85300000D01*
X139102490Y-85300000D01*
X138810872Y-85328722D01*
X138436698Y-85442226D01*
X138091857Y-85626547D01*
X137789602Y-85874602D01*
X137541547Y-86176857D01*
X137357226Y-86521698D01*
X137243722Y-86895872D01*
X137205396Y-87285000D01*
X137243722Y-87674128D01*
X137357226Y-88048302D01*
X137541547Y-88393143D01*
X137789602Y-88695398D01*
X138091857Y-88943453D01*
X138436698Y-89127774D01*
X138810872Y-89241278D01*
X139102490Y-89270000D01*
X140297510Y-89270000D01*
X140589128Y-89241278D01*
X140963302Y-89127774D01*
X141308143Y-88943453D01*
X141610398Y-88695398D01*
X141800000Y-88464368D01*
X141989602Y-88695398D01*
X142291857Y-88943453D01*
X142636698Y-89127774D01*
X143010872Y-89241278D01*
X143302490Y-89270000D01*
X144497510Y-89270000D01*
X144789128Y-89241278D01*
X145163302Y-89127774D01*
X145508143Y-88943453D01*
X145729990Y-88761387D01*
X145729990Y-90008613D01*
X145508143Y-89826547D01*
X145163302Y-89642226D01*
X144789128Y-89528722D01*
X144497510Y-89500000D01*
X143302490Y-89500000D01*
X143010872Y-89528722D01*
X142636698Y-89642226D01*
X142291857Y-89826547D01*
X141989602Y-90074602D01*
X141741547Y-90376857D01*
X141557226Y-90721698D01*
X141443722Y-91095872D01*
X141405396Y-91485000D01*
X141443722Y-91874128D01*
X141557226Y-92248302D01*
X141741547Y-92593143D01*
X141989602Y-92895398D01*
X142291857Y-93143453D01*
X142636698Y-93327774D01*
X143010872Y-93441278D01*
X143302490Y-93470000D01*
X144497510Y-93470000D01*
X144789128Y-93441278D01*
X145163302Y-93327774D01*
X145508143Y-93143453D01*
X145729991Y-92961387D01*
X145729991Y-94208613D01*
X145508143Y-94026547D01*
X145163302Y-93842226D01*
X144789128Y-93728722D01*
X144497510Y-93700000D01*
X143302490Y-93700000D01*
X143010872Y-93728722D01*
X142636698Y-93842226D01*
X142291857Y-94026547D01*
X141989602Y-94274602D01*
X141741547Y-94576857D01*
X141557226Y-94921698D01*
X141443722Y-95295872D01*
X141405396Y-95685000D01*
X141443722Y-96074128D01*
X141557226Y-96448302D01*
X141741547Y-96793143D01*
X141989602Y-97095398D01*
X142291857Y-97343453D01*
X142636698Y-97527774D01*
X143010872Y-97641278D01*
X143302490Y-97670000D01*
X144497510Y-97670000D01*
X144789128Y-97641278D01*
X145163302Y-97527774D01*
X145508143Y-97343453D01*
X145729991Y-97161387D01*
X145729991Y-98408613D01*
X145508143Y-98226547D01*
X145163302Y-98042226D01*
X144789128Y-97928722D01*
X144497510Y-97900000D01*
X143302490Y-97900000D01*
X143010872Y-97928722D01*
X142636698Y-98042226D01*
X142291857Y-98226547D01*
X141989602Y-98474602D01*
X141741547Y-98776857D01*
X141557226Y-99121698D01*
X141443722Y-99495872D01*
X141405396Y-99885000D01*
X141443722Y-100274128D01*
X141557226Y-100648302D01*
X141741547Y-100993143D01*
X141989602Y-101295398D01*
X142291857Y-101543453D01*
X142636698Y-101727774D01*
X143010872Y-101841278D01*
X143302490Y-101870000D01*
X144497510Y-101870000D01*
X144789128Y-101841278D01*
X145163302Y-101727774D01*
X145508143Y-101543453D01*
X145729991Y-101361387D01*
X145729991Y-102608613D01*
X145508143Y-102426547D01*
X145163302Y-102242226D01*
X144789128Y-102128722D01*
X144497510Y-102100000D01*
X143302490Y-102100000D01*
X143010872Y-102128722D01*
X142636698Y-102242226D01*
X142291857Y-102426547D01*
X141989602Y-102674602D01*
X141741547Y-102976857D01*
X141557226Y-103321698D01*
X141443722Y-103695872D01*
X141405396Y-104085000D01*
X141443722Y-104474128D01*
X141557226Y-104848302D01*
X141741547Y-105193143D01*
X141989602Y-105495398D01*
X142291857Y-105743453D01*
X142636698Y-105927774D01*
X143010872Y-106041278D01*
X143302490Y-106070000D01*
X144497510Y-106070000D01*
X144789128Y-106041278D01*
X145163302Y-105927774D01*
X145508143Y-105743453D01*
X145729991Y-105561387D01*
X145729991Y-114085770D01*
X145017703Y-114798059D01*
X144789128Y-114728722D01*
X144497510Y-114700000D01*
X143302490Y-114700000D01*
X143010872Y-114728722D01*
X142636698Y-114842226D01*
X142291857Y-115026547D01*
X142263280Y-115050000D01*
X141336720Y-115050000D01*
X141308143Y-115026547D01*
X140963302Y-114842226D01*
X140589128Y-114728722D01*
X140297510Y-114700000D01*
X139102490Y-114700000D01*
X138810872Y-114728722D01*
X138436698Y-114842226D01*
X138091857Y-115026547D01*
X137789602Y-115274602D01*
X137541547Y-115576857D01*
X137357226Y-115921698D01*
X137243722Y-116295872D01*
X137205396Y-116685000D01*
X137243722Y-117074128D01*
X137357226Y-117448302D01*
X137541547Y-117793143D01*
X137789602Y-118095398D01*
X138091857Y-118343453D01*
X138436698Y-118527774D01*
X138810872Y-118641278D01*
X139102490Y-118670000D01*
X140297510Y-118670000D01*
X140589128Y-118641278D01*
X140963302Y-118527774D01*
X141308143Y-118343453D01*
X141336720Y-118320000D01*
X142263280Y-118320000D01*
X142291857Y-118343453D01*
X142636698Y-118527774D01*
X143010872Y-118641278D01*
X143302490Y-118670000D01*
X144497510Y-118670000D01*
X144789128Y-118641278D01*
X145163302Y-118527774D01*
X145508143Y-118343453D01*
X145538548Y-118318500D01*
X145763516Y-118296343D01*
X146071715Y-118202852D01*
X146355752Y-118051031D01*
X146604714Y-117846714D01*
X146655925Y-117784313D01*
X147930001Y-116510238D01*
X147930001Y-124435000D01*
X146883896Y-124435000D01*
X146970185Y-124364185D01*
X147049537Y-124267494D01*
X147108502Y-124157180D01*
X147144812Y-124037482D01*
X147157072Y-123913000D01*
X147157072Y-122213000D01*
X147144812Y-122088518D01*
X147108502Y-121968820D01*
X147049537Y-121858506D01*
X146970185Y-121761815D01*
X146873494Y-121682463D01*
X146763180Y-121623498D01*
X146643482Y-121587188D01*
X146519000Y-121574928D01*
X145255730Y-121574928D01*
X144708803Y-121028002D01*
X144685001Y-120998999D01*
X144569276Y-120904026D01*
X144437247Y-120833454D01*
X144293986Y-120789997D01*
X144182333Y-120779000D01*
X144182322Y-120779000D01*
X144145000Y-120775324D01*
X144107678Y-120779000D01*
X134934802Y-120779000D01*
X134243897Y-120088095D01*
X134296028Y-120053262D01*
X134426262Y-119923028D01*
X134528586Y-119769889D01*
X134599068Y-119599729D01*
X134635000Y-119419089D01*
X134635000Y-119234911D01*
X134599068Y-119054271D01*
X134528586Y-118884111D01*
X134426262Y-118730972D01*
X134296028Y-118600738D01*
X134148072Y-118501877D01*
X134148072Y-117687000D01*
X134135812Y-117562518D01*
X134099502Y-117442820D01*
X134040537Y-117332506D01*
X133961185Y-117235815D01*
X133937197Y-117216129D01*
X133915546Y-117144753D01*
X133844974Y-117012724D01*
X133773799Y-116925997D01*
X133750001Y-116896999D01*
X133721004Y-116873202D01*
X133049803Y-116202002D01*
X133026001Y-116172999D01*
X132910276Y-116078026D01*
X132871211Y-116057145D01*
X132871320Y-116057087D01*
X132983238Y-115965238D01*
X133006258Y-115937188D01*
X133717197Y-115226250D01*
X133745237Y-115203238D01*
X133768250Y-115175197D01*
X133768253Y-115175194D01*
X133837087Y-115091320D01*
X133905337Y-114963634D01*
X133947365Y-114825085D01*
X133961556Y-114681000D01*
X133958000Y-114644895D01*
X133958000Y-113080446D01*
X134097103Y-112941344D01*
X134346740Y-112991000D01*
X134639260Y-112991000D01*
X134926158Y-112933932D01*
X135196411Y-112821990D01*
X135439632Y-112659475D01*
X135646475Y-112452632D01*
X135808990Y-112209411D01*
X135920932Y-111939158D01*
X135978000Y-111652260D01*
X135978000Y-111359740D01*
X135920932Y-111072842D01*
X135808990Y-110802589D01*
X135646475Y-110559368D01*
X135439632Y-110352525D01*
X135196411Y-110190010D01*
X134926158Y-110078068D01*
X134639260Y-110021000D01*
X134346740Y-110021000D01*
X134059842Y-110078068D01*
X133789589Y-110190010D01*
X133546368Y-110352525D01*
X133339525Y-110559368D01*
X133223000Y-110733760D01*
X133106475Y-110559368D01*
X132899632Y-110352525D01*
X132656411Y-110190010D01*
X132386158Y-110078068D01*
X132099260Y-110021000D01*
X131806740Y-110021000D01*
X131519842Y-110078068D01*
X131418000Y-110120252D01*
X131418000Y-109814397D01*
X131421556Y-109778292D01*
X131407365Y-109634207D01*
X131390926Y-109580015D01*
X131365337Y-109495659D01*
X131297087Y-109367972D01*
X131205238Y-109256054D01*
X131177193Y-109233038D01*
X129170020Y-107225866D01*
X129170020Y-103960125D01*
X129173576Y-103924020D01*
X129159385Y-103779935D01*
X129148715Y-103744762D01*
X129117357Y-103641387D01*
X129049107Y-103513700D01*
X128957258Y-103401782D01*
X128929213Y-103378766D01*
X127377447Y-101827000D01*
X133891289Y-101827000D01*
X133960226Y-101895937D01*
X134129744Y-102009205D01*
X134318102Y-102087226D01*
X134518061Y-102127000D01*
X134721939Y-102127000D01*
X134921898Y-102087226D01*
X135110256Y-102009205D01*
X135279774Y-101895937D01*
X135423937Y-101751774D01*
X135537205Y-101582256D01*
X135615226Y-101393898D01*
X135655000Y-101193939D01*
X135655000Y-100990061D01*
X135615226Y-100790102D01*
X135537205Y-100601744D01*
X135423937Y-100432226D01*
X135279774Y-100288063D01*
X135110256Y-100174795D01*
X134921898Y-100096774D01*
X134721939Y-100057000D01*
X134518061Y-100057000D01*
X134318102Y-100096774D01*
X134129744Y-100174795D01*
X133960226Y-100288063D01*
X133891289Y-100357000D01*
X130942627Y-100357000D01*
X130952999Y-100304858D01*
X130952999Y-100174113D01*
X131000335Y-100085553D01*
X131029614Y-99989034D01*
X131042363Y-99947006D01*
X131056554Y-99802921D01*
X131052998Y-99766816D01*
X131052998Y-94565713D01*
X131105937Y-94512774D01*
X131219205Y-94343256D01*
X131297226Y-94154898D01*
X131337000Y-93954939D01*
X131337000Y-93751061D01*
X131297226Y-93551102D01*
X131219205Y-93362744D01*
X131105937Y-93193226D01*
X130961774Y-93049063D01*
X130792256Y-92935795D01*
X130603898Y-92857774D01*
X130403939Y-92818000D01*
X130200061Y-92818000D01*
X130000102Y-92857774D01*
X129811744Y-92935795D01*
X129642226Y-93049063D01*
X129498063Y-93193226D01*
X129384795Y-93362744D01*
X129306774Y-93551102D01*
X129267000Y-93751061D01*
X129267000Y-93954939D01*
X129306774Y-94154898D01*
X129384795Y-94343256D01*
X129498063Y-94512774D01*
X129582999Y-94597710D01*
X129582998Y-98063551D01*
X121638994Y-90119548D01*
X121638994Y-85725000D01*
X124750396Y-85725000D01*
X124788722Y-86114128D01*
X124902226Y-86488302D01*
X125086547Y-86833143D01*
X125334602Y-87135398D01*
X125636857Y-87383453D01*
X125981698Y-87567774D01*
X126355872Y-87681278D01*
X126647490Y-87710000D01*
X127842510Y-87710000D01*
X128134128Y-87681278D01*
X128508302Y-87567774D01*
X128853143Y-87383453D01*
X129155398Y-87135398D01*
X129403453Y-86833143D01*
X129587774Y-86488302D01*
X129701278Y-86114128D01*
X129739604Y-85725000D01*
X129701278Y-85335872D01*
X129587774Y-84961698D01*
X129403453Y-84616857D01*
X129155398Y-84314602D01*
X128853143Y-84066547D01*
X128508302Y-83882226D01*
X128134128Y-83768722D01*
X127842510Y-83740000D01*
X126647490Y-83740000D01*
X126355872Y-83768722D01*
X125981698Y-83882226D01*
X125636857Y-84066547D01*
X125334602Y-84314602D01*
X125086547Y-84616857D01*
X124902226Y-84961698D01*
X124788722Y-85335872D01*
X124750396Y-85725000D01*
X121638994Y-85725000D01*
X121638994Y-84548711D01*
X121707931Y-84479774D01*
X121821199Y-84310256D01*
X121899220Y-84121898D01*
X121938994Y-83921939D01*
X121938994Y-83718061D01*
X121899220Y-83518102D01*
X121821199Y-83329744D01*
X121707931Y-83160226D01*
X121563768Y-83016063D01*
X121394250Y-82902795D01*
X121205892Y-82824774D01*
X121005933Y-82785000D01*
X120802055Y-82785000D01*
X120602096Y-82824774D01*
X120413738Y-82902795D01*
X120244220Y-83016063D01*
X120100057Y-83160226D01*
X119986789Y-83329744D01*
X119908768Y-83518102D01*
X119868994Y-83718061D01*
X119868994Y-83921939D01*
X119908768Y-84121898D01*
X119986789Y-84310256D01*
X120100057Y-84479774D01*
X120168995Y-84548712D01*
X120168994Y-90387889D01*
X120165438Y-90423994D01*
X120179629Y-90568079D01*
X120185982Y-90589022D01*
X120221657Y-90706626D01*
X120289907Y-90834313D01*
X120381756Y-90946231D01*
X120409802Y-90969248D01*
X128327351Y-98886798D01*
X128290774Y-98975102D01*
X128251000Y-99175061D01*
X128251000Y-99378939D01*
X128290774Y-99578898D01*
X128368795Y-99767256D01*
X128482063Y-99936774D01*
X128626226Y-100080937D01*
X128795744Y-100194205D01*
X128882999Y-100230347D01*
X128882999Y-100304858D01*
X128893371Y-100357000D01*
X126542447Y-100357000D01*
X126537079Y-100351632D01*
X126660937Y-100227774D01*
X126774205Y-100058256D01*
X126852226Y-99869898D01*
X126892000Y-99669939D01*
X126892000Y-99466061D01*
X126852226Y-99266102D01*
X126774205Y-99077744D01*
X126660937Y-98908226D01*
X126516774Y-98764063D01*
X126347256Y-98650795D01*
X126158898Y-98572774D01*
X125958939Y-98533000D01*
X125861447Y-98533000D01*
X119607000Y-92278554D01*
X119607000Y-78071711D01*
X119675937Y-78002774D01*
X119789205Y-77833256D01*
X119867226Y-77644898D01*
X119907000Y-77444939D01*
X119907000Y-77241061D01*
X119867226Y-77041102D01*
X119789205Y-76852744D01*
X119675937Y-76683226D01*
X119531774Y-76539063D01*
X119362256Y-76425795D01*
X119173898Y-76347774D01*
X118973939Y-76308000D01*
X118770061Y-76308000D01*
X118570102Y-76347774D01*
X118381744Y-76425795D01*
X118212226Y-76539063D01*
X118068063Y-76683226D01*
X117954795Y-76852744D01*
X117876774Y-77041102D01*
X117837000Y-77241061D01*
X117837000Y-77444939D01*
X117876774Y-77644898D01*
X117954795Y-77833256D01*
X118068063Y-78002774D01*
X118137000Y-78071711D01*
X118137000Y-78141104D01*
X118137001Y-78141114D01*
X118137000Y-89284553D01*
X115843000Y-86990554D01*
X115843000Y-86893061D01*
X115803226Y-86693102D01*
X115725205Y-86504744D01*
X115611937Y-86335226D01*
X115467774Y-86191063D01*
X115298256Y-86077795D01*
X115188229Y-86032220D01*
X116318197Y-84902252D01*
X116346237Y-84879240D01*
X116369250Y-84851199D01*
X116369253Y-84851196D01*
X116438087Y-84767322D01*
X116506337Y-84639636D01*
X116548365Y-84501087D01*
X116562556Y-84357002D01*
X116559000Y-84320897D01*
X116559000Y-83654096D01*
X116562555Y-83617999D01*
X116559000Y-83581902D01*
X116559000Y-83581895D01*
X116548365Y-83473915D01*
X116546668Y-83468319D01*
X116533249Y-83424084D01*
X116506337Y-83335367D01*
X116438087Y-83207680D01*
X116346238Y-83095762D01*
X116318187Y-83072741D01*
X116031259Y-82785813D01*
X116008238Y-82757762D01*
X115924072Y-82688689D01*
X115924072Y-82205000D01*
X115911812Y-82080518D01*
X115911655Y-82080000D01*
X115911812Y-82079482D01*
X115924072Y-81955000D01*
X115924072Y-81405000D01*
X115911812Y-81280518D01*
X115911655Y-81280000D01*
X115911812Y-81279482D01*
X115924072Y-81155000D01*
X115924072Y-80605000D01*
X115911812Y-80480518D01*
X115911655Y-80480000D01*
X115911812Y-80479482D01*
X115924072Y-80355000D01*
X115924072Y-79857113D01*
X115990937Y-79802238D01*
X116013957Y-79774188D01*
X116845203Y-78942943D01*
X116873248Y-78919927D01*
X116965097Y-78808009D01*
X117033347Y-78680322D01*
X117065580Y-78574063D01*
X117075375Y-78541775D01*
X117077980Y-78515320D01*
X117086010Y-78433794D01*
X117086010Y-78433787D01*
X117089565Y-78397690D01*
X117086010Y-78361593D01*
X117086010Y-74930000D01*
X124750396Y-74930000D01*
X124788722Y-75319128D01*
X124902226Y-75693302D01*
X125086547Y-76038143D01*
X125334602Y-76340398D01*
X125636857Y-76588453D01*
X125981698Y-76772774D01*
X126355872Y-76886278D01*
X126647490Y-76915000D01*
X127842510Y-76915000D01*
X128134128Y-76886278D01*
X128508302Y-76772774D01*
X128853143Y-76588453D01*
X129155398Y-76340398D01*
X129403453Y-76038143D01*
X129587774Y-75693302D01*
X129701278Y-75319128D01*
X129739604Y-74930000D01*
X129701278Y-74540872D01*
X129587774Y-74166698D01*
X129403453Y-73821857D01*
X129155398Y-73519602D01*
X128853143Y-73271547D01*
X128508302Y-73087226D01*
X128134128Y-72973722D01*
X127842510Y-72945000D01*
X126647490Y-72945000D01*
X126355872Y-72973722D01*
X125981698Y-73087226D01*
X125636857Y-73271547D01*
X125334602Y-73519602D01*
X125086547Y-73821857D01*
X124902226Y-74166698D01*
X124788722Y-74540872D01*
X124750396Y-74930000D01*
X117086010Y-74930000D01*
X117086010Y-69847416D01*
X117089566Y-69811311D01*
X117075375Y-69667226D01*
X117033347Y-69528677D01*
X116965097Y-69400991D01*
X116896263Y-69317117D01*
X116896260Y-69317114D01*
X116873247Y-69289073D01*
X116845207Y-69266061D01*
X115899947Y-68320802D01*
X115876927Y-68292752D01*
X115765009Y-68200903D01*
X115637322Y-68132653D01*
X115498774Y-68090625D01*
X115390794Y-68079990D01*
X115354689Y-68076434D01*
X115318584Y-68079990D01*
X97787416Y-68079990D01*
X97751311Y-68076434D01*
X97607226Y-68090625D01*
X97468677Y-68132653D01*
X97426265Y-68155323D01*
X97340991Y-68200903D01*
X97229073Y-68292752D01*
X97206057Y-68320797D01*
X95371798Y-70155057D01*
X95343753Y-70178073D01*
X95251904Y-70289991D01*
X95222860Y-70344329D01*
X95183654Y-70417678D01*
X95141625Y-70556226D01*
X95127434Y-70700311D01*
X95130991Y-70736426D01*
X95130990Y-80393584D01*
X95127434Y-80429689D01*
X95130993Y-80465824D01*
X95130992Y-82875887D01*
X95127436Y-82911992D01*
X95141627Y-83056077D01*
X95146529Y-83072237D01*
X95183655Y-83194624D01*
X95251905Y-83322311D01*
X95343754Y-83434229D01*
X95371800Y-83457246D01*
X95993000Y-84078447D01*
X95993000Y-84175939D01*
X96032774Y-84375898D01*
X96110795Y-84564256D01*
X96224063Y-84733774D01*
X96368226Y-84877937D01*
X96537744Y-84991205D01*
X96726102Y-85069226D01*
X96926061Y-85109000D01*
X97129939Y-85109000D01*
X97329898Y-85069226D01*
X97518256Y-84991205D01*
X97687774Y-84877937D01*
X97831937Y-84733774D01*
X97945205Y-84564256D01*
X98023226Y-84375898D01*
X98063000Y-84175939D01*
X98063000Y-83972061D01*
X98027383Y-83793000D01*
X98501554Y-83793000D01*
X99282746Y-84574193D01*
X99305762Y-84602238D01*
X99417680Y-84694087D01*
X99545367Y-84762337D01*
X99683915Y-84804365D01*
X99791895Y-84815000D01*
X99791904Y-84815000D01*
X99827999Y-84818555D01*
X99864094Y-84815000D01*
X102724000Y-84815000D01*
X102724000Y-84937939D01*
X102763774Y-85137898D01*
X102841795Y-85326256D01*
X102955063Y-85495774D01*
X103099226Y-85639937D01*
X103268744Y-85753205D01*
X103457102Y-85831226D01*
X103657061Y-85871000D01*
X103860939Y-85871000D01*
X104060898Y-85831226D01*
X104249256Y-85753205D01*
X104418774Y-85639937D01*
X104487711Y-85571000D01*
X106522928Y-85571000D01*
X106522928Y-86330000D01*
X106535188Y-86454482D01*
X106571498Y-86574180D01*
X106630463Y-86684494D01*
X106643845Y-86700801D01*
X106550618Y-86777310D01*
X106481310Y-86846618D01*
X106401958Y-86943309D01*
X106347502Y-87024808D01*
X106288536Y-87135125D01*
X106251027Y-87225681D01*
X106214718Y-87345377D01*
X106195596Y-87441510D01*
X106183336Y-87565991D01*
X106183336Y-87590550D01*
X106180928Y-87615000D01*
X106180928Y-88115000D01*
X106193188Y-88239482D01*
X106200929Y-88265000D01*
X106193188Y-88290518D01*
X106180928Y-88415000D01*
X106180928Y-88915000D01*
X106183336Y-88939450D01*
X106183336Y-88964009D01*
X106195596Y-89088490D01*
X106214718Y-89184623D01*
X106251027Y-89304319D01*
X106288536Y-89394875D01*
X106347502Y-89505192D01*
X106401958Y-89586691D01*
X106481310Y-89683382D01*
X106550618Y-89752690D01*
X106647309Y-89832042D01*
X106728808Y-89886498D01*
X106834000Y-89942725D01*
X106834001Y-90693158D01*
X103986000Y-87845158D01*
X103986000Y-87596711D01*
X104054937Y-87527774D01*
X104168205Y-87358256D01*
X104246226Y-87169898D01*
X104286000Y-86969939D01*
X104286000Y-86766061D01*
X104246226Y-86566102D01*
X104168205Y-86377744D01*
X104054937Y-86208226D01*
X103910774Y-86064063D01*
X103741256Y-85950795D01*
X103552898Y-85872774D01*
X103352939Y-85833000D01*
X103149061Y-85833000D01*
X102949102Y-85872774D01*
X102760744Y-85950795D01*
X102743000Y-85962651D01*
X102725256Y-85950795D01*
X102536898Y-85872774D01*
X102336939Y-85833000D01*
X102133061Y-85833000D01*
X101933102Y-85872774D01*
X101744744Y-85950795D01*
X101727000Y-85962651D01*
X101709256Y-85950795D01*
X101520898Y-85872774D01*
X101320939Y-85833000D01*
X101117061Y-85833000D01*
X100917102Y-85872774D01*
X100728744Y-85950795D01*
X100711000Y-85962651D01*
X100693256Y-85950795D01*
X100504898Y-85872774D01*
X100304939Y-85833000D01*
X100101061Y-85833000D01*
X99901102Y-85872774D01*
X99712744Y-85950795D01*
X99543226Y-86064063D01*
X99399063Y-86208226D01*
X99285795Y-86377744D01*
X99207774Y-86566102D01*
X99168000Y-86766061D01*
X99168000Y-86969939D01*
X99207774Y-87169898D01*
X99285795Y-87358256D01*
X99399063Y-87527774D01*
X99543226Y-87671937D01*
X99712744Y-87785205D01*
X99901102Y-87863226D01*
X100101061Y-87903000D01*
X100198554Y-87903000D01*
X109696823Y-97401270D01*
X109719839Y-97429315D01*
X109831757Y-97521164D01*
X109959444Y-97589414D01*
X110097992Y-97631442D01*
X110242077Y-97645633D01*
X110278182Y-97642077D01*
X115295279Y-97642077D01*
X115111974Y-97985018D01*
X114989892Y-98387467D01*
X114959000Y-98701118D01*
X114959000Y-101223654D01*
X114633655Y-101549000D01*
X112644346Y-101549000D01*
X111810072Y-100714727D01*
X111810072Y-100346000D01*
X111793008Y-100172746D01*
X111742472Y-100006150D01*
X111660405Y-99852614D01*
X111549962Y-99718038D01*
X111415386Y-99607595D01*
X111261850Y-99525528D01*
X111095254Y-99474992D01*
X110922000Y-99457928D01*
X110418756Y-99457928D01*
X110242982Y-99363975D01*
X109840533Y-99241893D01*
X109422000Y-99200671D01*
X109003467Y-99241893D01*
X108601018Y-99363975D01*
X108425244Y-99457928D01*
X107922000Y-99457928D01*
X107748746Y-99474992D01*
X107582150Y-99525528D01*
X107428614Y-99607595D01*
X107294038Y-99718038D01*
X107183595Y-99852614D01*
X107101528Y-100006150D01*
X107050992Y-100172746D01*
X107033928Y-100346000D01*
X107033928Y-102346000D01*
X107050992Y-102519254D01*
X107101528Y-102685850D01*
X107183595Y-102839386D01*
X107294038Y-102973962D01*
X107428614Y-103084405D01*
X107582150Y-103166472D01*
X107748746Y-103217008D01*
X107922000Y-103234072D01*
X108290727Y-103234072D01*
X109625001Y-104568346D01*
X109625001Y-105694498D01*
X109558815Y-105748815D01*
X109479463Y-105845506D01*
X109420498Y-105955820D01*
X109384188Y-106075518D01*
X109371928Y-106200000D01*
X109371928Y-109700000D01*
X109384188Y-109824482D01*
X109420498Y-109944180D01*
X109479463Y-110054494D01*
X109558815Y-110151185D01*
X109655506Y-110230537D01*
X109765820Y-110289502D01*
X109885518Y-110325812D01*
X110010000Y-110338072D01*
X113510000Y-110338072D01*
X113634482Y-110325812D01*
X113754180Y-110289502D01*
X113864494Y-110230537D01*
X113961185Y-110151185D01*
X114040537Y-110054494D01*
X114099502Y-109944180D01*
X114135812Y-109824482D01*
X114148072Y-109700000D01*
X114148072Y-106200000D01*
X114135812Y-106075518D01*
X114099502Y-105955820D01*
X114040537Y-105845506D01*
X114018784Y-105819000D01*
X115413128Y-105819000D01*
X115518000Y-105829329D01*
X115622872Y-105819000D01*
X115622882Y-105819000D01*
X115936533Y-105788108D01*
X116338982Y-105666026D01*
X116709881Y-105467777D01*
X117034977Y-105200977D01*
X117101837Y-105119508D01*
X118529513Y-103691833D01*
X118610977Y-103624977D01*
X118677833Y-103543513D01*
X118677836Y-103543510D01*
X118859872Y-103321698D01*
X118877777Y-103299881D01*
X119076026Y-102928982D01*
X119198108Y-102526533D01*
X119239330Y-102108000D01*
X119229000Y-102003118D01*
X119229000Y-99186450D01*
X120403990Y-100361440D01*
X120403989Y-106032574D01*
X120370939Y-106026000D01*
X120167061Y-106026000D01*
X119967102Y-106065774D01*
X119778744Y-106143795D01*
X119609226Y-106257063D01*
X119465063Y-106401226D01*
X119351795Y-106570744D01*
X119273774Y-106759102D01*
X119234000Y-106959061D01*
X119234000Y-106992551D01*
X112136554Y-114089998D01*
X112039061Y-114089998D01*
X111839102Y-114129772D01*
X111650744Y-114207793D01*
X111481226Y-114321061D01*
X111337063Y-114465224D01*
X111223795Y-114634742D01*
X111145774Y-114823100D01*
X111106000Y-115023059D01*
X111106000Y-115226937D01*
X111145774Y-115426896D01*
X111223795Y-115615254D01*
X111337063Y-115784772D01*
X111481226Y-115928935D01*
X111650744Y-116042203D01*
X111839102Y-116120224D01*
X112039061Y-116159998D01*
X112242939Y-116159998D01*
X112442898Y-116120224D01*
X112631256Y-116042203D01*
X112800774Y-115928935D01*
X112944937Y-115784772D01*
X113058205Y-115615254D01*
X113136226Y-115426896D01*
X113176000Y-115226937D01*
X113176000Y-115129444D01*
X120209445Y-108096000D01*
X120370939Y-108096000D01*
X120403989Y-108089426D01*
X120403989Y-110732242D01*
X119139808Y-111996424D01*
X119111763Y-112019440D01*
X119019914Y-112131358D01*
X118978194Y-112209411D01*
X118951664Y-112259045D01*
X118909635Y-112397593D01*
X118895444Y-112541678D01*
X118899001Y-112577793D01*
X118899001Y-113252288D01*
X118830063Y-113321226D01*
X118716795Y-113490744D01*
X118638774Y-113679102D01*
X118599000Y-113879061D01*
X118599000Y-113946000D01*
X117765105Y-113946000D01*
X117729000Y-113942444D01*
X117584915Y-113956635D01*
X117446366Y-113998663D01*
X117346595Y-114051992D01*
X117318680Y-114066913D01*
X117206762Y-114158762D01*
X117183746Y-114186807D01*
X114567808Y-116802746D01*
X114539763Y-116825762D01*
X114447914Y-116937680D01*
X114390589Y-117044928D01*
X114379664Y-117065367D01*
X114337635Y-117203915D01*
X114323444Y-117348000D01*
X114327001Y-117384115D01*
X114327001Y-118162112D01*
X114318614Y-118166595D01*
X114184038Y-118277038D01*
X114073595Y-118411614D01*
X113991528Y-118565150D01*
X113940992Y-118731746D01*
X113923928Y-118905000D01*
X113923928Y-118914990D01*
X110510115Y-118914990D01*
X110474010Y-118911434D01*
X110329925Y-118925625D01*
X110191376Y-118967653D01*
X110091598Y-119020986D01*
X110063690Y-119035903D01*
X109951772Y-119127752D01*
X109928756Y-119155797D01*
X109765172Y-119319381D01*
X109689501Y-119311928D01*
X109164499Y-119311928D01*
X108991245Y-119328992D01*
X108824649Y-119379528D01*
X108671113Y-119461595D01*
X108633981Y-119492068D01*
X108566386Y-119436595D01*
X108412850Y-119354528D01*
X108246254Y-119303992D01*
X108073000Y-119286928D01*
X107573000Y-119286928D01*
X107399746Y-119303992D01*
X107233150Y-119354528D01*
X107079614Y-119436595D01*
X106945038Y-119547038D01*
X106834595Y-119681614D01*
X106752528Y-119835150D01*
X106701992Y-120001746D01*
X106684928Y-120175000D01*
X106684928Y-121125000D01*
X106701992Y-121298254D01*
X106752528Y-121464850D01*
X106834595Y-121618386D01*
X106945038Y-121752962D01*
X107079614Y-121863405D01*
X107233150Y-121945472D01*
X107399746Y-121996008D01*
X107573000Y-122013072D01*
X108073000Y-122013072D01*
X108246254Y-121996008D01*
X108412850Y-121945472D01*
X108566386Y-121863405D01*
X108633981Y-121807932D01*
X108671113Y-121838405D01*
X108824649Y-121920472D01*
X108991245Y-121971008D01*
X109164499Y-121988072D01*
X109689501Y-121988072D01*
X109862755Y-121971008D01*
X110029351Y-121920472D01*
X110182887Y-121838405D01*
X110317462Y-121727962D01*
X110339500Y-121701109D01*
X110361538Y-121727962D01*
X110496113Y-121838405D01*
X110517000Y-121849570D01*
X110517001Y-123932887D01*
X110513444Y-123969002D01*
X110527635Y-124113087D01*
X110558998Y-124216475D01*
X110569664Y-124251635D01*
X110637914Y-124379322D01*
X110683608Y-124435000D01*
X101883770Y-124435000D01*
X101896502Y-124411180D01*
X101932812Y-124291482D01*
X101945072Y-124167000D01*
X101945072Y-122467000D01*
X101932812Y-122342518D01*
X101896502Y-122222820D01*
X101837537Y-122112506D01*
X101758185Y-122015815D01*
X101661494Y-121936463D01*
X101551180Y-121877498D01*
X101431482Y-121841188D01*
X101307000Y-121828928D01*
X99607000Y-121828928D01*
X99482518Y-121841188D01*
X99362820Y-121877498D01*
X99252506Y-121936463D01*
X99155815Y-122015815D01*
X99076463Y-122112506D01*
X99017498Y-122222820D01*
X98981188Y-122342518D01*
X98968928Y-122467000D01*
X98968928Y-124167000D01*
X98981188Y-124291482D01*
X99017498Y-124411180D01*
X99030230Y-124435000D01*
X96359107Y-124435000D01*
X96530475Y-124263632D01*
X96692990Y-124020411D01*
X96804932Y-123750158D01*
X96862000Y-123463260D01*
X96862000Y-123170740D01*
X96804932Y-122883842D01*
X96692990Y-122613589D01*
X96530475Y-122370368D01*
X96323632Y-122163525D01*
X96080411Y-122001010D01*
X95810158Y-121889068D01*
X95523260Y-121832000D01*
X95230740Y-121832000D01*
X94943842Y-121889068D01*
X94673589Y-122001010D01*
X94430368Y-122163525D01*
X94223525Y-122370368D01*
X94107000Y-122544760D01*
X93990475Y-122370368D01*
X93783632Y-122163525D01*
X93540411Y-122001010D01*
X93270158Y-121889068D01*
X92983260Y-121832000D01*
X92690740Y-121832000D01*
X92403842Y-121889068D01*
X92133589Y-122001010D01*
X91890368Y-122163525D01*
X91683525Y-122370368D01*
X91521010Y-122613589D01*
X91409068Y-122883842D01*
X91352000Y-123170740D01*
X91352000Y-123463260D01*
X91409068Y-123750158D01*
X91451252Y-123852000D01*
X88827572Y-123852000D01*
X88827572Y-123412874D01*
X91791207Y-120449240D01*
X91819247Y-120426228D01*
X91842260Y-120398187D01*
X91842263Y-120398184D01*
X91911096Y-120314311D01*
X91911097Y-120314310D01*
X91979347Y-120186623D01*
X92021375Y-120048075D01*
X92032010Y-119940095D01*
X92032010Y-119940088D01*
X92035565Y-119903991D01*
X92032010Y-119867894D01*
X92032010Y-114239436D01*
X92442197Y-113829250D01*
X92470237Y-113806238D01*
X92493250Y-113778197D01*
X92493253Y-113778194D01*
X92555576Y-113702253D01*
X92562087Y-113694320D01*
X92630337Y-113566633D01*
X92672365Y-113428085D01*
X92683000Y-113320105D01*
X92683000Y-113320104D01*
X92686556Y-113284000D01*
X92683000Y-113247895D01*
X92683000Y-112125000D01*
X93264681Y-112125000D01*
X93345000Y-112132911D01*
X93425319Y-112125000D01*
X93425322Y-112125000D01*
X93665516Y-112101343D01*
X93973715Y-112007852D01*
X94257752Y-111856031D01*
X94506714Y-111651714D01*
X94557925Y-111589313D01*
X95809167Y-110338072D01*
X97635000Y-110338072D01*
X97759482Y-110325812D01*
X97879180Y-110289502D01*
X97989494Y-110230537D01*
X98086185Y-110151185D01*
X98165537Y-110054494D01*
X98224502Y-109944180D01*
X98260812Y-109824482D01*
X98273072Y-109700000D01*
X98273072Y-106200000D01*
X98260812Y-106075518D01*
X98224502Y-105955820D01*
X98165537Y-105845506D01*
X98086185Y-105748815D01*
X97989494Y-105669463D01*
X97879180Y-105610498D01*
X97759482Y-105574188D01*
X97635000Y-105561928D01*
X94135000Y-105561928D01*
X94010518Y-105574188D01*
X93890820Y-105610498D01*
X93780506Y-105669463D01*
X93683815Y-105748815D01*
X93604463Y-105845506D01*
X93545498Y-105955820D01*
X93509188Y-106075518D01*
X93496928Y-106200000D01*
X93496928Y-108025833D01*
X92667762Y-108855000D01*
X89443346Y-108855000D01*
X89505706Y-108779014D01*
X89643599Y-108521034D01*
X89728513Y-108241111D01*
X89757185Y-107950000D01*
X89728513Y-107658889D01*
X89643599Y-107378966D01*
X89505706Y-107120986D01*
X89320134Y-106894866D01*
X89094014Y-106709294D01*
X88836034Y-106571401D01*
X88556111Y-106486487D01*
X88337950Y-106465000D01*
X87812050Y-106465000D01*
X87593889Y-106486487D01*
X87313966Y-106571401D01*
X87055986Y-106709294D01*
X86829866Y-106894866D01*
X86644294Y-107120986D01*
X86506401Y-107378966D01*
X86421487Y-107658889D01*
X86392815Y-107950000D01*
X86421487Y-108241111D01*
X86506401Y-108521034D01*
X86644294Y-108779014D01*
X86829866Y-109005134D01*
X87055986Y-109190706D01*
X87071091Y-109198780D01*
X86913286Y-109328286D01*
X86708969Y-109577248D01*
X86701410Y-109591390D01*
X86644294Y-109660986D01*
X86506401Y-109918966D01*
X86421487Y-110198889D01*
X86392815Y-110490000D01*
X86421487Y-110781111D01*
X86506401Y-111061034D01*
X86644294Y-111319014D01*
X86701410Y-111388610D01*
X86708969Y-111402752D01*
X86913286Y-111651714D01*
X87071091Y-111781220D01*
X87055986Y-111789294D01*
X86829866Y-111974866D01*
X86644294Y-112200986D01*
X86506401Y-112458966D01*
X86421487Y-112738889D01*
X86392815Y-113030000D01*
X86421487Y-113321111D01*
X86506401Y-113601034D01*
X86644294Y-113859014D01*
X86829866Y-114085134D01*
X87055986Y-114270706D01*
X87110791Y-114300000D01*
X87055986Y-114329294D01*
X86829866Y-114514866D01*
X86644294Y-114740986D01*
X86506401Y-114998966D01*
X86421487Y-115278889D01*
X86392815Y-115570000D01*
X86421487Y-115861111D01*
X86506401Y-116141034D01*
X86644294Y-116399014D01*
X86829866Y-116625134D01*
X87055986Y-116810706D01*
X87110791Y-116840000D01*
X87055986Y-116869294D01*
X86829866Y-117054866D01*
X86644294Y-117280986D01*
X86506401Y-117538966D01*
X86421487Y-117818889D01*
X86392815Y-118110000D01*
X86421487Y-118401111D01*
X86506401Y-118681034D01*
X86644294Y-118939014D01*
X86829866Y-119165134D01*
X87055986Y-119350706D01*
X87110791Y-119380000D01*
X87055986Y-119409294D01*
X86885375Y-119549311D01*
X86847087Y-119477680D01*
X86778253Y-119393806D01*
X86778250Y-119393803D01*
X86755237Y-119365762D01*
X86727197Y-119342750D01*
X85890344Y-118505897D01*
X85940000Y-118256260D01*
X85940000Y-117963740D01*
X85882932Y-117676842D01*
X85770990Y-117406589D01*
X85608475Y-117163368D01*
X85401632Y-116956525D01*
X85158411Y-116794010D01*
X84888158Y-116682068D01*
X84601260Y-116625000D01*
X84308740Y-116625000D01*
X84021842Y-116682068D01*
X83751589Y-116794010D01*
X83630000Y-116875253D01*
X83508411Y-116794010D01*
X83238158Y-116682068D01*
X82951260Y-116625000D01*
X82658740Y-116625000D01*
X82371842Y-116682068D01*
X82101589Y-116794010D01*
X81858368Y-116956525D01*
X81786000Y-117028893D01*
X81786000Y-114111107D01*
X81858368Y-114183475D01*
X82101589Y-114345990D01*
X82371842Y-114457932D01*
X82658740Y-114515000D01*
X82951260Y-114515000D01*
X83238158Y-114457932D01*
X83508411Y-114345990D01*
X83630000Y-114264747D01*
X83751589Y-114345990D01*
X84021842Y-114457932D01*
X84308740Y-114515000D01*
X84601260Y-114515000D01*
X84888158Y-114457932D01*
X85158411Y-114345990D01*
X85401632Y-114183475D01*
X85608475Y-113976632D01*
X85770990Y-113733411D01*
X85882932Y-113463158D01*
X85940000Y-113176260D01*
X85940000Y-112883740D01*
X85882932Y-112596842D01*
X85770990Y-112326589D01*
X85608475Y-112083368D01*
X85401632Y-111876525D01*
X85227240Y-111760000D01*
X85401632Y-111643475D01*
X85608475Y-111436632D01*
X85770990Y-111193411D01*
X85882932Y-110923158D01*
X85940000Y-110636260D01*
X85940000Y-110343740D01*
X85882932Y-110056842D01*
X85770990Y-109786589D01*
X85608475Y-109543368D01*
X85401632Y-109336525D01*
X85227240Y-109220000D01*
X85401632Y-109103475D01*
X85608475Y-108896632D01*
X85770990Y-108653411D01*
X85882932Y-108383158D01*
X85940000Y-108096260D01*
X85940000Y-107803740D01*
X85882932Y-107516842D01*
X85770990Y-107246589D01*
X85608475Y-107003368D01*
X85401632Y-106796525D01*
X85158411Y-106634010D01*
X84888158Y-106522068D01*
X84601260Y-106465000D01*
X84308740Y-106465000D01*
X84021842Y-106522068D01*
X83751589Y-106634010D01*
X83630000Y-106715253D01*
X83508411Y-106634010D01*
X83238158Y-106522068D01*
X82951260Y-106465000D01*
X82658740Y-106465000D01*
X82371842Y-106522068D01*
X82101589Y-106634010D01*
X81858368Y-106796525D01*
X81651525Y-107003368D01*
X81489010Y-107246589D01*
X81407000Y-107444579D01*
X81407000Y-74920234D01*
X81424376Y-74743811D01*
X81474022Y-74580150D01*
X81554638Y-74429328D01*
X81663130Y-74297130D01*
X81795328Y-74188638D01*
X81946150Y-74108022D01*
X82109811Y-74058376D01*
X82286234Y-74041000D01*
X89755786Y-74041000D01*
X89768234Y-74040388D01*
X89963325Y-74021173D01*
X89987743Y-74016317D01*
X90175336Y-73959412D01*
X90198337Y-73949884D01*
X90371224Y-73857474D01*
X90391925Y-73843642D01*
X90543461Y-73719279D01*
X90552696Y-73710910D01*
X90575000Y-73688606D01*
X90575001Y-97685118D01*
X90564671Y-97790000D01*
X90605893Y-98208533D01*
X90727975Y-98610982D01*
X90926224Y-98981881D01*
X91126165Y-99225510D01*
X91126168Y-99225513D01*
X91193024Y-99306977D01*
X91274487Y-99373832D01*
X93666167Y-101765513D01*
X93733023Y-101846977D01*
X93814487Y-101913833D01*
X93814489Y-101913835D01*
X93968200Y-102039982D01*
X94058119Y-102113777D01*
X94429018Y-102312026D01*
X94831467Y-102434108D01*
X95145118Y-102465000D01*
X95145127Y-102465000D01*
X95249999Y-102475329D01*
X95354871Y-102465000D01*
X99164882Y-102465000D01*
X99478533Y-102434108D01*
X99880982Y-102312026D01*
X100251881Y-102113777D01*
X100576977Y-101846977D01*
X100843777Y-101521881D01*
X101042026Y-101150982D01*
X101164108Y-100748533D01*
X101205330Y-100330000D01*
X101164108Y-99911467D01*
X101042026Y-99509018D01*
X100843777Y-99138119D01*
X100576977Y-98813023D01*
X100251881Y-98546223D01*
X99880982Y-98347974D01*
X99478533Y-98225892D01*
X99164882Y-98195000D01*
X96134346Y-98195000D01*
X94845000Y-96905655D01*
X94845000Y-71224871D01*
X94855329Y-71119999D01*
X94845000Y-71015127D01*
X94845000Y-71015118D01*
X94814108Y-70701467D01*
X94692026Y-70299018D01*
X94493777Y-69928119D01*
X94226977Y-69603023D01*
X94145508Y-69536163D01*
X93023837Y-68414492D01*
X92956977Y-68333023D01*
X92631881Y-68066223D01*
X92260982Y-67867974D01*
X91858533Y-67745892D01*
X91544882Y-67715000D01*
X91544872Y-67715000D01*
X91440000Y-67704671D01*
X91335128Y-67715000D01*
X91313000Y-67715000D01*
X91313000Y-67554234D01*
X91330376Y-67377811D01*
X91380022Y-67214150D01*
X91460638Y-67063328D01*
X91569130Y-66931130D01*
X91701328Y-66822638D01*
X91852150Y-66742022D01*
X92015811Y-66692376D01*
X92192234Y-66675000D01*
X127159082Y-66675000D01*
X127176974Y-66733981D01*
%TA.AperFunction,Conductor*%
D35*
G36*
X127176974Y-66733981D02*
G01*
X127375223Y-67104881D01*
X127642023Y-67429977D01*
X127723492Y-67496837D01*
X129310000Y-69083346D01*
X129310000Y-69507985D01*
X129155398Y-69319602D01*
X128853143Y-69071547D01*
X128508302Y-68887226D01*
X128134128Y-68773722D01*
X127842510Y-68745000D01*
X126647490Y-68745000D01*
X126355872Y-68773722D01*
X125981698Y-68887226D01*
X125636857Y-69071547D01*
X125334602Y-69319602D01*
X125086547Y-69621857D01*
X124902226Y-69966698D01*
X124788722Y-70340872D01*
X124750396Y-70730000D01*
X124788722Y-71119128D01*
X124902226Y-71493302D01*
X125086547Y-71838143D01*
X125334602Y-72140398D01*
X125636857Y-72388453D01*
X125981698Y-72572774D01*
X126355872Y-72686278D01*
X126647490Y-72715000D01*
X127842510Y-72715000D01*
X128134128Y-72686278D01*
X128508302Y-72572774D01*
X128853143Y-72388453D01*
X129155398Y-72140398D01*
X129345000Y-71909368D01*
X129534602Y-72140398D01*
X129836857Y-72388453D01*
X130181698Y-72572774D01*
X130555872Y-72686278D01*
X130580359Y-72688690D01*
X130624018Y-72712026D01*
X131026467Y-72834108D01*
X131445000Y-72875330D01*
X131549882Y-72865000D01*
X133247001Y-72865000D01*
X133247000Y-76331654D01*
X130009491Y-79569164D01*
X129928023Y-79636023D01*
X129661223Y-79961119D01*
X129614025Y-80049421D01*
X129534602Y-80114602D01*
X129345000Y-80345632D01*
X129155398Y-80114602D01*
X128853143Y-79866547D01*
X128508302Y-79682226D01*
X128134128Y-79568722D01*
X127842510Y-79540000D01*
X126647490Y-79540000D01*
X126355872Y-79568722D01*
X125981698Y-79682226D01*
X125636857Y-79866547D01*
X125334602Y-80114602D01*
X125086547Y-80416857D01*
X124902226Y-80761698D01*
X124788722Y-81135872D01*
X124750396Y-81525000D01*
X124788722Y-81914128D01*
X124902226Y-82288302D01*
X125086547Y-82633143D01*
X125334602Y-82935398D01*
X125636857Y-83183453D01*
X125981698Y-83367774D01*
X126355872Y-83481278D01*
X126647490Y-83510000D01*
X127842510Y-83510000D01*
X128134128Y-83481278D01*
X128508302Y-83367774D01*
X128853143Y-83183453D01*
X129155398Y-82935398D01*
X129345000Y-82704368D01*
X129534602Y-82935398D01*
X129836857Y-83183453D01*
X130181698Y-83367774D01*
X130555872Y-83481278D01*
X130580359Y-83483690D01*
X130624018Y-83507026D01*
X131026467Y-83629108D01*
X131445000Y-83670330D01*
X131863532Y-83629108D01*
X132265981Y-83507026D01*
X132309640Y-83483690D01*
X132334128Y-83481278D01*
X132708302Y-83367774D01*
X133053143Y-83183453D01*
X133355398Y-82935398D01*
X133603453Y-82633143D01*
X133787774Y-82288302D01*
X133901278Y-81914128D01*
X133922917Y-81694429D01*
X136817513Y-78799833D01*
X136898977Y-78732977D01*
X136966660Y-78650506D01*
X137116379Y-78468072D01*
X137165777Y-78407881D01*
X137364026Y-78036982D01*
X137413447Y-77874063D01*
X137486108Y-77634534D01*
X137492692Y-77567680D01*
X137517000Y-77320882D01*
X137517000Y-77320875D01*
X137527329Y-77216000D01*
X137517000Y-77111126D01*
X137517000Y-75747219D01*
X137541547Y-75793143D01*
X137789602Y-76095398D01*
X138091857Y-76343453D01*
X138436698Y-76527774D01*
X138810872Y-76641278D01*
X139102490Y-76670000D01*
X140297510Y-76670000D01*
X140589128Y-76641278D01*
X140963302Y-76527774D01*
X141308143Y-76343453D01*
X141610398Y-76095398D01*
X141800000Y-75864368D01*
X141989602Y-76095398D01*
X142291857Y-76343453D01*
X142636698Y-76527774D01*
X143010872Y-76641278D01*
X143302490Y-76670000D01*
X144497510Y-76670000D01*
X144789128Y-76641278D01*
X145163302Y-76527774D01*
X145508143Y-76343453D01*
X145729990Y-76161387D01*
X145729990Y-77408613D01*
X145508143Y-77226547D01*
X145163302Y-77042226D01*
X144789128Y-76928722D01*
X144497510Y-76900000D01*
X143302490Y-76900000D01*
X143010872Y-76928722D01*
X142636698Y-77042226D01*
X142291857Y-77226547D01*
X141989602Y-77474602D01*
X141800000Y-77705632D01*
X141610398Y-77474602D01*
X141308143Y-77226547D01*
X140963302Y-77042226D01*
X140589128Y-76928722D01*
X140297510Y-76900000D01*
X139102490Y-76900000D01*
X138810872Y-76928722D01*
X138436698Y-77042226D01*
X138091857Y-77226547D01*
X137789602Y-77474602D01*
X137541547Y-77776857D01*
X137357226Y-78121698D01*
X137243722Y-78495872D01*
X137205396Y-78885000D01*
X137243722Y-79274128D01*
X137357226Y-79648302D01*
X137541547Y-79993143D01*
X137789602Y-80295398D01*
X138091857Y-80543453D01*
X138436698Y-80727774D01*
X138810872Y-80841278D01*
X139102490Y-80870000D01*
X140297510Y-80870000D01*
X140589128Y-80841278D01*
X140963302Y-80727774D01*
X141308143Y-80543453D01*
X141610398Y-80295398D01*
X141800000Y-80064368D01*
X141989602Y-80295398D01*
X142291857Y-80543453D01*
X142636698Y-80727774D01*
X143010872Y-80841278D01*
X143302490Y-80870000D01*
X144497510Y-80870000D01*
X144789128Y-80841278D01*
X145163302Y-80727774D01*
X145508143Y-80543453D01*
X145729990Y-80361387D01*
X145729990Y-81608613D01*
X145508143Y-81426547D01*
X145163302Y-81242226D01*
X144789128Y-81128722D01*
X144497510Y-81100000D01*
X143302490Y-81100000D01*
X143010872Y-81128722D01*
X142636698Y-81242226D01*
X142291857Y-81426547D01*
X141989602Y-81674602D01*
X141800000Y-81905632D01*
X141610398Y-81674602D01*
X141308143Y-81426547D01*
X140963302Y-81242226D01*
X140589128Y-81128722D01*
X140297510Y-81100000D01*
X139102490Y-81100000D01*
X138810872Y-81128722D01*
X138436698Y-81242226D01*
X138091857Y-81426547D01*
X137789602Y-81674602D01*
X137541547Y-81976857D01*
X137357226Y-82321698D01*
X137243722Y-82695872D01*
X137205396Y-83085000D01*
X137243722Y-83474128D01*
X137357226Y-83848302D01*
X137541547Y-84193143D01*
X137789602Y-84495398D01*
X138091857Y-84743453D01*
X138436698Y-84927774D01*
X138810872Y-85041278D01*
X139102490Y-85070000D01*
X140297510Y-85070000D01*
X140589128Y-85041278D01*
X140963302Y-84927774D01*
X141308143Y-84743453D01*
X141610398Y-84495398D01*
X141800000Y-84264368D01*
X141989602Y-84495398D01*
X142291857Y-84743453D01*
X142636698Y-84927774D01*
X143010872Y-85041278D01*
X143302490Y-85070000D01*
X144497510Y-85070000D01*
X144789128Y-85041278D01*
X145163302Y-84927774D01*
X145508143Y-84743453D01*
X145729990Y-84561387D01*
X145729990Y-85808613D01*
X145508143Y-85626547D01*
X145163302Y-85442226D01*
X144789128Y-85328722D01*
X144497510Y-85300000D01*
X143302490Y-85300000D01*
X143010872Y-85328722D01*
X142636698Y-85442226D01*
X142291857Y-85626547D01*
X141989602Y-85874602D01*
X141800000Y-86105632D01*
X141610398Y-85874602D01*
X141308143Y-85626547D01*
X140963302Y-85442226D01*
X140589128Y-85328722D01*
X140297510Y-85300000D01*
X139102490Y-85300000D01*
X138810872Y-85328722D01*
X138436698Y-85442226D01*
X138091857Y-85626547D01*
X137789602Y-85874602D01*
X137541547Y-86176857D01*
X137357226Y-86521698D01*
X137243722Y-86895872D01*
X137205396Y-87285000D01*
X137243722Y-87674128D01*
X137357226Y-88048302D01*
X137541547Y-88393143D01*
X137789602Y-88695398D01*
X138091857Y-88943453D01*
X138436698Y-89127774D01*
X138810872Y-89241278D01*
X139102490Y-89270000D01*
X140297510Y-89270000D01*
X140589128Y-89241278D01*
X140963302Y-89127774D01*
X141308143Y-88943453D01*
X141610398Y-88695398D01*
X141800000Y-88464368D01*
X141989602Y-88695398D01*
X142291857Y-88943453D01*
X142636698Y-89127774D01*
X143010872Y-89241278D01*
X143302490Y-89270000D01*
X144497510Y-89270000D01*
X144789128Y-89241278D01*
X145163302Y-89127774D01*
X145508143Y-88943453D01*
X145729990Y-88761387D01*
X145729990Y-90008613D01*
X145508143Y-89826547D01*
X145163302Y-89642226D01*
X144789128Y-89528722D01*
X144497510Y-89500000D01*
X143302490Y-89500000D01*
X143010872Y-89528722D01*
X142636698Y-89642226D01*
X142291857Y-89826547D01*
X141989602Y-90074602D01*
X141741547Y-90376857D01*
X141557226Y-90721698D01*
X141443722Y-91095872D01*
X141405396Y-91485000D01*
X141443722Y-91874128D01*
X141557226Y-92248302D01*
X141741547Y-92593143D01*
X141989602Y-92895398D01*
X142291857Y-93143453D01*
X142636698Y-93327774D01*
X143010872Y-93441278D01*
X143302490Y-93470000D01*
X144497510Y-93470000D01*
X144789128Y-93441278D01*
X145163302Y-93327774D01*
X145508143Y-93143453D01*
X145729991Y-92961387D01*
X145729991Y-94208613D01*
X145508143Y-94026547D01*
X145163302Y-93842226D01*
X144789128Y-93728722D01*
X144497510Y-93700000D01*
X143302490Y-93700000D01*
X143010872Y-93728722D01*
X142636698Y-93842226D01*
X142291857Y-94026547D01*
X141989602Y-94274602D01*
X141741547Y-94576857D01*
X141557226Y-94921698D01*
X141443722Y-95295872D01*
X141405396Y-95685000D01*
X141443722Y-96074128D01*
X141557226Y-96448302D01*
X141741547Y-96793143D01*
X141989602Y-97095398D01*
X142291857Y-97343453D01*
X142636698Y-97527774D01*
X143010872Y-97641278D01*
X143302490Y-97670000D01*
X144497510Y-97670000D01*
X144789128Y-97641278D01*
X145163302Y-97527774D01*
X145508143Y-97343453D01*
X145729991Y-97161387D01*
X145729991Y-98408613D01*
X145508143Y-98226547D01*
X145163302Y-98042226D01*
X144789128Y-97928722D01*
X144497510Y-97900000D01*
X143302490Y-97900000D01*
X143010872Y-97928722D01*
X142636698Y-98042226D01*
X142291857Y-98226547D01*
X141989602Y-98474602D01*
X141741547Y-98776857D01*
X141557226Y-99121698D01*
X141443722Y-99495872D01*
X141405396Y-99885000D01*
X141443722Y-100274128D01*
X141557226Y-100648302D01*
X141741547Y-100993143D01*
X141989602Y-101295398D01*
X142291857Y-101543453D01*
X142636698Y-101727774D01*
X143010872Y-101841278D01*
X143302490Y-101870000D01*
X144497510Y-101870000D01*
X144789128Y-101841278D01*
X145163302Y-101727774D01*
X145508143Y-101543453D01*
X145729991Y-101361387D01*
X145729991Y-102608613D01*
X145508143Y-102426547D01*
X145163302Y-102242226D01*
X144789128Y-102128722D01*
X144497510Y-102100000D01*
X143302490Y-102100000D01*
X143010872Y-102128722D01*
X142636698Y-102242226D01*
X142291857Y-102426547D01*
X141989602Y-102674602D01*
X141741547Y-102976857D01*
X141557226Y-103321698D01*
X141443722Y-103695872D01*
X141405396Y-104085000D01*
X141443722Y-104474128D01*
X141557226Y-104848302D01*
X141741547Y-105193143D01*
X141989602Y-105495398D01*
X142291857Y-105743453D01*
X142636698Y-105927774D01*
X143010872Y-106041278D01*
X143302490Y-106070000D01*
X144497510Y-106070000D01*
X144789128Y-106041278D01*
X145163302Y-105927774D01*
X145508143Y-105743453D01*
X145729991Y-105561387D01*
X145729991Y-114085770D01*
X145017703Y-114798059D01*
X144789128Y-114728722D01*
X144497510Y-114700000D01*
X143302490Y-114700000D01*
X143010872Y-114728722D01*
X142636698Y-114842226D01*
X142291857Y-115026547D01*
X142263280Y-115050000D01*
X141336720Y-115050000D01*
X141308143Y-115026547D01*
X140963302Y-114842226D01*
X140589128Y-114728722D01*
X140297510Y-114700000D01*
X139102490Y-114700000D01*
X138810872Y-114728722D01*
X138436698Y-114842226D01*
X138091857Y-115026547D01*
X137789602Y-115274602D01*
X137541547Y-115576857D01*
X137357226Y-115921698D01*
X137243722Y-116295872D01*
X137205396Y-116685000D01*
X137243722Y-117074128D01*
X137357226Y-117448302D01*
X137541547Y-117793143D01*
X137789602Y-118095398D01*
X138091857Y-118343453D01*
X138436698Y-118527774D01*
X138810872Y-118641278D01*
X139102490Y-118670000D01*
X140297510Y-118670000D01*
X140589128Y-118641278D01*
X140963302Y-118527774D01*
X141308143Y-118343453D01*
X141336720Y-118320000D01*
X142263280Y-118320000D01*
X142291857Y-118343453D01*
X142636698Y-118527774D01*
X143010872Y-118641278D01*
X143302490Y-118670000D01*
X144497510Y-118670000D01*
X144789128Y-118641278D01*
X145163302Y-118527774D01*
X145508143Y-118343453D01*
X145538548Y-118318500D01*
X145763516Y-118296343D01*
X146071715Y-118202852D01*
X146355752Y-118051031D01*
X146604714Y-117846714D01*
X146655925Y-117784313D01*
X147930001Y-116510238D01*
X147930001Y-124435000D01*
X146883896Y-124435000D01*
X146970185Y-124364185D01*
X147049537Y-124267494D01*
X147108502Y-124157180D01*
X147144812Y-124037482D01*
X147157072Y-123913000D01*
X147157072Y-122213000D01*
X147144812Y-122088518D01*
X147108502Y-121968820D01*
X147049537Y-121858506D01*
X146970185Y-121761815D01*
X146873494Y-121682463D01*
X146763180Y-121623498D01*
X146643482Y-121587188D01*
X146519000Y-121574928D01*
X145255730Y-121574928D01*
X144708803Y-121028002D01*
X144685001Y-120998999D01*
X144569276Y-120904026D01*
X144437247Y-120833454D01*
X144293986Y-120789997D01*
X144182333Y-120779000D01*
X144182322Y-120779000D01*
X144145000Y-120775324D01*
X144107678Y-120779000D01*
X134934802Y-120779000D01*
X134243897Y-120088095D01*
X134296028Y-120053262D01*
X134426262Y-119923028D01*
X134528586Y-119769889D01*
X134599068Y-119599729D01*
X134635000Y-119419089D01*
X134635000Y-119234911D01*
X134599068Y-119054271D01*
X134528586Y-118884111D01*
X134426262Y-118730972D01*
X134296028Y-118600738D01*
X134148072Y-118501877D01*
X134148072Y-117687000D01*
X134135812Y-117562518D01*
X134099502Y-117442820D01*
X134040537Y-117332506D01*
X133961185Y-117235815D01*
X133937197Y-117216129D01*
X133915546Y-117144753D01*
X133844974Y-117012724D01*
X133773799Y-116925997D01*
X133750001Y-116896999D01*
X133721004Y-116873202D01*
X133049803Y-116202002D01*
X133026001Y-116172999D01*
X132910276Y-116078026D01*
X132871211Y-116057145D01*
X132871320Y-116057087D01*
X132983238Y-115965238D01*
X133006258Y-115937188D01*
X133717197Y-115226250D01*
X133745237Y-115203238D01*
X133768250Y-115175197D01*
X133768253Y-115175194D01*
X133837087Y-115091320D01*
X133905337Y-114963634D01*
X133947365Y-114825085D01*
X133961556Y-114681000D01*
X133958000Y-114644895D01*
X133958000Y-113080446D01*
X134097103Y-112941344D01*
X134346740Y-112991000D01*
X134639260Y-112991000D01*
X134926158Y-112933932D01*
X135196411Y-112821990D01*
X135439632Y-112659475D01*
X135646475Y-112452632D01*
X135808990Y-112209411D01*
X135920932Y-111939158D01*
X135978000Y-111652260D01*
X135978000Y-111359740D01*
X135920932Y-111072842D01*
X135808990Y-110802589D01*
X135646475Y-110559368D01*
X135439632Y-110352525D01*
X135196411Y-110190010D01*
X134926158Y-110078068D01*
X134639260Y-110021000D01*
X134346740Y-110021000D01*
X134059842Y-110078068D01*
X133789589Y-110190010D01*
X133546368Y-110352525D01*
X133339525Y-110559368D01*
X133223000Y-110733760D01*
X133106475Y-110559368D01*
X132899632Y-110352525D01*
X132656411Y-110190010D01*
X132386158Y-110078068D01*
X132099260Y-110021000D01*
X131806740Y-110021000D01*
X131519842Y-110078068D01*
X131418000Y-110120252D01*
X131418000Y-109814397D01*
X131421556Y-109778292D01*
X131407365Y-109634207D01*
X131390926Y-109580015D01*
X131365337Y-109495659D01*
X131297087Y-109367972D01*
X131205238Y-109256054D01*
X131177193Y-109233038D01*
X129170020Y-107225866D01*
X129170020Y-103960125D01*
X129173576Y-103924020D01*
X129159385Y-103779935D01*
X129148715Y-103744762D01*
X129117357Y-103641387D01*
X129049107Y-103513700D01*
X128957258Y-103401782D01*
X128929213Y-103378766D01*
X127377447Y-101827000D01*
X133891289Y-101827000D01*
X133960226Y-101895937D01*
X134129744Y-102009205D01*
X134318102Y-102087226D01*
X134518061Y-102127000D01*
X134721939Y-102127000D01*
X134921898Y-102087226D01*
X135110256Y-102009205D01*
X135279774Y-101895937D01*
X135423937Y-101751774D01*
X135537205Y-101582256D01*
X135615226Y-101393898D01*
X135655000Y-101193939D01*
X135655000Y-100990061D01*
X135615226Y-100790102D01*
X135537205Y-100601744D01*
X135423937Y-100432226D01*
X135279774Y-100288063D01*
X135110256Y-100174795D01*
X134921898Y-100096774D01*
X134721939Y-100057000D01*
X134518061Y-100057000D01*
X134318102Y-100096774D01*
X134129744Y-100174795D01*
X133960226Y-100288063D01*
X133891289Y-100357000D01*
X130942627Y-100357000D01*
X130952999Y-100304858D01*
X130952999Y-100174113D01*
X131000335Y-100085553D01*
X131029614Y-99989034D01*
X131042363Y-99947006D01*
X131056554Y-99802921D01*
X131052998Y-99766816D01*
X131052998Y-94565713D01*
X131105937Y-94512774D01*
X131219205Y-94343256D01*
X131297226Y-94154898D01*
X131337000Y-93954939D01*
X131337000Y-93751061D01*
X131297226Y-93551102D01*
X131219205Y-93362744D01*
X131105937Y-93193226D01*
X130961774Y-93049063D01*
X130792256Y-92935795D01*
X130603898Y-92857774D01*
X130403939Y-92818000D01*
X130200061Y-92818000D01*
X130000102Y-92857774D01*
X129811744Y-92935795D01*
X129642226Y-93049063D01*
X129498063Y-93193226D01*
X129384795Y-93362744D01*
X129306774Y-93551102D01*
X129267000Y-93751061D01*
X129267000Y-93954939D01*
X129306774Y-94154898D01*
X129384795Y-94343256D01*
X129498063Y-94512774D01*
X129582999Y-94597710D01*
X129582998Y-98063551D01*
X121638994Y-90119548D01*
X121638994Y-85725000D01*
X124750396Y-85725000D01*
X124788722Y-86114128D01*
X124902226Y-86488302D01*
X125086547Y-86833143D01*
X125334602Y-87135398D01*
X125636857Y-87383453D01*
X125981698Y-87567774D01*
X126355872Y-87681278D01*
X126647490Y-87710000D01*
X127842510Y-87710000D01*
X128134128Y-87681278D01*
X128508302Y-87567774D01*
X128853143Y-87383453D01*
X129155398Y-87135398D01*
X129403453Y-86833143D01*
X129587774Y-86488302D01*
X129701278Y-86114128D01*
X129739604Y-85725000D01*
X129701278Y-85335872D01*
X129587774Y-84961698D01*
X129403453Y-84616857D01*
X129155398Y-84314602D01*
X128853143Y-84066547D01*
X128508302Y-83882226D01*
X128134128Y-83768722D01*
X127842510Y-83740000D01*
X126647490Y-83740000D01*
X126355872Y-83768722D01*
X125981698Y-83882226D01*
X125636857Y-84066547D01*
X125334602Y-84314602D01*
X125086547Y-84616857D01*
X124902226Y-84961698D01*
X124788722Y-85335872D01*
X124750396Y-85725000D01*
X121638994Y-85725000D01*
X121638994Y-84548711D01*
X121707931Y-84479774D01*
X121821199Y-84310256D01*
X121899220Y-84121898D01*
X121938994Y-83921939D01*
X121938994Y-83718061D01*
X121899220Y-83518102D01*
X121821199Y-83329744D01*
X121707931Y-83160226D01*
X121563768Y-83016063D01*
X121394250Y-82902795D01*
X121205892Y-82824774D01*
X121005933Y-82785000D01*
X120802055Y-82785000D01*
X120602096Y-82824774D01*
X120413738Y-82902795D01*
X120244220Y-83016063D01*
X120100057Y-83160226D01*
X119986789Y-83329744D01*
X119908768Y-83518102D01*
X119868994Y-83718061D01*
X119868994Y-83921939D01*
X119908768Y-84121898D01*
X119986789Y-84310256D01*
X120100057Y-84479774D01*
X120168995Y-84548712D01*
X120168994Y-90387889D01*
X120165438Y-90423994D01*
X120179629Y-90568079D01*
X120185982Y-90589022D01*
X120221657Y-90706626D01*
X120289907Y-90834313D01*
X120381756Y-90946231D01*
X120409802Y-90969248D01*
X128327351Y-98886798D01*
X128290774Y-98975102D01*
X128251000Y-99175061D01*
X128251000Y-99378939D01*
X128290774Y-99578898D01*
X128368795Y-99767256D01*
X128482063Y-99936774D01*
X128626226Y-100080937D01*
X128795744Y-100194205D01*
X128882999Y-100230347D01*
X128882999Y-100304858D01*
X128893371Y-100357000D01*
X126542447Y-100357000D01*
X126537079Y-100351632D01*
X126660937Y-100227774D01*
X126774205Y-100058256D01*
X126852226Y-99869898D01*
X126892000Y-99669939D01*
X126892000Y-99466061D01*
X126852226Y-99266102D01*
X126774205Y-99077744D01*
X126660937Y-98908226D01*
X126516774Y-98764063D01*
X126347256Y-98650795D01*
X126158898Y-98572774D01*
X125958939Y-98533000D01*
X125861447Y-98533000D01*
X119607000Y-92278554D01*
X119607000Y-78071711D01*
X119675937Y-78002774D01*
X119789205Y-77833256D01*
X119867226Y-77644898D01*
X119907000Y-77444939D01*
X119907000Y-77241061D01*
X119867226Y-77041102D01*
X119789205Y-76852744D01*
X119675937Y-76683226D01*
X119531774Y-76539063D01*
X119362256Y-76425795D01*
X119173898Y-76347774D01*
X118973939Y-76308000D01*
X118770061Y-76308000D01*
X118570102Y-76347774D01*
X118381744Y-76425795D01*
X118212226Y-76539063D01*
X118068063Y-76683226D01*
X117954795Y-76852744D01*
X117876774Y-77041102D01*
X117837000Y-77241061D01*
X117837000Y-77444939D01*
X117876774Y-77644898D01*
X117954795Y-77833256D01*
X118068063Y-78002774D01*
X118137000Y-78071711D01*
X118137000Y-78141104D01*
X118137001Y-78141114D01*
X118137000Y-89284553D01*
X115843000Y-86990554D01*
X115843000Y-86893061D01*
X115803226Y-86693102D01*
X115725205Y-86504744D01*
X115611937Y-86335226D01*
X115467774Y-86191063D01*
X115298256Y-86077795D01*
X115188229Y-86032220D01*
X116318197Y-84902252D01*
X116346237Y-84879240D01*
X116369250Y-84851199D01*
X116369253Y-84851196D01*
X116438087Y-84767322D01*
X116506337Y-84639636D01*
X116548365Y-84501087D01*
X116562556Y-84357002D01*
X116559000Y-84320897D01*
X116559000Y-83654096D01*
X116562555Y-83617999D01*
X116559000Y-83581902D01*
X116559000Y-83581895D01*
X116548365Y-83473915D01*
X116546668Y-83468319D01*
X116533249Y-83424084D01*
X116506337Y-83335367D01*
X116438087Y-83207680D01*
X116346238Y-83095762D01*
X116318187Y-83072741D01*
X116031259Y-82785813D01*
X116008238Y-82757762D01*
X115924072Y-82688689D01*
X115924072Y-82205000D01*
X115911812Y-82080518D01*
X115911655Y-82080000D01*
X115911812Y-82079482D01*
X115924072Y-81955000D01*
X115924072Y-81405000D01*
X115911812Y-81280518D01*
X115911655Y-81280000D01*
X115911812Y-81279482D01*
X115924072Y-81155000D01*
X115924072Y-80605000D01*
X115911812Y-80480518D01*
X115911655Y-80480000D01*
X115911812Y-80479482D01*
X115924072Y-80355000D01*
X115924072Y-79857113D01*
X115990937Y-79802238D01*
X116013957Y-79774188D01*
X116845203Y-78942943D01*
X116873248Y-78919927D01*
X116965097Y-78808009D01*
X117033347Y-78680322D01*
X117065580Y-78574063D01*
X117075375Y-78541775D01*
X117077980Y-78515320D01*
X117086010Y-78433794D01*
X117086010Y-78433787D01*
X117089565Y-78397690D01*
X117086010Y-78361593D01*
X117086010Y-74930000D01*
X124750396Y-74930000D01*
X124788722Y-75319128D01*
X124902226Y-75693302D01*
X125086547Y-76038143D01*
X125334602Y-76340398D01*
X125636857Y-76588453D01*
X125981698Y-76772774D01*
X126355872Y-76886278D01*
X126647490Y-76915000D01*
X127842510Y-76915000D01*
X128134128Y-76886278D01*
X128508302Y-76772774D01*
X128853143Y-76588453D01*
X129155398Y-76340398D01*
X129403453Y-76038143D01*
X129587774Y-75693302D01*
X129701278Y-75319128D01*
X129739604Y-74930000D01*
X129701278Y-74540872D01*
X129587774Y-74166698D01*
X129403453Y-73821857D01*
X129155398Y-73519602D01*
X128853143Y-73271547D01*
X128508302Y-73087226D01*
X128134128Y-72973722D01*
X127842510Y-72945000D01*
X126647490Y-72945000D01*
X126355872Y-72973722D01*
X125981698Y-73087226D01*
X125636857Y-73271547D01*
X125334602Y-73519602D01*
X125086547Y-73821857D01*
X124902226Y-74166698D01*
X124788722Y-74540872D01*
X124750396Y-74930000D01*
X117086010Y-74930000D01*
X117086010Y-69847416D01*
X117089566Y-69811311D01*
X117075375Y-69667226D01*
X117033347Y-69528677D01*
X116965097Y-69400991D01*
X116896263Y-69317117D01*
X116896260Y-69317114D01*
X116873247Y-69289073D01*
X116845207Y-69266061D01*
X115899947Y-68320802D01*
X115876927Y-68292752D01*
X115765009Y-68200903D01*
X115637322Y-68132653D01*
X115498774Y-68090625D01*
X115390794Y-68079990D01*
X115354689Y-68076434D01*
X115318584Y-68079990D01*
X97787416Y-68079990D01*
X97751311Y-68076434D01*
X97607226Y-68090625D01*
X97468677Y-68132653D01*
X97426265Y-68155323D01*
X97340991Y-68200903D01*
X97229073Y-68292752D01*
X97206057Y-68320797D01*
X95371798Y-70155057D01*
X95343753Y-70178073D01*
X95251904Y-70289991D01*
X95222860Y-70344329D01*
X95183654Y-70417678D01*
X95141625Y-70556226D01*
X95127434Y-70700311D01*
X95130991Y-70736426D01*
X95130990Y-80393584D01*
X95127434Y-80429689D01*
X95130993Y-80465824D01*
X95130992Y-82875887D01*
X95127436Y-82911992D01*
X95141627Y-83056077D01*
X95146529Y-83072237D01*
X95183655Y-83194624D01*
X95251905Y-83322311D01*
X95343754Y-83434229D01*
X95371800Y-83457246D01*
X95993000Y-84078447D01*
X95993000Y-84175939D01*
X96032774Y-84375898D01*
X96110795Y-84564256D01*
X96224063Y-84733774D01*
X96368226Y-84877937D01*
X96537744Y-84991205D01*
X96726102Y-85069226D01*
X96926061Y-85109000D01*
X97129939Y-85109000D01*
X97329898Y-85069226D01*
X97518256Y-84991205D01*
X97687774Y-84877937D01*
X97831937Y-84733774D01*
X97945205Y-84564256D01*
X98023226Y-84375898D01*
X98063000Y-84175939D01*
X98063000Y-83972061D01*
X98027383Y-83793000D01*
X98501554Y-83793000D01*
X99282746Y-84574193D01*
X99305762Y-84602238D01*
X99417680Y-84694087D01*
X99545367Y-84762337D01*
X99683915Y-84804365D01*
X99791895Y-84815000D01*
X99791904Y-84815000D01*
X99827999Y-84818555D01*
X99864094Y-84815000D01*
X102724000Y-84815000D01*
X102724000Y-84937939D01*
X102763774Y-85137898D01*
X102841795Y-85326256D01*
X102955063Y-85495774D01*
X103099226Y-85639937D01*
X103268744Y-85753205D01*
X103457102Y-85831226D01*
X103657061Y-85871000D01*
X103860939Y-85871000D01*
X104060898Y-85831226D01*
X104249256Y-85753205D01*
X104418774Y-85639937D01*
X104487711Y-85571000D01*
X106522928Y-85571000D01*
X106522928Y-86330000D01*
X106535188Y-86454482D01*
X106571498Y-86574180D01*
X106630463Y-86684494D01*
X106643845Y-86700801D01*
X106550618Y-86777310D01*
X106481310Y-86846618D01*
X106401958Y-86943309D01*
X106347502Y-87024808D01*
X106288536Y-87135125D01*
X106251027Y-87225681D01*
X106214718Y-87345377D01*
X106195596Y-87441510D01*
X106183336Y-87565991D01*
X106183336Y-87590550D01*
X106180928Y-87615000D01*
X106180928Y-88115000D01*
X106193188Y-88239482D01*
X106200929Y-88265000D01*
X106193188Y-88290518D01*
X106180928Y-88415000D01*
X106180928Y-88915000D01*
X106183336Y-88939450D01*
X106183336Y-88964009D01*
X106195596Y-89088490D01*
X106214718Y-89184623D01*
X106251027Y-89304319D01*
X106288536Y-89394875D01*
X106347502Y-89505192D01*
X106401958Y-89586691D01*
X106481310Y-89683382D01*
X106550618Y-89752690D01*
X106647309Y-89832042D01*
X106728808Y-89886498D01*
X106834000Y-89942725D01*
X106834001Y-90693158D01*
X103986000Y-87845158D01*
X103986000Y-87596711D01*
X104054937Y-87527774D01*
X104168205Y-87358256D01*
X104246226Y-87169898D01*
X104286000Y-86969939D01*
X104286000Y-86766061D01*
X104246226Y-86566102D01*
X104168205Y-86377744D01*
X104054937Y-86208226D01*
X103910774Y-86064063D01*
X103741256Y-85950795D01*
X103552898Y-85872774D01*
X103352939Y-85833000D01*
X103149061Y-85833000D01*
X102949102Y-85872774D01*
X102760744Y-85950795D01*
X102743000Y-85962651D01*
X102725256Y-85950795D01*
X102536898Y-85872774D01*
X102336939Y-85833000D01*
X102133061Y-85833000D01*
X101933102Y-85872774D01*
X101744744Y-85950795D01*
X101727000Y-85962651D01*
X101709256Y-85950795D01*
X101520898Y-85872774D01*
X101320939Y-85833000D01*
X101117061Y-85833000D01*
X100917102Y-85872774D01*
X100728744Y-85950795D01*
X100711000Y-85962651D01*
X100693256Y-85950795D01*
X100504898Y-85872774D01*
X100304939Y-85833000D01*
X100101061Y-85833000D01*
X99901102Y-85872774D01*
X99712744Y-85950795D01*
X99543226Y-86064063D01*
X99399063Y-86208226D01*
X99285795Y-86377744D01*
X99207774Y-86566102D01*
X99168000Y-86766061D01*
X99168000Y-86969939D01*
X99207774Y-87169898D01*
X99285795Y-87358256D01*
X99399063Y-87527774D01*
X99543226Y-87671937D01*
X99712744Y-87785205D01*
X99901102Y-87863226D01*
X100101061Y-87903000D01*
X100198554Y-87903000D01*
X109696823Y-97401270D01*
X109719839Y-97429315D01*
X109831757Y-97521164D01*
X109959444Y-97589414D01*
X110097992Y-97631442D01*
X110242077Y-97645633D01*
X110278182Y-97642077D01*
X115295279Y-97642077D01*
X115111974Y-97985018D01*
X114989892Y-98387467D01*
X114959000Y-98701118D01*
X114959000Y-101223654D01*
X114633655Y-101549000D01*
X112644346Y-101549000D01*
X111810072Y-100714727D01*
X111810072Y-100346000D01*
X111793008Y-100172746D01*
X111742472Y-100006150D01*
X111660405Y-99852614D01*
X111549962Y-99718038D01*
X111415386Y-99607595D01*
X111261850Y-99525528D01*
X111095254Y-99474992D01*
X110922000Y-99457928D01*
X110418756Y-99457928D01*
X110242982Y-99363975D01*
X109840533Y-99241893D01*
X109422000Y-99200671D01*
X109003467Y-99241893D01*
X108601018Y-99363975D01*
X108425244Y-99457928D01*
X107922000Y-99457928D01*
X107748746Y-99474992D01*
X107582150Y-99525528D01*
X107428614Y-99607595D01*
X107294038Y-99718038D01*
X107183595Y-99852614D01*
X107101528Y-100006150D01*
X107050992Y-100172746D01*
X107033928Y-100346000D01*
X107033928Y-102346000D01*
X107050992Y-102519254D01*
X107101528Y-102685850D01*
X107183595Y-102839386D01*
X107294038Y-102973962D01*
X107428614Y-103084405D01*
X107582150Y-103166472D01*
X107748746Y-103217008D01*
X107922000Y-103234072D01*
X108290727Y-103234072D01*
X109625001Y-104568346D01*
X109625001Y-105694498D01*
X109558815Y-105748815D01*
X109479463Y-105845506D01*
X109420498Y-105955820D01*
X109384188Y-106075518D01*
X109371928Y-106200000D01*
X109371928Y-109700000D01*
X109384188Y-109824482D01*
X109420498Y-109944180D01*
X109479463Y-110054494D01*
X109558815Y-110151185D01*
X109655506Y-110230537D01*
X109765820Y-110289502D01*
X109885518Y-110325812D01*
X110010000Y-110338072D01*
X113510000Y-110338072D01*
X113634482Y-110325812D01*
X113754180Y-110289502D01*
X113864494Y-110230537D01*
X113961185Y-110151185D01*
X114040537Y-110054494D01*
X114099502Y-109944180D01*
X114135812Y-109824482D01*
X114148072Y-109700000D01*
X114148072Y-106200000D01*
X114135812Y-106075518D01*
X114099502Y-105955820D01*
X114040537Y-105845506D01*
X114018784Y-105819000D01*
X115413128Y-105819000D01*
X115518000Y-105829329D01*
X115622872Y-105819000D01*
X115622882Y-105819000D01*
X115936533Y-105788108D01*
X116338982Y-105666026D01*
X116709881Y-105467777D01*
X117034977Y-105200977D01*
X117101837Y-105119508D01*
X118529513Y-103691833D01*
X118610977Y-103624977D01*
X118677833Y-103543513D01*
X118677836Y-103543510D01*
X118859872Y-103321698D01*
X118877777Y-103299881D01*
X119076026Y-102928982D01*
X119198108Y-102526533D01*
X119239330Y-102108000D01*
X119229000Y-102003118D01*
X119229000Y-99186450D01*
X120403990Y-100361440D01*
X120403989Y-106032574D01*
X120370939Y-106026000D01*
X120167061Y-106026000D01*
X119967102Y-106065774D01*
X119778744Y-106143795D01*
X119609226Y-106257063D01*
X119465063Y-106401226D01*
X119351795Y-106570744D01*
X119273774Y-106759102D01*
X119234000Y-106959061D01*
X119234000Y-106992551D01*
X112136554Y-114089998D01*
X112039061Y-114089998D01*
X111839102Y-114129772D01*
X111650744Y-114207793D01*
X111481226Y-114321061D01*
X111337063Y-114465224D01*
X111223795Y-114634742D01*
X111145774Y-114823100D01*
X111106000Y-115023059D01*
X111106000Y-115226937D01*
X111145774Y-115426896D01*
X111223795Y-115615254D01*
X111337063Y-115784772D01*
X111481226Y-115928935D01*
X111650744Y-116042203D01*
X111839102Y-116120224D01*
X112039061Y-116159998D01*
X112242939Y-116159998D01*
X112442898Y-116120224D01*
X112631256Y-116042203D01*
X112800774Y-115928935D01*
X112944937Y-115784772D01*
X113058205Y-115615254D01*
X113136226Y-115426896D01*
X113176000Y-115226937D01*
X113176000Y-115129444D01*
X120209445Y-108096000D01*
X120370939Y-108096000D01*
X120403989Y-108089426D01*
X120403989Y-110732242D01*
X119139808Y-111996424D01*
X119111763Y-112019440D01*
X119019914Y-112131358D01*
X118978194Y-112209411D01*
X118951664Y-112259045D01*
X118909635Y-112397593D01*
X118895444Y-112541678D01*
X118899001Y-112577793D01*
X118899001Y-113252288D01*
X118830063Y-113321226D01*
X118716795Y-113490744D01*
X118638774Y-113679102D01*
X118599000Y-113879061D01*
X118599000Y-113946000D01*
X117765105Y-113946000D01*
X117729000Y-113942444D01*
X117584915Y-113956635D01*
X117446366Y-113998663D01*
X117346595Y-114051992D01*
X117318680Y-114066913D01*
X117206762Y-114158762D01*
X117183746Y-114186807D01*
X114567808Y-116802746D01*
X114539763Y-116825762D01*
X114447914Y-116937680D01*
X114390589Y-117044928D01*
X114379664Y-117065367D01*
X114337635Y-117203915D01*
X114323444Y-117348000D01*
X114327001Y-117384115D01*
X114327001Y-118162112D01*
X114318614Y-118166595D01*
X114184038Y-118277038D01*
X114073595Y-118411614D01*
X113991528Y-118565150D01*
X113940992Y-118731746D01*
X113923928Y-118905000D01*
X113923928Y-118914990D01*
X110510115Y-118914990D01*
X110474010Y-118911434D01*
X110329925Y-118925625D01*
X110191376Y-118967653D01*
X110091598Y-119020986D01*
X110063690Y-119035903D01*
X109951772Y-119127752D01*
X109928756Y-119155797D01*
X109765172Y-119319381D01*
X109689501Y-119311928D01*
X109164499Y-119311928D01*
X108991245Y-119328992D01*
X108824649Y-119379528D01*
X108671113Y-119461595D01*
X108633981Y-119492068D01*
X108566386Y-119436595D01*
X108412850Y-119354528D01*
X108246254Y-119303992D01*
X108073000Y-119286928D01*
X107573000Y-119286928D01*
X107399746Y-119303992D01*
X107233150Y-119354528D01*
X107079614Y-119436595D01*
X106945038Y-119547038D01*
X106834595Y-119681614D01*
X106752528Y-119835150D01*
X106701992Y-120001746D01*
X106684928Y-120175000D01*
X106684928Y-121125000D01*
X106701992Y-121298254D01*
X106752528Y-121464850D01*
X106834595Y-121618386D01*
X106945038Y-121752962D01*
X107079614Y-121863405D01*
X107233150Y-121945472D01*
X107399746Y-121996008D01*
X107573000Y-122013072D01*
X108073000Y-122013072D01*
X108246254Y-121996008D01*
X108412850Y-121945472D01*
X108566386Y-121863405D01*
X108633981Y-121807932D01*
X108671113Y-121838405D01*
X108824649Y-121920472D01*
X108991245Y-121971008D01*
X109164499Y-121988072D01*
X109689501Y-121988072D01*
X109862755Y-121971008D01*
X110029351Y-121920472D01*
X110182887Y-121838405D01*
X110317462Y-121727962D01*
X110339500Y-121701109D01*
X110361538Y-121727962D01*
X110496113Y-121838405D01*
X110517000Y-121849570D01*
X110517001Y-123932887D01*
X110513444Y-123969002D01*
X110527635Y-124113087D01*
X110558998Y-124216475D01*
X110569664Y-124251635D01*
X110637914Y-124379322D01*
X110683608Y-124435000D01*
X101883770Y-124435000D01*
X101896502Y-124411180D01*
X101932812Y-124291482D01*
X101945072Y-124167000D01*
X101945072Y-122467000D01*
X101932812Y-122342518D01*
X101896502Y-122222820D01*
X101837537Y-122112506D01*
X101758185Y-122015815D01*
X101661494Y-121936463D01*
X101551180Y-121877498D01*
X101431482Y-121841188D01*
X101307000Y-121828928D01*
X99607000Y-121828928D01*
X99482518Y-121841188D01*
X99362820Y-121877498D01*
X99252506Y-121936463D01*
X99155815Y-122015815D01*
X99076463Y-122112506D01*
X99017498Y-122222820D01*
X98981188Y-122342518D01*
X98968928Y-122467000D01*
X98968928Y-124167000D01*
X98981188Y-124291482D01*
X99017498Y-124411180D01*
X99030230Y-124435000D01*
X96359107Y-124435000D01*
X96530475Y-124263632D01*
X96692990Y-124020411D01*
X96804932Y-123750158D01*
X96862000Y-123463260D01*
X96862000Y-123170740D01*
X96804932Y-122883842D01*
X96692990Y-122613589D01*
X96530475Y-122370368D01*
X96323632Y-122163525D01*
X96080411Y-122001010D01*
X95810158Y-121889068D01*
X95523260Y-121832000D01*
X95230740Y-121832000D01*
X94943842Y-121889068D01*
X94673589Y-122001010D01*
X94430368Y-122163525D01*
X94223525Y-122370368D01*
X94107000Y-122544760D01*
X93990475Y-122370368D01*
X93783632Y-122163525D01*
X93540411Y-122001010D01*
X93270158Y-121889068D01*
X92983260Y-121832000D01*
X92690740Y-121832000D01*
X92403842Y-121889068D01*
X92133589Y-122001010D01*
X91890368Y-122163525D01*
X91683525Y-122370368D01*
X91521010Y-122613589D01*
X91409068Y-122883842D01*
X91352000Y-123170740D01*
X91352000Y-123463260D01*
X91409068Y-123750158D01*
X91451252Y-123852000D01*
X88827572Y-123852000D01*
X88827572Y-123412874D01*
X91791207Y-120449240D01*
X91819247Y-120426228D01*
X91842260Y-120398187D01*
X91842263Y-120398184D01*
X91911096Y-120314311D01*
X91911097Y-120314310D01*
X91979347Y-120186623D01*
X92021375Y-120048075D01*
X92032010Y-119940095D01*
X92032010Y-119940088D01*
X92035565Y-119903991D01*
X92032010Y-119867894D01*
X92032010Y-114239436D01*
X92442197Y-113829250D01*
X92470237Y-113806238D01*
X92493250Y-113778197D01*
X92493253Y-113778194D01*
X92555576Y-113702253D01*
X92562087Y-113694320D01*
X92630337Y-113566633D01*
X92672365Y-113428085D01*
X92683000Y-113320105D01*
X92683000Y-113320104D01*
X92686556Y-113284000D01*
X92683000Y-113247895D01*
X92683000Y-112125000D01*
X93264681Y-112125000D01*
X93345000Y-112132911D01*
X93425319Y-112125000D01*
X93425322Y-112125000D01*
X93665516Y-112101343D01*
X93973715Y-112007852D01*
X94257752Y-111856031D01*
X94506714Y-111651714D01*
X94557925Y-111589313D01*
X95809167Y-110338072D01*
X97635000Y-110338072D01*
X97759482Y-110325812D01*
X97879180Y-110289502D01*
X97989494Y-110230537D01*
X98086185Y-110151185D01*
X98165537Y-110054494D01*
X98224502Y-109944180D01*
X98260812Y-109824482D01*
X98273072Y-109700000D01*
X98273072Y-106200000D01*
X98260812Y-106075518D01*
X98224502Y-105955820D01*
X98165537Y-105845506D01*
X98086185Y-105748815D01*
X97989494Y-105669463D01*
X97879180Y-105610498D01*
X97759482Y-105574188D01*
X97635000Y-105561928D01*
X94135000Y-105561928D01*
X94010518Y-105574188D01*
X93890820Y-105610498D01*
X93780506Y-105669463D01*
X93683815Y-105748815D01*
X93604463Y-105845506D01*
X93545498Y-105955820D01*
X93509188Y-106075518D01*
X93496928Y-106200000D01*
X93496928Y-108025833D01*
X92667762Y-108855000D01*
X89443346Y-108855000D01*
X89505706Y-108779014D01*
X89643599Y-108521034D01*
X89728513Y-108241111D01*
X89757185Y-107950000D01*
X89728513Y-107658889D01*
X89643599Y-107378966D01*
X89505706Y-107120986D01*
X89320134Y-106894866D01*
X89094014Y-106709294D01*
X88836034Y-106571401D01*
X88556111Y-106486487D01*
X88337950Y-106465000D01*
X87812050Y-106465000D01*
X87593889Y-106486487D01*
X87313966Y-106571401D01*
X87055986Y-106709294D01*
X86829866Y-106894866D01*
X86644294Y-107120986D01*
X86506401Y-107378966D01*
X86421487Y-107658889D01*
X86392815Y-107950000D01*
X86421487Y-108241111D01*
X86506401Y-108521034D01*
X86644294Y-108779014D01*
X86829866Y-109005134D01*
X87055986Y-109190706D01*
X87071091Y-109198780D01*
X86913286Y-109328286D01*
X86708969Y-109577248D01*
X86701410Y-109591390D01*
X86644294Y-109660986D01*
X86506401Y-109918966D01*
X86421487Y-110198889D01*
X86392815Y-110490000D01*
X86421487Y-110781111D01*
X86506401Y-111061034D01*
X86644294Y-111319014D01*
X86701410Y-111388610D01*
X86708969Y-111402752D01*
X86913286Y-111651714D01*
X87071091Y-111781220D01*
X87055986Y-111789294D01*
X86829866Y-111974866D01*
X86644294Y-112200986D01*
X86506401Y-112458966D01*
X86421487Y-112738889D01*
X86392815Y-113030000D01*
X86421487Y-113321111D01*
X86506401Y-113601034D01*
X86644294Y-113859014D01*
X86829866Y-114085134D01*
X87055986Y-114270706D01*
X87110791Y-114300000D01*
X87055986Y-114329294D01*
X86829866Y-114514866D01*
X86644294Y-114740986D01*
X86506401Y-114998966D01*
X86421487Y-115278889D01*
X86392815Y-115570000D01*
X86421487Y-115861111D01*
X86506401Y-116141034D01*
X86644294Y-116399014D01*
X86829866Y-116625134D01*
X87055986Y-116810706D01*
X87110791Y-116840000D01*
X87055986Y-116869294D01*
X86829866Y-117054866D01*
X86644294Y-117280986D01*
X86506401Y-117538966D01*
X86421487Y-117818889D01*
X86392815Y-118110000D01*
X86421487Y-118401111D01*
X86506401Y-118681034D01*
X86644294Y-118939014D01*
X86829866Y-119165134D01*
X87055986Y-119350706D01*
X87110791Y-119380000D01*
X87055986Y-119409294D01*
X86885375Y-119549311D01*
X86847087Y-119477680D01*
X86778253Y-119393806D01*
X86778250Y-119393803D01*
X86755237Y-119365762D01*
X86727197Y-119342750D01*
X85890344Y-118505897D01*
X85940000Y-118256260D01*
X85940000Y-117963740D01*
X85882932Y-117676842D01*
X85770990Y-117406589D01*
X85608475Y-117163368D01*
X85401632Y-116956525D01*
X85158411Y-116794010D01*
X84888158Y-116682068D01*
X84601260Y-116625000D01*
X84308740Y-116625000D01*
X84021842Y-116682068D01*
X83751589Y-116794010D01*
X83630000Y-116875253D01*
X83508411Y-116794010D01*
X83238158Y-116682068D01*
X82951260Y-116625000D01*
X82658740Y-116625000D01*
X82371842Y-116682068D01*
X82101589Y-116794010D01*
X81858368Y-116956525D01*
X81786000Y-117028893D01*
X81786000Y-114111107D01*
X81858368Y-114183475D01*
X82101589Y-114345990D01*
X82371842Y-114457932D01*
X82658740Y-114515000D01*
X82951260Y-114515000D01*
X83238158Y-114457932D01*
X83508411Y-114345990D01*
X83630000Y-114264747D01*
X83751589Y-114345990D01*
X84021842Y-114457932D01*
X84308740Y-114515000D01*
X84601260Y-114515000D01*
X84888158Y-114457932D01*
X85158411Y-114345990D01*
X85401632Y-114183475D01*
X85608475Y-113976632D01*
X85770990Y-113733411D01*
X85882932Y-113463158D01*
X85940000Y-113176260D01*
X85940000Y-112883740D01*
X85882932Y-112596842D01*
X85770990Y-112326589D01*
X85608475Y-112083368D01*
X85401632Y-111876525D01*
X85227240Y-111760000D01*
X85401632Y-111643475D01*
X85608475Y-111436632D01*
X85770990Y-111193411D01*
X85882932Y-110923158D01*
X85940000Y-110636260D01*
X85940000Y-110343740D01*
X85882932Y-110056842D01*
X85770990Y-109786589D01*
X85608475Y-109543368D01*
X85401632Y-109336525D01*
X85227240Y-109220000D01*
X85401632Y-109103475D01*
X85608475Y-108896632D01*
X85770990Y-108653411D01*
X85882932Y-108383158D01*
X85940000Y-108096260D01*
X85940000Y-107803740D01*
X85882932Y-107516842D01*
X85770990Y-107246589D01*
X85608475Y-107003368D01*
X85401632Y-106796525D01*
X85158411Y-106634010D01*
X84888158Y-106522068D01*
X84601260Y-106465000D01*
X84308740Y-106465000D01*
X84021842Y-106522068D01*
X83751589Y-106634010D01*
X83630000Y-106715253D01*
X83508411Y-106634010D01*
X83238158Y-106522068D01*
X82951260Y-106465000D01*
X82658740Y-106465000D01*
X82371842Y-106522068D01*
X82101589Y-106634010D01*
X81858368Y-106796525D01*
X81651525Y-107003368D01*
X81489010Y-107246589D01*
X81407000Y-107444579D01*
X81407000Y-74920234D01*
X81424376Y-74743811D01*
X81474022Y-74580150D01*
X81554638Y-74429328D01*
X81663130Y-74297130D01*
X81795328Y-74188638D01*
X81946150Y-74108022D01*
X82109811Y-74058376D01*
X82286234Y-74041000D01*
X89755786Y-74041000D01*
X89768234Y-74040388D01*
X89963325Y-74021173D01*
X89987743Y-74016317D01*
X90175336Y-73959412D01*
X90198337Y-73949884D01*
X90371224Y-73857474D01*
X90391925Y-73843642D01*
X90543461Y-73719279D01*
X90552696Y-73710910D01*
X90575000Y-73688606D01*
X90575001Y-97685118D01*
X90564671Y-97790000D01*
X90605893Y-98208533D01*
X90727975Y-98610982D01*
X90926224Y-98981881D01*
X91126165Y-99225510D01*
X91126168Y-99225513D01*
X91193024Y-99306977D01*
X91274487Y-99373832D01*
X93666167Y-101765513D01*
X93733023Y-101846977D01*
X93814487Y-101913833D01*
X93814489Y-101913835D01*
X93968200Y-102039982D01*
X94058119Y-102113777D01*
X94429018Y-102312026D01*
X94831467Y-102434108D01*
X95145118Y-102465000D01*
X95145127Y-102465000D01*
X95249999Y-102475329D01*
X95354871Y-102465000D01*
X99164882Y-102465000D01*
X99478533Y-102434108D01*
X99880982Y-102312026D01*
X100251881Y-102113777D01*
X100576977Y-101846977D01*
X100843777Y-101521881D01*
X101042026Y-101150982D01*
X101164108Y-100748533D01*
X101205330Y-100330000D01*
X101164108Y-99911467D01*
X101042026Y-99509018D01*
X100843777Y-99138119D01*
X100576977Y-98813023D01*
X100251881Y-98546223D01*
X99880982Y-98347974D01*
X99478533Y-98225892D01*
X99164882Y-98195000D01*
X96134346Y-98195000D01*
X94845000Y-96905655D01*
X94845000Y-71224871D01*
X94855329Y-71119999D01*
X94845000Y-71015127D01*
X94845000Y-71015118D01*
X94814108Y-70701467D01*
X94692026Y-70299018D01*
X94493777Y-69928119D01*
X94226977Y-69603023D01*
X94145508Y-69536163D01*
X93023837Y-68414492D01*
X92956977Y-68333023D01*
X92631881Y-68066223D01*
X92260982Y-67867974D01*
X91858533Y-67745892D01*
X91544882Y-67715000D01*
X91544872Y-67715000D01*
X91440000Y-67704671D01*
X91335128Y-67715000D01*
X91313000Y-67715000D01*
X91313000Y-67554234D01*
X91330376Y-67377811D01*
X91380022Y-67214150D01*
X91460638Y-67063328D01*
X91569130Y-66931130D01*
X91701328Y-66822638D01*
X91852150Y-66742022D01*
X92015811Y-66692376D01*
X92192234Y-66675000D01*
X127159082Y-66675000D01*
X127176974Y-66733981D01*
G37*
%TD.AperFunction*%
D34*
X129552610Y-124435000D02*
X125627072Y-124435000D01*
X125627072Y-124183000D01*
X125611929Y-124029255D01*
X125567084Y-123881418D01*
X125494258Y-123745171D01*
X125455546Y-123698000D01*
X125494258Y-123650829D01*
X125567084Y-123514582D01*
X125611929Y-123366745D01*
X125627072Y-123213000D01*
X125627072Y-122913000D01*
X125611929Y-122759255D01*
X125567084Y-122611418D01*
X125535859Y-122553000D01*
X127670611Y-122553000D01*
X129552610Y-124435000D01*
%TA.AperFunction,Conductor*%
D35*
G36*
X129552610Y-124435000D02*
G01*
X125627072Y-124435000D01*
X125627072Y-124183000D01*
X125611929Y-124029255D01*
X125567084Y-123881418D01*
X125494258Y-123745171D01*
X125455546Y-123698000D01*
X125494258Y-123650829D01*
X125567084Y-123514582D01*
X125611929Y-123366745D01*
X125627072Y-123213000D01*
X125627072Y-122913000D01*
X125611929Y-122759255D01*
X125567084Y-122611418D01*
X125535859Y-122553000D01*
X127670611Y-122553000D01*
X129552610Y-124435000D01*
G37*
%TD.AperFunction*%
D34*
X81858368Y-121803475D02*
X82101589Y-121965990D01*
X82371842Y-122077932D01*
X82658740Y-122135000D01*
X82951260Y-122135000D01*
X83238158Y-122077932D01*
X83508411Y-121965990D01*
X83630000Y-121884747D01*
X83751589Y-121965990D01*
X84021842Y-122077932D01*
X84162586Y-122105928D01*
X83961999Y-122105928D01*
X83788745Y-122122992D01*
X83622149Y-122173528D01*
X83468613Y-122255595D01*
X83334038Y-122366038D01*
X83223595Y-122500613D01*
X83141528Y-122654149D01*
X83090992Y-122820745D01*
X83073928Y-122993999D01*
X83073928Y-123709010D01*
X81786000Y-123709010D01*
X81786000Y-121731107D01*
X81858368Y-121803475D01*
%TA.AperFunction,Conductor*%
D35*
G36*
X81858368Y-121803475D02*
G01*
X82101589Y-121965990D01*
X82371842Y-122077932D01*
X82658740Y-122135000D01*
X82951260Y-122135000D01*
X83238158Y-122077932D01*
X83508411Y-121965990D01*
X83630000Y-121884747D01*
X83751589Y-121965990D01*
X84021842Y-122077932D01*
X84162586Y-122105928D01*
X83961999Y-122105928D01*
X83788745Y-122122992D01*
X83622149Y-122173528D01*
X83468613Y-122255595D01*
X83334038Y-122366038D01*
X83223595Y-122500613D01*
X83141528Y-122654149D01*
X83090992Y-122820745D01*
X83073928Y-122993999D01*
X83073928Y-123709010D01*
X81786000Y-123709010D01*
X81786000Y-121731107D01*
X81858368Y-121803475D01*
G37*
%TD.AperFunction*%
D34*
X134056200Y-122050002D02*
X134079999Y-122079001D01*
X134108997Y-122102799D01*
X134195723Y-122173974D01*
X134268735Y-122213000D01*
X134327753Y-122244546D01*
X134471014Y-122288003D01*
X134582667Y-122299000D01*
X134582677Y-122299000D01*
X134619999Y-122302676D01*
X134657322Y-122299000D01*
X139313494Y-122299000D01*
X139273010Y-122359589D01*
X139161068Y-122629842D01*
X139104000Y-122916740D01*
X139104000Y-123209260D01*
X139147791Y-123429408D01*
X139099198Y-123478001D01*
X132062693Y-123478001D01*
X132034064Y-123408885D01*
X131920796Y-123239367D01*
X131776633Y-123095204D01*
X131607115Y-122981936D01*
X131418757Y-122903915D01*
X131218798Y-122864141D01*
X131014920Y-122864141D01*
X130814961Y-122903915D01*
X130626603Y-122981936D01*
X130457085Y-123095204D01*
X130409751Y-123142538D01*
X129820213Y-122553000D01*
X129883678Y-122553000D01*
X129921000Y-122556676D01*
X129958322Y-122553000D01*
X129958333Y-122553000D01*
X130069986Y-122542003D01*
X130213247Y-122498546D01*
X130345276Y-122427974D01*
X130461001Y-122333001D01*
X130484803Y-122303998D01*
X131071009Y-121717794D01*
X131100001Y-121694001D01*
X131123795Y-121665008D01*
X131123799Y-121665004D01*
X131194973Y-121578277D01*
X131194974Y-121578276D01*
X131265546Y-121446247D01*
X131309003Y-121302986D01*
X131320000Y-121191333D01*
X131320000Y-121191324D01*
X131323676Y-121154001D01*
X131320000Y-121116678D01*
X131320000Y-121099711D01*
X131400226Y-121179937D01*
X131569744Y-121293205D01*
X131758102Y-121371226D01*
X131958061Y-121411000D01*
X132161939Y-121411000D01*
X132361898Y-121371226D01*
X132550256Y-121293205D01*
X132719774Y-121179937D01*
X132863937Y-121035774D01*
X132935248Y-120929049D01*
X134056200Y-122050002D01*
%TA.AperFunction,Conductor*%
D35*
G36*
X134056200Y-122050002D02*
G01*
X134079999Y-122079001D01*
X134108997Y-122102799D01*
X134195723Y-122173974D01*
X134268735Y-122213000D01*
X134327753Y-122244546D01*
X134471014Y-122288003D01*
X134582667Y-122299000D01*
X134582677Y-122299000D01*
X134619999Y-122302676D01*
X134657322Y-122299000D01*
X139313494Y-122299000D01*
X139273010Y-122359589D01*
X139161068Y-122629842D01*
X139104000Y-122916740D01*
X139104000Y-123209260D01*
X139147791Y-123429408D01*
X139099198Y-123478001D01*
X132062693Y-123478001D01*
X132034064Y-123408885D01*
X131920796Y-123239367D01*
X131776633Y-123095204D01*
X131607115Y-122981936D01*
X131418757Y-122903915D01*
X131218798Y-122864141D01*
X131014920Y-122864141D01*
X130814961Y-122903915D01*
X130626603Y-122981936D01*
X130457085Y-123095204D01*
X130409751Y-123142538D01*
X129820213Y-122553000D01*
X129883678Y-122553000D01*
X129921000Y-122556676D01*
X129958322Y-122553000D01*
X129958333Y-122553000D01*
X130069986Y-122542003D01*
X130213247Y-122498546D01*
X130345276Y-122427974D01*
X130461001Y-122333001D01*
X130484803Y-122303998D01*
X131071009Y-121717794D01*
X131100001Y-121694001D01*
X131123795Y-121665008D01*
X131123799Y-121665004D01*
X131194973Y-121578277D01*
X131194974Y-121578276D01*
X131265546Y-121446247D01*
X131309003Y-121302986D01*
X131320000Y-121191333D01*
X131320000Y-121191324D01*
X131323676Y-121154001D01*
X131320000Y-121116678D01*
X131320000Y-121099711D01*
X131400226Y-121179937D01*
X131569744Y-121293205D01*
X131758102Y-121371226D01*
X131958061Y-121411000D01*
X132161939Y-121411000D01*
X132361898Y-121371226D01*
X132550256Y-121293205D01*
X132719774Y-121179937D01*
X132863937Y-121035774D01*
X132935248Y-120929049D01*
X134056200Y-122050002D01*
G37*
%TD.AperFunction*%
D34*
X125677190Y-114051992D02*
X125700989Y-114080991D01*
X125729987Y-114104789D01*
X125816714Y-114175964D01*
X125948743Y-114246536D01*
X126092004Y-114289993D01*
X126240990Y-114304667D01*
X126278323Y-114300990D01*
X127949628Y-114300990D01*
X127985068Y-114479158D01*
X128097010Y-114749411D01*
X128259525Y-114992632D01*
X128466368Y-115199475D01*
X128709589Y-115361990D01*
X128979842Y-115473932D01*
X129266740Y-115531000D01*
X129559260Y-115531000D01*
X129846158Y-115473932D01*
X130116411Y-115361990D01*
X130179156Y-115320065D01*
X130188913Y-115338319D01*
X130280762Y-115450237D01*
X130308807Y-115473253D01*
X130772746Y-115937192D01*
X130785719Y-115953000D01*
X129196323Y-115953000D01*
X129159000Y-115949324D01*
X129121677Y-115953000D01*
X129121667Y-115953000D01*
X129010014Y-115963997D01*
X128872374Y-116005749D01*
X128866753Y-116007454D01*
X128734723Y-116078026D01*
X128677075Y-116125337D01*
X128618999Y-116172999D01*
X128595201Y-116201998D01*
X127898998Y-116898201D01*
X127870000Y-116921999D01*
X127846202Y-116950997D01*
X127846201Y-116950998D01*
X127775026Y-117037724D01*
X127704454Y-117169754D01*
X127692901Y-117207842D01*
X127658815Y-117235815D01*
X127579463Y-117332506D01*
X127520498Y-117442820D01*
X127484188Y-117562518D01*
X127471928Y-117687000D01*
X127471928Y-118501877D01*
X127323972Y-118600738D01*
X127193738Y-118730972D01*
X127091414Y-118884111D01*
X127020932Y-119054271D01*
X126985000Y-119234911D01*
X126985000Y-119419089D01*
X127020932Y-119599729D01*
X127091414Y-119769889D01*
X127188959Y-119915875D01*
X127017744Y-119986795D01*
X126848226Y-120100063D01*
X126704063Y-120244226D01*
X126590795Y-120413744D01*
X126520691Y-120582990D01*
X126229792Y-120582990D01*
X125658803Y-120012002D01*
X125635001Y-119982999D01*
X125519276Y-119888026D01*
X125519227Y-119888000D01*
X125519276Y-119887974D01*
X125635001Y-119793001D01*
X125658804Y-119763997D01*
X125986998Y-119435803D01*
X126016001Y-119412001D01*
X126110974Y-119296276D01*
X126181546Y-119164247D01*
X126225003Y-119020986D01*
X126236000Y-118909333D01*
X126236000Y-118909324D01*
X126239676Y-118872001D01*
X126236000Y-118834678D01*
X126236000Y-117596801D01*
X126428729Y-117404072D01*
X126967000Y-117404072D01*
X127140254Y-117387008D01*
X127306850Y-117336472D01*
X127460386Y-117254405D01*
X127594962Y-117143962D01*
X127705405Y-117009386D01*
X127787472Y-116855850D01*
X127838008Y-116689254D01*
X127855072Y-116516000D01*
X127855072Y-116016000D01*
X127838008Y-115842746D01*
X127787472Y-115676150D01*
X127705405Y-115522614D01*
X127594962Y-115388038D01*
X127460386Y-115277595D01*
X127306850Y-115195528D01*
X127140254Y-115144992D01*
X126967000Y-115127928D01*
X126017000Y-115127928D01*
X125843746Y-115144992D01*
X125677150Y-115195528D01*
X125523614Y-115277595D01*
X125389038Y-115388038D01*
X125278595Y-115522614D01*
X125196528Y-115676150D01*
X125147281Y-115838497D01*
X125140582Y-115834916D01*
X124992745Y-115790071D01*
X124839000Y-115774928D01*
X123189000Y-115774928D01*
X123174513Y-115776355D01*
X123104937Y-115672226D01*
X122960774Y-115528063D01*
X122791256Y-115414795D01*
X122602898Y-115336774D01*
X122402939Y-115297000D01*
X122199061Y-115297000D01*
X122112604Y-115314197D01*
X122398729Y-115028072D01*
X122810000Y-115028072D01*
X122983254Y-115011008D01*
X123149850Y-114960472D01*
X123303386Y-114878405D01*
X123437962Y-114767962D01*
X123548405Y-114633386D01*
X123630472Y-114479850D01*
X123681008Y-114313254D01*
X123698072Y-114140000D01*
X123698072Y-113728730D01*
X124100791Y-113326011D01*
X124951210Y-113326011D01*
X125677190Y-114051992D01*
%TA.AperFunction,Conductor*%
D35*
G36*
X125677190Y-114051992D02*
G01*
X125700989Y-114080991D01*
X125729987Y-114104789D01*
X125816714Y-114175964D01*
X125948743Y-114246536D01*
X126092004Y-114289993D01*
X126240990Y-114304667D01*
X126278323Y-114300990D01*
X127949628Y-114300990D01*
X127985068Y-114479158D01*
X128097010Y-114749411D01*
X128259525Y-114992632D01*
X128466368Y-115199475D01*
X128709589Y-115361990D01*
X128979842Y-115473932D01*
X129266740Y-115531000D01*
X129559260Y-115531000D01*
X129846158Y-115473932D01*
X130116411Y-115361990D01*
X130179156Y-115320065D01*
X130188913Y-115338319D01*
X130280762Y-115450237D01*
X130308807Y-115473253D01*
X130772746Y-115937192D01*
X130785719Y-115953000D01*
X129196323Y-115953000D01*
X129159000Y-115949324D01*
X129121677Y-115953000D01*
X129121667Y-115953000D01*
X129010014Y-115963997D01*
X128872374Y-116005749D01*
X128866753Y-116007454D01*
X128734723Y-116078026D01*
X128677075Y-116125337D01*
X128618999Y-116172999D01*
X128595201Y-116201998D01*
X127898998Y-116898201D01*
X127870000Y-116921999D01*
X127846202Y-116950997D01*
X127846201Y-116950998D01*
X127775026Y-117037724D01*
X127704454Y-117169754D01*
X127692901Y-117207842D01*
X127658815Y-117235815D01*
X127579463Y-117332506D01*
X127520498Y-117442820D01*
X127484188Y-117562518D01*
X127471928Y-117687000D01*
X127471928Y-118501877D01*
X127323972Y-118600738D01*
X127193738Y-118730972D01*
X127091414Y-118884111D01*
X127020932Y-119054271D01*
X126985000Y-119234911D01*
X126985000Y-119419089D01*
X127020932Y-119599729D01*
X127091414Y-119769889D01*
X127188959Y-119915875D01*
X127017744Y-119986795D01*
X126848226Y-120100063D01*
X126704063Y-120244226D01*
X126590795Y-120413744D01*
X126520691Y-120582990D01*
X126229792Y-120582990D01*
X125658803Y-120012002D01*
X125635001Y-119982999D01*
X125519276Y-119888026D01*
X125519227Y-119888000D01*
X125519276Y-119887974D01*
X125635001Y-119793001D01*
X125658804Y-119763997D01*
X125986998Y-119435803D01*
X126016001Y-119412001D01*
X126110974Y-119296276D01*
X126181546Y-119164247D01*
X126225003Y-119020986D01*
X126236000Y-118909333D01*
X126236000Y-118909324D01*
X126239676Y-118872001D01*
X126236000Y-118834678D01*
X126236000Y-117596801D01*
X126428729Y-117404072D01*
X126967000Y-117404072D01*
X127140254Y-117387008D01*
X127306850Y-117336472D01*
X127460386Y-117254405D01*
X127594962Y-117143962D01*
X127705405Y-117009386D01*
X127787472Y-116855850D01*
X127838008Y-116689254D01*
X127855072Y-116516000D01*
X127855072Y-116016000D01*
X127838008Y-115842746D01*
X127787472Y-115676150D01*
X127705405Y-115522614D01*
X127594962Y-115388038D01*
X127460386Y-115277595D01*
X127306850Y-115195528D01*
X127140254Y-115144992D01*
X126967000Y-115127928D01*
X126017000Y-115127928D01*
X125843746Y-115144992D01*
X125677150Y-115195528D01*
X125523614Y-115277595D01*
X125389038Y-115388038D01*
X125278595Y-115522614D01*
X125196528Y-115676150D01*
X125147281Y-115838497D01*
X125140582Y-115834916D01*
X124992745Y-115790071D01*
X124839000Y-115774928D01*
X123189000Y-115774928D01*
X123174513Y-115776355D01*
X123104937Y-115672226D01*
X122960774Y-115528063D01*
X122791256Y-115414795D01*
X122602898Y-115336774D01*
X122402939Y-115297000D01*
X122199061Y-115297000D01*
X122112604Y-115314197D01*
X122398729Y-115028072D01*
X122810000Y-115028072D01*
X122983254Y-115011008D01*
X123149850Y-114960472D01*
X123303386Y-114878405D01*
X123437962Y-114767962D01*
X123548405Y-114633386D01*
X123630472Y-114479850D01*
X123681008Y-114313254D01*
X123698072Y-114140000D01*
X123698072Y-113728730D01*
X124100791Y-113326011D01*
X124951210Y-113326011D01*
X125677190Y-114051992D01*
G37*
%TD.AperFunction*%
D34*
X89673745Y-113933008D02*
X89846999Y-113950072D01*
X90559939Y-113950072D01*
X90562011Y-113971105D01*
X90562010Y-119599543D01*
X89735161Y-120426392D01*
X89728513Y-120358889D01*
X89643599Y-120078966D01*
X89505706Y-119820986D01*
X89320134Y-119594866D01*
X89094014Y-119409294D01*
X89039209Y-119380000D01*
X89094014Y-119350706D01*
X89320134Y-119165134D01*
X89505706Y-118939014D01*
X89643599Y-118681034D01*
X89728513Y-118401111D01*
X89757185Y-118110000D01*
X89728513Y-117818889D01*
X89643599Y-117538966D01*
X89505706Y-117280986D01*
X89320134Y-117054866D01*
X89094014Y-116869294D01*
X89039209Y-116840000D01*
X89094014Y-116810706D01*
X89320134Y-116625134D01*
X89505706Y-116399014D01*
X89643599Y-116141034D01*
X89728513Y-115861111D01*
X89757185Y-115570000D01*
X89728513Y-115278889D01*
X89643599Y-114998966D01*
X89505706Y-114740986D01*
X89320134Y-114514866D01*
X89094014Y-114329294D01*
X89039209Y-114300000D01*
X89094014Y-114270706D01*
X89320134Y-114085134D01*
X89459759Y-113915000D01*
X89614380Y-113915000D01*
X89673745Y-113933008D01*
%TA.AperFunction,Conductor*%
D35*
G36*
X89673745Y-113933008D02*
G01*
X89846999Y-113950072D01*
X90559939Y-113950072D01*
X90562011Y-113971105D01*
X90562010Y-119599543D01*
X89735161Y-120426392D01*
X89728513Y-120358889D01*
X89643599Y-120078966D01*
X89505706Y-119820986D01*
X89320134Y-119594866D01*
X89094014Y-119409294D01*
X89039209Y-119380000D01*
X89094014Y-119350706D01*
X89320134Y-119165134D01*
X89505706Y-118939014D01*
X89643599Y-118681034D01*
X89728513Y-118401111D01*
X89757185Y-118110000D01*
X89728513Y-117818889D01*
X89643599Y-117538966D01*
X89505706Y-117280986D01*
X89320134Y-117054866D01*
X89094014Y-116869294D01*
X89039209Y-116840000D01*
X89094014Y-116810706D01*
X89320134Y-116625134D01*
X89505706Y-116399014D01*
X89643599Y-116141034D01*
X89728513Y-115861111D01*
X89757185Y-115570000D01*
X89728513Y-115278889D01*
X89643599Y-114998966D01*
X89505706Y-114740986D01*
X89320134Y-114514866D01*
X89094014Y-114329294D01*
X89039209Y-114300000D01*
X89094014Y-114270706D01*
X89320134Y-114085134D01*
X89459759Y-113915000D01*
X89614380Y-113915000D01*
X89673745Y-113933008D01*
G37*
%TD.AperFunction*%
D34*
X111966102Y-87990226D02*
X112166061Y-88030000D01*
X112369939Y-88030000D01*
X112409034Y-88022224D01*
X112421913Y-88046319D01*
X112513762Y-88158237D01*
X112541808Y-88181254D01*
X116359001Y-91998448D01*
X116359000Y-93689895D01*
X116355444Y-93726000D01*
X116369635Y-93870085D01*
X116369835Y-93870744D01*
X116411663Y-94008632D01*
X116479913Y-94136319D01*
X116571762Y-94248237D01*
X116599808Y-94271254D01*
X117300598Y-94972044D01*
X113104497Y-94972044D01*
X113185205Y-94851256D01*
X113263226Y-94662898D01*
X113303000Y-94462939D01*
X113303000Y-94321270D01*
X113336095Y-94318010D01*
X113444075Y-94307375D01*
X113582623Y-94265347D01*
X113710310Y-94197097D01*
X113822228Y-94105248D01*
X113845248Y-94077198D01*
X114001374Y-93921072D01*
X114459001Y-93921072D01*
X114632255Y-93904008D01*
X114798851Y-93853472D01*
X114952387Y-93771405D01*
X115086962Y-93660962D01*
X115197405Y-93526387D01*
X115279472Y-93372851D01*
X115330008Y-93206255D01*
X115347072Y-93033001D01*
X115347072Y-92132999D01*
X115330008Y-91959745D01*
X115279472Y-91793149D01*
X115197405Y-91639613D01*
X115086962Y-91505038D01*
X114952387Y-91394595D01*
X114798851Y-91312528D01*
X114632255Y-91261992D01*
X114459001Y-91244928D01*
X113933999Y-91244928D01*
X113760745Y-91261992D01*
X113594149Y-91312528D01*
X113483676Y-91371577D01*
X113505008Y-91301255D01*
X113522072Y-91128001D01*
X113522072Y-90227999D01*
X113505008Y-90054745D01*
X113454472Y-89888149D01*
X113372405Y-89734613D01*
X113261962Y-89600038D01*
X113127387Y-89489595D01*
X112973851Y-89407528D01*
X112807255Y-89356992D01*
X112634001Y-89339928D01*
X112108999Y-89339928D01*
X111935745Y-89356992D01*
X111769149Y-89407528D01*
X111615613Y-89489595D01*
X111527387Y-89562000D01*
X109778446Y-89562000D01*
X109771000Y-89554554D01*
X109771000Y-88556822D01*
X109802150Y-88573472D01*
X109968746Y-88624008D01*
X110142000Y-88641072D01*
X111092000Y-88641072D01*
X111265254Y-88624008D01*
X111431850Y-88573472D01*
X111585386Y-88491405D01*
X111719962Y-88380962D01*
X111830405Y-88246386D01*
X111912472Y-88092850D01*
X111946114Y-87981947D01*
X111966102Y-87990226D01*
%TA.AperFunction,Conductor*%
D35*
G36*
X111966102Y-87990226D02*
G01*
X112166061Y-88030000D01*
X112369939Y-88030000D01*
X112409034Y-88022224D01*
X112421913Y-88046319D01*
X112513762Y-88158237D01*
X112541808Y-88181254D01*
X116359001Y-91998448D01*
X116359000Y-93689895D01*
X116355444Y-93726000D01*
X116369635Y-93870085D01*
X116369835Y-93870744D01*
X116411663Y-94008632D01*
X116479913Y-94136319D01*
X116571762Y-94248237D01*
X116599808Y-94271254D01*
X117300598Y-94972044D01*
X113104497Y-94972044D01*
X113185205Y-94851256D01*
X113263226Y-94662898D01*
X113303000Y-94462939D01*
X113303000Y-94321270D01*
X113336095Y-94318010D01*
X113444075Y-94307375D01*
X113582623Y-94265347D01*
X113710310Y-94197097D01*
X113822228Y-94105248D01*
X113845248Y-94077198D01*
X114001374Y-93921072D01*
X114459001Y-93921072D01*
X114632255Y-93904008D01*
X114798851Y-93853472D01*
X114952387Y-93771405D01*
X115086962Y-93660962D01*
X115197405Y-93526387D01*
X115279472Y-93372851D01*
X115330008Y-93206255D01*
X115347072Y-93033001D01*
X115347072Y-92132999D01*
X115330008Y-91959745D01*
X115279472Y-91793149D01*
X115197405Y-91639613D01*
X115086962Y-91505038D01*
X114952387Y-91394595D01*
X114798851Y-91312528D01*
X114632255Y-91261992D01*
X114459001Y-91244928D01*
X113933999Y-91244928D01*
X113760745Y-91261992D01*
X113594149Y-91312528D01*
X113483676Y-91371577D01*
X113505008Y-91301255D01*
X113522072Y-91128001D01*
X113522072Y-90227999D01*
X113505008Y-90054745D01*
X113454472Y-89888149D01*
X113372405Y-89734613D01*
X113261962Y-89600038D01*
X113127387Y-89489595D01*
X112973851Y-89407528D01*
X112807255Y-89356992D01*
X112634001Y-89339928D01*
X112108999Y-89339928D01*
X111935745Y-89356992D01*
X111769149Y-89407528D01*
X111615613Y-89489595D01*
X111527387Y-89562000D01*
X109778446Y-89562000D01*
X109771000Y-89554554D01*
X109771000Y-88556822D01*
X109802150Y-88573472D01*
X109968746Y-88624008D01*
X110142000Y-88641072D01*
X111092000Y-88641072D01*
X111265254Y-88624008D01*
X111431850Y-88573472D01*
X111585386Y-88491405D01*
X111719962Y-88380962D01*
X111830405Y-88246386D01*
X111912472Y-88092850D01*
X111946114Y-87981947D01*
X111966102Y-87990226D01*
G37*
%TD.AperFunction*%
D34*
X107501001Y-80132885D02*
X107497444Y-80169000D01*
X107511635Y-80313085D01*
X107540454Y-80408085D01*
X107553664Y-80451633D01*
X107621914Y-80579320D01*
X107713763Y-80691238D01*
X107741808Y-80714254D01*
X109582000Y-82554447D01*
X109582000Y-82651939D01*
X109621774Y-82851898D01*
X109699795Y-83040256D01*
X109813063Y-83209774D01*
X109957226Y-83353937D01*
X110126744Y-83467205D01*
X110315102Y-83545226D01*
X110491242Y-83580262D01*
X110440774Y-83702102D01*
X110401000Y-83902061D01*
X110401000Y-84091928D01*
X110361000Y-84091928D01*
X110236518Y-84104188D01*
X110116820Y-84140498D01*
X110006506Y-84199463D01*
X109909815Y-84278815D01*
X109836000Y-84368759D01*
X109762185Y-84278815D01*
X109665494Y-84199463D01*
X109555180Y-84140498D01*
X109435482Y-84104188D01*
X109311000Y-84091928D01*
X108761000Y-84091928D01*
X108636518Y-84104188D01*
X108636000Y-84104345D01*
X108635482Y-84104188D01*
X108511000Y-84091928D01*
X107961000Y-84091928D01*
X107836518Y-84104188D01*
X107836000Y-84104345D01*
X107835482Y-84104188D01*
X107711000Y-84091928D01*
X107424072Y-84091928D01*
X107424072Y-83805000D01*
X107411812Y-83680518D01*
X107411655Y-83680000D01*
X107411812Y-83679482D01*
X107424072Y-83555000D01*
X107424072Y-83005000D01*
X107411812Y-82880518D01*
X107411655Y-82880000D01*
X107411812Y-82879482D01*
X107424072Y-82755000D01*
X107424072Y-82205000D01*
X107411812Y-82080518D01*
X107411655Y-82080000D01*
X107411812Y-82079482D01*
X107424072Y-81955000D01*
X107424072Y-81405000D01*
X107411812Y-81280518D01*
X107411655Y-81280000D01*
X107411812Y-81279482D01*
X107424072Y-81155000D01*
X107424072Y-80605000D01*
X107411812Y-80480518D01*
X107411655Y-80480000D01*
X107411812Y-80479482D01*
X107424072Y-80355000D01*
X107424072Y-79805000D01*
X107411812Y-79680518D01*
X107411655Y-79680000D01*
X107411812Y-79679482D01*
X107424072Y-79555000D01*
X107424072Y-79005000D01*
X107411812Y-78880518D01*
X107411655Y-78880000D01*
X107411812Y-78879482D01*
X107424072Y-78755000D01*
X107424072Y-78468072D01*
X107501000Y-78468072D01*
X107501001Y-80132885D01*
%TA.AperFunction,Conductor*%
D35*
G36*
X107501001Y-80132885D02*
G01*
X107497444Y-80169000D01*
X107511635Y-80313085D01*
X107540454Y-80408085D01*
X107553664Y-80451633D01*
X107621914Y-80579320D01*
X107713763Y-80691238D01*
X107741808Y-80714254D01*
X109582000Y-82554447D01*
X109582000Y-82651939D01*
X109621774Y-82851898D01*
X109699795Y-83040256D01*
X109813063Y-83209774D01*
X109957226Y-83353937D01*
X110126744Y-83467205D01*
X110315102Y-83545226D01*
X110491242Y-83580262D01*
X110440774Y-83702102D01*
X110401000Y-83902061D01*
X110401000Y-84091928D01*
X110361000Y-84091928D01*
X110236518Y-84104188D01*
X110116820Y-84140498D01*
X110006506Y-84199463D01*
X109909815Y-84278815D01*
X109836000Y-84368759D01*
X109762185Y-84278815D01*
X109665494Y-84199463D01*
X109555180Y-84140498D01*
X109435482Y-84104188D01*
X109311000Y-84091928D01*
X108761000Y-84091928D01*
X108636518Y-84104188D01*
X108636000Y-84104345D01*
X108635482Y-84104188D01*
X108511000Y-84091928D01*
X107961000Y-84091928D01*
X107836518Y-84104188D01*
X107836000Y-84104345D01*
X107835482Y-84104188D01*
X107711000Y-84091928D01*
X107424072Y-84091928D01*
X107424072Y-83805000D01*
X107411812Y-83680518D01*
X107411655Y-83680000D01*
X107411812Y-83679482D01*
X107424072Y-83555000D01*
X107424072Y-83005000D01*
X107411812Y-82880518D01*
X107411655Y-82880000D01*
X107411812Y-82879482D01*
X107424072Y-82755000D01*
X107424072Y-82205000D01*
X107411812Y-82080518D01*
X107411655Y-82080000D01*
X107411812Y-82079482D01*
X107424072Y-81955000D01*
X107424072Y-81405000D01*
X107411812Y-81280518D01*
X107411655Y-81280000D01*
X107411812Y-81279482D01*
X107424072Y-81155000D01*
X107424072Y-80605000D01*
X107411812Y-80480518D01*
X107411655Y-80480000D01*
X107411812Y-80479482D01*
X107424072Y-80355000D01*
X107424072Y-79805000D01*
X107411812Y-79680518D01*
X107411655Y-79680000D01*
X107411812Y-79679482D01*
X107424072Y-79555000D01*
X107424072Y-79005000D01*
X107411812Y-78880518D01*
X107411655Y-78880000D01*
X107411812Y-78879482D01*
X107424072Y-78755000D01*
X107424072Y-78468072D01*
X107501000Y-78468072D01*
X107501001Y-80132885D01*
G37*
%TD.AperFunction*%
D34*
X110701000Y-78270444D02*
X110701001Y-81515000D01*
X110621447Y-81515000D01*
X108971000Y-79864554D01*
X108971000Y-78270444D01*
X109036000Y-78191241D01*
X109109815Y-78281185D01*
X109206506Y-78360537D01*
X109316820Y-78419502D01*
X109436518Y-78455812D01*
X109561000Y-78468072D01*
X110111000Y-78468072D01*
X110235482Y-78455812D01*
X110355180Y-78419502D01*
X110465494Y-78360537D01*
X110562185Y-78281185D01*
X110636000Y-78191241D01*
X110701000Y-78270444D01*
%TA.AperFunction,Conductor*%
D35*
G36*
X110701000Y-78270444D02*
G01*
X110701001Y-81515000D01*
X110621447Y-81515000D01*
X108971000Y-79864554D01*
X108971000Y-78270444D01*
X109036000Y-78191241D01*
X109109815Y-78281185D01*
X109206506Y-78360537D01*
X109316820Y-78419502D01*
X109436518Y-78455812D01*
X109561000Y-78468072D01*
X110111000Y-78468072D01*
X110235482Y-78455812D01*
X110355180Y-78419502D01*
X110465494Y-78360537D01*
X110562185Y-78281185D01*
X110636000Y-78191241D01*
X110701000Y-78270444D01*
G37*
%TD.AperFunction*%
D34*
X109732928Y-70010000D02*
X109732928Y-70548271D01*
X109534992Y-70746207D01*
X109505989Y-70770009D01*
X109452750Y-70834881D01*
X109411016Y-70885734D01*
X109359056Y-70982944D01*
X109340444Y-71017764D01*
X109296987Y-71161025D01*
X109285990Y-71272678D01*
X109285990Y-71272688D01*
X109282314Y-71310010D01*
X109285990Y-71347333D01*
X109285991Y-73432658D01*
X109282314Y-73469990D01*
X109296988Y-73618975D01*
X109340444Y-73762236D01*
X109411016Y-73894266D01*
X109462728Y-73957276D01*
X109505990Y-74009991D01*
X109534988Y-74033789D01*
X109672196Y-74170997D01*
X109695999Y-74200001D01*
X109741830Y-74237614D01*
X109732928Y-74328000D01*
X109732928Y-74866271D01*
X109325002Y-75274196D01*
X109295999Y-75297999D01*
X109240871Y-75365174D01*
X109201026Y-75413724D01*
X109182544Y-75448302D01*
X109130454Y-75545754D01*
X109086997Y-75689015D01*
X109076000Y-75800668D01*
X109076000Y-75800678D01*
X109073835Y-75822657D01*
X109036000Y-75868759D01*
X108962185Y-75778815D01*
X108865494Y-75699463D01*
X108755180Y-75640498D01*
X108635482Y-75604188D01*
X108511000Y-75591928D01*
X107961000Y-75591928D01*
X107836518Y-75604188D01*
X107836000Y-75604345D01*
X107835482Y-75604188D01*
X107711000Y-75591928D01*
X107161000Y-75591928D01*
X107036518Y-75604188D01*
X106916820Y-75640498D01*
X106806506Y-75699463D01*
X106709815Y-75778815D01*
X106630463Y-75875506D01*
X106571498Y-75985820D01*
X106540911Y-76086651D01*
X106505102Y-76093774D01*
X106316744Y-76171795D01*
X106147226Y-76285063D01*
X106003063Y-76429226D01*
X105889795Y-76598744D01*
X105811774Y-76787102D01*
X105772000Y-76987061D01*
X105772000Y-77190939D01*
X105811774Y-77390898D01*
X105884689Y-77566928D01*
X105530374Y-77566928D01*
X105447258Y-77483812D01*
X105424238Y-77455762D01*
X105312320Y-77363913D01*
X105184633Y-77295663D01*
X105046085Y-77253635D01*
X104938105Y-77243000D01*
X104902000Y-77239444D01*
X104865895Y-77243000D01*
X97756711Y-77243000D01*
X97687774Y-77174063D01*
X97518256Y-77060795D01*
X97329898Y-76982774D01*
X97129939Y-76943000D01*
X97001000Y-76943000D01*
X97001000Y-71170446D01*
X98221447Y-69950000D01*
X109738837Y-69950000D01*
X109732928Y-70010000D01*
%TA.AperFunction,Conductor*%
D35*
G36*
X109732928Y-70010000D02*
G01*
X109732928Y-70548271D01*
X109534992Y-70746207D01*
X109505989Y-70770009D01*
X109452750Y-70834881D01*
X109411016Y-70885734D01*
X109359056Y-70982944D01*
X109340444Y-71017764D01*
X109296987Y-71161025D01*
X109285990Y-71272678D01*
X109285990Y-71272688D01*
X109282314Y-71310010D01*
X109285990Y-71347333D01*
X109285991Y-73432658D01*
X109282314Y-73469990D01*
X109296988Y-73618975D01*
X109340444Y-73762236D01*
X109411016Y-73894266D01*
X109462728Y-73957276D01*
X109505990Y-74009991D01*
X109534988Y-74033789D01*
X109672196Y-74170997D01*
X109695999Y-74200001D01*
X109741830Y-74237614D01*
X109732928Y-74328000D01*
X109732928Y-74866271D01*
X109325002Y-75274196D01*
X109295999Y-75297999D01*
X109240871Y-75365174D01*
X109201026Y-75413724D01*
X109182544Y-75448302D01*
X109130454Y-75545754D01*
X109086997Y-75689015D01*
X109076000Y-75800668D01*
X109076000Y-75800678D01*
X109073835Y-75822657D01*
X109036000Y-75868759D01*
X108962185Y-75778815D01*
X108865494Y-75699463D01*
X108755180Y-75640498D01*
X108635482Y-75604188D01*
X108511000Y-75591928D01*
X107961000Y-75591928D01*
X107836518Y-75604188D01*
X107836000Y-75604345D01*
X107835482Y-75604188D01*
X107711000Y-75591928D01*
X107161000Y-75591928D01*
X107036518Y-75604188D01*
X106916820Y-75640498D01*
X106806506Y-75699463D01*
X106709815Y-75778815D01*
X106630463Y-75875506D01*
X106571498Y-75985820D01*
X106540911Y-76086651D01*
X106505102Y-76093774D01*
X106316744Y-76171795D01*
X106147226Y-76285063D01*
X106003063Y-76429226D01*
X105889795Y-76598744D01*
X105811774Y-76787102D01*
X105772000Y-76987061D01*
X105772000Y-77190939D01*
X105811774Y-77390898D01*
X105884689Y-77566928D01*
X105530374Y-77566928D01*
X105447258Y-77483812D01*
X105424238Y-77455762D01*
X105312320Y-77363913D01*
X105184633Y-77295663D01*
X105046085Y-77253635D01*
X104938105Y-77243000D01*
X104902000Y-77239444D01*
X104865895Y-77243000D01*
X97756711Y-77243000D01*
X97687774Y-77174063D01*
X97518256Y-77060795D01*
X97329898Y-76982774D01*
X97129939Y-76943000D01*
X97001000Y-76943000D01*
X97001000Y-71170446D01*
X98221447Y-69950000D01*
X109738837Y-69950000D01*
X109732928Y-70010000D01*
G37*
%TD.AperFunction*%
%TD*%
M02*
