%TF.GenerationSoftware,KiCad,Pcbnew,(5.1.9)-1*%
%TF.CreationDate,2021-04-20T21:45:39+08:00*%
%TF.ProjectId,CSPS2ATX2.0,43535053-3241-4545-9832-2e302e6b6963,V2.0*%
%TF.SameCoordinates,Original*%
%TF.FileFunction,Copper,L1,Top*%
%TF.FilePolarity,Positive*%
%FSLAX46Y46*%
G04 Gerber Fmt 4.6, Leading zero omitted, Abs format (unit mm)*
G04 Created by KiCad (PCBNEW (5.1.9)-1) date 2021-04-20 21:45:39*
%MOMM*%
%LPD*%
G01*
G04 APERTURE LIST*
%TA.AperFunction,EtchedComponent*%
%ADD10C,0.100000*%
%TD*%
%TA.AperFunction,ComponentPad*%
%ADD11O,0.900000X1.700000*%
%TD*%
%TA.AperFunction,ComponentPad*%
%ADD12O,0.900000X2.000000*%
%TD*%
%TA.AperFunction,ComponentPad*%
%ADD13O,1.700000X1.700000*%
%TD*%
%TA.AperFunction,ComponentPad*%
%ADD14R,1.700000X1.700000*%
%TD*%
%TA.AperFunction,SMDPad,CuDef*%
%ADD15R,0.700000X0.600000*%
%TD*%
%TA.AperFunction,SMDPad,CuDef*%
%ADD16R,2.600000X4.500000*%
%TD*%
%TA.AperFunction,SMDPad,CuDef*%
%ADD17C,0.100000*%
%TD*%
%TA.AperFunction,SMDPad,CuDef*%
%ADD18R,1.500000X1.000000*%
%TD*%
%TA.AperFunction,ComponentPad*%
%ADD19O,3.700000X2.700000*%
%TD*%
%TA.AperFunction,ComponentPad*%
%ADD20O,2.700000X3.700000*%
%TD*%
%TA.AperFunction,ComponentPad*%
%ADD21O,2.080000X1.700000*%
%TD*%
%TA.AperFunction,ComponentPad*%
%ADD22C,1.700000*%
%TD*%
%TA.AperFunction,ViaPad*%
%ADD23C,0.800000*%
%TD*%
%TA.AperFunction,Conductor*%
%ADD24C,3.000000*%
%TD*%
%TA.AperFunction,Conductor*%
%ADD25C,0.250000*%
%TD*%
%TA.AperFunction,Conductor*%
%ADD26C,0.200000*%
%TD*%
%TA.AperFunction,Conductor*%
%ADD27C,1.000000*%
%TD*%
%TA.AperFunction,Conductor*%
%ADD28C,2.700000*%
%TD*%
%TA.AperFunction,Conductor*%
%ADD29C,1.270000*%
%TD*%
%TA.AperFunction,Conductor*%
%ADD30C,0.254000*%
%TD*%
%TA.AperFunction,Conductor*%
%ADD31C,0.100000*%
%TD*%
G04 APERTURE END LIST*
D10*
%TO.C,JP1*%
G36*
X124160000Y-107931000D02*
G01*
X124160000Y-107431000D01*
X124760000Y-107431000D01*
X124760000Y-107931000D01*
X124160000Y-107931000D01*
G37*
%TD*%
D11*
%TO.P,J101,S1*%
%TO.N,GND*%
X126490000Y-123017000D03*
X135130000Y-123017000D03*
D12*
X126490000Y-118847000D03*
X135130000Y-118847000D03*
%TD*%
D13*
%TO.P,J104,4*%
%TO.N,/SDA*%
X92837000Y-123317000D03*
%TO.P,J104,3*%
%TO.N,/SCL*%
X95377000Y-123317000D03*
%TO.P,J104,2*%
%TO.N,GND*%
X97917000Y-123317000D03*
D14*
%TO.P,J104,1*%
%TO.N,/~PSON*%
X100457000Y-123317000D03*
%TD*%
D15*
%TO.P,D2,1*%
%TO.N,Net-(C2-Pad1)*%
X131318000Y-101095000D03*
%TO.P,D2,2*%
%TO.N,+12V*%
X131318000Y-99695000D03*
%TD*%
%TO.P,D1,1*%
%TO.N,Net-(C2-Pad1)*%
X132842000Y-101095000D03*
%TO.P,D1,2*%
%TO.N,/+5VSB*%
X132842000Y-99695000D03*
%TD*%
D16*
%TO.P,U3,5*%
%TO.N,Net-(R10-Pad2)*%
X113210000Y-119420000D03*
%TO.P,U3,4*%
%TO.N,Net-(R10-Pad1)*%
X109810000Y-119420000D03*
%TO.P,U3,7*%
%TO.N,+12V*%
X120500000Y-119420000D03*
%TO.P,U3,3*%
%TO.N,+3V3*%
X109810000Y-100330000D03*
%TO.P,U3,2*%
%TO.N,GND*%
X113610000Y-100330000D03*
%TO.P,U3,1*%
%TO.N,+12V*%
X120510000Y-100330000D03*
%TD*%
%TO.P,U2,5*%
%TO.N,Net-(R8-Pad1)*%
X106350000Y-72985000D03*
%TO.P,U2,4*%
%TO.N,Net-(R8-Pad2)*%
X109750000Y-72985000D03*
%TO.P,U2,7*%
%TO.N,+12V*%
X99060000Y-72985000D03*
%TO.P,U2,3*%
%TO.N,+5V*%
X109750000Y-92075000D03*
%TO.P,U2,2*%
%TO.N,GND*%
X105950000Y-92075000D03*
%TO.P,U2,1*%
%TO.N,+12V*%
X99050000Y-92075000D03*
%TD*%
%TO.P,R10,2*%
%TO.N,Net-(R10-Pad2)*%
%TA.AperFunction,SMDPad,CuDef*%
G36*
G01*
X111906000Y-123640002D02*
X111906000Y-122739998D01*
G75*
G02*
X112155998Y-122490000I249998J0D01*
G01*
X112681002Y-122490000D01*
G75*
G02*
X112931000Y-122739998I0J-249998D01*
G01*
X112931000Y-123640002D01*
G75*
G02*
X112681002Y-123890000I-249998J0D01*
G01*
X112155998Y-123890000D01*
G75*
G02*
X111906000Y-123640002I0J249998D01*
G01*
G37*
%TD.AperFunction*%
%TO.P,R10,1*%
%TO.N,Net-(R10-Pad1)*%
%TA.AperFunction,SMDPad,CuDef*%
G36*
G01*
X110081000Y-123640002D02*
X110081000Y-122739998D01*
G75*
G02*
X110330998Y-122490000I249998J0D01*
G01*
X110856002Y-122490000D01*
G75*
G02*
X111106000Y-122739998I0J-249998D01*
G01*
X111106000Y-123640002D01*
G75*
G02*
X110856002Y-123890000I-249998J0D01*
G01*
X110330998Y-123890000D01*
G75*
G02*
X110081000Y-123640002I0J249998D01*
G01*
G37*
%TD.AperFunction*%
%TD*%
%TO.P,R8,2*%
%TO.N,Net-(R8-Pad2)*%
%TA.AperFunction,SMDPad,CuDef*%
G36*
G01*
X108477000Y-69665002D02*
X108477000Y-68764998D01*
G75*
G02*
X108726998Y-68515000I249998J0D01*
G01*
X109252002Y-68515000D01*
G75*
G02*
X109502000Y-68764998I0J-249998D01*
G01*
X109502000Y-69665002D01*
G75*
G02*
X109252002Y-69915000I-249998J0D01*
G01*
X108726998Y-69915000D01*
G75*
G02*
X108477000Y-69665002I0J249998D01*
G01*
G37*
%TD.AperFunction*%
%TO.P,R8,1*%
%TO.N,Net-(R8-Pad1)*%
%TA.AperFunction,SMDPad,CuDef*%
G36*
G01*
X106652000Y-69665002D02*
X106652000Y-68764998D01*
G75*
G02*
X106901998Y-68515000I249998J0D01*
G01*
X107427002Y-68515000D01*
G75*
G02*
X107677000Y-68764998I0J-249998D01*
G01*
X107677000Y-69665002D01*
G75*
G02*
X107427002Y-69915000I-249998J0D01*
G01*
X106901998Y-69915000D01*
G75*
G02*
X106652000Y-69665002I0J249998D01*
G01*
G37*
%TD.AperFunction*%
%TD*%
%TO.P,C6,2*%
%TO.N,GND*%
%TA.AperFunction,SMDPad,CuDef*%
G36*
G01*
X117840000Y-87400000D02*
X115840000Y-87400000D01*
G75*
G02*
X115590000Y-87150000I0J250000D01*
G01*
X115590000Y-84150000D01*
G75*
G02*
X115840000Y-83900000I250000J0D01*
G01*
X117840000Y-83900000D01*
G75*
G02*
X118090000Y-84150000I0J-250000D01*
G01*
X118090000Y-87150000D01*
G75*
G02*
X117840000Y-87400000I-250000J0D01*
G01*
G37*
%TD.AperFunction*%
%TO.P,C6,1*%
%TO.N,+3V3*%
%TA.AperFunction,SMDPad,CuDef*%
G36*
G01*
X117840000Y-93900000D02*
X115840000Y-93900000D01*
G75*
G02*
X115590000Y-93650000I0J250000D01*
G01*
X115590000Y-90650000D01*
G75*
G02*
X115840000Y-90400000I250000J0D01*
G01*
X117840000Y-90400000D01*
G75*
G02*
X118090000Y-90650000I0J-250000D01*
G01*
X118090000Y-93650000D01*
G75*
G02*
X117840000Y-93900000I-250000J0D01*
G01*
G37*
%TD.AperFunction*%
%TD*%
%TO.P,C5,2*%
%TO.N,GND*%
%TA.AperFunction,SMDPad,CuDef*%
G36*
G01*
X103235000Y-114070000D02*
X101235000Y-114070000D01*
G75*
G02*
X100985000Y-113820000I0J250000D01*
G01*
X100985000Y-110820000D01*
G75*
G02*
X101235000Y-110570000I250000J0D01*
G01*
X103235000Y-110570000D01*
G75*
G02*
X103485000Y-110820000I0J-250000D01*
G01*
X103485000Y-113820000D01*
G75*
G02*
X103235000Y-114070000I-250000J0D01*
G01*
G37*
%TD.AperFunction*%
%TO.P,C5,1*%
%TO.N,+12V*%
%TA.AperFunction,SMDPad,CuDef*%
G36*
G01*
X103235000Y-120570000D02*
X101235000Y-120570000D01*
G75*
G02*
X100985000Y-120320000I0J250000D01*
G01*
X100985000Y-117320000D01*
G75*
G02*
X101235000Y-117070000I250000J0D01*
G01*
X103235000Y-117070000D01*
G75*
G02*
X103485000Y-117320000I0J-250000D01*
G01*
X103485000Y-120320000D01*
G75*
G02*
X103235000Y-120570000I-250000J0D01*
G01*
G37*
%TD.AperFunction*%
%TD*%
%TO.P,C4,2*%
%TO.N,GND*%
%TA.AperFunction,SMDPad,CuDef*%
G36*
G01*
X117840000Y-74700000D02*
X115840000Y-74700000D01*
G75*
G02*
X115590000Y-74450000I0J250000D01*
G01*
X115590000Y-71450000D01*
G75*
G02*
X115840000Y-71200000I250000J0D01*
G01*
X117840000Y-71200000D01*
G75*
G02*
X118090000Y-71450000I0J-250000D01*
G01*
X118090000Y-74450000D01*
G75*
G02*
X117840000Y-74700000I-250000J0D01*
G01*
G37*
%TD.AperFunction*%
%TO.P,C4,1*%
%TO.N,+5V*%
%TA.AperFunction,SMDPad,CuDef*%
G36*
G01*
X117840000Y-81200000D02*
X115840000Y-81200000D01*
G75*
G02*
X115590000Y-80950000I0J250000D01*
G01*
X115590000Y-77950000D01*
G75*
G02*
X115840000Y-77700000I250000J0D01*
G01*
X117840000Y-77700000D01*
G75*
G02*
X118090000Y-77950000I0J-250000D01*
G01*
X118090000Y-80950000D01*
G75*
G02*
X117840000Y-81200000I-250000J0D01*
G01*
G37*
%TD.AperFunction*%
%TD*%
%TO.P,C3,2*%
%TO.N,GND*%
%TA.AperFunction,SMDPad,CuDef*%
G36*
G01*
X101235000Y-105005000D02*
X103235000Y-105005000D01*
G75*
G02*
X103485000Y-105255000I0J-250000D01*
G01*
X103485000Y-108255000D01*
G75*
G02*
X103235000Y-108505000I-250000J0D01*
G01*
X101235000Y-108505000D01*
G75*
G02*
X100985000Y-108255000I0J250000D01*
G01*
X100985000Y-105255000D01*
G75*
G02*
X101235000Y-105005000I250000J0D01*
G01*
G37*
%TD.AperFunction*%
%TO.P,C3,1*%
%TO.N,+12V*%
%TA.AperFunction,SMDPad,CuDef*%
G36*
G01*
X101235000Y-98505000D02*
X103235000Y-98505000D01*
G75*
G02*
X103485000Y-98755000I0J-250000D01*
G01*
X103485000Y-101755000D01*
G75*
G02*
X103235000Y-102005000I-250000J0D01*
G01*
X101235000Y-102005000D01*
G75*
G02*
X100985000Y-101755000I0J250000D01*
G01*
X100985000Y-98755000D01*
G75*
G02*
X101235000Y-98505000I250000J0D01*
G01*
G37*
%TD.AperFunction*%
%TD*%
%TO.P,U1,8*%
%TO.N,/ATX_PWOK*%
%TA.AperFunction,SMDPad,CuDef*%
G36*
G01*
X126769000Y-104037000D02*
X126469000Y-104037000D01*
G75*
G02*
X126319000Y-103887000I0J150000D01*
G01*
X126319000Y-102237000D01*
G75*
G02*
X126469000Y-102087000I150000J0D01*
G01*
X126769000Y-102087000D01*
G75*
G02*
X126919000Y-102237000I0J-150000D01*
G01*
X126919000Y-103887000D01*
G75*
G02*
X126769000Y-104037000I-150000J0D01*
G01*
G37*
%TD.AperFunction*%
%TO.P,U1,7*%
%TO.N,Net-(C2-Pad1)*%
%TA.AperFunction,SMDPad,CuDef*%
G36*
G01*
X128039000Y-104037000D02*
X127739000Y-104037000D01*
G75*
G02*
X127589000Y-103887000I0J150000D01*
G01*
X127589000Y-102237000D01*
G75*
G02*
X127739000Y-102087000I150000J0D01*
G01*
X128039000Y-102087000D01*
G75*
G02*
X128189000Y-102237000I0J-150000D01*
G01*
X128189000Y-103887000D01*
G75*
G02*
X128039000Y-104037000I-150000J0D01*
G01*
G37*
%TD.AperFunction*%
%TO.P,U1,6*%
%TO.N,+5V*%
%TA.AperFunction,SMDPad,CuDef*%
G36*
G01*
X129309000Y-104037000D02*
X129009000Y-104037000D01*
G75*
G02*
X128859000Y-103887000I0J150000D01*
G01*
X128859000Y-102237000D01*
G75*
G02*
X129009000Y-102087000I150000J0D01*
G01*
X129309000Y-102087000D01*
G75*
G02*
X129459000Y-102237000I0J-150000D01*
G01*
X129459000Y-103887000D01*
G75*
G02*
X129309000Y-104037000I-150000J0D01*
G01*
G37*
%TD.AperFunction*%
%TO.P,U1,5*%
%TO.N,+3V3*%
%TA.AperFunction,SMDPad,CuDef*%
G36*
G01*
X130579000Y-104037000D02*
X130279000Y-104037000D01*
G75*
G02*
X130129000Y-103887000I0J150000D01*
G01*
X130129000Y-102237000D01*
G75*
G02*
X130279000Y-102087000I150000J0D01*
G01*
X130579000Y-102087000D01*
G75*
G02*
X130729000Y-102237000I0J-150000D01*
G01*
X130729000Y-103887000D01*
G75*
G02*
X130579000Y-104037000I-150000J0D01*
G01*
G37*
%TD.AperFunction*%
%TO.P,U1,4*%
%TO.N,/~ATX_PSON*%
%TA.AperFunction,SMDPad,CuDef*%
G36*
G01*
X130579000Y-108987000D02*
X130279000Y-108987000D01*
G75*
G02*
X130129000Y-108837000I0J150000D01*
G01*
X130129000Y-107187000D01*
G75*
G02*
X130279000Y-107037000I150000J0D01*
G01*
X130579000Y-107037000D01*
G75*
G02*
X130729000Y-107187000I0J-150000D01*
G01*
X130729000Y-108837000D01*
G75*
G02*
X130579000Y-108987000I-150000J0D01*
G01*
G37*
%TD.AperFunction*%
%TO.P,U1,3*%
%TO.N,/~FPO*%
%TA.AperFunction,SMDPad,CuDef*%
G36*
G01*
X129309000Y-108987000D02*
X129009000Y-108987000D01*
G75*
G02*
X128859000Y-108837000I0J150000D01*
G01*
X128859000Y-107187000D01*
G75*
G02*
X129009000Y-107037000I150000J0D01*
G01*
X129309000Y-107037000D01*
G75*
G02*
X129459000Y-107187000I0J-150000D01*
G01*
X129459000Y-108837000D01*
G75*
G02*
X129309000Y-108987000I-150000J0D01*
G01*
G37*
%TD.AperFunction*%
%TO.P,U1,2*%
%TO.N,GND*%
%TA.AperFunction,SMDPad,CuDef*%
G36*
G01*
X128039000Y-108987000D02*
X127739000Y-108987000D01*
G75*
G02*
X127589000Y-108837000I0J150000D01*
G01*
X127589000Y-107187000D01*
G75*
G02*
X127739000Y-107037000I150000J0D01*
G01*
X128039000Y-107037000D01*
G75*
G02*
X128189000Y-107187000I0J-150000D01*
G01*
X128189000Y-108837000D01*
G75*
G02*
X128039000Y-108987000I-150000J0D01*
G01*
G37*
%TD.AperFunction*%
%TO.P,U1,1*%
%TO.N,Net-(R3-Pad2)*%
%TA.AperFunction,SMDPad,CuDef*%
G36*
G01*
X126769000Y-108987000D02*
X126469000Y-108987000D01*
G75*
G02*
X126319000Y-108837000I0J150000D01*
G01*
X126319000Y-107187000D01*
G75*
G02*
X126469000Y-107037000I150000J0D01*
G01*
X126769000Y-107037000D01*
G75*
G02*
X126919000Y-107187000I0J-150000D01*
G01*
X126919000Y-108837000D01*
G75*
G02*
X126769000Y-108987000I-150000J0D01*
G01*
G37*
%TD.AperFunction*%
%TD*%
%TO.P,R111,2*%
%TO.N,GND*%
%TA.AperFunction,SMDPad,CuDef*%
G36*
G01*
X134931998Y-103119500D02*
X135832002Y-103119500D01*
G75*
G02*
X136082000Y-103369498I0J-249998D01*
G01*
X136082000Y-103894502D01*
G75*
G02*
X135832002Y-104144500I-249998J0D01*
G01*
X134931998Y-104144500D01*
G75*
G02*
X134682000Y-103894502I0J249998D01*
G01*
X134682000Y-103369498D01*
G75*
G02*
X134931998Y-103119500I249998J0D01*
G01*
G37*
%TD.AperFunction*%
%TO.P,R111,1*%
%TO.N,/A6*%
%TA.AperFunction,SMDPad,CuDef*%
G36*
G01*
X134931998Y-101294500D02*
X135832002Y-101294500D01*
G75*
G02*
X136082000Y-101544498I0J-249998D01*
G01*
X136082000Y-102069502D01*
G75*
G02*
X135832002Y-102319500I-249998J0D01*
G01*
X134931998Y-102319500D01*
G75*
G02*
X134682000Y-102069502I0J249998D01*
G01*
X134682000Y-101544498D01*
G75*
G02*
X134931998Y-101294500I249998J0D01*
G01*
G37*
%TD.AperFunction*%
%TD*%
%TO.P,R110,2*%
%TO.N,/A6*%
%TA.AperFunction,SMDPad,CuDef*%
G36*
G01*
X134931998Y-99737500D02*
X135832002Y-99737500D01*
G75*
G02*
X136082000Y-99987498I0J-249998D01*
G01*
X136082000Y-100512502D01*
G75*
G02*
X135832002Y-100762500I-249998J0D01*
G01*
X134931998Y-100762500D01*
G75*
G02*
X134682000Y-100512502I0J249998D01*
G01*
X134682000Y-99987498D01*
G75*
G02*
X134931998Y-99737500I249998J0D01*
G01*
G37*
%TD.AperFunction*%
%TO.P,R110,1*%
%TO.N,/+5VSB*%
%TA.AperFunction,SMDPad,CuDef*%
G36*
G01*
X134931998Y-97912500D02*
X135832002Y-97912500D01*
G75*
G02*
X136082000Y-98162498I0J-249998D01*
G01*
X136082000Y-98687502D01*
G75*
G02*
X135832002Y-98937500I-249998J0D01*
G01*
X134931998Y-98937500D01*
G75*
G02*
X134682000Y-98687502I0J249998D01*
G01*
X134682000Y-98162498D01*
G75*
G02*
X134931998Y-97912500I249998J0D01*
G01*
G37*
%TD.AperFunction*%
%TD*%
%TO.P,R109,2*%
%TO.N,GND*%
%TA.AperFunction,SMDPad,CuDef*%
G36*
G01*
X90889500Y-118675998D02*
X90889500Y-119576002D01*
G75*
G02*
X90639502Y-119826000I-249998J0D01*
G01*
X90114498Y-119826000D01*
G75*
G02*
X89864500Y-119576002I0J249998D01*
G01*
X89864500Y-118675998D01*
G75*
G02*
X90114498Y-118426000I249998J0D01*
G01*
X90639502Y-118426000D01*
G75*
G02*
X90889500Y-118675998I0J-249998D01*
G01*
G37*
%TD.AperFunction*%
%TO.P,R109,1*%
%TO.N,/A2*%
%TA.AperFunction,SMDPad,CuDef*%
G36*
G01*
X92714500Y-118675998D02*
X92714500Y-119576002D01*
G75*
G02*
X92464502Y-119826000I-249998J0D01*
G01*
X91939498Y-119826000D01*
G75*
G02*
X91689500Y-119576002I0J249998D01*
G01*
X91689500Y-118675998D01*
G75*
G02*
X91939498Y-118426000I249998J0D01*
G01*
X92464502Y-118426000D01*
G75*
G02*
X92714500Y-118675998I0J-249998D01*
G01*
G37*
%TD.AperFunction*%
%TD*%
%TO.P,R108,2*%
%TO.N,/A2*%
%TA.AperFunction,SMDPad,CuDef*%
G36*
G01*
X91689500Y-117671002D02*
X91689500Y-116770998D01*
G75*
G02*
X91939498Y-116521000I249998J0D01*
G01*
X92464502Y-116521000D01*
G75*
G02*
X92714500Y-116770998I0J-249998D01*
G01*
X92714500Y-117671002D01*
G75*
G02*
X92464502Y-117921000I-249998J0D01*
G01*
X91939498Y-117921000D01*
G75*
G02*
X91689500Y-117671002I0J249998D01*
G01*
G37*
%TD.AperFunction*%
%TO.P,R108,1*%
%TO.N,/IMONITOR*%
%TA.AperFunction,SMDPad,CuDef*%
G36*
G01*
X89864500Y-117671002D02*
X89864500Y-116770998D01*
G75*
G02*
X90114498Y-116521000I249998J0D01*
G01*
X90639502Y-116521000D01*
G75*
G02*
X90889500Y-116770998I0J-249998D01*
G01*
X90889500Y-117671002D01*
G75*
G02*
X90639502Y-117921000I-249998J0D01*
G01*
X90114498Y-117921000D01*
G75*
G02*
X89864500Y-117671002I0J249998D01*
G01*
G37*
%TD.AperFunction*%
%TD*%
%TO.P,R105,2*%
%TO.N,GND*%
%TA.AperFunction,SMDPad,CuDef*%
G36*
G01*
X104055500Y-88842002D02*
X104055500Y-87941998D01*
G75*
G02*
X104305498Y-87692000I249998J0D01*
G01*
X104830502Y-87692000D01*
G75*
G02*
X105080500Y-87941998I0J-249998D01*
G01*
X105080500Y-88842002D01*
G75*
G02*
X104830502Y-89092000I-249998J0D01*
G01*
X104305498Y-89092000D01*
G75*
G02*
X104055500Y-88842002I0J249998D01*
G01*
G37*
%TD.AperFunction*%
%TO.P,R105,1*%
%TO.N,/A1*%
%TA.AperFunction,SMDPad,CuDef*%
G36*
G01*
X102230500Y-88842002D02*
X102230500Y-87941998D01*
G75*
G02*
X102480498Y-87692000I249998J0D01*
G01*
X103005502Y-87692000D01*
G75*
G02*
X103255500Y-87941998I0J-249998D01*
G01*
X103255500Y-88842002D01*
G75*
G02*
X103005502Y-89092000I-249998J0D01*
G01*
X102480498Y-89092000D01*
G75*
G02*
X102230500Y-88842002I0J249998D01*
G01*
G37*
%TD.AperFunction*%
%TD*%
%TO.P,R104,2*%
%TO.N,/A1*%
%TA.AperFunction,SMDPad,CuDef*%
G36*
G01*
X100603000Y-88842002D02*
X100603000Y-87941998D01*
G75*
G02*
X100852998Y-87692000I249998J0D01*
G01*
X101378002Y-87692000D01*
G75*
G02*
X101628000Y-87941998I0J-249998D01*
G01*
X101628000Y-88842002D01*
G75*
G02*
X101378002Y-89092000I-249998J0D01*
G01*
X100852998Y-89092000D01*
G75*
G02*
X100603000Y-88842002I0J249998D01*
G01*
G37*
%TD.AperFunction*%
%TO.P,R104,1*%
%TO.N,+12V*%
%TA.AperFunction,SMDPad,CuDef*%
G36*
G01*
X98778000Y-88842002D02*
X98778000Y-87941998D01*
G75*
G02*
X99027998Y-87692000I249998J0D01*
G01*
X99553002Y-87692000D01*
G75*
G02*
X99803000Y-87941998I0J-249998D01*
G01*
X99803000Y-88842002D01*
G75*
G02*
X99553002Y-89092000I-249998J0D01*
G01*
X99027998Y-89092000D01*
G75*
G02*
X98778000Y-88842002I0J249998D01*
G01*
G37*
%TD.AperFunction*%
%TD*%
%TO.P,R103,2*%
%TO.N,GND*%
%TA.AperFunction,SMDPad,CuDef*%
G36*
G01*
X131629998Y-121200500D02*
X132530002Y-121200500D01*
G75*
G02*
X132780000Y-121450498I0J-249998D01*
G01*
X132780000Y-121975502D01*
G75*
G02*
X132530002Y-122225500I-249998J0D01*
G01*
X131629998Y-122225500D01*
G75*
G02*
X131380000Y-121975502I0J249998D01*
G01*
X131380000Y-121450498D01*
G75*
G02*
X131629998Y-121200500I249998J0D01*
G01*
G37*
%TD.AperFunction*%
%TO.P,R103,1*%
%TO.N,Net-(J101-PadA5)*%
%TA.AperFunction,SMDPad,CuDef*%
G36*
G01*
X131629998Y-119375500D02*
X132530002Y-119375500D01*
G75*
G02*
X132780000Y-119625498I0J-249998D01*
G01*
X132780000Y-120150502D01*
G75*
G02*
X132530002Y-120400500I-249998J0D01*
G01*
X131629998Y-120400500D01*
G75*
G02*
X131380000Y-120150502I0J249998D01*
G01*
X131380000Y-119625498D01*
G75*
G02*
X131629998Y-119375500I249998J0D01*
G01*
G37*
%TD.AperFunction*%
%TD*%
%TO.P,R102,2*%
%TO.N,GND*%
%TA.AperFunction,SMDPad,CuDef*%
G36*
G01*
X129597998Y-121200500D02*
X130498002Y-121200500D01*
G75*
G02*
X130748000Y-121450498I0J-249998D01*
G01*
X130748000Y-121975502D01*
G75*
G02*
X130498002Y-122225500I-249998J0D01*
G01*
X129597998Y-122225500D01*
G75*
G02*
X129348000Y-121975502I0J249998D01*
G01*
X129348000Y-121450498D01*
G75*
G02*
X129597998Y-121200500I249998J0D01*
G01*
G37*
%TD.AperFunction*%
%TO.P,R102,1*%
%TO.N,Net-(J101-PadB5)*%
%TA.AperFunction,SMDPad,CuDef*%
G36*
G01*
X129597998Y-119375500D02*
X130498002Y-119375500D01*
G75*
G02*
X130748000Y-119625498I0J-249998D01*
G01*
X130748000Y-120150502D01*
G75*
G02*
X130498002Y-120400500I-249998J0D01*
G01*
X129597998Y-120400500D01*
G75*
G02*
X129348000Y-120150502I0J249998D01*
G01*
X129348000Y-119625498D01*
G75*
G02*
X129597998Y-119375500I249998J0D01*
G01*
G37*
%TD.AperFunction*%
%TD*%
%TO.P,R4,2*%
%TO.N,GND*%
%TA.AperFunction,SMDPad,CuDef*%
G36*
G01*
X124009998Y-103373500D02*
X124910002Y-103373500D01*
G75*
G02*
X125160000Y-103623498I0J-249998D01*
G01*
X125160000Y-104148502D01*
G75*
G02*
X124910002Y-104398500I-249998J0D01*
G01*
X124009998Y-104398500D01*
G75*
G02*
X123760000Y-104148502I0J249998D01*
G01*
X123760000Y-103623498D01*
G75*
G02*
X124009998Y-103373500I249998J0D01*
G01*
G37*
%TD.AperFunction*%
%TO.P,R4,1*%
%TO.N,Net-(R3-Pad2)*%
%TA.AperFunction,SMDPad,CuDef*%
G36*
G01*
X124009998Y-101548500D02*
X124910002Y-101548500D01*
G75*
G02*
X125160000Y-101798498I0J-249998D01*
G01*
X125160000Y-102323502D01*
G75*
G02*
X124910002Y-102573500I-249998J0D01*
G01*
X124009998Y-102573500D01*
G75*
G02*
X123760000Y-102323502I0J249998D01*
G01*
X123760000Y-101798498D01*
G75*
G02*
X124009998Y-101548500I249998J0D01*
G01*
G37*
%TD.AperFunction*%
%TD*%
%TO.P,R3,2*%
%TO.N,Net-(R3-Pad2)*%
%TA.AperFunction,SMDPad,CuDef*%
G36*
G01*
X124009998Y-99944500D02*
X124910002Y-99944500D01*
G75*
G02*
X125160000Y-100194498I0J-249998D01*
G01*
X125160000Y-100719502D01*
G75*
G02*
X124910002Y-100969500I-249998J0D01*
G01*
X124009998Y-100969500D01*
G75*
G02*
X123760000Y-100719502I0J249998D01*
G01*
X123760000Y-100194498D01*
G75*
G02*
X124009998Y-99944500I249998J0D01*
G01*
G37*
%TD.AperFunction*%
%TO.P,R3,1*%
%TO.N,+12V*%
%TA.AperFunction,SMDPad,CuDef*%
G36*
G01*
X124009998Y-98119500D02*
X124910002Y-98119500D01*
G75*
G02*
X125160000Y-98369498I0J-249998D01*
G01*
X125160000Y-98894502D01*
G75*
G02*
X124910002Y-99144500I-249998J0D01*
G01*
X124009998Y-99144500D01*
G75*
G02*
X123760000Y-98894502I0J249998D01*
G01*
X123760000Y-98369498D01*
G75*
G02*
X124009998Y-98119500I249998J0D01*
G01*
G37*
%TD.AperFunction*%
%TD*%
%TO.P,R2,2*%
%TO.N,/ATX_PWOK*%
%TA.AperFunction,SMDPad,CuDef*%
G36*
G01*
X127131500Y-100260998D02*
X127131500Y-101161002D01*
G75*
G02*
X126881502Y-101411000I-249998J0D01*
G01*
X126356498Y-101411000D01*
G75*
G02*
X126106500Y-101161002I0J249998D01*
G01*
X126106500Y-100260998D01*
G75*
G02*
X126356498Y-100011000I249998J0D01*
G01*
X126881502Y-100011000D01*
G75*
G02*
X127131500Y-100260998I0J-249998D01*
G01*
G37*
%TD.AperFunction*%
%TO.P,R2,1*%
%TO.N,+5V*%
%TA.AperFunction,SMDPad,CuDef*%
G36*
G01*
X128956500Y-100260998D02*
X128956500Y-101161002D01*
G75*
G02*
X128706502Y-101411000I-249998J0D01*
G01*
X128181498Y-101411000D01*
G75*
G02*
X127931500Y-101161002I0J249998D01*
G01*
X127931500Y-100260998D01*
G75*
G02*
X128181498Y-100011000I249998J0D01*
G01*
X128706502Y-100011000D01*
G75*
G02*
X128956500Y-100260998I0J-249998D01*
G01*
G37*
%TD.AperFunction*%
%TD*%
%TA.AperFunction,SMDPad,CuDef*%
D17*
%TO.P,JP101,2*%
%TO.N,/VBUS*%
G36*
X148196398Y-120665000D02*
G01*
X148196398Y-120689534D01*
X148191588Y-120738365D01*
X148182016Y-120786490D01*
X148167772Y-120833445D01*
X148148995Y-120878778D01*
X148125864Y-120922051D01*
X148098604Y-120962850D01*
X148067476Y-121000779D01*
X148032779Y-121035476D01*
X147994850Y-121066604D01*
X147954051Y-121093864D01*
X147910778Y-121116995D01*
X147865445Y-121135772D01*
X147818490Y-121150016D01*
X147770365Y-121159588D01*
X147721534Y-121164398D01*
X147697000Y-121164398D01*
X147697000Y-121165000D01*
X147197000Y-121165000D01*
X147197000Y-121164398D01*
X147172466Y-121164398D01*
X147123635Y-121159588D01*
X147075510Y-121150016D01*
X147028555Y-121135772D01*
X146983222Y-121116995D01*
X146939949Y-121093864D01*
X146899150Y-121066604D01*
X146861221Y-121035476D01*
X146826524Y-121000779D01*
X146795396Y-120962850D01*
X146768136Y-120922051D01*
X146745005Y-120878778D01*
X146726228Y-120833445D01*
X146711984Y-120786490D01*
X146702412Y-120738365D01*
X146697602Y-120689534D01*
X146697602Y-120665000D01*
X146697000Y-120665000D01*
X146697000Y-120165000D01*
X148197000Y-120165000D01*
X148197000Y-120665000D01*
X148196398Y-120665000D01*
G37*
%TD.AperFunction*%
%TA.AperFunction,SMDPad,CuDef*%
%TO.P,JP101,1*%
%TO.N,+5V*%
G36*
X146697000Y-119865000D02*
G01*
X146697000Y-119365000D01*
X146697602Y-119365000D01*
X146697602Y-119340466D01*
X146702412Y-119291635D01*
X146711984Y-119243510D01*
X146726228Y-119196555D01*
X146745005Y-119151222D01*
X146768136Y-119107949D01*
X146795396Y-119067150D01*
X146826524Y-119029221D01*
X146861221Y-118994524D01*
X146899150Y-118963396D01*
X146939949Y-118936136D01*
X146983222Y-118913005D01*
X147028555Y-118894228D01*
X147075510Y-118879984D01*
X147123635Y-118870412D01*
X147172466Y-118865602D01*
X147197000Y-118865602D01*
X147197000Y-118865000D01*
X147697000Y-118865000D01*
X147697000Y-118865602D01*
X147721534Y-118865602D01*
X147770365Y-118870412D01*
X147818490Y-118879984D01*
X147865445Y-118894228D01*
X147910778Y-118913005D01*
X147954051Y-118936136D01*
X147994850Y-118963396D01*
X148032779Y-118994524D01*
X148067476Y-119029221D01*
X148098604Y-119067150D01*
X148125864Y-119107949D01*
X148148995Y-119151222D01*
X148167772Y-119196555D01*
X148182016Y-119243510D01*
X148191588Y-119291635D01*
X148196398Y-119340466D01*
X148196398Y-119365000D01*
X148197000Y-119365000D01*
X148197000Y-119865000D01*
X146697000Y-119865000D01*
G37*
%TD.AperFunction*%
%TD*%
%TA.AperFunction,SMDPad,CuDef*%
%TO.P,JP1,1*%
%TO.N,/~FPO*%
G36*
X125210000Y-107781000D02*
G01*
X125210000Y-108331000D01*
X125209398Y-108331000D01*
X125209398Y-108355534D01*
X125204588Y-108404365D01*
X125195016Y-108452490D01*
X125180772Y-108499445D01*
X125161995Y-108544778D01*
X125138864Y-108588051D01*
X125111604Y-108628850D01*
X125080476Y-108666779D01*
X125045779Y-108701476D01*
X125007850Y-108732604D01*
X124967051Y-108759864D01*
X124923778Y-108782995D01*
X124878445Y-108801772D01*
X124831490Y-108816016D01*
X124783365Y-108825588D01*
X124734534Y-108830398D01*
X124710000Y-108830398D01*
X124710000Y-108831000D01*
X124210000Y-108831000D01*
X124210000Y-108830398D01*
X124185466Y-108830398D01*
X124136635Y-108825588D01*
X124088510Y-108816016D01*
X124041555Y-108801772D01*
X123996222Y-108782995D01*
X123952949Y-108759864D01*
X123912150Y-108732604D01*
X123874221Y-108701476D01*
X123839524Y-108666779D01*
X123808396Y-108628850D01*
X123781136Y-108588051D01*
X123758005Y-108544778D01*
X123739228Y-108499445D01*
X123724984Y-108452490D01*
X123715412Y-108404365D01*
X123710602Y-108355534D01*
X123710602Y-108331000D01*
X123710000Y-108331000D01*
X123710000Y-107781000D01*
X125210000Y-107781000D01*
G37*
%TD.AperFunction*%
D18*
%TO.P,JP1,2*%
%TO.N,/~PSON*%
X124460000Y-107031000D03*
%TA.AperFunction,SMDPad,CuDef*%
D17*
%TO.P,JP1,3*%
%TO.N,/~ATX_PSON*%
G36*
X123710602Y-105731000D02*
G01*
X123710602Y-105706466D01*
X123715412Y-105657635D01*
X123724984Y-105609510D01*
X123739228Y-105562555D01*
X123758005Y-105517222D01*
X123781136Y-105473949D01*
X123808396Y-105433150D01*
X123839524Y-105395221D01*
X123874221Y-105360524D01*
X123912150Y-105329396D01*
X123952949Y-105302136D01*
X123996222Y-105279005D01*
X124041555Y-105260228D01*
X124088510Y-105245984D01*
X124136635Y-105236412D01*
X124185466Y-105231602D01*
X124210000Y-105231602D01*
X124210000Y-105231000D01*
X124710000Y-105231000D01*
X124710000Y-105231602D01*
X124734534Y-105231602D01*
X124783365Y-105236412D01*
X124831490Y-105245984D01*
X124878445Y-105260228D01*
X124923778Y-105279005D01*
X124967051Y-105302136D01*
X125007850Y-105329396D01*
X125045779Y-105360524D01*
X125080476Y-105395221D01*
X125111604Y-105433150D01*
X125138864Y-105473949D01*
X125161995Y-105517222D01*
X125180772Y-105562555D01*
X125195016Y-105609510D01*
X125204588Y-105657635D01*
X125209398Y-105706466D01*
X125209398Y-105731000D01*
X125210000Y-105731000D01*
X125210000Y-106281000D01*
X123710000Y-106281000D01*
X123710000Y-105731000D01*
X123710602Y-105731000D01*
G37*
%TD.AperFunction*%
%TD*%
D13*
%TO.P,J103,4*%
%TO.N,GND*%
X138049000Y-123063000D03*
%TO.P,J103,3*%
%TO.N,/D+*%
X140589000Y-123063000D03*
%TO.P,J103,2*%
%TO.N,/D-*%
X143129000Y-123063000D03*
D14*
%TO.P,J103,1*%
%TO.N,/VBUS*%
X145669000Y-123063000D03*
%TD*%
D13*
%TO.P,J102,6*%
%TO.N,GND*%
X134493000Y-114046000D03*
%TO.P,J102,5*%
%TO.N,/~RESET*%
X134493000Y-111506000D03*
%TO.P,J102,4*%
%TO.N,/MOSI*%
X131953000Y-114046000D03*
%TO.P,J102,3*%
%TO.N,/SCK*%
X131953000Y-111506000D03*
%TO.P,J102,2*%
%TO.N,+5V*%
X129413000Y-114046000D03*
D14*
%TO.P,J102,1*%
%TO.N,/MISO*%
X129413000Y-111506000D03*
%TD*%
%TO.P,J10,1*%
%TO.N,GND*%
%TA.AperFunction,ComponentPad*%
G36*
G01*
X133043900Y-76280000D02*
X129846100Y-76280000D01*
G75*
G02*
X129595000Y-76028900I0J251100D01*
G01*
X129595000Y-73831100D01*
G75*
G02*
X129846100Y-73580000I251100J0D01*
G01*
X133043900Y-73580000D01*
G75*
G02*
X133295000Y-73831100I0J-251100D01*
G01*
X133295000Y-76028900D01*
G75*
G02*
X133043900Y-76280000I-251100J0D01*
G01*
G37*
%TD.AperFunction*%
D19*
%TO.P,J10,2*%
%TO.N,+12V*%
X131445000Y-70730000D03*
%TO.P,J10,3*%
%TO.N,+5V*%
X127245000Y-74930000D03*
%TO.P,J10,4*%
%TO.N,Net-(J10-Pad4)*%
X127245000Y-70730000D03*
%TD*%
%TO.P,J9,1*%
%TO.N,GND*%
%TA.AperFunction,ComponentPad*%
G36*
G01*
X133043900Y-87075000D02*
X129846100Y-87075000D01*
G75*
G02*
X129595000Y-86823900I0J251100D01*
G01*
X129595000Y-84626100D01*
G75*
G02*
X129846100Y-84375000I251100J0D01*
G01*
X133043900Y-84375000D01*
G75*
G02*
X133295000Y-84626100I0J-251100D01*
G01*
X133295000Y-86823900D01*
G75*
G02*
X133043900Y-87075000I-251100J0D01*
G01*
G37*
%TD.AperFunction*%
%TO.P,J9,2*%
%TO.N,+12V*%
X131445000Y-81525000D03*
%TO.P,J9,3*%
%TO.N,+5V*%
X127245000Y-85725000D03*
%TO.P,J9,4*%
%TO.N,Net-(J9-Pad4)*%
X127245000Y-81525000D03*
%TD*%
D20*
%TO.P,J8,8*%
%TO.N,GND*%
X132715000Y-62620000D03*
%TO.P,J8,7*%
X136915000Y-62620000D03*
%TO.P,J8,6*%
X141115000Y-62620000D03*
%TO.P,J8,5*%
X145315000Y-62620000D03*
%TO.P,J8,4*%
%TO.N,+12V*%
X132715000Y-58420000D03*
%TO.P,J8,3*%
X136915000Y-58420000D03*
%TO.P,J8,1*%
%TA.AperFunction,ComponentPad*%
G36*
G01*
X146665000Y-56821100D02*
X146665000Y-60018900D01*
G75*
G02*
X146413900Y-60270000I-251100J0D01*
G01*
X144216100Y-60270000D01*
G75*
G02*
X143965000Y-60018900I0J251100D01*
G01*
X143965000Y-56821100D01*
G75*
G02*
X144216100Y-56570000I251100J0D01*
G01*
X146413900Y-56570000D01*
G75*
G02*
X146665000Y-56821100I0J-251100D01*
G01*
G37*
%TD.AperFunction*%
%TO.P,J8,2*%
X141115000Y-58420000D03*
%TD*%
%TO.P,J7,8*%
%TO.N,GND*%
X145315000Y-41910000D03*
%TO.P,J7,7*%
X141115000Y-41910000D03*
%TO.P,J7,6*%
X136915000Y-41910000D03*
%TO.P,J7,5*%
X132715000Y-41910000D03*
%TO.P,J7,4*%
%TO.N,+12V*%
X145315000Y-46110000D03*
%TO.P,J7,3*%
X141115000Y-46110000D03*
%TO.P,J7,1*%
%TA.AperFunction,ComponentPad*%
G36*
G01*
X131365000Y-47708900D02*
X131365000Y-44511100D01*
G75*
G02*
X131616100Y-44260000I251100J0D01*
G01*
X133813900Y-44260000D01*
G75*
G02*
X134065000Y-44511100I0J-251100D01*
G01*
X134065000Y-47708900D01*
G75*
G02*
X133813900Y-47960000I-251100J0D01*
G01*
X131616100Y-47960000D01*
G75*
G02*
X131365000Y-47708900I0J251100D01*
G01*
G37*
%TD.AperFunction*%
%TO.P,J7,2*%
X136915000Y-46110000D03*
%TD*%
%TO.P,J6,8*%
%TO.N,GND*%
X113030000Y-62620000D03*
%TO.P,J6,7*%
X117230000Y-62620000D03*
%TO.P,J6,6*%
X121430000Y-62620000D03*
%TO.P,J6,5*%
X125630000Y-62620000D03*
%TO.P,J6,4*%
%TO.N,+12V*%
X113030000Y-58420000D03*
%TO.P,J6,3*%
X117230000Y-58420000D03*
%TO.P,J6,1*%
%TA.AperFunction,ComponentPad*%
G36*
G01*
X126980000Y-56821100D02*
X126980000Y-60018900D01*
G75*
G02*
X126728900Y-60270000I-251100J0D01*
G01*
X124531100Y-60270000D01*
G75*
G02*
X124280000Y-60018900I0J251100D01*
G01*
X124280000Y-56821100D01*
G75*
G02*
X124531100Y-56570000I251100J0D01*
G01*
X126728900Y-56570000D01*
G75*
G02*
X126980000Y-56821100I0J-251100D01*
G01*
G37*
%TD.AperFunction*%
%TO.P,J6,2*%
X121430000Y-58420000D03*
%TD*%
%TO.P,J5,8*%
%TO.N,GND*%
X125630000Y-41910000D03*
%TO.P,J5,7*%
X121430000Y-41910000D03*
%TO.P,J5,6*%
X117230000Y-41910000D03*
%TO.P,J5,5*%
X113030000Y-41910000D03*
%TO.P,J5,4*%
%TO.N,+12V*%
X125630000Y-46110000D03*
%TO.P,J5,3*%
X121430000Y-46110000D03*
%TO.P,J5,1*%
%TA.AperFunction,ComponentPad*%
G36*
G01*
X111680000Y-47708900D02*
X111680000Y-44511100D01*
G75*
G02*
X111931100Y-44260000I251100J0D01*
G01*
X114128900Y-44260000D01*
G75*
G02*
X114380000Y-44511100I0J-251100D01*
G01*
X114380000Y-47708900D01*
G75*
G02*
X114128900Y-47960000I-251100J0D01*
G01*
X111931100Y-47960000D01*
G75*
G02*
X111680000Y-47708900I0J251100D01*
G01*
G37*
%TD.AperFunction*%
%TO.P,J5,2*%
X117230000Y-46110000D03*
%TD*%
%TO.P,J4,8*%
%TO.N,GND*%
X93345000Y-62620000D03*
%TO.P,J4,7*%
X97545000Y-62620000D03*
%TO.P,J4,6*%
X101745000Y-62620000D03*
%TO.P,J4,5*%
X105945000Y-62620000D03*
%TO.P,J4,4*%
%TO.N,+12V*%
X93345000Y-58420000D03*
%TO.P,J4,3*%
X97545000Y-58420000D03*
%TO.P,J4,1*%
%TA.AperFunction,ComponentPad*%
G36*
G01*
X107295000Y-56821100D02*
X107295000Y-60018900D01*
G75*
G02*
X107043900Y-60270000I-251100J0D01*
G01*
X104846100Y-60270000D01*
G75*
G02*
X104595000Y-60018900I0J251100D01*
G01*
X104595000Y-56821100D01*
G75*
G02*
X104846100Y-56570000I251100J0D01*
G01*
X107043900Y-56570000D01*
G75*
G02*
X107295000Y-56821100I0J-251100D01*
G01*
G37*
%TD.AperFunction*%
%TO.P,J4,2*%
X101745000Y-58420000D03*
%TD*%
%TO.P,J3,8*%
%TO.N,GND*%
X105945000Y-41910000D03*
%TO.P,J3,7*%
X101745000Y-41910000D03*
%TO.P,J3,6*%
X97545000Y-41910000D03*
%TO.P,J3,5*%
X93345000Y-41910000D03*
%TO.P,J3,4*%
%TO.N,+12V*%
X105945000Y-46110000D03*
%TO.P,J3,3*%
X101745000Y-46110000D03*
%TO.P,J3,1*%
%TA.AperFunction,ComponentPad*%
G36*
G01*
X91995000Y-47708900D02*
X91995000Y-44511100D01*
G75*
G02*
X92246100Y-44260000I251100J0D01*
G01*
X94443900Y-44260000D01*
G75*
G02*
X94695000Y-44511100I0J-251100D01*
G01*
X94695000Y-47708900D01*
G75*
G02*
X94443900Y-47960000I-251100J0D01*
G01*
X92246100Y-47960000D01*
G75*
G02*
X91995000Y-47708900I0J251100D01*
G01*
G37*
%TD.AperFunction*%
%TO.P,J3,2*%
X97545000Y-46110000D03*
%TD*%
D19*
%TO.P,J2,24*%
%TO.N,+12V*%
X143900000Y-116685000D03*
%TO.P,J2,23*%
%TO.N,GND*%
X143900000Y-112485000D03*
%TO.P,J2,22*%
X143900000Y-108285000D03*
%TO.P,J2,21*%
%TO.N,/ATX_PWOK*%
X143900000Y-104085000D03*
%TO.P,J2,20*%
%TO.N,/~ATX_PSON*%
X143900000Y-99885000D03*
%TO.P,J2,19*%
%TO.N,Net-(J2-Pad19)*%
X143900000Y-95685000D03*
%TO.P,J2,18*%
%TO.N,/+5VSB*%
X143900000Y-91485000D03*
%TO.P,J2,17*%
%TO.N,+3V3*%
X143900000Y-87285000D03*
%TO.P,J2,16*%
X143900000Y-83085000D03*
%TO.P,J2,15*%
%TO.N,Net-(J2-Pad15)*%
X143900000Y-78885000D03*
%TO.P,J2,14*%
%TO.N,+5V*%
X143900000Y-74685000D03*
%TO.P,J2,13*%
X143900000Y-70485000D03*
%TO.P,J2,12*%
%TO.N,+12V*%
X139700000Y-116685000D03*
%TO.P,J2,11*%
%TO.N,GND*%
X139700000Y-112485000D03*
%TO.P,J2,10*%
X139700000Y-108285000D03*
%TO.P,J2,9*%
X139700000Y-104085000D03*
%TO.P,J2,8*%
X139700000Y-99885000D03*
%TO.P,J2,7*%
X139700000Y-95685000D03*
%TO.P,J2,6*%
X139700000Y-91485000D03*
%TO.P,J2,5*%
%TO.N,+3V3*%
X139700000Y-87285000D03*
%TO.P,J2,4*%
X139700000Y-83085000D03*
%TO.P,J2,3*%
%TO.N,+5V*%
X139700000Y-78885000D03*
%TO.P,J2,1*%
%TA.AperFunction,ComponentPad*%
G36*
G01*
X138101100Y-69135000D02*
X141298900Y-69135000D01*
G75*
G02*
X141550000Y-69386100I0J-251100D01*
G01*
X141550000Y-71583900D01*
G75*
G02*
X141298900Y-71835000I-251100J0D01*
G01*
X138101100Y-71835000D01*
G75*
G02*
X137850000Y-71583900I0J251100D01*
G01*
X137850000Y-69386100D01*
G75*
G02*
X138101100Y-69135000I251100J0D01*
G01*
G37*
%TD.AperFunction*%
%TO.P,J2,2*%
X139700000Y-74685000D03*
%TD*%
D21*
%TO.P,J1,64*%
%TO.N,+12V*%
X88075000Y-41910000D03*
%TO.P,J1,63*%
X88075000Y-44450000D03*
%TO.P,J1,62*%
X88075000Y-46990000D03*
%TO.P,J1,61*%
X88075000Y-49530000D03*
%TO.P,J1,60*%
X88075000Y-52070000D03*
%TO.P,J1,59*%
X88075000Y-54610000D03*
%TO.P,J1,58*%
X88075000Y-57150000D03*
%TO.P,J1,57*%
X88075000Y-59690000D03*
%TO.P,J1,56*%
X88075000Y-62230000D03*
%TO.P,J1,55*%
X88075000Y-64770000D03*
%TO.P,J1,54*%
X88075000Y-67310000D03*
%TO.P,J1,53*%
X88075000Y-69850000D03*
%TO.P,J1,52*%
X88075000Y-72390000D03*
%TO.P,J1,51*%
%TO.N,GND*%
X88075000Y-74930000D03*
%TO.P,J1,50*%
X88075000Y-77470000D03*
%TO.P,J1,49*%
X88075000Y-80010000D03*
%TO.P,J1,48*%
X88075000Y-82550000D03*
%TO.P,J1,47*%
X88075000Y-85090000D03*
%TO.P,J1,46*%
X88075000Y-87630000D03*
%TO.P,J1,45*%
X88075000Y-90170000D03*
%TO.P,J1,44*%
X88075000Y-92710000D03*
%TO.P,J1,43*%
X88075000Y-95250000D03*
%TO.P,J1,42*%
X88075000Y-97790000D03*
%TO.P,J1,41*%
X88075000Y-100330000D03*
%TO.P,J1,40*%
X88075000Y-102870000D03*
%TO.P,J1,39*%
X88075000Y-105410000D03*
%TO.P,J1,38*%
%TO.N,/PS_INTERRUPT*%
X88075000Y-107950000D03*
%TO.P,J1,37*%
%TO.N,/+12VSB*%
X88075000Y-110490000D03*
%TO.P,J1,36*%
%TO.N,/~PRESENT*%
X88075000Y-113030000D03*
%TO.P,J1,35*%
%TO.N,/A3*%
X88075000Y-115570000D03*
%TO.P,J1,34*%
%TO.N,/IMONITOR*%
X88075000Y-118110000D03*
%TO.P,J1,33*%
%TO.N,/~PSON*%
X88075000Y-120650000D03*
D22*
%TO.P,J1,32*%
%TO.N,/SDA*%
X82805000Y-120650000D03*
%TO.P,J1,31*%
%TO.N,/SCL*%
X82805000Y-118110000D03*
%TO.P,J1,30*%
%TO.N,GND*%
X82805000Y-115570000D03*
%TO.P,J1,29*%
%TO.N,Net-(J1-Pad29)*%
X82805000Y-113030000D03*
%TO.P,J1,28*%
%TO.N,Net-(J1-Pad28)*%
X82805000Y-110490000D03*
%TO.P,J1,27*%
%TO.N,/ADDR*%
X82805000Y-107950000D03*
%TO.P,J1,26*%
%TO.N,GND*%
X82805000Y-105410000D03*
%TO.P,J1,25*%
X82805000Y-102870000D03*
%TO.P,J1,24*%
X82805000Y-100330000D03*
%TO.P,J1,23*%
X82805000Y-97790000D03*
%TO.P,J1,22*%
X82805000Y-95250000D03*
%TO.P,J1,21*%
X82805000Y-92710000D03*
%TO.P,J1,20*%
X82805000Y-90170000D03*
%TO.P,J1,19*%
X82805000Y-87630000D03*
%TO.P,J1,18*%
X82805000Y-85090000D03*
%TO.P,J1,17*%
X82805000Y-82550000D03*
%TO.P,J1,16*%
X82805000Y-80010000D03*
%TO.P,J1,15*%
X82805000Y-77470000D03*
%TO.P,J1,14*%
X82805000Y-74930000D03*
%TO.P,J1,13*%
%TO.N,+12V*%
X82805000Y-72390000D03*
%TO.P,J1,12*%
X82805000Y-69850000D03*
%TO.P,J1,11*%
X82805000Y-67310000D03*
%TO.P,J1,10*%
X82805000Y-64770000D03*
%TO.P,J1,9*%
X82805000Y-62230000D03*
%TO.P,J1,8*%
X82805000Y-59690000D03*
%TO.P,J1,7*%
X82805000Y-57150000D03*
%TO.P,J1,6*%
X82805000Y-54610000D03*
%TO.P,J1,5*%
X82805000Y-52070000D03*
%TO.P,J1,4*%
X82805000Y-49530000D03*
%TO.P,J1,3*%
X82805000Y-46990000D03*
%TO.P,J1,2*%
X82805000Y-44450000D03*
%TO.P,J1,32*%
%TO.N,/SDA*%
X84455000Y-120650000D03*
%TO.P,J1,31*%
%TO.N,/SCL*%
X84455000Y-118110000D03*
%TO.P,J1,30*%
%TO.N,GND*%
X84455000Y-115570000D03*
%TO.P,J1,29*%
%TO.N,Net-(J1-Pad29)*%
X84455000Y-113030000D03*
%TO.P,J1,28*%
%TO.N,Net-(J1-Pad28)*%
X84455000Y-110490000D03*
%TO.P,J1,27*%
%TO.N,/ADDR*%
X84455000Y-107950000D03*
%TO.P,J1,26*%
%TO.N,GND*%
X84455000Y-105410000D03*
%TO.P,J1,25*%
X84455000Y-102870000D03*
%TO.P,J1,24*%
X84455000Y-100330000D03*
%TO.P,J1,23*%
X84455000Y-97790000D03*
%TO.P,J1,22*%
X84455000Y-95250000D03*
%TO.P,J1,21*%
X84455000Y-92710000D03*
%TO.P,J1,20*%
X84455000Y-90170000D03*
%TO.P,J1,19*%
X84455000Y-87630000D03*
%TO.P,J1,18*%
X84455000Y-85090000D03*
%TO.P,J1,17*%
X84455000Y-82550000D03*
%TO.P,J1,16*%
X84455000Y-80010000D03*
%TO.P,J1,15*%
X84455000Y-77470000D03*
%TO.P,J1,14*%
X84455000Y-74930000D03*
%TO.P,J1,13*%
%TO.N,+12V*%
X84455000Y-72390000D03*
%TO.P,J1,12*%
X84455000Y-69850000D03*
%TO.P,J1,11*%
X84455000Y-67310000D03*
%TO.P,J1,10*%
X84455000Y-64770000D03*
%TO.P,J1,9*%
X84455000Y-62230000D03*
%TO.P,J1,8*%
X84455000Y-59690000D03*
%TO.P,J1,7*%
X84455000Y-57150000D03*
%TO.P,J1,6*%
X84455000Y-54610000D03*
%TO.P,J1,5*%
X84455000Y-52070000D03*
%TO.P,J1,4*%
X84455000Y-49530000D03*
%TO.P,J1,3*%
X84455000Y-46990000D03*
%TO.P,J1,2*%
X84455000Y-44450000D03*
%TO.P,J1,1*%
X82805000Y-41910000D03*
X84455000Y-41910000D03*
%TD*%
%TO.P,C2,2*%
%TO.N,GND*%
%TA.AperFunction,SMDPad,CuDef*%
G36*
G01*
X132113000Y-104021000D02*
X133063000Y-104021000D01*
G75*
G02*
X133313000Y-104271000I0J-250000D01*
G01*
X133313000Y-104771000D01*
G75*
G02*
X133063000Y-105021000I-250000J0D01*
G01*
X132113000Y-105021000D01*
G75*
G02*
X131863000Y-104771000I0J250000D01*
G01*
X131863000Y-104271000D01*
G75*
G02*
X132113000Y-104021000I250000J0D01*
G01*
G37*
%TD.AperFunction*%
%TO.P,C2,1*%
%TO.N,Net-(C2-Pad1)*%
%TA.AperFunction,SMDPad,CuDef*%
G36*
G01*
X132113000Y-102121000D02*
X133063000Y-102121000D01*
G75*
G02*
X133313000Y-102371000I0J-250000D01*
G01*
X133313000Y-102871000D01*
G75*
G02*
X133063000Y-103121000I-250000J0D01*
G01*
X132113000Y-103121000D01*
G75*
G02*
X131863000Y-102871000I0J250000D01*
G01*
X131863000Y-102371000D01*
G75*
G02*
X132113000Y-102121000I250000J0D01*
G01*
G37*
%TD.AperFunction*%
%TD*%
%TO.P,C1,2*%
%TO.N,GND*%
%TA.AperFunction,SMDPad,CuDef*%
G36*
G01*
X133063000Y-107058000D02*
X132113000Y-107058000D01*
G75*
G02*
X131863000Y-106808000I0J250000D01*
G01*
X131863000Y-106308000D01*
G75*
G02*
X132113000Y-106058000I250000J0D01*
G01*
X133063000Y-106058000D01*
G75*
G02*
X133313000Y-106308000I0J-250000D01*
G01*
X133313000Y-106808000D01*
G75*
G02*
X133063000Y-107058000I-250000J0D01*
G01*
G37*
%TD.AperFunction*%
%TO.P,C1,1*%
%TO.N,/~ATX_PSON*%
%TA.AperFunction,SMDPad,CuDef*%
G36*
G01*
X133063000Y-108958000D02*
X132113000Y-108958000D01*
G75*
G02*
X131863000Y-108708000I0J250000D01*
G01*
X131863000Y-108208000D01*
G75*
G02*
X132113000Y-107958000I250000J0D01*
G01*
X133063000Y-107958000D01*
G75*
G02*
X133313000Y-108208000I0J-250000D01*
G01*
X133313000Y-108708000D01*
G75*
G02*
X133063000Y-108958000I-250000J0D01*
G01*
G37*
%TD.AperFunction*%
%TD*%
D23*
%TO.N,GND*%
X123952000Y-71755000D03*
X123063000Y-71755000D03*
X122174000Y-71755000D03*
X123952000Y-70866000D03*
X122174000Y-70866000D03*
X123063000Y-70866000D03*
X123952000Y-69977000D03*
X123952000Y-69088000D03*
X123952000Y-68199000D03*
X123952000Y-67310000D03*
X122174000Y-67310000D03*
X122174000Y-68199000D03*
X122174000Y-69088000D03*
X122174000Y-69977000D03*
X107950000Y-110744000D03*
X107061000Y-110744000D03*
X106172000Y-110744000D03*
X105283000Y-110744000D03*
X104394000Y-110744000D03*
X103505000Y-110744000D03*
X102616000Y-110744000D03*
X102616000Y-108966000D03*
X103505000Y-108966000D03*
X104394000Y-108966000D03*
X105283000Y-108966000D03*
X106172000Y-108966000D03*
X107061000Y-108966000D03*
X107950000Y-108966000D03*
X107950000Y-109855000D03*
X107061000Y-109855000D03*
X106172000Y-109855000D03*
X105283000Y-109855000D03*
X104394000Y-109855000D03*
X103505000Y-109855000D03*
X102616000Y-109855000D03*
X123063000Y-67310000D03*
X123063000Y-68199000D03*
X123063000Y-69088000D03*
X123063000Y-69977000D03*
X89662000Y-119253000D03*
X108839000Y-83185000D03*
X110631498Y-78676456D03*
%TO.N,/~PSON*%
X97028000Y-84074000D03*
X112141000Y-115124998D03*
X120269000Y-107061000D03*
%TO.N,+12V*%
X99695000Y-101219000D03*
X98806000Y-101219000D03*
X97917000Y-101219000D03*
X97028000Y-101219000D03*
X96139000Y-101219000D03*
X99695000Y-99441000D03*
X98806000Y-99441000D03*
X97917000Y-99441000D03*
X97028000Y-99441000D03*
X96139000Y-99441000D03*
X96139000Y-100330000D03*
X97028000Y-100330000D03*
X97917000Y-100330000D03*
X98806000Y-100330000D03*
X99695000Y-100330000D03*
%TO.N,+5V*%
X111436000Y-84004000D03*
X129286000Y-99277000D03*
X120903994Y-83820000D03*
X111379000Y-93472000D03*
%TO.N,+3V3*%
X129917999Y-100202919D03*
X130302000Y-93853000D03*
X112268000Y-94361000D03*
%TO.N,/+5VSB*%
X117983000Y-98552000D03*
X117983000Y-99441000D03*
X117983000Y-100330000D03*
X117983000Y-101219000D03*
X117983000Y-102108000D03*
X116205000Y-102108000D03*
X116205000Y-101219000D03*
X116205000Y-100330000D03*
X116205000Y-99441000D03*
X116205000Y-98552000D03*
X117094000Y-98552000D03*
X117094000Y-102108000D03*
X117094000Y-101219000D03*
X117094000Y-100330000D03*
X117094000Y-99441000D03*
%TO.N,/~RESET*%
X102235000Y-86868000D03*
X102235000Y-80137000D03*
%TO.N,/PS_INTERRUPT*%
X97028000Y-77978000D03*
%TO.N,/~PRESENT*%
X97028000Y-81026000D03*
%TO.N,/SDA*%
X97028000Y-80010000D03*
%TO.N,/SCL*%
X97028000Y-78994000D03*
%TO.N,/~ATX_PSON*%
X123444004Y-105731000D03*
X103251000Y-86868000D03*
X106807000Y-77089000D03*
%TO.N,Net-(J101-PadB5)*%
X129060000Y-119860000D03*
%TO.N,/D+*%
X127508000Y-120904000D03*
X131116859Y-123899141D03*
%TO.N,Net-(J101-PadA5)*%
X132060000Y-120376000D03*
%TO.N,/SCK*%
X127635000Y-111506000D03*
%TO.N,/A2*%
X97028000Y-83058000D03*
%TO.N,/ATX_PWOK*%
X125857000Y-99568000D03*
X110617000Y-82550000D03*
X118872000Y-77343000D03*
%TO.N,/A1*%
X103759000Y-84836000D03*
%TO.N,/A3*%
X97028000Y-82042000D03*
%TO.N,/A6*%
X114808000Y-86995000D03*
X134620000Y-101092000D03*
X112268000Y-86995000D03*
%TO.N,/RXD*%
X120904000Y-116332000D03*
X119634000Y-113981000D03*
X100203000Y-86868000D03*
X100203000Y-78678000D03*
%TO.N,/TXD*%
X122301000Y-116332000D03*
X120396000Y-113157000D03*
X101219000Y-86868000D03*
X101219000Y-79378000D03*
%TD*%
D24*
%TO.N,GND*%
X129159000Y-41275000D02*
X129159000Y-63119000D01*
X109474000Y-41402000D02*
X109474000Y-62738000D01*
X105950000Y-103040000D02*
X102235000Y-106755000D01*
X105950000Y-92075000D02*
X105950000Y-103040000D01*
X113610000Y-100330000D02*
X113610000Y-104195000D01*
X113610000Y-104195000D02*
X107950000Y-109855000D01*
X102235000Y-109855000D02*
X102235000Y-106755000D01*
X107950000Y-109855000D02*
X102235000Y-109855000D01*
X102235000Y-112320000D02*
X102235000Y-109855000D01*
X131445000Y-85725000D02*
X131445000Y-86995000D01*
X131445000Y-86995000D02*
X129286000Y-89154000D01*
X120344000Y-89154000D02*
X116840000Y-85650000D01*
X129286000Y-89154000D02*
X120344000Y-89154000D01*
X123063000Y-65532000D02*
X123063000Y-66421000D01*
X123063000Y-66421000D02*
X123063000Y-67310000D01*
X123063000Y-67310000D02*
X123063000Y-68199000D01*
X123063000Y-68199000D02*
X123063000Y-69088000D01*
X123063000Y-69088000D02*
X123063000Y-69977000D01*
X123063000Y-69977000D02*
X123063000Y-70104000D01*
D25*
X127889000Y-108987000D02*
X127889000Y-108012000D01*
X127529000Y-109347000D02*
X127889000Y-108987000D01*
X126307232Y-109347000D02*
X127529000Y-109347000D01*
X126307232Y-109347000D02*
X125993990Y-109033758D01*
X127889000Y-107037000D02*
X127889000Y-108012000D01*
X125985011Y-108967011D02*
X125985011Y-105665011D01*
X125993990Y-108975990D02*
X125985011Y-108967011D01*
X125993990Y-109033758D02*
X125993990Y-108975990D01*
X124460000Y-104140000D02*
X124460000Y-103886000D01*
X125985011Y-105665011D02*
X124460000Y-104140000D01*
X132334000Y-106045000D02*
X132461000Y-105918000D01*
X128397000Y-106045000D02*
X132334000Y-106045000D01*
X127889000Y-108012000D02*
X127889000Y-106553000D01*
X132461000Y-105918000D02*
X132461000Y-104521000D01*
X127889000Y-106553000D02*
X128397000Y-106045000D01*
X132461000Y-106558000D02*
X132461000Y-105918000D01*
X130048000Y-121713000D02*
X132080000Y-121713000D01*
D24*
X123063000Y-69977000D02*
X123063000Y-71628000D01*
D26*
X126490000Y-118847000D02*
X126490000Y-123017000D01*
D27*
X138139000Y-114046000D02*
X139700000Y-112485000D01*
X135130000Y-117055000D02*
X138139000Y-114046000D01*
X135130000Y-118847000D02*
X135130000Y-117055000D01*
X135130000Y-118847000D02*
X135130000Y-123017000D01*
X138003000Y-123017000D02*
X138049000Y-123063000D01*
X135130000Y-123017000D02*
X138003000Y-123017000D01*
X110631498Y-78676500D02*
X111823500Y-78676500D01*
D26*
X90250000Y-119253000D02*
X90377000Y-119126000D01*
X89662000Y-119253000D02*
X90250000Y-119253000D01*
D25*
X135130000Y-118997000D02*
X135130000Y-118847000D01*
X132414000Y-121713000D02*
X135130000Y-118997000D01*
X132080000Y-121713000D02*
X132414000Y-121713000D01*
D26*
X116840000Y-86106000D02*
X116840000Y-85650000D01*
D24*
X105950000Y-84169000D02*
X111442500Y-78676500D01*
X105950000Y-92075000D02*
X105950000Y-84169000D01*
X116840000Y-73279000D02*
X116840000Y-72950000D01*
X111823500Y-78295500D02*
X116840000Y-73279000D01*
D27*
X134493000Y-104521000D02*
X135382000Y-103632000D01*
X132588000Y-104521000D02*
X134493000Y-104521000D01*
X139247000Y-103632000D02*
X139700000Y-104085000D01*
X135382000Y-103632000D02*
X139247000Y-103632000D01*
X132588000Y-104521000D02*
X132588000Y-106558000D01*
X134493000Y-114046000D02*
X138139000Y-114046000D01*
D26*
%TO.N,/~PSON*%
X88075000Y-120650000D02*
X92456000Y-120650000D01*
X93218000Y-119888000D02*
X93218000Y-84861868D01*
X92456000Y-120650000D02*
X93218000Y-119888000D01*
X93218000Y-84861868D02*
X93218000Y-84836000D01*
X93218000Y-84836000D02*
X93980000Y-84074000D01*
X93980000Y-84074000D02*
X97028000Y-84074000D01*
X101507000Y-123317000D02*
X108238000Y-116586000D01*
X100457000Y-123317000D02*
X101507000Y-123317000D01*
X108238000Y-116586000D02*
X109982000Y-116586000D01*
X109982000Y-116586000D02*
X110490000Y-116586000D01*
X110490000Y-116586000D02*
X110744000Y-116586000D01*
X112141000Y-115189000D02*
X112141000Y-115124998D01*
X110744000Y-116586000D02*
X112141000Y-115189000D01*
X124460000Y-107031000D02*
X120299000Y-107031000D01*
X120299000Y-107031000D02*
X120269000Y-107061000D01*
X92837000Y-121031000D02*
X92456000Y-120650000D01*
X98171000Y-121031000D02*
X92837000Y-121031000D01*
X100457000Y-123317000D02*
X98171000Y-121031000D01*
D25*
%TO.N,Net-(C2-Pad1)*%
X131694000Y-102621000D02*
X132588000Y-102621000D01*
X131064000Y-103251000D02*
X131694000Y-102621000D01*
X131064000Y-104140000D02*
X131064000Y-103251000D01*
X130683000Y-104521000D02*
X131064000Y-104140000D01*
X128373000Y-104521000D02*
X130683000Y-104521000D01*
X127889000Y-104037000D02*
X128373000Y-104521000D01*
X127889000Y-103062000D02*
X127889000Y-104037000D01*
X131318000Y-101095000D02*
X132715000Y-101095000D01*
X132588000Y-101222000D02*
X132715000Y-101095000D01*
X132588000Y-102621000D02*
X132588000Y-101222000D01*
D24*
%TO.N,+12V*%
X102235000Y-95260000D02*
X99050000Y-92075000D01*
X102235000Y-100255000D02*
X102235000Y-95260000D01*
X120510000Y-103645000D02*
X120510000Y-100330000D01*
X106680000Y-114300000D02*
X109855000Y-114300000D01*
X102235000Y-118745000D02*
X106680000Y-114300000D01*
X102235000Y-118820000D02*
X102235000Y-118745000D01*
X102235000Y-100255000D02*
X100405000Y-100255000D01*
X100405000Y-100255000D02*
X100330000Y-100330000D01*
X100330000Y-100330000D02*
X99695000Y-100330000D01*
X97028000Y-100330000D02*
X96139000Y-100330000D01*
X97917000Y-100330000D02*
X97028000Y-100330000D01*
X98806000Y-100330000D02*
X97917000Y-100330000D01*
X99695000Y-100330000D02*
X98806000Y-100330000D01*
X98806000Y-115391000D02*
X102235000Y-118820000D01*
X98806000Y-100330000D02*
X98806000Y-115391000D01*
D25*
X124460000Y-98632000D02*
X124460000Y-98679000D01*
D27*
X99060000Y-92065000D02*
X99050000Y-92075000D01*
X99060000Y-72985000D02*
X99060000Y-92065000D01*
D24*
X112141000Y-112014000D02*
X120510000Y-103645000D01*
X109855000Y-114300000D02*
X112141000Y-112014000D01*
D25*
X122208000Y-98632000D02*
X120510000Y-100330000D01*
X124460000Y-98632000D02*
X122208000Y-98632000D01*
X124460000Y-98119500D02*
X124460000Y-98632000D01*
X131064000Y-98044000D02*
X124535500Y-98044000D01*
X131318000Y-98298000D02*
X131064000Y-98044000D01*
X124535500Y-98044000D02*
X124460000Y-98119500D01*
X131318000Y-99695000D02*
X131318000Y-98298000D01*
D27*
X118106990Y-117979990D02*
X112141000Y-112014000D01*
X119059990Y-117979990D02*
X118106990Y-117979990D01*
X120500000Y-119420000D02*
X119059990Y-117979990D01*
D24*
%TO.N,+5V*%
X109750000Y-86540000D02*
X116840000Y-79450000D01*
X109750000Y-92075000D02*
X109750000Y-86540000D01*
X122725000Y-81818365D02*
X122725000Y-79450000D01*
X127245000Y-85725000D02*
X126631635Y-85725000D01*
X127245000Y-85725000D02*
X124587000Y-85725000D01*
X122725000Y-83863000D02*
X122725000Y-81818365D01*
X124587000Y-85725000D02*
X122725000Y-83863000D01*
X139700000Y-74685000D02*
X139691000Y-74685000D01*
X139691000Y-74685000D02*
X136144000Y-78232000D01*
X123943000Y-78232000D02*
X122725000Y-79450000D01*
X127245000Y-77733000D02*
X126746000Y-78232000D01*
X127245000Y-74930000D02*
X127245000Y-77733000D01*
X126746000Y-78232000D02*
X123943000Y-78232000D01*
X136144000Y-78232000D02*
X126746000Y-78232000D01*
X136797000Y-78885000D02*
X136144000Y-78232000D01*
X139700000Y-78885000D02*
X136797000Y-78885000D01*
X143900000Y-74685000D02*
X139700000Y-74685000D01*
X139700000Y-74685000D02*
X139700000Y-70485000D01*
X143900000Y-70485000D02*
X143900000Y-74685000D01*
X139700000Y-74685000D02*
X143900000Y-70485000D01*
X143900000Y-70485000D02*
X139700000Y-70485000D01*
X139700000Y-78885000D02*
X139700000Y-78232000D01*
X142231000Y-74685000D02*
X139700000Y-77216000D01*
X143900000Y-74685000D02*
X142231000Y-74685000D01*
X139700000Y-77216000D02*
X139700000Y-78232000D01*
X139700000Y-74685000D02*
X139700000Y-77216000D01*
D25*
X129159000Y-101426000D02*
X129159000Y-103062000D01*
X128444000Y-100711000D02*
X129159000Y-101426000D01*
D24*
X116840000Y-79450000D02*
X120321000Y-79450000D01*
X120321000Y-79450000D02*
X122725000Y-79450000D01*
D27*
X145678000Y-74685000D02*
X143900000Y-74685000D01*
X147447000Y-76454000D02*
X145678000Y-74685000D01*
D25*
X110131000Y-92456000D02*
X109750000Y-92075000D01*
X109750000Y-92075000D02*
X109750000Y-93323000D01*
D27*
X147447000Y-110490000D02*
X147447000Y-76454000D01*
X147447000Y-119365000D02*
X147447000Y-110490000D01*
D26*
X128444000Y-100711000D02*
X128444000Y-100029000D01*
X128444000Y-100029000D02*
X129286000Y-99187000D01*
X129286000Y-99187000D02*
X129286000Y-99277000D01*
X122725000Y-83863000D02*
X120946994Y-83863000D01*
X109982000Y-92075000D02*
X109750000Y-92075000D01*
X111379000Y-93472000D02*
X109982000Y-92075000D01*
X138303000Y-110490000D02*
X147447000Y-110490000D01*
X135897001Y-112895999D02*
X138303000Y-110490000D01*
X133738001Y-112895999D02*
X135897001Y-112895999D01*
X133223000Y-113411000D02*
X133738001Y-112895999D01*
X132461000Y-115443000D02*
X133223000Y-114681000D01*
X133223000Y-114681000D02*
X133223000Y-113411000D01*
X130810000Y-115443000D02*
X132461000Y-115443000D01*
X129413000Y-114046000D02*
X130810000Y-115443000D01*
D24*
%TO.N,+3V3*%
X109810000Y-100330000D02*
X109810000Y-97962000D01*
X112964999Y-96025001D02*
X116840000Y-92150000D01*
X111746999Y-96025001D02*
X112964999Y-96025001D01*
X109810000Y-97962000D02*
X111746999Y-96025001D01*
D28*
X136743000Y-87285000D02*
X139700000Y-87285000D01*
X139700000Y-87285000D02*
X143900000Y-87285000D01*
D24*
X143900000Y-87285000D02*
X143900000Y-83085000D01*
X143900000Y-83085000D02*
X139700000Y-83085000D01*
D28*
X139700000Y-87285000D02*
X143900000Y-83085000D01*
D24*
X139700000Y-84328000D02*
X136743000Y-87285000D01*
X139700000Y-83085000D02*
X139700000Y-84328000D01*
X117273000Y-92583000D02*
X116840000Y-92150000D01*
X131445000Y-92583000D02*
X117273000Y-92583000D01*
X136743000Y-87285000D02*
X131445000Y-92583000D01*
D25*
X130429000Y-93599000D02*
X131445000Y-92583000D01*
X115685500Y-90995500D02*
X116840000Y-92150000D01*
X109810000Y-97872000D02*
X109810000Y-97962000D01*
X130429000Y-103062000D02*
X130429000Y-100780315D01*
D26*
X129920919Y-100202919D02*
X129917999Y-100202919D01*
X130429000Y-100711000D02*
X129920919Y-100202919D01*
X130429000Y-100780315D02*
X130429000Y-100711000D01*
X112268000Y-95328002D02*
X112964999Y-96025001D01*
X112268000Y-94361000D02*
X112268000Y-95328002D01*
D25*
%TO.N,/+5VSB*%
X143719000Y-91485000D02*
X143900000Y-91485000D01*
D24*
X117094000Y-102108000D02*
X117094000Y-97028000D01*
X117983000Y-96139000D02*
X132969000Y-96139000D01*
X132969000Y-96139000D02*
X135001000Y-94107000D01*
D29*
X143900000Y-91485000D02*
X143846000Y-91485000D01*
D27*
X143900000Y-91485000D02*
X143900000Y-91385500D01*
X143900000Y-91485000D02*
X141849990Y-89434990D01*
X141795500Y-93599000D02*
X135509000Y-93599000D01*
X143900000Y-91485000D02*
X143900000Y-91494500D01*
X143900000Y-91494500D02*
X141795500Y-93599000D01*
X135509000Y-93599000D02*
X135001000Y-94107000D01*
X132969000Y-94816849D02*
X132969000Y-96139000D01*
X141849990Y-89434990D02*
X138350859Y-89434990D01*
X135001000Y-94107000D02*
X135572500Y-94107000D01*
X136022675Y-93656825D02*
X136022675Y-91763175D01*
X135572500Y-94107000D02*
X136022675Y-93656825D01*
X136022675Y-91763175D02*
X132969000Y-94816849D01*
X138350859Y-89434990D02*
X136022675Y-91763175D01*
D25*
X132715000Y-96393000D02*
X132969000Y-96139000D01*
X132715000Y-99695000D02*
X132715000Y-96393000D01*
D27*
X135255000Y-98425000D02*
X132969000Y-96139000D01*
X135382000Y-98425000D02*
X135255000Y-98425000D01*
D24*
X117094000Y-97028000D02*
X117983000Y-96139000D01*
D26*
%TO.N,/~RESET*%
X102235000Y-86868000D02*
X102235000Y-80264000D01*
X102235000Y-80264000D02*
X102235000Y-80137000D01*
%TO.N,/PS_INTERRUPT*%
X90805000Y-82677000D02*
X90805000Y-106553000D01*
X95504000Y-77978000D02*
X90805000Y-82677000D01*
X90805000Y-106553000D02*
X89408000Y-107950000D01*
X97028000Y-77978000D02*
X95504000Y-77978000D01*
X89408000Y-107950000D02*
X88075000Y-107950000D01*
%TO.N,/~PRESENT*%
X89315000Y-113030000D02*
X88075000Y-113030000D01*
X91948000Y-110397000D02*
X89315000Y-113030000D01*
X92005033Y-109474667D02*
X91948000Y-109531700D01*
X92005033Y-83762967D02*
X92005033Y-109474667D01*
X94742000Y-81026000D02*
X92005033Y-83762967D01*
X97028000Y-81026000D02*
X94742000Y-81026000D01*
X91948000Y-109531700D02*
X91948000Y-110397000D01*
%TO.N,/IMONITOR*%
X88837000Y-117348000D02*
X88075000Y-118110000D01*
X90377000Y-117348000D02*
X88837000Y-117348000D01*
%TO.N,/SDA*%
X87122000Y-123317000D02*
X92837000Y-123317000D01*
X84455000Y-120650000D02*
X87122000Y-123317000D01*
X86360000Y-118745000D02*
X84455000Y-120650000D01*
X89154000Y-111760000D02*
X87122000Y-111760000D01*
X91605022Y-109308978D02*
X89154000Y-111760000D01*
X94938315Y-80010000D02*
X91605022Y-83343293D01*
X86360000Y-112522000D02*
X86360000Y-118745000D01*
X97028000Y-80010000D02*
X94938315Y-80010000D01*
X87122000Y-111760000D02*
X86360000Y-112522000D01*
X91605022Y-83343293D02*
X91605022Y-109308978D01*
%TO.N,/SCL*%
X85725000Y-110109000D02*
X85725000Y-116840000D01*
X91205011Y-106718689D02*
X88703700Y-109220000D01*
X91205011Y-83038989D02*
X91205011Y-106718689D01*
X97028000Y-78994000D02*
X95250000Y-78994000D01*
X85725000Y-116840000D02*
X84455000Y-118110000D01*
X95250000Y-78994000D02*
X91205011Y-83038989D01*
X86614000Y-109220000D02*
X85725000Y-110109000D01*
X88703700Y-109220000D02*
X86614000Y-109220000D01*
D25*
%TO.N,/~ATX_PSON*%
X130810000Y-108393000D02*
X130429000Y-108012000D01*
X130810000Y-108458000D02*
X130810000Y-108393000D01*
X132461000Y-108458000D02*
X130810000Y-108458000D01*
X124995002Y-105731000D02*
X125535001Y-106270999D01*
X124460000Y-105731000D02*
X124995002Y-105731000D01*
X125535001Y-109211179D02*
X126120832Y-109797010D01*
X125535001Y-106270999D02*
X125535001Y-109211179D01*
X127750758Y-109797010D02*
X128524000Y-109023768D01*
X126120832Y-109797010D02*
X127750758Y-109797010D01*
X128524000Y-107315000D02*
X128533990Y-107305010D01*
X128524000Y-109023768D02*
X128524000Y-107315000D01*
X128524000Y-107315000D02*
X128524000Y-106807000D01*
X128524000Y-106807000D02*
X128778000Y-106553000D01*
X130429000Y-107037000D02*
X130429000Y-108012000D01*
X129945000Y-106553000D02*
X130429000Y-107037000D01*
X128778000Y-106553000D02*
X129945000Y-106553000D01*
X146177000Y-105664000D02*
X146177000Y-102162000D01*
X145415000Y-106426000D02*
X146177000Y-105664000D01*
X134620000Y-106426000D02*
X145415000Y-106426000D01*
X146177000Y-102162000D02*
X143900000Y-99885000D01*
X132588000Y-108458000D02*
X134620000Y-106426000D01*
D26*
X124460000Y-105731000D02*
X123444004Y-105731000D01*
X104013000Y-77089000D02*
X106807000Y-77089000D01*
X102935001Y-78166999D02*
X104013000Y-77089000D01*
X102935001Y-86552001D02*
X102935001Y-78166999D01*
X103251000Y-86868000D02*
X102935001Y-86552001D01*
D27*
%TO.N,/VBUS*%
X147447000Y-121285000D02*
X145669000Y-123063000D01*
X147447000Y-120665000D02*
X147447000Y-121285000D01*
D25*
%TO.N,Net-(J101-PadB5)*%
X130020000Y-119860000D02*
X130048000Y-119888000D01*
X129060000Y-119860000D02*
X130020000Y-119860000D01*
%TO.N,/D+*%
X130503141Y-123899141D02*
X127508000Y-120904000D01*
X131116859Y-123899141D02*
X130503141Y-123899141D01*
D26*
%TO.N,/SCK*%
X127635000Y-112141000D02*
X127635000Y-111506000D01*
X130683000Y-112776000D02*
X128270000Y-112776000D01*
X128270000Y-112776000D02*
X127635000Y-112141000D01*
X131953000Y-111506000D02*
X130683000Y-112776000D01*
D25*
%TO.N,/~FPO*%
X129159000Y-108987000D02*
X129159000Y-108012000D01*
X124460000Y-108772588D02*
X124460000Y-108331000D01*
X125934431Y-110247019D02*
X124460000Y-108772588D01*
X127937158Y-110247020D02*
X125934431Y-110247019D01*
X129159000Y-109025178D02*
X127937158Y-110247020D01*
X129159000Y-108012000D02*
X129159000Y-109025178D01*
D26*
%TO.N,/A2*%
X92202000Y-117348000D02*
X92202000Y-119126000D01*
X92805055Y-111918945D02*
X92805055Y-84486945D01*
X92202000Y-112522000D02*
X92805055Y-111918945D01*
X92202000Y-117348000D02*
X92202000Y-112522000D01*
X92805055Y-84486945D02*
X93472000Y-83820000D01*
X93472000Y-83820000D02*
X94234000Y-83058000D01*
X94234000Y-83058000D02*
X97028000Y-83058000D01*
D25*
%TO.N,/ATX_PWOK*%
X126619000Y-100711000D02*
X126619000Y-103062000D01*
D26*
X126619000Y-100711000D02*
X126619000Y-100330000D01*
X126619000Y-100330000D02*
X125857000Y-99568000D01*
X110617000Y-82395166D02*
X115669166Y-77343000D01*
X110617000Y-82550000D02*
X110617000Y-82395166D01*
X115669166Y-77343000D02*
X118872000Y-77343000D01*
D25*
X138138424Y-102777755D02*
X138506189Y-102409990D01*
X133858000Y-102108000D02*
X134527755Y-102777755D01*
X134527755Y-102777755D02*
X138138424Y-102777755D01*
X133858000Y-100838000D02*
X133858000Y-102108000D01*
X133489999Y-100469999D02*
X133858000Y-100838000D01*
X130857997Y-100469999D02*
X133489999Y-100469999D01*
X142224990Y-102409990D02*
X143900000Y-104085000D01*
X130642999Y-100255001D02*
X130857997Y-100469999D01*
X130302000Y-98552000D02*
X130642999Y-98892999D01*
X138506189Y-102409990D02*
X142224990Y-102409990D01*
X130642999Y-98892999D02*
X130642999Y-100255001D01*
X128778000Y-98552000D02*
X130302000Y-98552000D01*
X126619000Y-100711000D02*
X128778000Y-98552000D01*
%TO.N,Net-(R3-Pad2)*%
X124460000Y-100457000D02*
X124460000Y-102061000D01*
X124460000Y-102235000D02*
X124460000Y-102061000D01*
X125485010Y-103260010D02*
X124460000Y-102235000D01*
X125485010Y-104528600D02*
X125485010Y-103260010D01*
X126619000Y-105662590D02*
X125485010Y-104528600D01*
X126619000Y-108012000D02*
X126619000Y-105662590D01*
D26*
%TO.N,/A1*%
X102743000Y-88392000D02*
X101219000Y-88392000D01*
X104140000Y-85217000D02*
X103759000Y-84836000D01*
X104140000Y-87122000D02*
X104140000Y-85217000D01*
X102870000Y-88392000D02*
X104140000Y-87122000D01*
X102743000Y-88392000D02*
X102870000Y-88392000D01*
%TO.N,/A3*%
X88075000Y-115570000D02*
X88265000Y-115570000D01*
X88265000Y-115570000D02*
X92405044Y-111429956D01*
X92405044Y-111429956D02*
X92405044Y-84124956D01*
X97028000Y-82042000D02*
X94488000Y-82042000D01*
X92405044Y-84124956D02*
X94488000Y-82042000D01*
%TO.N,/A6*%
X135382000Y-100250000D02*
X135382000Y-101807000D01*
X135335000Y-101807000D02*
X134620000Y-101092000D01*
X135382000Y-101807000D02*
X135335000Y-101807000D01*
X134620000Y-101012000D02*
X135382000Y-100250000D01*
X134620000Y-101092000D02*
X134620000Y-101012000D01*
X114808000Y-86995000D02*
X112268000Y-86995000D01*
%TO.N,/RXD*%
X120904000Y-116332000D02*
X120904000Y-115316000D01*
X120904000Y-115316000D02*
X119634000Y-114046000D01*
X119634000Y-114046000D02*
X119634000Y-113981000D01*
X100203000Y-86868000D02*
X100203000Y-78867000D01*
X100203000Y-78867000D02*
X100203000Y-78678000D01*
%TO.N,/TXD*%
X122301000Y-116332000D02*
X122301000Y-115062000D01*
X122301000Y-115062000D02*
X120396000Y-113157000D01*
X101219000Y-86868000D02*
X101219000Y-79629000D01*
X101219000Y-79629000D02*
X101219000Y-79378000D01*
D27*
%TO.N,Net-(R10-Pad2)*%
X112418500Y-120211500D02*
X113210000Y-119420000D01*
X112418500Y-123190000D02*
X112418500Y-120211500D01*
%TO.N,Net-(R8-Pad2)*%
X109750000Y-71523000D02*
X109750000Y-72985000D01*
X108989500Y-72224500D02*
X109750000Y-72985000D01*
X108989500Y-69215000D02*
X108989500Y-72224500D01*
%TO.N,Net-(R8-Pad1)*%
X106350000Y-72985000D02*
X106350000Y-74600000D01*
X106350000Y-72985000D02*
X106350000Y-74395002D01*
X107164500Y-72170500D02*
X106350000Y-72985000D01*
X107164500Y-69215000D02*
X107164500Y-72170500D01*
%TO.N,Net-(R10-Pad1)*%
X109810000Y-120830002D02*
X109810000Y-119420000D01*
X110593500Y-120203500D02*
X109810000Y-119420000D01*
X110593500Y-123190000D02*
X110593500Y-120203500D01*
%TD*%
D30*
%TO.N,+12V*%
X89340189Y-38244376D02*
X89503850Y-38294022D01*
X89654672Y-38374638D01*
X89786870Y-38483130D01*
X89895362Y-38615328D01*
X89975978Y-38766150D01*
X90025624Y-38929811D01*
X90043000Y-39106234D01*
X90043000Y-72399766D01*
X90025624Y-72576189D01*
X89975978Y-72739850D01*
X89895362Y-72890672D01*
X89786870Y-73022870D01*
X89654672Y-73131362D01*
X89503850Y-73211978D01*
X89340189Y-73261624D01*
X89163766Y-73279000D01*
X82286234Y-73279000D01*
X82109811Y-73261624D01*
X81946150Y-73211978D01*
X81795328Y-73131362D01*
X81663130Y-73022870D01*
X81554638Y-72890672D01*
X81474022Y-72739850D01*
X81424376Y-72576189D01*
X81407000Y-72399766D01*
X81407000Y-39106234D01*
X81424376Y-38929811D01*
X81474022Y-38766150D01*
X81554638Y-38615328D01*
X81663130Y-38483130D01*
X81795328Y-38374638D01*
X81946150Y-38294022D01*
X82109811Y-38244376D01*
X82286234Y-38227000D01*
X89163766Y-38227000D01*
X89340189Y-38244376D01*
%TA.AperFunction,Conductor*%
D31*
G36*
X89340189Y-38244376D02*
G01*
X89503850Y-38294022D01*
X89654672Y-38374638D01*
X89786870Y-38483130D01*
X89895362Y-38615328D01*
X89975978Y-38766150D01*
X90025624Y-38929811D01*
X90043000Y-39106234D01*
X90043000Y-72399766D01*
X90025624Y-72576189D01*
X89975978Y-72739850D01*
X89895362Y-72890672D01*
X89786870Y-73022870D01*
X89654672Y-73131362D01*
X89503850Y-73211978D01*
X89340189Y-73261624D01*
X89163766Y-73279000D01*
X82286234Y-73279000D01*
X82109811Y-73261624D01*
X81946150Y-73211978D01*
X81795328Y-73131362D01*
X81663130Y-73022870D01*
X81554638Y-72890672D01*
X81474022Y-72739850D01*
X81424376Y-72576189D01*
X81407000Y-72399766D01*
X81407000Y-39106234D01*
X81424376Y-38929811D01*
X81474022Y-38766150D01*
X81554638Y-38615328D01*
X81663130Y-38483130D01*
X81795328Y-38374638D01*
X81946150Y-38294022D01*
X82109811Y-38244376D01*
X82286234Y-38227000D01*
X89163766Y-38227000D01*
X89340189Y-38244376D01*
G37*
%TD.AperFunction*%
%TD*%
D30*
%TO.N,GND*%
X119563711Y-107639816D02*
X119690184Y-107766289D01*
X119838901Y-107865659D01*
X120004146Y-107934106D01*
X120179570Y-107969000D01*
X120358430Y-107969000D01*
X120533854Y-107934106D01*
X120699099Y-107865659D01*
X120847816Y-107766289D01*
X120974289Y-107639816D01*
X120974834Y-107639000D01*
X123211904Y-107639000D01*
X123217060Y-107655998D01*
X123209350Y-107681415D01*
X123199542Y-107781000D01*
X123199542Y-108331000D01*
X123201950Y-108355449D01*
X123201950Y-108380009D01*
X123211758Y-108479594D01*
X123230880Y-108575727D01*
X123259927Y-108671483D01*
X123297436Y-108762039D01*
X123344609Y-108850294D01*
X123399065Y-108931793D01*
X123462547Y-109009145D01*
X123531855Y-109078453D01*
X123609207Y-109141935D01*
X123690706Y-109196391D01*
X123778961Y-109243564D01*
X123869517Y-109281073D01*
X123965273Y-109310120D01*
X124061406Y-109329242D01*
X124128017Y-109335802D01*
X125464851Y-110672636D01*
X125484667Y-110696782D01*
X125508813Y-110716598D01*
X125508814Y-110716599D01*
X125581054Y-110775885D01*
X125691019Y-110834663D01*
X125810341Y-110870858D01*
X125934430Y-110883081D01*
X125965525Y-110880018D01*
X126976876Y-110880019D01*
X126929711Y-110927184D01*
X126830341Y-111075901D01*
X126761894Y-111241146D01*
X126727000Y-111416570D01*
X126727000Y-111595430D01*
X126761894Y-111770854D01*
X126830341Y-111936099D01*
X126929711Y-112084816D01*
X127028229Y-112183334D01*
X127035798Y-112260188D01*
X127070564Y-112374796D01*
X127127021Y-112480420D01*
X127202999Y-112573001D01*
X127226202Y-112592043D01*
X127818961Y-113184803D01*
X127837999Y-113208001D01*
X127905987Y-113263797D01*
X127930579Y-113283979D01*
X128036203Y-113340436D01*
X128150811Y-113375202D01*
X128223197Y-113382331D01*
X128209556Y-113402746D01*
X128107187Y-113649886D01*
X128055000Y-113912249D01*
X128055000Y-114179751D01*
X128107187Y-114442114D01*
X128209556Y-114689254D01*
X128358172Y-114911675D01*
X128547325Y-115100828D01*
X128769746Y-115249444D01*
X129016886Y-115351813D01*
X129279249Y-115404000D01*
X129546751Y-115404000D01*
X129809114Y-115351813D01*
X129844368Y-115337210D01*
X130358961Y-115851803D01*
X130377999Y-115875001D01*
X130470579Y-115950979D01*
X130576203Y-116007436D01*
X130660470Y-116032998D01*
X130690811Y-116042202D01*
X130809999Y-116053941D01*
X130839860Y-116051000D01*
X132431140Y-116051000D01*
X132461000Y-116053941D01*
X132490860Y-116051000D01*
X132490861Y-116051000D01*
X132580189Y-116042202D01*
X132694797Y-116007436D01*
X132800421Y-115950979D01*
X132893001Y-115875001D01*
X132912043Y-115851798D01*
X133631804Y-115132038D01*
X133655001Y-115113001D01*
X133730979Y-115020421D01*
X133787436Y-114914797D01*
X133822202Y-114800189D01*
X133831000Y-114710861D01*
X133831000Y-114710860D01*
X133833941Y-114681000D01*
X133831000Y-114651140D01*
X133831000Y-113662841D01*
X133989843Y-113503999D01*
X135867141Y-113503999D01*
X135897001Y-113506940D01*
X135926861Y-113503999D01*
X135926862Y-113503999D01*
X136016190Y-113495201D01*
X136130798Y-113460435D01*
X136236422Y-113403978D01*
X136329002Y-113328000D01*
X136348044Y-113304797D01*
X138554842Y-111098000D01*
X146439001Y-111098000D01*
X146439000Y-118699706D01*
X146386065Y-118764207D01*
X146331609Y-118845706D01*
X146284436Y-118933961D01*
X146246927Y-119024517D01*
X146217880Y-119120273D01*
X146198758Y-119216406D01*
X146188950Y-119315991D01*
X146188950Y-119340551D01*
X146186542Y-119365000D01*
X146186542Y-119865000D01*
X146196350Y-119964585D01*
X146211643Y-120015000D01*
X146196350Y-120065415D01*
X146186542Y-120165000D01*
X146186542Y-120665000D01*
X146188950Y-120689449D01*
X146188950Y-120714009D01*
X146198758Y-120813594D01*
X146217880Y-120909727D01*
X146246927Y-121005483D01*
X146262762Y-121043711D01*
X145603930Y-121702543D01*
X144819000Y-121702543D01*
X144719415Y-121712351D01*
X144623657Y-121741399D01*
X144535405Y-121788571D01*
X144458052Y-121852052D01*
X144394571Y-121929405D01*
X144347399Y-122017657D01*
X144318351Y-122113415D01*
X144308543Y-122213000D01*
X144308543Y-122383975D01*
X144183828Y-122197325D01*
X143994675Y-122008172D01*
X143772254Y-121859556D01*
X143525114Y-121757187D01*
X143262751Y-121705000D01*
X142995249Y-121705000D01*
X142732886Y-121757187D01*
X142485746Y-121859556D01*
X142263325Y-122008172D01*
X142074172Y-122197325D01*
X141925556Y-122419746D01*
X141859000Y-122580426D01*
X141792444Y-122419746D01*
X141643828Y-122197325D01*
X141454675Y-122008172D01*
X141232254Y-121859556D01*
X140985114Y-121757187D01*
X140722751Y-121705000D01*
X140455249Y-121705000D01*
X140192886Y-121757187D01*
X139945746Y-121859556D01*
X139723325Y-122008172D01*
X139534172Y-122197325D01*
X139385556Y-122419746D01*
X139283187Y-122666886D01*
X139231000Y-122929249D01*
X139231000Y-123196751D01*
X139283187Y-123459114D01*
X139385556Y-123706254D01*
X139534172Y-123928675D01*
X139723325Y-124117828D01*
X139945746Y-124266444D01*
X140192886Y-124368813D01*
X140455249Y-124421000D01*
X140722751Y-124421000D01*
X140985114Y-124368813D01*
X141232254Y-124266444D01*
X141454675Y-124117828D01*
X141643828Y-123928675D01*
X141792444Y-123706254D01*
X141859000Y-123545574D01*
X141925556Y-123706254D01*
X142074172Y-123928675D01*
X142263325Y-124117828D01*
X142485746Y-124266444D01*
X142732886Y-124368813D01*
X142995249Y-124421000D01*
X143262751Y-124421000D01*
X143525114Y-124368813D01*
X143772254Y-124266444D01*
X143994675Y-124117828D01*
X144183828Y-123928675D01*
X144308543Y-123742025D01*
X144308543Y-123913000D01*
X144318351Y-124012585D01*
X144347399Y-124108343D01*
X144394571Y-124196595D01*
X144458052Y-124273948D01*
X144535405Y-124337429D01*
X144623657Y-124384601D01*
X144719415Y-124413649D01*
X144819000Y-124423457D01*
X146519000Y-124423457D01*
X146618585Y-124413649D01*
X146714343Y-124384601D01*
X146802595Y-124337429D01*
X146879948Y-124273948D01*
X146943429Y-124196595D01*
X146990601Y-124108343D01*
X147019649Y-124012585D01*
X147029457Y-123913000D01*
X147029457Y-123128070D01*
X148057001Y-122100526D01*
X148057001Y-124457986D01*
X147971639Y-124562000D01*
X131738105Y-124562000D01*
X131822148Y-124477957D01*
X131921518Y-124329240D01*
X131989965Y-124163995D01*
X132024859Y-123988571D01*
X132024859Y-123809711D01*
X131989965Y-123634287D01*
X131921518Y-123469042D01*
X131822148Y-123320325D01*
X131695675Y-123193852D01*
X131546958Y-123094482D01*
X131381713Y-123026035D01*
X131206289Y-122991141D01*
X131027429Y-122991141D01*
X130852005Y-123026035D01*
X130686760Y-123094482D01*
X130630963Y-123131765D01*
X128416000Y-120916803D01*
X128416000Y-120814570D01*
X128381106Y-120639146D01*
X128312659Y-120473901D01*
X128213289Y-120325184D01*
X128086816Y-120198711D01*
X127991466Y-120135000D01*
X127999581Y-120135000D01*
X128155685Y-120103949D01*
X128180677Y-120093597D01*
X128186894Y-120124854D01*
X128255341Y-120290099D01*
X128354711Y-120438816D01*
X128481184Y-120565289D01*
X128629901Y-120664659D01*
X128795146Y-120733106D01*
X128970570Y-120768000D01*
X129149430Y-120768000D01*
X129155911Y-120766711D01*
X129175512Y-120782797D01*
X129306984Y-120853071D01*
X129449641Y-120896345D01*
X129597998Y-120910957D01*
X130498002Y-120910957D01*
X130646359Y-120896345D01*
X130789016Y-120853071D01*
X130920488Y-120782797D01*
X131035725Y-120688225D01*
X131064000Y-120653772D01*
X131092275Y-120688225D01*
X131207512Y-120782797D01*
X131257694Y-120809620D01*
X131354711Y-120954816D01*
X131481184Y-121081289D01*
X131629901Y-121180659D01*
X131795146Y-121249106D01*
X131970570Y-121284000D01*
X132149430Y-121284000D01*
X132324854Y-121249106D01*
X132490099Y-121180659D01*
X132638816Y-121081289D01*
X132765289Y-120954816D01*
X132840083Y-120842879D01*
X132952488Y-120782797D01*
X133067725Y-120688225D01*
X133162297Y-120572988D01*
X133232571Y-120441516D01*
X133275845Y-120298859D01*
X133290457Y-120150502D01*
X133290457Y-120025126D01*
X133317268Y-120043041D01*
X133464315Y-120103949D01*
X133620419Y-120135000D01*
X133779581Y-120135000D01*
X133935685Y-120103949D01*
X134082732Y-120043041D01*
X134215070Y-119954615D01*
X134327615Y-119842070D01*
X134416041Y-119709732D01*
X134476949Y-119562685D01*
X134508000Y-119406581D01*
X134508000Y-119247419D01*
X134476949Y-119091315D01*
X134416041Y-118944268D01*
X134327615Y-118811930D01*
X134215070Y-118699385D01*
X134082732Y-118610959D01*
X133935685Y-118550051D01*
X133779581Y-118519000D01*
X133620419Y-118519000D01*
X133464315Y-118550051D01*
X133317268Y-118610959D01*
X133184930Y-118699385D01*
X133072385Y-118811930D01*
X132983959Y-118944268D01*
X132960848Y-119000064D01*
X132952488Y-118993203D01*
X132821016Y-118922929D01*
X132678359Y-118879655D01*
X132530002Y-118865043D01*
X131629998Y-118865043D01*
X131481641Y-118879655D01*
X131338984Y-118922929D01*
X131207512Y-118993203D01*
X131092275Y-119087775D01*
X131064000Y-119122228D01*
X131035725Y-119087775D01*
X130920488Y-118993203D01*
X130789016Y-118922929D01*
X130646359Y-118879655D01*
X130498002Y-118865043D01*
X129597998Y-118865043D01*
X129449641Y-118879655D01*
X129306984Y-118922929D01*
X129224617Y-118966956D01*
X129149430Y-118952000D01*
X128970570Y-118952000D01*
X128795146Y-118986894D01*
X128674412Y-119036904D01*
X128636041Y-118944268D01*
X128547615Y-118811930D01*
X128435070Y-118699385D01*
X128302732Y-118610959D01*
X128155685Y-118550051D01*
X127999581Y-118519000D01*
X127840419Y-118519000D01*
X127684315Y-118550051D01*
X127537268Y-118610959D01*
X127404930Y-118699385D01*
X127292385Y-118811930D01*
X127203959Y-118944268D01*
X127143051Y-119091315D01*
X127112000Y-119247419D01*
X127112000Y-119406581D01*
X127143051Y-119562685D01*
X127203959Y-119709732D01*
X127292385Y-119842070D01*
X127404930Y-119954615D01*
X127466867Y-119996000D01*
X127418570Y-119996000D01*
X127243146Y-120030894D01*
X127077901Y-120099341D01*
X126929184Y-120198711D01*
X126802711Y-120325184D01*
X126703341Y-120473901D01*
X126634894Y-120639146D01*
X126600000Y-120814570D01*
X126600000Y-120993430D01*
X126634894Y-121168854D01*
X126703341Y-121334099D01*
X126802711Y-121482816D01*
X126929184Y-121609289D01*
X127077901Y-121708659D01*
X127243146Y-121777106D01*
X127418570Y-121812000D01*
X127520803Y-121812000D01*
X130033561Y-124324759D01*
X130053377Y-124348905D01*
X130077523Y-124368721D01*
X130077524Y-124368722D01*
X130141226Y-124421000D01*
X130149764Y-124428007D01*
X130259731Y-124486786D01*
X130379051Y-124522981D01*
X130465066Y-124531453D01*
X130495613Y-124562000D01*
X101626455Y-124562000D01*
X101667948Y-124527948D01*
X101731429Y-124450595D01*
X101778601Y-124362343D01*
X101807649Y-124266585D01*
X101817457Y-124167000D01*
X101817457Y-123840461D01*
X101846421Y-123824979D01*
X101939001Y-123749001D01*
X101958044Y-123725797D01*
X107999543Y-117684299D01*
X107999543Y-121670000D01*
X108009351Y-121769585D01*
X108038399Y-121865343D01*
X108085571Y-121953595D01*
X108149052Y-122030948D01*
X108226405Y-122094429D01*
X108314657Y-122141601D01*
X108410415Y-122170649D01*
X108510000Y-122180457D01*
X109585500Y-122180457D01*
X109585500Y-122590503D01*
X109585155Y-122591641D01*
X109570543Y-122739998D01*
X109570543Y-123640002D01*
X109585155Y-123788359D01*
X109628429Y-123931016D01*
X109698703Y-124062488D01*
X109793275Y-124177725D01*
X109908512Y-124272297D01*
X110039984Y-124342571D01*
X110182641Y-124385845D01*
X110330998Y-124400457D01*
X110856002Y-124400457D01*
X111004359Y-124385845D01*
X111147016Y-124342571D01*
X111278488Y-124272297D01*
X111393725Y-124177725D01*
X111488297Y-124062488D01*
X111506000Y-124029368D01*
X111523703Y-124062488D01*
X111618275Y-124177725D01*
X111733512Y-124272297D01*
X111864984Y-124342571D01*
X112007641Y-124385845D01*
X112155998Y-124400457D01*
X112681002Y-124400457D01*
X112829359Y-124385845D01*
X112972016Y-124342571D01*
X113103488Y-124272297D01*
X113218725Y-124177725D01*
X113313297Y-124062488D01*
X113383571Y-123931016D01*
X113426845Y-123788359D01*
X113441457Y-123640002D01*
X113441457Y-122739998D01*
X113426845Y-122591641D01*
X113426500Y-122590504D01*
X113426500Y-122180457D01*
X114510000Y-122180457D01*
X114609585Y-122170649D01*
X114705343Y-122141601D01*
X114793595Y-122094429D01*
X114870948Y-122030948D01*
X114934429Y-121953595D01*
X114981601Y-121865343D01*
X115010649Y-121769585D01*
X115020457Y-121670000D01*
X115020457Y-117170000D01*
X115010649Y-117070415D01*
X114981601Y-116974657D01*
X114934429Y-116886405D01*
X114870948Y-116809052D01*
X114793595Y-116745571D01*
X114705343Y-116698399D01*
X114609585Y-116669351D01*
X114510000Y-116659543D01*
X111910000Y-116659543D01*
X111810415Y-116669351D01*
X111714657Y-116698399D01*
X111626405Y-116745571D01*
X111549052Y-116809052D01*
X111510000Y-116856638D01*
X111470948Y-116809052D01*
X111421428Y-116768413D01*
X112156844Y-116032998D01*
X112230430Y-116032998D01*
X112405854Y-115998104D01*
X112571099Y-115929657D01*
X112719816Y-115830287D01*
X112846289Y-115703814D01*
X112945659Y-115555097D01*
X113014106Y-115389852D01*
X113049000Y-115214428D01*
X113049000Y-115035568D01*
X113014106Y-114860144D01*
X112945659Y-114694899D01*
X112846289Y-114546182D01*
X112719816Y-114419709D01*
X112633024Y-114361716D01*
X112848106Y-114146634D01*
X117359218Y-118657746D01*
X117390778Y-118696202D01*
X117429234Y-118727762D01*
X117429240Y-118727768D01*
X117544265Y-118822166D01*
X117637865Y-118872196D01*
X117719379Y-118915766D01*
X117909387Y-118973405D01*
X118057472Y-118987990D01*
X118057483Y-118987990D01*
X118106990Y-118992866D01*
X118156497Y-118987990D01*
X118642463Y-118987990D01*
X118689543Y-119035070D01*
X118689543Y-121670000D01*
X118699351Y-121769585D01*
X118728399Y-121865343D01*
X118775571Y-121953595D01*
X118839052Y-122030948D01*
X118916405Y-122094429D01*
X119004657Y-122141601D01*
X119100415Y-122170649D01*
X119200000Y-122180457D01*
X121800000Y-122180457D01*
X121899585Y-122170649D01*
X121995343Y-122141601D01*
X122083595Y-122094429D01*
X122160948Y-122030948D01*
X122224429Y-121953595D01*
X122271601Y-121865343D01*
X122300649Y-121769585D01*
X122310457Y-121670000D01*
X122310457Y-117240000D01*
X122390430Y-117240000D01*
X122565854Y-117205106D01*
X122731099Y-117136659D01*
X122879816Y-117037289D01*
X123006289Y-116910816D01*
X123105659Y-116762099D01*
X123137594Y-116685000D01*
X137333010Y-116685000D01*
X137368884Y-117049232D01*
X137475126Y-117399466D01*
X137647655Y-117722244D01*
X137879839Y-118005161D01*
X138162756Y-118237345D01*
X138485534Y-118409874D01*
X138835768Y-118516116D01*
X139108724Y-118543000D01*
X140291276Y-118543000D01*
X140564232Y-118516116D01*
X140914466Y-118409874D01*
X141237244Y-118237345D01*
X141520161Y-118005161D01*
X141752345Y-117722244D01*
X141800000Y-117633088D01*
X141847655Y-117722244D01*
X142079839Y-118005161D01*
X142362756Y-118237345D01*
X142685534Y-118409874D01*
X143035768Y-118516116D01*
X143308724Y-118543000D01*
X144491276Y-118543000D01*
X144764232Y-118516116D01*
X145114466Y-118409874D01*
X145437244Y-118237345D01*
X145720161Y-118005161D01*
X145952345Y-117722244D01*
X146124874Y-117399466D01*
X146231116Y-117049232D01*
X146266990Y-116685000D01*
X146231116Y-116320768D01*
X146124874Y-115970534D01*
X145952345Y-115647756D01*
X145720161Y-115364839D01*
X145437244Y-115132655D01*
X145114466Y-114960126D01*
X144764232Y-114853884D01*
X144491276Y-114827000D01*
X143308724Y-114827000D01*
X143035768Y-114853884D01*
X142685534Y-114960126D01*
X142362756Y-115132655D01*
X142079839Y-115364839D01*
X141847655Y-115647756D01*
X141800000Y-115736912D01*
X141752345Y-115647756D01*
X141520161Y-115364839D01*
X141237244Y-115132655D01*
X140914466Y-114960126D01*
X140564232Y-114853884D01*
X140291276Y-114827000D01*
X139108724Y-114827000D01*
X138835768Y-114853884D01*
X138485534Y-114960126D01*
X138162756Y-115132655D01*
X137879839Y-115364839D01*
X137647655Y-115647756D01*
X137475126Y-115970534D01*
X137368884Y-116320768D01*
X137333010Y-116685000D01*
X123137594Y-116685000D01*
X123174106Y-116596854D01*
X123209000Y-116421430D01*
X123209000Y-116242570D01*
X123174106Y-116067146D01*
X123105659Y-115901901D01*
X123006289Y-115753184D01*
X122909000Y-115655895D01*
X122909000Y-115091860D01*
X122911941Y-115062000D01*
X122900202Y-114942811D01*
X122865436Y-114828203D01*
X122808979Y-114722579D01*
X122799362Y-114710861D01*
X122733001Y-114629999D01*
X122709797Y-114610956D01*
X121304000Y-113205159D01*
X121304000Y-113067570D01*
X121269106Y-112892146D01*
X121200659Y-112726901D01*
X121101289Y-112578184D01*
X120974816Y-112451711D01*
X120826099Y-112352341D01*
X120660854Y-112283894D01*
X120485430Y-112249000D01*
X120306570Y-112249000D01*
X120131146Y-112283894D01*
X119965901Y-112352341D01*
X119817184Y-112451711D01*
X119690711Y-112578184D01*
X119591341Y-112726901D01*
X119522894Y-112892146D01*
X119488000Y-113067570D01*
X119488000Y-113084252D01*
X119369146Y-113107894D01*
X119203901Y-113176341D01*
X119055184Y-113275711D01*
X118928711Y-113402184D01*
X118829341Y-113550901D01*
X118760894Y-113716146D01*
X118726000Y-113891570D01*
X118726000Y-114070430D01*
X118760894Y-114245854D01*
X118829341Y-114411099D01*
X118928711Y-114559816D01*
X119055184Y-114686289D01*
X119203901Y-114785659D01*
X119369146Y-114854106D01*
X119544570Y-114889000D01*
X119617159Y-114889000D01*
X120296001Y-115567843D01*
X120296001Y-115655894D01*
X120198711Y-115753184D01*
X120099341Y-115901901D01*
X120030894Y-116067146D01*
X119996000Y-116242570D01*
X119996000Y-116421430D01*
X120030894Y-116596854D01*
X120056861Y-116659543D01*
X119200000Y-116659543D01*
X119100415Y-116669351D01*
X119004657Y-116698399D01*
X118916405Y-116745571D01*
X118839052Y-116809052D01*
X118775571Y-116886405D01*
X118729825Y-116971990D01*
X118524518Y-116971990D01*
X114273634Y-112721106D01*
X119480083Y-107514658D01*
X119563711Y-107639816D01*
%TA.AperFunction,Conductor*%
D31*
G36*
X119563711Y-107639816D02*
G01*
X119690184Y-107766289D01*
X119838901Y-107865659D01*
X120004146Y-107934106D01*
X120179570Y-107969000D01*
X120358430Y-107969000D01*
X120533854Y-107934106D01*
X120699099Y-107865659D01*
X120847816Y-107766289D01*
X120974289Y-107639816D01*
X120974834Y-107639000D01*
X123211904Y-107639000D01*
X123217060Y-107655998D01*
X123209350Y-107681415D01*
X123199542Y-107781000D01*
X123199542Y-108331000D01*
X123201950Y-108355449D01*
X123201950Y-108380009D01*
X123211758Y-108479594D01*
X123230880Y-108575727D01*
X123259927Y-108671483D01*
X123297436Y-108762039D01*
X123344609Y-108850294D01*
X123399065Y-108931793D01*
X123462547Y-109009145D01*
X123531855Y-109078453D01*
X123609207Y-109141935D01*
X123690706Y-109196391D01*
X123778961Y-109243564D01*
X123869517Y-109281073D01*
X123965273Y-109310120D01*
X124061406Y-109329242D01*
X124128017Y-109335802D01*
X125464851Y-110672636D01*
X125484667Y-110696782D01*
X125508813Y-110716598D01*
X125508814Y-110716599D01*
X125581054Y-110775885D01*
X125691019Y-110834663D01*
X125810341Y-110870858D01*
X125934430Y-110883081D01*
X125965525Y-110880018D01*
X126976876Y-110880019D01*
X126929711Y-110927184D01*
X126830341Y-111075901D01*
X126761894Y-111241146D01*
X126727000Y-111416570D01*
X126727000Y-111595430D01*
X126761894Y-111770854D01*
X126830341Y-111936099D01*
X126929711Y-112084816D01*
X127028229Y-112183334D01*
X127035798Y-112260188D01*
X127070564Y-112374796D01*
X127127021Y-112480420D01*
X127202999Y-112573001D01*
X127226202Y-112592043D01*
X127818961Y-113184803D01*
X127837999Y-113208001D01*
X127905987Y-113263797D01*
X127930579Y-113283979D01*
X128036203Y-113340436D01*
X128150811Y-113375202D01*
X128223197Y-113382331D01*
X128209556Y-113402746D01*
X128107187Y-113649886D01*
X128055000Y-113912249D01*
X128055000Y-114179751D01*
X128107187Y-114442114D01*
X128209556Y-114689254D01*
X128358172Y-114911675D01*
X128547325Y-115100828D01*
X128769746Y-115249444D01*
X129016886Y-115351813D01*
X129279249Y-115404000D01*
X129546751Y-115404000D01*
X129809114Y-115351813D01*
X129844368Y-115337210D01*
X130358961Y-115851803D01*
X130377999Y-115875001D01*
X130470579Y-115950979D01*
X130576203Y-116007436D01*
X130660470Y-116032998D01*
X130690811Y-116042202D01*
X130809999Y-116053941D01*
X130839860Y-116051000D01*
X132431140Y-116051000D01*
X132461000Y-116053941D01*
X132490860Y-116051000D01*
X132490861Y-116051000D01*
X132580189Y-116042202D01*
X132694797Y-116007436D01*
X132800421Y-115950979D01*
X132893001Y-115875001D01*
X132912043Y-115851798D01*
X133631804Y-115132038D01*
X133655001Y-115113001D01*
X133730979Y-115020421D01*
X133787436Y-114914797D01*
X133822202Y-114800189D01*
X133831000Y-114710861D01*
X133831000Y-114710860D01*
X133833941Y-114681000D01*
X133831000Y-114651140D01*
X133831000Y-113662841D01*
X133989843Y-113503999D01*
X135867141Y-113503999D01*
X135897001Y-113506940D01*
X135926861Y-113503999D01*
X135926862Y-113503999D01*
X136016190Y-113495201D01*
X136130798Y-113460435D01*
X136236422Y-113403978D01*
X136329002Y-113328000D01*
X136348044Y-113304797D01*
X138554842Y-111098000D01*
X146439001Y-111098000D01*
X146439000Y-118699706D01*
X146386065Y-118764207D01*
X146331609Y-118845706D01*
X146284436Y-118933961D01*
X146246927Y-119024517D01*
X146217880Y-119120273D01*
X146198758Y-119216406D01*
X146188950Y-119315991D01*
X146188950Y-119340551D01*
X146186542Y-119365000D01*
X146186542Y-119865000D01*
X146196350Y-119964585D01*
X146211643Y-120015000D01*
X146196350Y-120065415D01*
X146186542Y-120165000D01*
X146186542Y-120665000D01*
X146188950Y-120689449D01*
X146188950Y-120714009D01*
X146198758Y-120813594D01*
X146217880Y-120909727D01*
X146246927Y-121005483D01*
X146262762Y-121043711D01*
X145603930Y-121702543D01*
X144819000Y-121702543D01*
X144719415Y-121712351D01*
X144623657Y-121741399D01*
X144535405Y-121788571D01*
X144458052Y-121852052D01*
X144394571Y-121929405D01*
X144347399Y-122017657D01*
X144318351Y-122113415D01*
X144308543Y-122213000D01*
X144308543Y-122383975D01*
X144183828Y-122197325D01*
X143994675Y-122008172D01*
X143772254Y-121859556D01*
X143525114Y-121757187D01*
X143262751Y-121705000D01*
X142995249Y-121705000D01*
X142732886Y-121757187D01*
X142485746Y-121859556D01*
X142263325Y-122008172D01*
X142074172Y-122197325D01*
X141925556Y-122419746D01*
X141859000Y-122580426D01*
X141792444Y-122419746D01*
X141643828Y-122197325D01*
X141454675Y-122008172D01*
X141232254Y-121859556D01*
X140985114Y-121757187D01*
X140722751Y-121705000D01*
X140455249Y-121705000D01*
X140192886Y-121757187D01*
X139945746Y-121859556D01*
X139723325Y-122008172D01*
X139534172Y-122197325D01*
X139385556Y-122419746D01*
X139283187Y-122666886D01*
X139231000Y-122929249D01*
X139231000Y-123196751D01*
X139283187Y-123459114D01*
X139385556Y-123706254D01*
X139534172Y-123928675D01*
X139723325Y-124117828D01*
X139945746Y-124266444D01*
X140192886Y-124368813D01*
X140455249Y-124421000D01*
X140722751Y-124421000D01*
X140985114Y-124368813D01*
X141232254Y-124266444D01*
X141454675Y-124117828D01*
X141643828Y-123928675D01*
X141792444Y-123706254D01*
X141859000Y-123545574D01*
X141925556Y-123706254D01*
X142074172Y-123928675D01*
X142263325Y-124117828D01*
X142485746Y-124266444D01*
X142732886Y-124368813D01*
X142995249Y-124421000D01*
X143262751Y-124421000D01*
X143525114Y-124368813D01*
X143772254Y-124266444D01*
X143994675Y-124117828D01*
X144183828Y-123928675D01*
X144308543Y-123742025D01*
X144308543Y-123913000D01*
X144318351Y-124012585D01*
X144347399Y-124108343D01*
X144394571Y-124196595D01*
X144458052Y-124273948D01*
X144535405Y-124337429D01*
X144623657Y-124384601D01*
X144719415Y-124413649D01*
X144819000Y-124423457D01*
X146519000Y-124423457D01*
X146618585Y-124413649D01*
X146714343Y-124384601D01*
X146802595Y-124337429D01*
X146879948Y-124273948D01*
X146943429Y-124196595D01*
X146990601Y-124108343D01*
X147019649Y-124012585D01*
X147029457Y-123913000D01*
X147029457Y-123128070D01*
X148057001Y-122100526D01*
X148057001Y-124457986D01*
X147971639Y-124562000D01*
X131738105Y-124562000D01*
X131822148Y-124477957D01*
X131921518Y-124329240D01*
X131989965Y-124163995D01*
X132024859Y-123988571D01*
X132024859Y-123809711D01*
X131989965Y-123634287D01*
X131921518Y-123469042D01*
X131822148Y-123320325D01*
X131695675Y-123193852D01*
X131546958Y-123094482D01*
X131381713Y-123026035D01*
X131206289Y-122991141D01*
X131027429Y-122991141D01*
X130852005Y-123026035D01*
X130686760Y-123094482D01*
X130630963Y-123131765D01*
X128416000Y-120916803D01*
X128416000Y-120814570D01*
X128381106Y-120639146D01*
X128312659Y-120473901D01*
X128213289Y-120325184D01*
X128086816Y-120198711D01*
X127991466Y-120135000D01*
X127999581Y-120135000D01*
X128155685Y-120103949D01*
X128180677Y-120093597D01*
X128186894Y-120124854D01*
X128255341Y-120290099D01*
X128354711Y-120438816D01*
X128481184Y-120565289D01*
X128629901Y-120664659D01*
X128795146Y-120733106D01*
X128970570Y-120768000D01*
X129149430Y-120768000D01*
X129155911Y-120766711D01*
X129175512Y-120782797D01*
X129306984Y-120853071D01*
X129449641Y-120896345D01*
X129597998Y-120910957D01*
X130498002Y-120910957D01*
X130646359Y-120896345D01*
X130789016Y-120853071D01*
X130920488Y-120782797D01*
X131035725Y-120688225D01*
X131064000Y-120653772D01*
X131092275Y-120688225D01*
X131207512Y-120782797D01*
X131257694Y-120809620D01*
X131354711Y-120954816D01*
X131481184Y-121081289D01*
X131629901Y-121180659D01*
X131795146Y-121249106D01*
X131970570Y-121284000D01*
X132149430Y-121284000D01*
X132324854Y-121249106D01*
X132490099Y-121180659D01*
X132638816Y-121081289D01*
X132765289Y-120954816D01*
X132840083Y-120842879D01*
X132952488Y-120782797D01*
X133067725Y-120688225D01*
X133162297Y-120572988D01*
X133232571Y-120441516D01*
X133275845Y-120298859D01*
X133290457Y-120150502D01*
X133290457Y-120025126D01*
X133317268Y-120043041D01*
X133464315Y-120103949D01*
X133620419Y-120135000D01*
X133779581Y-120135000D01*
X133935685Y-120103949D01*
X134082732Y-120043041D01*
X134215070Y-119954615D01*
X134327615Y-119842070D01*
X134416041Y-119709732D01*
X134476949Y-119562685D01*
X134508000Y-119406581D01*
X134508000Y-119247419D01*
X134476949Y-119091315D01*
X134416041Y-118944268D01*
X134327615Y-118811930D01*
X134215070Y-118699385D01*
X134082732Y-118610959D01*
X133935685Y-118550051D01*
X133779581Y-118519000D01*
X133620419Y-118519000D01*
X133464315Y-118550051D01*
X133317268Y-118610959D01*
X133184930Y-118699385D01*
X133072385Y-118811930D01*
X132983959Y-118944268D01*
X132960848Y-119000064D01*
X132952488Y-118993203D01*
X132821016Y-118922929D01*
X132678359Y-118879655D01*
X132530002Y-118865043D01*
X131629998Y-118865043D01*
X131481641Y-118879655D01*
X131338984Y-118922929D01*
X131207512Y-118993203D01*
X131092275Y-119087775D01*
X131064000Y-119122228D01*
X131035725Y-119087775D01*
X130920488Y-118993203D01*
X130789016Y-118922929D01*
X130646359Y-118879655D01*
X130498002Y-118865043D01*
X129597998Y-118865043D01*
X129449641Y-118879655D01*
X129306984Y-118922929D01*
X129224617Y-118966956D01*
X129149430Y-118952000D01*
X128970570Y-118952000D01*
X128795146Y-118986894D01*
X128674412Y-119036904D01*
X128636041Y-118944268D01*
X128547615Y-118811930D01*
X128435070Y-118699385D01*
X128302732Y-118610959D01*
X128155685Y-118550051D01*
X127999581Y-118519000D01*
X127840419Y-118519000D01*
X127684315Y-118550051D01*
X127537268Y-118610959D01*
X127404930Y-118699385D01*
X127292385Y-118811930D01*
X127203959Y-118944268D01*
X127143051Y-119091315D01*
X127112000Y-119247419D01*
X127112000Y-119406581D01*
X127143051Y-119562685D01*
X127203959Y-119709732D01*
X127292385Y-119842070D01*
X127404930Y-119954615D01*
X127466867Y-119996000D01*
X127418570Y-119996000D01*
X127243146Y-120030894D01*
X127077901Y-120099341D01*
X126929184Y-120198711D01*
X126802711Y-120325184D01*
X126703341Y-120473901D01*
X126634894Y-120639146D01*
X126600000Y-120814570D01*
X126600000Y-120993430D01*
X126634894Y-121168854D01*
X126703341Y-121334099D01*
X126802711Y-121482816D01*
X126929184Y-121609289D01*
X127077901Y-121708659D01*
X127243146Y-121777106D01*
X127418570Y-121812000D01*
X127520803Y-121812000D01*
X130033561Y-124324759D01*
X130053377Y-124348905D01*
X130077523Y-124368721D01*
X130077524Y-124368722D01*
X130141226Y-124421000D01*
X130149764Y-124428007D01*
X130259731Y-124486786D01*
X130379051Y-124522981D01*
X130465066Y-124531453D01*
X130495613Y-124562000D01*
X101626455Y-124562000D01*
X101667948Y-124527948D01*
X101731429Y-124450595D01*
X101778601Y-124362343D01*
X101807649Y-124266585D01*
X101817457Y-124167000D01*
X101817457Y-123840461D01*
X101846421Y-123824979D01*
X101939001Y-123749001D01*
X101958044Y-123725797D01*
X107999543Y-117684299D01*
X107999543Y-121670000D01*
X108009351Y-121769585D01*
X108038399Y-121865343D01*
X108085571Y-121953595D01*
X108149052Y-122030948D01*
X108226405Y-122094429D01*
X108314657Y-122141601D01*
X108410415Y-122170649D01*
X108510000Y-122180457D01*
X109585500Y-122180457D01*
X109585500Y-122590503D01*
X109585155Y-122591641D01*
X109570543Y-122739998D01*
X109570543Y-123640002D01*
X109585155Y-123788359D01*
X109628429Y-123931016D01*
X109698703Y-124062488D01*
X109793275Y-124177725D01*
X109908512Y-124272297D01*
X110039984Y-124342571D01*
X110182641Y-124385845D01*
X110330998Y-124400457D01*
X110856002Y-124400457D01*
X111004359Y-124385845D01*
X111147016Y-124342571D01*
X111278488Y-124272297D01*
X111393725Y-124177725D01*
X111488297Y-124062488D01*
X111506000Y-124029368D01*
X111523703Y-124062488D01*
X111618275Y-124177725D01*
X111733512Y-124272297D01*
X111864984Y-124342571D01*
X112007641Y-124385845D01*
X112155998Y-124400457D01*
X112681002Y-124400457D01*
X112829359Y-124385845D01*
X112972016Y-124342571D01*
X113103488Y-124272297D01*
X113218725Y-124177725D01*
X113313297Y-124062488D01*
X113383571Y-123931016D01*
X113426845Y-123788359D01*
X113441457Y-123640002D01*
X113441457Y-122739998D01*
X113426845Y-122591641D01*
X113426500Y-122590504D01*
X113426500Y-122180457D01*
X114510000Y-122180457D01*
X114609585Y-122170649D01*
X114705343Y-122141601D01*
X114793595Y-122094429D01*
X114870948Y-122030948D01*
X114934429Y-121953595D01*
X114981601Y-121865343D01*
X115010649Y-121769585D01*
X115020457Y-121670000D01*
X115020457Y-117170000D01*
X115010649Y-117070415D01*
X114981601Y-116974657D01*
X114934429Y-116886405D01*
X114870948Y-116809052D01*
X114793595Y-116745571D01*
X114705343Y-116698399D01*
X114609585Y-116669351D01*
X114510000Y-116659543D01*
X111910000Y-116659543D01*
X111810415Y-116669351D01*
X111714657Y-116698399D01*
X111626405Y-116745571D01*
X111549052Y-116809052D01*
X111510000Y-116856638D01*
X111470948Y-116809052D01*
X111421428Y-116768413D01*
X112156844Y-116032998D01*
X112230430Y-116032998D01*
X112405854Y-115998104D01*
X112571099Y-115929657D01*
X112719816Y-115830287D01*
X112846289Y-115703814D01*
X112945659Y-115555097D01*
X113014106Y-115389852D01*
X113049000Y-115214428D01*
X113049000Y-115035568D01*
X113014106Y-114860144D01*
X112945659Y-114694899D01*
X112846289Y-114546182D01*
X112719816Y-114419709D01*
X112633024Y-114361716D01*
X112848106Y-114146634D01*
X117359218Y-118657746D01*
X117390778Y-118696202D01*
X117429234Y-118727762D01*
X117429240Y-118727768D01*
X117544265Y-118822166D01*
X117637865Y-118872196D01*
X117719379Y-118915766D01*
X117909387Y-118973405D01*
X118057472Y-118987990D01*
X118057483Y-118987990D01*
X118106990Y-118992866D01*
X118156497Y-118987990D01*
X118642463Y-118987990D01*
X118689543Y-119035070D01*
X118689543Y-121670000D01*
X118699351Y-121769585D01*
X118728399Y-121865343D01*
X118775571Y-121953595D01*
X118839052Y-122030948D01*
X118916405Y-122094429D01*
X119004657Y-122141601D01*
X119100415Y-122170649D01*
X119200000Y-122180457D01*
X121800000Y-122180457D01*
X121899585Y-122170649D01*
X121995343Y-122141601D01*
X122083595Y-122094429D01*
X122160948Y-122030948D01*
X122224429Y-121953595D01*
X122271601Y-121865343D01*
X122300649Y-121769585D01*
X122310457Y-121670000D01*
X122310457Y-117240000D01*
X122390430Y-117240000D01*
X122565854Y-117205106D01*
X122731099Y-117136659D01*
X122879816Y-117037289D01*
X123006289Y-116910816D01*
X123105659Y-116762099D01*
X123137594Y-116685000D01*
X137333010Y-116685000D01*
X137368884Y-117049232D01*
X137475126Y-117399466D01*
X137647655Y-117722244D01*
X137879839Y-118005161D01*
X138162756Y-118237345D01*
X138485534Y-118409874D01*
X138835768Y-118516116D01*
X139108724Y-118543000D01*
X140291276Y-118543000D01*
X140564232Y-118516116D01*
X140914466Y-118409874D01*
X141237244Y-118237345D01*
X141520161Y-118005161D01*
X141752345Y-117722244D01*
X141800000Y-117633088D01*
X141847655Y-117722244D01*
X142079839Y-118005161D01*
X142362756Y-118237345D01*
X142685534Y-118409874D01*
X143035768Y-118516116D01*
X143308724Y-118543000D01*
X144491276Y-118543000D01*
X144764232Y-118516116D01*
X145114466Y-118409874D01*
X145437244Y-118237345D01*
X145720161Y-118005161D01*
X145952345Y-117722244D01*
X146124874Y-117399466D01*
X146231116Y-117049232D01*
X146266990Y-116685000D01*
X146231116Y-116320768D01*
X146124874Y-115970534D01*
X145952345Y-115647756D01*
X145720161Y-115364839D01*
X145437244Y-115132655D01*
X145114466Y-114960126D01*
X144764232Y-114853884D01*
X144491276Y-114827000D01*
X143308724Y-114827000D01*
X143035768Y-114853884D01*
X142685534Y-114960126D01*
X142362756Y-115132655D01*
X142079839Y-115364839D01*
X141847655Y-115647756D01*
X141800000Y-115736912D01*
X141752345Y-115647756D01*
X141520161Y-115364839D01*
X141237244Y-115132655D01*
X140914466Y-114960126D01*
X140564232Y-114853884D01*
X140291276Y-114827000D01*
X139108724Y-114827000D01*
X138835768Y-114853884D01*
X138485534Y-114960126D01*
X138162756Y-115132655D01*
X137879839Y-115364839D01*
X137647655Y-115647756D01*
X137475126Y-115970534D01*
X137368884Y-116320768D01*
X137333010Y-116685000D01*
X123137594Y-116685000D01*
X123174106Y-116596854D01*
X123209000Y-116421430D01*
X123209000Y-116242570D01*
X123174106Y-116067146D01*
X123105659Y-115901901D01*
X123006289Y-115753184D01*
X122909000Y-115655895D01*
X122909000Y-115091860D01*
X122911941Y-115062000D01*
X122900202Y-114942811D01*
X122865436Y-114828203D01*
X122808979Y-114722579D01*
X122799362Y-114710861D01*
X122733001Y-114629999D01*
X122709797Y-114610956D01*
X121304000Y-113205159D01*
X121304000Y-113067570D01*
X121269106Y-112892146D01*
X121200659Y-112726901D01*
X121101289Y-112578184D01*
X120974816Y-112451711D01*
X120826099Y-112352341D01*
X120660854Y-112283894D01*
X120485430Y-112249000D01*
X120306570Y-112249000D01*
X120131146Y-112283894D01*
X119965901Y-112352341D01*
X119817184Y-112451711D01*
X119690711Y-112578184D01*
X119591341Y-112726901D01*
X119522894Y-112892146D01*
X119488000Y-113067570D01*
X119488000Y-113084252D01*
X119369146Y-113107894D01*
X119203901Y-113176341D01*
X119055184Y-113275711D01*
X118928711Y-113402184D01*
X118829341Y-113550901D01*
X118760894Y-113716146D01*
X118726000Y-113891570D01*
X118726000Y-114070430D01*
X118760894Y-114245854D01*
X118829341Y-114411099D01*
X118928711Y-114559816D01*
X119055184Y-114686289D01*
X119203901Y-114785659D01*
X119369146Y-114854106D01*
X119544570Y-114889000D01*
X119617159Y-114889000D01*
X120296001Y-115567843D01*
X120296001Y-115655894D01*
X120198711Y-115753184D01*
X120099341Y-115901901D01*
X120030894Y-116067146D01*
X119996000Y-116242570D01*
X119996000Y-116421430D01*
X120030894Y-116596854D01*
X120056861Y-116659543D01*
X119200000Y-116659543D01*
X119100415Y-116669351D01*
X119004657Y-116698399D01*
X118916405Y-116745571D01*
X118839052Y-116809052D01*
X118775571Y-116886405D01*
X118729825Y-116971990D01*
X118524518Y-116971990D01*
X114273634Y-112721106D01*
X119480083Y-107514658D01*
X119563711Y-107639816D01*
G37*
%TD.AperFunction*%
D30*
X146490189Y-60850376D02*
X146653850Y-60900022D01*
X146804672Y-60980638D01*
X146936870Y-61089130D01*
X147045362Y-61221328D01*
X147125978Y-61372150D01*
X147175624Y-61535811D01*
X147193000Y-61712234D01*
X147193000Y-66040000D01*
X147194087Y-66056577D01*
X147211397Y-66188057D01*
X147219977Y-66220080D01*
X147270726Y-66342600D01*
X147287303Y-66371313D01*
X147368034Y-66476523D01*
X147391477Y-66499966D01*
X147496687Y-66580697D01*
X147525400Y-66597274D01*
X147647920Y-66648023D01*
X147679943Y-66656603D01*
X147926325Y-66689040D01*
X148017951Y-66726993D01*
X148057000Y-66756957D01*
X148057000Y-75638473D01*
X146425776Y-74007249D01*
X146394212Y-73968788D01*
X146326058Y-73912855D01*
X146240724Y-73842824D01*
X146065611Y-73749224D01*
X145995157Y-73727852D01*
X145952345Y-73647756D01*
X145908000Y-73593721D01*
X145908000Y-71576279D01*
X145952345Y-71522244D01*
X146124874Y-71199466D01*
X146231116Y-70849232D01*
X146266990Y-70485000D01*
X146231116Y-70120768D01*
X146124874Y-69770534D01*
X145952345Y-69447756D01*
X145720161Y-69164839D01*
X145437244Y-68932655D01*
X145114466Y-68760126D01*
X144764232Y-68653884D01*
X144727052Y-68650222D01*
X144672146Y-68620874D01*
X144293637Y-68506055D01*
X143998638Y-68477000D01*
X143900000Y-68467285D01*
X143801362Y-68477000D01*
X139798638Y-68477000D01*
X139700000Y-68467285D01*
X139601363Y-68477000D01*
X139601362Y-68477000D01*
X139306363Y-68506055D01*
X138927854Y-68620874D01*
X138920990Y-68624543D01*
X138101100Y-68624543D01*
X137952528Y-68639176D01*
X137809665Y-68682513D01*
X137678002Y-68752888D01*
X137562598Y-68847598D01*
X137467888Y-68963002D01*
X137397513Y-69094665D01*
X137354176Y-69237528D01*
X137339543Y-69386100D01*
X137339543Y-71583900D01*
X137354176Y-71732472D01*
X137397513Y-71875335D01*
X137467888Y-72006998D01*
X137562598Y-72122402D01*
X137678002Y-72217112D01*
X137692001Y-72224594D01*
X137692000Y-73593721D01*
X137647655Y-73647756D01*
X137475126Y-73970534D01*
X137435676Y-74100583D01*
X135312260Y-76224000D01*
X129253000Y-76224000D01*
X129253000Y-76021279D01*
X129297345Y-75967244D01*
X129469874Y-75644466D01*
X129576116Y-75294232D01*
X129611990Y-74930000D01*
X129576116Y-74565768D01*
X129469874Y-74215534D01*
X129297345Y-73892756D01*
X129065161Y-73609839D01*
X128782244Y-73377655D01*
X128459466Y-73205126D01*
X128109232Y-73098884D01*
X128072051Y-73095222D01*
X128017145Y-73065874D01*
X127638636Y-72951055D01*
X127245000Y-72912285D01*
X126851363Y-72951055D01*
X126472854Y-73065874D01*
X126417948Y-73095222D01*
X126380768Y-73098884D01*
X126030534Y-73205126D01*
X125707756Y-73377655D01*
X125424839Y-73609839D01*
X125192655Y-73892756D01*
X125020126Y-74215534D01*
X124913884Y-74565768D01*
X124878010Y-74930000D01*
X124913884Y-75294232D01*
X125020126Y-75644466D01*
X125192655Y-75967244D01*
X125237000Y-76021279D01*
X125237000Y-76224000D01*
X124041629Y-76224000D01*
X123942999Y-76214286D01*
X123844369Y-76224000D01*
X123844362Y-76224000D01*
X123586640Y-76249383D01*
X123549362Y-76253055D01*
X123446226Y-76284341D01*
X123170854Y-76367874D01*
X122822018Y-76554331D01*
X122516260Y-76805260D01*
X122453374Y-76881887D01*
X121893260Y-77442000D01*
X119778096Y-77442000D01*
X119780000Y-77432430D01*
X119780000Y-77253570D01*
X119745106Y-77078146D01*
X119676659Y-76912901D01*
X119577289Y-76764184D01*
X119450816Y-76637711D01*
X119302099Y-76538341D01*
X119136854Y-76469894D01*
X118961430Y-76435000D01*
X118782570Y-76435000D01*
X118607146Y-76469894D01*
X118441901Y-76538341D01*
X118293184Y-76637711D01*
X118195895Y-76735000D01*
X115699026Y-76735000D01*
X115669166Y-76732059D01*
X115639305Y-76735000D01*
X115549977Y-76743798D01*
X115435369Y-76778564D01*
X115329745Y-76835021D01*
X115237165Y-76910999D01*
X115218127Y-76934197D01*
X110506043Y-81646282D01*
X110352146Y-81676894D01*
X110186901Y-81745341D01*
X110038184Y-81844711D01*
X109911711Y-81971184D01*
X109812341Y-82119901D01*
X109743894Y-82285146D01*
X109709000Y-82460570D01*
X109709000Y-82639430D01*
X109743894Y-82814854D01*
X109812341Y-82980099D01*
X109911711Y-83128816D01*
X110038184Y-83255289D01*
X110132171Y-83318089D01*
X108399878Y-85050382D01*
X108323261Y-85113260D01*
X108260383Y-85189877D01*
X108260382Y-85189878D01*
X108072332Y-85419018D01*
X107885875Y-85767854D01*
X107771055Y-86146363D01*
X107732285Y-86540000D01*
X107742001Y-86638647D01*
X107742000Y-92173637D01*
X107771055Y-92468636D01*
X107885874Y-92847145D01*
X107939543Y-92947553D01*
X107939543Y-94325000D01*
X107949351Y-94424585D01*
X107978399Y-94520343D01*
X108025571Y-94608595D01*
X108089052Y-94685948D01*
X108166405Y-94749429D01*
X108254657Y-94796601D01*
X108350415Y-94825649D01*
X108450000Y-94835457D01*
X110096803Y-94835457D01*
X108459878Y-96472382D01*
X108383261Y-96535260D01*
X108320383Y-96611877D01*
X108320382Y-96611878D01*
X108132332Y-96841018D01*
X107945875Y-97189854D01*
X107831055Y-97568363D01*
X107792285Y-97962000D01*
X107802001Y-98060647D01*
X107802000Y-100428637D01*
X107831055Y-100723636D01*
X107945874Y-101102145D01*
X107999543Y-101202553D01*
X107999543Y-102580000D01*
X108009351Y-102679585D01*
X108038399Y-102775343D01*
X108085571Y-102863595D01*
X108149052Y-102940948D01*
X108226405Y-103004429D01*
X108314657Y-103051601D01*
X108410415Y-103080649D01*
X108510000Y-103090457D01*
X111110000Y-103090457D01*
X111209585Y-103080649D01*
X111305343Y-103051601D01*
X111393595Y-103004429D01*
X111470948Y-102940948D01*
X111534429Y-102863595D01*
X111581601Y-102775343D01*
X111610649Y-102679585D01*
X111620457Y-102580000D01*
X111620457Y-101202553D01*
X111674126Y-101102146D01*
X111788945Y-100723637D01*
X111818000Y-100428638D01*
X111818000Y-98793740D01*
X112578739Y-98033001D01*
X112866361Y-98033001D01*
X112964999Y-98042716D01*
X113358636Y-98003946D01*
X113386772Y-97995411D01*
X113737145Y-97889127D01*
X114085981Y-97702670D01*
X114391739Y-97451741D01*
X114454621Y-97375119D01*
X115106280Y-96723461D01*
X115076285Y-97028000D01*
X115086001Y-97126647D01*
X115086000Y-102206637D01*
X115115055Y-102501636D01*
X115229874Y-102880145D01*
X115416331Y-103228982D01*
X115667260Y-103534740D01*
X115973018Y-103785669D01*
X116321854Y-103972126D01*
X116700363Y-104086945D01*
X117094000Y-104125715D01*
X117199983Y-104115277D01*
X109023260Y-112292000D01*
X106778627Y-112292000D01*
X106679999Y-112282286D01*
X106581371Y-112292000D01*
X106581362Y-112292000D01*
X106286363Y-112321055D01*
X105907854Y-112435874D01*
X105559018Y-112622331D01*
X105253260Y-112873260D01*
X105190382Y-112949877D01*
X102197500Y-115942760D01*
X100814000Y-114559260D01*
X100814000Y-102388092D01*
X100943986Y-102457571D01*
X101086642Y-102500845D01*
X101235000Y-102515457D01*
X103235000Y-102515457D01*
X103383358Y-102500845D01*
X103526014Y-102457571D01*
X103657487Y-102387297D01*
X103772724Y-102292724D01*
X103867297Y-102177487D01*
X103937571Y-102046014D01*
X103980845Y-101903358D01*
X103995457Y-101755000D01*
X103995457Y-101221097D01*
X104099126Y-101027146D01*
X104213945Y-100648637D01*
X104235781Y-100426938D01*
X104243000Y-100353638D01*
X104243000Y-100353637D01*
X104252715Y-100255000D01*
X104243000Y-100156362D01*
X104243000Y-95358627D01*
X104252714Y-95259999D01*
X104243000Y-95161371D01*
X104243000Y-95161362D01*
X104213945Y-94866363D01*
X104099126Y-94487854D01*
X103912669Y-94139018D01*
X103661740Y-93833260D01*
X103585118Y-93770378D01*
X100860457Y-91045717D01*
X100860457Y-89825000D01*
X100850649Y-89725415D01*
X100821601Y-89629657D01*
X100804509Y-89597681D01*
X100852998Y-89602457D01*
X101378002Y-89602457D01*
X101526359Y-89587845D01*
X101669016Y-89544571D01*
X101800488Y-89474297D01*
X101915725Y-89379725D01*
X101929250Y-89363245D01*
X101942775Y-89379725D01*
X102058012Y-89474297D01*
X102189484Y-89544571D01*
X102332141Y-89587845D01*
X102480498Y-89602457D01*
X103005502Y-89602457D01*
X103153859Y-89587845D01*
X103296516Y-89544571D01*
X103427988Y-89474297D01*
X103543225Y-89379725D01*
X103637797Y-89264488D01*
X103708071Y-89133016D01*
X103751345Y-88990359D01*
X103765957Y-88842002D01*
X103765957Y-88355884D01*
X104548804Y-87573038D01*
X104572001Y-87554001D01*
X104647979Y-87461421D01*
X104704436Y-87355797D01*
X104739202Y-87241189D01*
X104739375Y-87239429D01*
X104750941Y-87122001D01*
X104748000Y-87092140D01*
X104748000Y-85246860D01*
X104750941Y-85216999D01*
X104739202Y-85097811D01*
X104725117Y-85051380D01*
X104704436Y-84983203D01*
X104667000Y-84913165D01*
X104667000Y-84746570D01*
X104632106Y-84571146D01*
X104563659Y-84405901D01*
X104464289Y-84257184D01*
X104337816Y-84130711D01*
X104189099Y-84031341D01*
X104023854Y-83962894D01*
X103848430Y-83928000D01*
X103669570Y-83928000D01*
X103543001Y-83953176D01*
X103543001Y-78418840D01*
X104264841Y-77697000D01*
X106130895Y-77697000D01*
X106228184Y-77794289D01*
X106376901Y-77893659D01*
X106542146Y-77962106D01*
X106717570Y-77997000D01*
X106896430Y-77997000D01*
X107071854Y-77962106D01*
X107237099Y-77893659D01*
X107385816Y-77794289D01*
X107512289Y-77667816D01*
X107611659Y-77519099D01*
X107680106Y-77353854D01*
X107715000Y-77178430D01*
X107715000Y-76999570D01*
X107680106Y-76824146D01*
X107611659Y-76658901D01*
X107512289Y-76510184D01*
X107385816Y-76383711D01*
X107237099Y-76284341D01*
X107071854Y-76215894D01*
X106896430Y-76181000D01*
X106717570Y-76181000D01*
X106542146Y-76215894D01*
X106376901Y-76284341D01*
X106228184Y-76383711D01*
X106130895Y-76481000D01*
X104042860Y-76481000D01*
X104013000Y-76478059D01*
X103983139Y-76481000D01*
X103893811Y-76489798D01*
X103779203Y-76524564D01*
X103673579Y-76581021D01*
X103580999Y-76656999D01*
X103561956Y-76680203D01*
X102526199Y-77715960D01*
X102503001Y-77734998D01*
X102448308Y-77801642D01*
X102427022Y-77827579D01*
X102370566Y-77933202D01*
X102335799Y-78047811D01*
X102324060Y-78166999D01*
X102327002Y-78196870D01*
X102327002Y-79229512D01*
X102324430Y-79229000D01*
X102145570Y-79229000D01*
X102116309Y-79234820D01*
X102092106Y-79113146D01*
X102023659Y-78947901D01*
X101924289Y-78799184D01*
X101797816Y-78672711D01*
X101649099Y-78573341D01*
X101483854Y-78504894D01*
X101308430Y-78470000D01*
X101129570Y-78470000D01*
X101089019Y-78478066D01*
X101076106Y-78413146D01*
X101007659Y-78247901D01*
X100908289Y-78099184D01*
X100781816Y-77972711D01*
X100633099Y-77873341D01*
X100467854Y-77804894D01*
X100292430Y-77770000D01*
X100113570Y-77770000D01*
X100068000Y-77779064D01*
X100068000Y-75745457D01*
X100360000Y-75745457D01*
X100459585Y-75735649D01*
X100555343Y-75706601D01*
X100643595Y-75659429D01*
X100720948Y-75595948D01*
X100784429Y-75518595D01*
X100831601Y-75430343D01*
X100860649Y-75334585D01*
X100870457Y-75235000D01*
X100870457Y-70735000D01*
X104539543Y-70735000D01*
X104539543Y-75235000D01*
X104549351Y-75334585D01*
X104578399Y-75430343D01*
X104625571Y-75518595D01*
X104689052Y-75595948D01*
X104766405Y-75659429D01*
X104854657Y-75706601D01*
X104950415Y-75735649D01*
X105050000Y-75745457D01*
X107650000Y-75745457D01*
X107749585Y-75735649D01*
X107845343Y-75706601D01*
X107933595Y-75659429D01*
X108010948Y-75595948D01*
X108050000Y-75548362D01*
X108089052Y-75595948D01*
X108166405Y-75659429D01*
X108254657Y-75706601D01*
X108350415Y-75735649D01*
X108450000Y-75745457D01*
X111050000Y-75745457D01*
X111149585Y-75735649D01*
X111245343Y-75706601D01*
X111333595Y-75659429D01*
X111410948Y-75595948D01*
X111474429Y-75518595D01*
X111521601Y-75430343D01*
X111550649Y-75334585D01*
X111560457Y-75235000D01*
X111560457Y-70735000D01*
X111559965Y-70730000D01*
X124878010Y-70730000D01*
X124913884Y-71094232D01*
X125020126Y-71444466D01*
X125192655Y-71767244D01*
X125424839Y-72050161D01*
X125707756Y-72282345D01*
X126030534Y-72454874D01*
X126380768Y-72561116D01*
X126653724Y-72588000D01*
X127836276Y-72588000D01*
X128109232Y-72561116D01*
X128459466Y-72454874D01*
X128782244Y-72282345D01*
X129065161Y-72050161D01*
X129297345Y-71767244D01*
X129345000Y-71678088D01*
X129392655Y-71767244D01*
X129624839Y-72050161D01*
X129907756Y-72282345D01*
X130230534Y-72454874D01*
X130580768Y-72561116D01*
X130853724Y-72588000D01*
X132036276Y-72588000D01*
X132309232Y-72561116D01*
X132659466Y-72454874D01*
X132982244Y-72282345D01*
X133265161Y-72050161D01*
X133497345Y-71767244D01*
X133669874Y-71444466D01*
X133776116Y-71094232D01*
X133811990Y-70730000D01*
X133776116Y-70365768D01*
X133669874Y-70015534D01*
X133497345Y-69692756D01*
X133265161Y-69409839D01*
X132982244Y-69177655D01*
X132659466Y-69005126D01*
X132309232Y-68898884D01*
X132036276Y-68872000D01*
X130853724Y-68872000D01*
X130580768Y-68898884D01*
X130230534Y-69005126D01*
X129907756Y-69177655D01*
X129624839Y-69409839D01*
X129392655Y-69692756D01*
X129345000Y-69781912D01*
X129297345Y-69692756D01*
X129065161Y-69409839D01*
X128782244Y-69177655D01*
X128459466Y-69005126D01*
X128109232Y-68898884D01*
X127836276Y-68872000D01*
X126653724Y-68872000D01*
X126380768Y-68898884D01*
X126030534Y-69005126D01*
X125707756Y-69177655D01*
X125424839Y-69409839D01*
X125192655Y-69692756D01*
X125020126Y-70015534D01*
X124913884Y-70365768D01*
X124878010Y-70730000D01*
X111559965Y-70730000D01*
X111550649Y-70635415D01*
X111521601Y-70539657D01*
X111474429Y-70451405D01*
X111410948Y-70374052D01*
X111333595Y-70310571D01*
X111245343Y-70263399D01*
X111149585Y-70234351D01*
X111050000Y-70224543D01*
X109997500Y-70224543D01*
X109997500Y-69814496D01*
X109997845Y-69813359D01*
X110012457Y-69665002D01*
X110012457Y-68764998D01*
X109997845Y-68616641D01*
X109954571Y-68473984D01*
X109884297Y-68342512D01*
X109789725Y-68227275D01*
X109674488Y-68132703D01*
X109543016Y-68062429D01*
X109400359Y-68019155D01*
X109252002Y-68004543D01*
X108726998Y-68004543D01*
X108578641Y-68019155D01*
X108435984Y-68062429D01*
X108304512Y-68132703D01*
X108189275Y-68227275D01*
X108094703Y-68342512D01*
X108077000Y-68375632D01*
X108059297Y-68342512D01*
X107964725Y-68227275D01*
X107849488Y-68132703D01*
X107718016Y-68062429D01*
X107575359Y-68019155D01*
X107427002Y-68004543D01*
X106901998Y-68004543D01*
X106753641Y-68019155D01*
X106610984Y-68062429D01*
X106479512Y-68132703D01*
X106364275Y-68227275D01*
X106269703Y-68342512D01*
X106199429Y-68473984D01*
X106156155Y-68616641D01*
X106141543Y-68764998D01*
X106141543Y-69665002D01*
X106156155Y-69813359D01*
X106156500Y-69814497D01*
X106156500Y-70224543D01*
X105050000Y-70224543D01*
X104950415Y-70234351D01*
X104854657Y-70263399D01*
X104766405Y-70310571D01*
X104689052Y-70374052D01*
X104625571Y-70451405D01*
X104578399Y-70539657D01*
X104549351Y-70635415D01*
X104539543Y-70735000D01*
X100870457Y-70735000D01*
X100860649Y-70635415D01*
X100831601Y-70539657D01*
X100784429Y-70451405D01*
X100720948Y-70374052D01*
X100643595Y-70310571D01*
X100555343Y-70263399D01*
X100459585Y-70234351D01*
X100360000Y-70224543D01*
X97760000Y-70224543D01*
X97660415Y-70234351D01*
X97564657Y-70263399D01*
X97476405Y-70310571D01*
X97399052Y-70374052D01*
X97335571Y-70451405D01*
X97288399Y-70539657D01*
X97259351Y-70635415D01*
X97249543Y-70735000D01*
X97249543Y-75235000D01*
X97259351Y-75334585D01*
X97288399Y-75430343D01*
X97335571Y-75518595D01*
X97399052Y-75595948D01*
X97476405Y-75659429D01*
X97564657Y-75706601D01*
X97660415Y-75735649D01*
X97760000Y-75745457D01*
X98052000Y-75745457D01*
X98052001Y-89314543D01*
X97750000Y-89314543D01*
X97650415Y-89324351D01*
X97554657Y-89353399D01*
X97466405Y-89400571D01*
X97389052Y-89464052D01*
X97325571Y-89541405D01*
X97278399Y-89629657D01*
X97249351Y-89725415D01*
X97239543Y-89825000D01*
X97239543Y-91202448D01*
X97185875Y-91302854D01*
X97071055Y-91681363D01*
X97032285Y-92075000D01*
X97071055Y-92468637D01*
X97185875Y-92847146D01*
X97239543Y-92947552D01*
X97239543Y-94325000D01*
X97249351Y-94424585D01*
X97278399Y-94520343D01*
X97325571Y-94608595D01*
X97389052Y-94685948D01*
X97466405Y-94749429D01*
X97554657Y-94796601D01*
X97650415Y-94825649D01*
X97750000Y-94835457D01*
X98970717Y-94835457D01*
X100227001Y-96091741D01*
X100227000Y-98254816D01*
X100011363Y-98276055D01*
X99859902Y-98322000D01*
X98904637Y-98322000D01*
X98806000Y-98312285D01*
X98707362Y-98322000D01*
X96040362Y-98322000D01*
X95745363Y-98351055D01*
X95366854Y-98465874D01*
X95018018Y-98652331D01*
X94712260Y-98903260D01*
X94461331Y-99209018D01*
X94274874Y-99557854D01*
X94160055Y-99936363D01*
X94121285Y-100330000D01*
X94160055Y-100723637D01*
X94274874Y-101102146D01*
X94461331Y-101450982D01*
X94712260Y-101756740D01*
X95018018Y-102007669D01*
X95366854Y-102194126D01*
X95745363Y-102308945D01*
X96040362Y-102338000D01*
X96798000Y-102338000D01*
X96798001Y-115292352D01*
X96788285Y-115391000D01*
X96827055Y-115784637D01*
X96941875Y-116163146D01*
X97128332Y-116511982D01*
X97305027Y-116727285D01*
X97379261Y-116817740D01*
X97455877Y-116880617D01*
X100474543Y-119899284D01*
X100474543Y-120320000D01*
X100489155Y-120468358D01*
X100532429Y-120611014D01*
X100602703Y-120742487D01*
X100697276Y-120857724D01*
X100812513Y-120952297D01*
X100943986Y-121022571D01*
X101086642Y-121065845D01*
X101235000Y-121080457D01*
X102883702Y-121080457D01*
X101748610Y-122215549D01*
X101731429Y-122183405D01*
X101667948Y-122106052D01*
X101590595Y-122042571D01*
X101502343Y-121995399D01*
X101406585Y-121966351D01*
X101307000Y-121956543D01*
X99956385Y-121956543D01*
X98622043Y-120622202D01*
X98603001Y-120598999D01*
X98510421Y-120523021D01*
X98404797Y-120466564D01*
X98290189Y-120431798D01*
X98200861Y-120423000D01*
X98200860Y-120423000D01*
X98171000Y-120420059D01*
X98141140Y-120423000D01*
X93542842Y-120423000D01*
X93626804Y-120339038D01*
X93650001Y-120320001D01*
X93725979Y-120227421D01*
X93782436Y-120121797D01*
X93817202Y-120007189D01*
X93826000Y-119917861D01*
X93826000Y-119917860D01*
X93828941Y-119888000D01*
X93826000Y-119858140D01*
X93826000Y-85087841D01*
X94231842Y-84682000D01*
X96351895Y-84682000D01*
X96449184Y-84779289D01*
X96597901Y-84878659D01*
X96763146Y-84947106D01*
X96938570Y-84982000D01*
X97117430Y-84982000D01*
X97292854Y-84947106D01*
X97458099Y-84878659D01*
X97606816Y-84779289D01*
X97733289Y-84652816D01*
X97832659Y-84504099D01*
X97901106Y-84338854D01*
X97936000Y-84163430D01*
X97936000Y-83984570D01*
X97901106Y-83809146D01*
X97832659Y-83643901D01*
X97780607Y-83566000D01*
X97832659Y-83488099D01*
X97901106Y-83322854D01*
X97936000Y-83147430D01*
X97936000Y-82968570D01*
X97901106Y-82793146D01*
X97832659Y-82627901D01*
X97780607Y-82550000D01*
X97832659Y-82472099D01*
X97901106Y-82306854D01*
X97936000Y-82131430D01*
X97936000Y-81952570D01*
X97901106Y-81777146D01*
X97832659Y-81611901D01*
X97780607Y-81534000D01*
X97832659Y-81456099D01*
X97901106Y-81290854D01*
X97936000Y-81115430D01*
X97936000Y-80936570D01*
X97901106Y-80761146D01*
X97832659Y-80595901D01*
X97780607Y-80518000D01*
X97832659Y-80440099D01*
X97901106Y-80274854D01*
X97936000Y-80099430D01*
X97936000Y-79920570D01*
X97901106Y-79745146D01*
X97832659Y-79579901D01*
X97780607Y-79502000D01*
X97832659Y-79424099D01*
X97901106Y-79258854D01*
X97936000Y-79083430D01*
X97936000Y-78904570D01*
X97901106Y-78729146D01*
X97832659Y-78563901D01*
X97780607Y-78486000D01*
X97832659Y-78408099D01*
X97901106Y-78242854D01*
X97936000Y-78067430D01*
X97936000Y-77888570D01*
X97901106Y-77713146D01*
X97832659Y-77547901D01*
X97733289Y-77399184D01*
X97606816Y-77272711D01*
X97458099Y-77173341D01*
X97292854Y-77104894D01*
X97117430Y-77070000D01*
X96938570Y-77070000D01*
X96763146Y-77104894D01*
X96597901Y-77173341D01*
X96449184Y-77272711D01*
X96351895Y-77370000D01*
X95533868Y-77370000D01*
X95504000Y-77367058D01*
X95384811Y-77378798D01*
X95270203Y-77413564D01*
X95164579Y-77470021D01*
X95071999Y-77545999D01*
X95052961Y-77569197D01*
X90396203Y-82225956D01*
X90372999Y-82244999D01*
X90297021Y-82337580D01*
X90240564Y-82443204D01*
X90218981Y-82514354D01*
X90205798Y-82557812D01*
X90194059Y-82677000D01*
X90197000Y-82706860D01*
X90197001Y-106301157D01*
X89357531Y-107140627D01*
X89229897Y-106985103D01*
X89023114Y-106815402D01*
X88787198Y-106689302D01*
X88531214Y-106611650D01*
X88331706Y-106592000D01*
X87818294Y-106592000D01*
X87618786Y-106611650D01*
X87362802Y-106689302D01*
X87126886Y-106815402D01*
X86920103Y-106985103D01*
X86750402Y-107191886D01*
X86624302Y-107427802D01*
X86546650Y-107683786D01*
X86520430Y-107950000D01*
X86546650Y-108216214D01*
X86624302Y-108472198D01*
X86699028Y-108612000D01*
X86643860Y-108612000D01*
X86614000Y-108609059D01*
X86584139Y-108612000D01*
X86494811Y-108620798D01*
X86380203Y-108655564D01*
X86274579Y-108712021D01*
X86181999Y-108787999D01*
X86162956Y-108811203D01*
X85429831Y-109544328D01*
X85320675Y-109435172D01*
X85098254Y-109286556D01*
X84937574Y-109220000D01*
X85098254Y-109153444D01*
X85320675Y-109004828D01*
X85509828Y-108815675D01*
X85658444Y-108593254D01*
X85760813Y-108346114D01*
X85813000Y-108083751D01*
X85813000Y-107816249D01*
X85760813Y-107553886D01*
X85658444Y-107306746D01*
X85509828Y-107084325D01*
X85320675Y-106895172D01*
X85098254Y-106746556D01*
X84851114Y-106644187D01*
X84588751Y-106592000D01*
X84321249Y-106592000D01*
X84058886Y-106644187D01*
X83811746Y-106746556D01*
X83630000Y-106867994D01*
X83448254Y-106746556D01*
X83201114Y-106644187D01*
X82938751Y-106592000D01*
X82671249Y-106592000D01*
X82408886Y-106644187D01*
X82161746Y-106746556D01*
X81939325Y-106895172D01*
X81750172Y-107084325D01*
X81601556Y-107306746D01*
X81499187Y-107553886D01*
X81447000Y-107816249D01*
X81447000Y-108083751D01*
X81499187Y-108346114D01*
X81601556Y-108593254D01*
X81750172Y-108815675D01*
X81939325Y-109004828D01*
X82161746Y-109153444D01*
X82322426Y-109220000D01*
X82161746Y-109286556D01*
X81939325Y-109435172D01*
X81750172Y-109624325D01*
X81601556Y-109846746D01*
X81499187Y-110093886D01*
X81447000Y-110356249D01*
X81447000Y-110623751D01*
X81499187Y-110886114D01*
X81601556Y-111133254D01*
X81750172Y-111355675D01*
X81939325Y-111544828D01*
X82161746Y-111693444D01*
X82322426Y-111760000D01*
X82161746Y-111826556D01*
X81939325Y-111975172D01*
X81750172Y-112164325D01*
X81601556Y-112386746D01*
X81499187Y-112633886D01*
X81447000Y-112896249D01*
X81447000Y-113163751D01*
X81499187Y-113426114D01*
X81601556Y-113673254D01*
X81750172Y-113895675D01*
X81939325Y-114084828D01*
X82161746Y-114233444D01*
X82408886Y-114335813D01*
X82671249Y-114388000D01*
X82938751Y-114388000D01*
X83201114Y-114335813D01*
X83448254Y-114233444D01*
X83630000Y-114112006D01*
X83811746Y-114233444D01*
X84058886Y-114335813D01*
X84321249Y-114388000D01*
X84588751Y-114388000D01*
X84851114Y-114335813D01*
X85098254Y-114233444D01*
X85117001Y-114220918D01*
X85117001Y-116588157D01*
X84886368Y-116818790D01*
X84851114Y-116804187D01*
X84588751Y-116752000D01*
X84321249Y-116752000D01*
X84058886Y-116804187D01*
X83811746Y-116906556D01*
X83630000Y-117027994D01*
X83448254Y-116906556D01*
X83201114Y-116804187D01*
X82938751Y-116752000D01*
X82671249Y-116752000D01*
X82408886Y-116804187D01*
X82161746Y-116906556D01*
X81939325Y-117055172D01*
X81750172Y-117244325D01*
X81601556Y-117466746D01*
X81499187Y-117713886D01*
X81447000Y-117976249D01*
X81447000Y-118243751D01*
X81499187Y-118506114D01*
X81601556Y-118753254D01*
X81750172Y-118975675D01*
X81939325Y-119164828D01*
X82161746Y-119313444D01*
X82322426Y-119380000D01*
X82161746Y-119446556D01*
X81939325Y-119595172D01*
X81750172Y-119784325D01*
X81601556Y-120006746D01*
X81499187Y-120253886D01*
X81447000Y-120516249D01*
X81447000Y-120783751D01*
X81499187Y-121046114D01*
X81601556Y-121293254D01*
X81750172Y-121515675D01*
X81939325Y-121704828D01*
X82161746Y-121853444D01*
X82408886Y-121955813D01*
X82671249Y-122008000D01*
X82938751Y-122008000D01*
X83201114Y-121955813D01*
X83448254Y-121853444D01*
X83630000Y-121732006D01*
X83811746Y-121853444D01*
X84058886Y-121955813D01*
X84321249Y-122008000D01*
X84588751Y-122008000D01*
X84851114Y-121955813D01*
X84886369Y-121941210D01*
X86670961Y-123725803D01*
X86689999Y-123749001D01*
X86763975Y-123809711D01*
X86782579Y-123824979D01*
X86888203Y-123881436D01*
X87002811Y-123916202D01*
X87122000Y-123927941D01*
X87151860Y-123925000D01*
X91618953Y-123925000D01*
X91633556Y-123960254D01*
X91782172Y-124182675D01*
X91971325Y-124371828D01*
X92193746Y-124520444D01*
X92294071Y-124562000D01*
X81644361Y-124562000D01*
X81554638Y-124452672D01*
X81474022Y-124301850D01*
X81424376Y-124138189D01*
X81407000Y-123961766D01*
X81407000Y-74920234D01*
X81424376Y-74743811D01*
X81474022Y-74580150D01*
X81554638Y-74429328D01*
X81663130Y-74297130D01*
X81795328Y-74188638D01*
X81946150Y-74108022D01*
X82109811Y-74058376D01*
X82286234Y-74041000D01*
X89678000Y-74041000D01*
X89690448Y-74040388D01*
X89885538Y-74021173D01*
X89909956Y-74016317D01*
X90097549Y-73959412D01*
X90120550Y-73949884D01*
X90293437Y-73857474D01*
X90314138Y-73843642D01*
X90465675Y-73719279D01*
X90483279Y-73701675D01*
X90607642Y-73550138D01*
X90621474Y-73529437D01*
X90713884Y-73356550D01*
X90723412Y-73333549D01*
X90780317Y-73145956D01*
X90785173Y-73121538D01*
X90804388Y-72926448D01*
X90805000Y-72914000D01*
X90805000Y-61712234D01*
X90822376Y-61535811D01*
X90872022Y-61372150D01*
X90952638Y-61221328D01*
X91061130Y-61089130D01*
X91193328Y-60980638D01*
X91344150Y-60900022D01*
X91507811Y-60850376D01*
X91684234Y-60833000D01*
X146313766Y-60833000D01*
X146490189Y-60850376D01*
%TA.AperFunction,Conductor*%
D31*
G36*
X146490189Y-60850376D02*
G01*
X146653850Y-60900022D01*
X146804672Y-60980638D01*
X146936870Y-61089130D01*
X147045362Y-61221328D01*
X147125978Y-61372150D01*
X147175624Y-61535811D01*
X147193000Y-61712234D01*
X147193000Y-66040000D01*
X147194087Y-66056577D01*
X147211397Y-66188057D01*
X147219977Y-66220080D01*
X147270726Y-66342600D01*
X147287303Y-66371313D01*
X147368034Y-66476523D01*
X147391477Y-66499966D01*
X147496687Y-66580697D01*
X147525400Y-66597274D01*
X147647920Y-66648023D01*
X147679943Y-66656603D01*
X147926325Y-66689040D01*
X148017951Y-66726993D01*
X148057000Y-66756957D01*
X148057000Y-75638473D01*
X146425776Y-74007249D01*
X146394212Y-73968788D01*
X146326058Y-73912855D01*
X146240724Y-73842824D01*
X146065611Y-73749224D01*
X145995157Y-73727852D01*
X145952345Y-73647756D01*
X145908000Y-73593721D01*
X145908000Y-71576279D01*
X145952345Y-71522244D01*
X146124874Y-71199466D01*
X146231116Y-70849232D01*
X146266990Y-70485000D01*
X146231116Y-70120768D01*
X146124874Y-69770534D01*
X145952345Y-69447756D01*
X145720161Y-69164839D01*
X145437244Y-68932655D01*
X145114466Y-68760126D01*
X144764232Y-68653884D01*
X144727052Y-68650222D01*
X144672146Y-68620874D01*
X144293637Y-68506055D01*
X143998638Y-68477000D01*
X143900000Y-68467285D01*
X143801362Y-68477000D01*
X139798638Y-68477000D01*
X139700000Y-68467285D01*
X139601363Y-68477000D01*
X139601362Y-68477000D01*
X139306363Y-68506055D01*
X138927854Y-68620874D01*
X138920990Y-68624543D01*
X138101100Y-68624543D01*
X137952528Y-68639176D01*
X137809665Y-68682513D01*
X137678002Y-68752888D01*
X137562598Y-68847598D01*
X137467888Y-68963002D01*
X137397513Y-69094665D01*
X137354176Y-69237528D01*
X137339543Y-69386100D01*
X137339543Y-71583900D01*
X137354176Y-71732472D01*
X137397513Y-71875335D01*
X137467888Y-72006998D01*
X137562598Y-72122402D01*
X137678002Y-72217112D01*
X137692001Y-72224594D01*
X137692000Y-73593721D01*
X137647655Y-73647756D01*
X137475126Y-73970534D01*
X137435676Y-74100583D01*
X135312260Y-76224000D01*
X129253000Y-76224000D01*
X129253000Y-76021279D01*
X129297345Y-75967244D01*
X129469874Y-75644466D01*
X129576116Y-75294232D01*
X129611990Y-74930000D01*
X129576116Y-74565768D01*
X129469874Y-74215534D01*
X129297345Y-73892756D01*
X129065161Y-73609839D01*
X128782244Y-73377655D01*
X128459466Y-73205126D01*
X128109232Y-73098884D01*
X128072051Y-73095222D01*
X128017145Y-73065874D01*
X127638636Y-72951055D01*
X127245000Y-72912285D01*
X126851363Y-72951055D01*
X126472854Y-73065874D01*
X126417948Y-73095222D01*
X126380768Y-73098884D01*
X126030534Y-73205126D01*
X125707756Y-73377655D01*
X125424839Y-73609839D01*
X125192655Y-73892756D01*
X125020126Y-74215534D01*
X124913884Y-74565768D01*
X124878010Y-74930000D01*
X124913884Y-75294232D01*
X125020126Y-75644466D01*
X125192655Y-75967244D01*
X125237000Y-76021279D01*
X125237000Y-76224000D01*
X124041629Y-76224000D01*
X123942999Y-76214286D01*
X123844369Y-76224000D01*
X123844362Y-76224000D01*
X123586640Y-76249383D01*
X123549362Y-76253055D01*
X123446226Y-76284341D01*
X123170854Y-76367874D01*
X122822018Y-76554331D01*
X122516260Y-76805260D01*
X122453374Y-76881887D01*
X121893260Y-77442000D01*
X119778096Y-77442000D01*
X119780000Y-77432430D01*
X119780000Y-77253570D01*
X119745106Y-77078146D01*
X119676659Y-76912901D01*
X119577289Y-76764184D01*
X119450816Y-76637711D01*
X119302099Y-76538341D01*
X119136854Y-76469894D01*
X118961430Y-76435000D01*
X118782570Y-76435000D01*
X118607146Y-76469894D01*
X118441901Y-76538341D01*
X118293184Y-76637711D01*
X118195895Y-76735000D01*
X115699026Y-76735000D01*
X115669166Y-76732059D01*
X115639305Y-76735000D01*
X115549977Y-76743798D01*
X115435369Y-76778564D01*
X115329745Y-76835021D01*
X115237165Y-76910999D01*
X115218127Y-76934197D01*
X110506043Y-81646282D01*
X110352146Y-81676894D01*
X110186901Y-81745341D01*
X110038184Y-81844711D01*
X109911711Y-81971184D01*
X109812341Y-82119901D01*
X109743894Y-82285146D01*
X109709000Y-82460570D01*
X109709000Y-82639430D01*
X109743894Y-82814854D01*
X109812341Y-82980099D01*
X109911711Y-83128816D01*
X110038184Y-83255289D01*
X110132171Y-83318089D01*
X108399878Y-85050382D01*
X108323261Y-85113260D01*
X108260383Y-85189877D01*
X108260382Y-85189878D01*
X108072332Y-85419018D01*
X107885875Y-85767854D01*
X107771055Y-86146363D01*
X107732285Y-86540000D01*
X107742001Y-86638647D01*
X107742000Y-92173637D01*
X107771055Y-92468636D01*
X107885874Y-92847145D01*
X107939543Y-92947553D01*
X107939543Y-94325000D01*
X107949351Y-94424585D01*
X107978399Y-94520343D01*
X108025571Y-94608595D01*
X108089052Y-94685948D01*
X108166405Y-94749429D01*
X108254657Y-94796601D01*
X108350415Y-94825649D01*
X108450000Y-94835457D01*
X110096803Y-94835457D01*
X108459878Y-96472382D01*
X108383261Y-96535260D01*
X108320383Y-96611877D01*
X108320382Y-96611878D01*
X108132332Y-96841018D01*
X107945875Y-97189854D01*
X107831055Y-97568363D01*
X107792285Y-97962000D01*
X107802001Y-98060647D01*
X107802000Y-100428637D01*
X107831055Y-100723636D01*
X107945874Y-101102145D01*
X107999543Y-101202553D01*
X107999543Y-102580000D01*
X108009351Y-102679585D01*
X108038399Y-102775343D01*
X108085571Y-102863595D01*
X108149052Y-102940948D01*
X108226405Y-103004429D01*
X108314657Y-103051601D01*
X108410415Y-103080649D01*
X108510000Y-103090457D01*
X111110000Y-103090457D01*
X111209585Y-103080649D01*
X111305343Y-103051601D01*
X111393595Y-103004429D01*
X111470948Y-102940948D01*
X111534429Y-102863595D01*
X111581601Y-102775343D01*
X111610649Y-102679585D01*
X111620457Y-102580000D01*
X111620457Y-101202553D01*
X111674126Y-101102146D01*
X111788945Y-100723637D01*
X111818000Y-100428638D01*
X111818000Y-98793740D01*
X112578739Y-98033001D01*
X112866361Y-98033001D01*
X112964999Y-98042716D01*
X113358636Y-98003946D01*
X113386772Y-97995411D01*
X113737145Y-97889127D01*
X114085981Y-97702670D01*
X114391739Y-97451741D01*
X114454621Y-97375119D01*
X115106280Y-96723461D01*
X115076285Y-97028000D01*
X115086001Y-97126647D01*
X115086000Y-102206637D01*
X115115055Y-102501636D01*
X115229874Y-102880145D01*
X115416331Y-103228982D01*
X115667260Y-103534740D01*
X115973018Y-103785669D01*
X116321854Y-103972126D01*
X116700363Y-104086945D01*
X117094000Y-104125715D01*
X117199983Y-104115277D01*
X109023260Y-112292000D01*
X106778627Y-112292000D01*
X106679999Y-112282286D01*
X106581371Y-112292000D01*
X106581362Y-112292000D01*
X106286363Y-112321055D01*
X105907854Y-112435874D01*
X105559018Y-112622331D01*
X105253260Y-112873260D01*
X105190382Y-112949877D01*
X102197500Y-115942760D01*
X100814000Y-114559260D01*
X100814000Y-102388092D01*
X100943986Y-102457571D01*
X101086642Y-102500845D01*
X101235000Y-102515457D01*
X103235000Y-102515457D01*
X103383358Y-102500845D01*
X103526014Y-102457571D01*
X103657487Y-102387297D01*
X103772724Y-102292724D01*
X103867297Y-102177487D01*
X103937571Y-102046014D01*
X103980845Y-101903358D01*
X103995457Y-101755000D01*
X103995457Y-101221097D01*
X104099126Y-101027146D01*
X104213945Y-100648637D01*
X104235781Y-100426938D01*
X104243000Y-100353638D01*
X104243000Y-100353637D01*
X104252715Y-100255000D01*
X104243000Y-100156362D01*
X104243000Y-95358627D01*
X104252714Y-95259999D01*
X104243000Y-95161371D01*
X104243000Y-95161362D01*
X104213945Y-94866363D01*
X104099126Y-94487854D01*
X103912669Y-94139018D01*
X103661740Y-93833260D01*
X103585118Y-93770378D01*
X100860457Y-91045717D01*
X100860457Y-89825000D01*
X100850649Y-89725415D01*
X100821601Y-89629657D01*
X100804509Y-89597681D01*
X100852998Y-89602457D01*
X101378002Y-89602457D01*
X101526359Y-89587845D01*
X101669016Y-89544571D01*
X101800488Y-89474297D01*
X101915725Y-89379725D01*
X101929250Y-89363245D01*
X101942775Y-89379725D01*
X102058012Y-89474297D01*
X102189484Y-89544571D01*
X102332141Y-89587845D01*
X102480498Y-89602457D01*
X103005502Y-89602457D01*
X103153859Y-89587845D01*
X103296516Y-89544571D01*
X103427988Y-89474297D01*
X103543225Y-89379725D01*
X103637797Y-89264488D01*
X103708071Y-89133016D01*
X103751345Y-88990359D01*
X103765957Y-88842002D01*
X103765957Y-88355884D01*
X104548804Y-87573038D01*
X104572001Y-87554001D01*
X104647979Y-87461421D01*
X104704436Y-87355797D01*
X104739202Y-87241189D01*
X104739375Y-87239429D01*
X104750941Y-87122001D01*
X104748000Y-87092140D01*
X104748000Y-85246860D01*
X104750941Y-85216999D01*
X104739202Y-85097811D01*
X104725117Y-85051380D01*
X104704436Y-84983203D01*
X104667000Y-84913165D01*
X104667000Y-84746570D01*
X104632106Y-84571146D01*
X104563659Y-84405901D01*
X104464289Y-84257184D01*
X104337816Y-84130711D01*
X104189099Y-84031341D01*
X104023854Y-83962894D01*
X103848430Y-83928000D01*
X103669570Y-83928000D01*
X103543001Y-83953176D01*
X103543001Y-78418840D01*
X104264841Y-77697000D01*
X106130895Y-77697000D01*
X106228184Y-77794289D01*
X106376901Y-77893659D01*
X106542146Y-77962106D01*
X106717570Y-77997000D01*
X106896430Y-77997000D01*
X107071854Y-77962106D01*
X107237099Y-77893659D01*
X107385816Y-77794289D01*
X107512289Y-77667816D01*
X107611659Y-77519099D01*
X107680106Y-77353854D01*
X107715000Y-77178430D01*
X107715000Y-76999570D01*
X107680106Y-76824146D01*
X107611659Y-76658901D01*
X107512289Y-76510184D01*
X107385816Y-76383711D01*
X107237099Y-76284341D01*
X107071854Y-76215894D01*
X106896430Y-76181000D01*
X106717570Y-76181000D01*
X106542146Y-76215894D01*
X106376901Y-76284341D01*
X106228184Y-76383711D01*
X106130895Y-76481000D01*
X104042860Y-76481000D01*
X104013000Y-76478059D01*
X103983139Y-76481000D01*
X103893811Y-76489798D01*
X103779203Y-76524564D01*
X103673579Y-76581021D01*
X103580999Y-76656999D01*
X103561956Y-76680203D01*
X102526199Y-77715960D01*
X102503001Y-77734998D01*
X102448308Y-77801642D01*
X102427022Y-77827579D01*
X102370566Y-77933202D01*
X102335799Y-78047811D01*
X102324060Y-78166999D01*
X102327002Y-78196870D01*
X102327002Y-79229512D01*
X102324430Y-79229000D01*
X102145570Y-79229000D01*
X102116309Y-79234820D01*
X102092106Y-79113146D01*
X102023659Y-78947901D01*
X101924289Y-78799184D01*
X101797816Y-78672711D01*
X101649099Y-78573341D01*
X101483854Y-78504894D01*
X101308430Y-78470000D01*
X101129570Y-78470000D01*
X101089019Y-78478066D01*
X101076106Y-78413146D01*
X101007659Y-78247901D01*
X100908289Y-78099184D01*
X100781816Y-77972711D01*
X100633099Y-77873341D01*
X100467854Y-77804894D01*
X100292430Y-77770000D01*
X100113570Y-77770000D01*
X100068000Y-77779064D01*
X100068000Y-75745457D01*
X100360000Y-75745457D01*
X100459585Y-75735649D01*
X100555343Y-75706601D01*
X100643595Y-75659429D01*
X100720948Y-75595948D01*
X100784429Y-75518595D01*
X100831601Y-75430343D01*
X100860649Y-75334585D01*
X100870457Y-75235000D01*
X100870457Y-70735000D01*
X104539543Y-70735000D01*
X104539543Y-75235000D01*
X104549351Y-75334585D01*
X104578399Y-75430343D01*
X104625571Y-75518595D01*
X104689052Y-75595948D01*
X104766405Y-75659429D01*
X104854657Y-75706601D01*
X104950415Y-75735649D01*
X105050000Y-75745457D01*
X107650000Y-75745457D01*
X107749585Y-75735649D01*
X107845343Y-75706601D01*
X107933595Y-75659429D01*
X108010948Y-75595948D01*
X108050000Y-75548362D01*
X108089052Y-75595948D01*
X108166405Y-75659429D01*
X108254657Y-75706601D01*
X108350415Y-75735649D01*
X108450000Y-75745457D01*
X111050000Y-75745457D01*
X111149585Y-75735649D01*
X111245343Y-75706601D01*
X111333595Y-75659429D01*
X111410948Y-75595948D01*
X111474429Y-75518595D01*
X111521601Y-75430343D01*
X111550649Y-75334585D01*
X111560457Y-75235000D01*
X111560457Y-70735000D01*
X111559965Y-70730000D01*
X124878010Y-70730000D01*
X124913884Y-71094232D01*
X125020126Y-71444466D01*
X125192655Y-71767244D01*
X125424839Y-72050161D01*
X125707756Y-72282345D01*
X126030534Y-72454874D01*
X126380768Y-72561116D01*
X126653724Y-72588000D01*
X127836276Y-72588000D01*
X128109232Y-72561116D01*
X128459466Y-72454874D01*
X128782244Y-72282345D01*
X129065161Y-72050161D01*
X129297345Y-71767244D01*
X129345000Y-71678088D01*
X129392655Y-71767244D01*
X129624839Y-72050161D01*
X129907756Y-72282345D01*
X130230534Y-72454874D01*
X130580768Y-72561116D01*
X130853724Y-72588000D01*
X132036276Y-72588000D01*
X132309232Y-72561116D01*
X132659466Y-72454874D01*
X132982244Y-72282345D01*
X133265161Y-72050161D01*
X133497345Y-71767244D01*
X133669874Y-71444466D01*
X133776116Y-71094232D01*
X133811990Y-70730000D01*
X133776116Y-70365768D01*
X133669874Y-70015534D01*
X133497345Y-69692756D01*
X133265161Y-69409839D01*
X132982244Y-69177655D01*
X132659466Y-69005126D01*
X132309232Y-68898884D01*
X132036276Y-68872000D01*
X130853724Y-68872000D01*
X130580768Y-68898884D01*
X130230534Y-69005126D01*
X129907756Y-69177655D01*
X129624839Y-69409839D01*
X129392655Y-69692756D01*
X129345000Y-69781912D01*
X129297345Y-69692756D01*
X129065161Y-69409839D01*
X128782244Y-69177655D01*
X128459466Y-69005126D01*
X128109232Y-68898884D01*
X127836276Y-68872000D01*
X126653724Y-68872000D01*
X126380768Y-68898884D01*
X126030534Y-69005126D01*
X125707756Y-69177655D01*
X125424839Y-69409839D01*
X125192655Y-69692756D01*
X125020126Y-70015534D01*
X124913884Y-70365768D01*
X124878010Y-70730000D01*
X111559965Y-70730000D01*
X111550649Y-70635415D01*
X111521601Y-70539657D01*
X111474429Y-70451405D01*
X111410948Y-70374052D01*
X111333595Y-70310571D01*
X111245343Y-70263399D01*
X111149585Y-70234351D01*
X111050000Y-70224543D01*
X109997500Y-70224543D01*
X109997500Y-69814496D01*
X109997845Y-69813359D01*
X110012457Y-69665002D01*
X110012457Y-68764998D01*
X109997845Y-68616641D01*
X109954571Y-68473984D01*
X109884297Y-68342512D01*
X109789725Y-68227275D01*
X109674488Y-68132703D01*
X109543016Y-68062429D01*
X109400359Y-68019155D01*
X109252002Y-68004543D01*
X108726998Y-68004543D01*
X108578641Y-68019155D01*
X108435984Y-68062429D01*
X108304512Y-68132703D01*
X108189275Y-68227275D01*
X108094703Y-68342512D01*
X108077000Y-68375632D01*
X108059297Y-68342512D01*
X107964725Y-68227275D01*
X107849488Y-68132703D01*
X107718016Y-68062429D01*
X107575359Y-68019155D01*
X107427002Y-68004543D01*
X106901998Y-68004543D01*
X106753641Y-68019155D01*
X106610984Y-68062429D01*
X106479512Y-68132703D01*
X106364275Y-68227275D01*
X106269703Y-68342512D01*
X106199429Y-68473984D01*
X106156155Y-68616641D01*
X106141543Y-68764998D01*
X106141543Y-69665002D01*
X106156155Y-69813359D01*
X106156500Y-69814497D01*
X106156500Y-70224543D01*
X105050000Y-70224543D01*
X104950415Y-70234351D01*
X104854657Y-70263399D01*
X104766405Y-70310571D01*
X104689052Y-70374052D01*
X104625571Y-70451405D01*
X104578399Y-70539657D01*
X104549351Y-70635415D01*
X104539543Y-70735000D01*
X100870457Y-70735000D01*
X100860649Y-70635415D01*
X100831601Y-70539657D01*
X100784429Y-70451405D01*
X100720948Y-70374052D01*
X100643595Y-70310571D01*
X100555343Y-70263399D01*
X100459585Y-70234351D01*
X100360000Y-70224543D01*
X97760000Y-70224543D01*
X97660415Y-70234351D01*
X97564657Y-70263399D01*
X97476405Y-70310571D01*
X97399052Y-70374052D01*
X97335571Y-70451405D01*
X97288399Y-70539657D01*
X97259351Y-70635415D01*
X97249543Y-70735000D01*
X97249543Y-75235000D01*
X97259351Y-75334585D01*
X97288399Y-75430343D01*
X97335571Y-75518595D01*
X97399052Y-75595948D01*
X97476405Y-75659429D01*
X97564657Y-75706601D01*
X97660415Y-75735649D01*
X97760000Y-75745457D01*
X98052000Y-75745457D01*
X98052001Y-89314543D01*
X97750000Y-89314543D01*
X97650415Y-89324351D01*
X97554657Y-89353399D01*
X97466405Y-89400571D01*
X97389052Y-89464052D01*
X97325571Y-89541405D01*
X97278399Y-89629657D01*
X97249351Y-89725415D01*
X97239543Y-89825000D01*
X97239543Y-91202448D01*
X97185875Y-91302854D01*
X97071055Y-91681363D01*
X97032285Y-92075000D01*
X97071055Y-92468637D01*
X97185875Y-92847146D01*
X97239543Y-92947552D01*
X97239543Y-94325000D01*
X97249351Y-94424585D01*
X97278399Y-94520343D01*
X97325571Y-94608595D01*
X97389052Y-94685948D01*
X97466405Y-94749429D01*
X97554657Y-94796601D01*
X97650415Y-94825649D01*
X97750000Y-94835457D01*
X98970717Y-94835457D01*
X100227001Y-96091741D01*
X100227000Y-98254816D01*
X100011363Y-98276055D01*
X99859902Y-98322000D01*
X98904637Y-98322000D01*
X98806000Y-98312285D01*
X98707362Y-98322000D01*
X96040362Y-98322000D01*
X95745363Y-98351055D01*
X95366854Y-98465874D01*
X95018018Y-98652331D01*
X94712260Y-98903260D01*
X94461331Y-99209018D01*
X94274874Y-99557854D01*
X94160055Y-99936363D01*
X94121285Y-100330000D01*
X94160055Y-100723637D01*
X94274874Y-101102146D01*
X94461331Y-101450982D01*
X94712260Y-101756740D01*
X95018018Y-102007669D01*
X95366854Y-102194126D01*
X95745363Y-102308945D01*
X96040362Y-102338000D01*
X96798000Y-102338000D01*
X96798001Y-115292352D01*
X96788285Y-115391000D01*
X96827055Y-115784637D01*
X96941875Y-116163146D01*
X97128332Y-116511982D01*
X97305027Y-116727285D01*
X97379261Y-116817740D01*
X97455877Y-116880617D01*
X100474543Y-119899284D01*
X100474543Y-120320000D01*
X100489155Y-120468358D01*
X100532429Y-120611014D01*
X100602703Y-120742487D01*
X100697276Y-120857724D01*
X100812513Y-120952297D01*
X100943986Y-121022571D01*
X101086642Y-121065845D01*
X101235000Y-121080457D01*
X102883702Y-121080457D01*
X101748610Y-122215549D01*
X101731429Y-122183405D01*
X101667948Y-122106052D01*
X101590595Y-122042571D01*
X101502343Y-121995399D01*
X101406585Y-121966351D01*
X101307000Y-121956543D01*
X99956385Y-121956543D01*
X98622043Y-120622202D01*
X98603001Y-120598999D01*
X98510421Y-120523021D01*
X98404797Y-120466564D01*
X98290189Y-120431798D01*
X98200861Y-120423000D01*
X98200860Y-120423000D01*
X98171000Y-120420059D01*
X98141140Y-120423000D01*
X93542842Y-120423000D01*
X93626804Y-120339038D01*
X93650001Y-120320001D01*
X93725979Y-120227421D01*
X93782436Y-120121797D01*
X93817202Y-120007189D01*
X93826000Y-119917861D01*
X93826000Y-119917860D01*
X93828941Y-119888000D01*
X93826000Y-119858140D01*
X93826000Y-85087841D01*
X94231842Y-84682000D01*
X96351895Y-84682000D01*
X96449184Y-84779289D01*
X96597901Y-84878659D01*
X96763146Y-84947106D01*
X96938570Y-84982000D01*
X97117430Y-84982000D01*
X97292854Y-84947106D01*
X97458099Y-84878659D01*
X97606816Y-84779289D01*
X97733289Y-84652816D01*
X97832659Y-84504099D01*
X97901106Y-84338854D01*
X97936000Y-84163430D01*
X97936000Y-83984570D01*
X97901106Y-83809146D01*
X97832659Y-83643901D01*
X97780607Y-83566000D01*
X97832659Y-83488099D01*
X97901106Y-83322854D01*
X97936000Y-83147430D01*
X97936000Y-82968570D01*
X97901106Y-82793146D01*
X97832659Y-82627901D01*
X97780607Y-82550000D01*
X97832659Y-82472099D01*
X97901106Y-82306854D01*
X97936000Y-82131430D01*
X97936000Y-81952570D01*
X97901106Y-81777146D01*
X97832659Y-81611901D01*
X97780607Y-81534000D01*
X97832659Y-81456099D01*
X97901106Y-81290854D01*
X97936000Y-81115430D01*
X97936000Y-80936570D01*
X97901106Y-80761146D01*
X97832659Y-80595901D01*
X97780607Y-80518000D01*
X97832659Y-80440099D01*
X97901106Y-80274854D01*
X97936000Y-80099430D01*
X97936000Y-79920570D01*
X97901106Y-79745146D01*
X97832659Y-79579901D01*
X97780607Y-79502000D01*
X97832659Y-79424099D01*
X97901106Y-79258854D01*
X97936000Y-79083430D01*
X97936000Y-78904570D01*
X97901106Y-78729146D01*
X97832659Y-78563901D01*
X97780607Y-78486000D01*
X97832659Y-78408099D01*
X97901106Y-78242854D01*
X97936000Y-78067430D01*
X97936000Y-77888570D01*
X97901106Y-77713146D01*
X97832659Y-77547901D01*
X97733289Y-77399184D01*
X97606816Y-77272711D01*
X97458099Y-77173341D01*
X97292854Y-77104894D01*
X97117430Y-77070000D01*
X96938570Y-77070000D01*
X96763146Y-77104894D01*
X96597901Y-77173341D01*
X96449184Y-77272711D01*
X96351895Y-77370000D01*
X95533868Y-77370000D01*
X95504000Y-77367058D01*
X95384811Y-77378798D01*
X95270203Y-77413564D01*
X95164579Y-77470021D01*
X95071999Y-77545999D01*
X95052961Y-77569197D01*
X90396203Y-82225956D01*
X90372999Y-82244999D01*
X90297021Y-82337580D01*
X90240564Y-82443204D01*
X90218981Y-82514354D01*
X90205798Y-82557812D01*
X90194059Y-82677000D01*
X90197000Y-82706860D01*
X90197001Y-106301157D01*
X89357531Y-107140627D01*
X89229897Y-106985103D01*
X89023114Y-106815402D01*
X88787198Y-106689302D01*
X88531214Y-106611650D01*
X88331706Y-106592000D01*
X87818294Y-106592000D01*
X87618786Y-106611650D01*
X87362802Y-106689302D01*
X87126886Y-106815402D01*
X86920103Y-106985103D01*
X86750402Y-107191886D01*
X86624302Y-107427802D01*
X86546650Y-107683786D01*
X86520430Y-107950000D01*
X86546650Y-108216214D01*
X86624302Y-108472198D01*
X86699028Y-108612000D01*
X86643860Y-108612000D01*
X86614000Y-108609059D01*
X86584139Y-108612000D01*
X86494811Y-108620798D01*
X86380203Y-108655564D01*
X86274579Y-108712021D01*
X86181999Y-108787999D01*
X86162956Y-108811203D01*
X85429831Y-109544328D01*
X85320675Y-109435172D01*
X85098254Y-109286556D01*
X84937574Y-109220000D01*
X85098254Y-109153444D01*
X85320675Y-109004828D01*
X85509828Y-108815675D01*
X85658444Y-108593254D01*
X85760813Y-108346114D01*
X85813000Y-108083751D01*
X85813000Y-107816249D01*
X85760813Y-107553886D01*
X85658444Y-107306746D01*
X85509828Y-107084325D01*
X85320675Y-106895172D01*
X85098254Y-106746556D01*
X84851114Y-106644187D01*
X84588751Y-106592000D01*
X84321249Y-106592000D01*
X84058886Y-106644187D01*
X83811746Y-106746556D01*
X83630000Y-106867994D01*
X83448254Y-106746556D01*
X83201114Y-106644187D01*
X82938751Y-106592000D01*
X82671249Y-106592000D01*
X82408886Y-106644187D01*
X82161746Y-106746556D01*
X81939325Y-106895172D01*
X81750172Y-107084325D01*
X81601556Y-107306746D01*
X81499187Y-107553886D01*
X81447000Y-107816249D01*
X81447000Y-108083751D01*
X81499187Y-108346114D01*
X81601556Y-108593254D01*
X81750172Y-108815675D01*
X81939325Y-109004828D01*
X82161746Y-109153444D01*
X82322426Y-109220000D01*
X82161746Y-109286556D01*
X81939325Y-109435172D01*
X81750172Y-109624325D01*
X81601556Y-109846746D01*
X81499187Y-110093886D01*
X81447000Y-110356249D01*
X81447000Y-110623751D01*
X81499187Y-110886114D01*
X81601556Y-111133254D01*
X81750172Y-111355675D01*
X81939325Y-111544828D01*
X82161746Y-111693444D01*
X82322426Y-111760000D01*
X82161746Y-111826556D01*
X81939325Y-111975172D01*
X81750172Y-112164325D01*
X81601556Y-112386746D01*
X81499187Y-112633886D01*
X81447000Y-112896249D01*
X81447000Y-113163751D01*
X81499187Y-113426114D01*
X81601556Y-113673254D01*
X81750172Y-113895675D01*
X81939325Y-114084828D01*
X82161746Y-114233444D01*
X82408886Y-114335813D01*
X82671249Y-114388000D01*
X82938751Y-114388000D01*
X83201114Y-114335813D01*
X83448254Y-114233444D01*
X83630000Y-114112006D01*
X83811746Y-114233444D01*
X84058886Y-114335813D01*
X84321249Y-114388000D01*
X84588751Y-114388000D01*
X84851114Y-114335813D01*
X85098254Y-114233444D01*
X85117001Y-114220918D01*
X85117001Y-116588157D01*
X84886368Y-116818790D01*
X84851114Y-116804187D01*
X84588751Y-116752000D01*
X84321249Y-116752000D01*
X84058886Y-116804187D01*
X83811746Y-116906556D01*
X83630000Y-117027994D01*
X83448254Y-116906556D01*
X83201114Y-116804187D01*
X82938751Y-116752000D01*
X82671249Y-116752000D01*
X82408886Y-116804187D01*
X82161746Y-116906556D01*
X81939325Y-117055172D01*
X81750172Y-117244325D01*
X81601556Y-117466746D01*
X81499187Y-117713886D01*
X81447000Y-117976249D01*
X81447000Y-118243751D01*
X81499187Y-118506114D01*
X81601556Y-118753254D01*
X81750172Y-118975675D01*
X81939325Y-119164828D01*
X82161746Y-119313444D01*
X82322426Y-119380000D01*
X82161746Y-119446556D01*
X81939325Y-119595172D01*
X81750172Y-119784325D01*
X81601556Y-120006746D01*
X81499187Y-120253886D01*
X81447000Y-120516249D01*
X81447000Y-120783751D01*
X81499187Y-121046114D01*
X81601556Y-121293254D01*
X81750172Y-121515675D01*
X81939325Y-121704828D01*
X82161746Y-121853444D01*
X82408886Y-121955813D01*
X82671249Y-122008000D01*
X82938751Y-122008000D01*
X83201114Y-121955813D01*
X83448254Y-121853444D01*
X83630000Y-121732006D01*
X83811746Y-121853444D01*
X84058886Y-121955813D01*
X84321249Y-122008000D01*
X84588751Y-122008000D01*
X84851114Y-121955813D01*
X84886369Y-121941210D01*
X86670961Y-123725803D01*
X86689999Y-123749001D01*
X86763975Y-123809711D01*
X86782579Y-123824979D01*
X86888203Y-123881436D01*
X87002811Y-123916202D01*
X87122000Y-123927941D01*
X87151860Y-123925000D01*
X91618953Y-123925000D01*
X91633556Y-123960254D01*
X91782172Y-124182675D01*
X91971325Y-124371828D01*
X92193746Y-124520444D01*
X92294071Y-124562000D01*
X81644361Y-124562000D01*
X81554638Y-124452672D01*
X81474022Y-124301850D01*
X81424376Y-124138189D01*
X81407000Y-123961766D01*
X81407000Y-74920234D01*
X81424376Y-74743811D01*
X81474022Y-74580150D01*
X81554638Y-74429328D01*
X81663130Y-74297130D01*
X81795328Y-74188638D01*
X81946150Y-74108022D01*
X82109811Y-74058376D01*
X82286234Y-74041000D01*
X89678000Y-74041000D01*
X89690448Y-74040388D01*
X89885538Y-74021173D01*
X89909956Y-74016317D01*
X90097549Y-73959412D01*
X90120550Y-73949884D01*
X90293437Y-73857474D01*
X90314138Y-73843642D01*
X90465675Y-73719279D01*
X90483279Y-73701675D01*
X90607642Y-73550138D01*
X90621474Y-73529437D01*
X90713884Y-73356550D01*
X90723412Y-73333549D01*
X90780317Y-73145956D01*
X90785173Y-73121538D01*
X90804388Y-72926448D01*
X90805000Y-72914000D01*
X90805000Y-61712234D01*
X90822376Y-61535811D01*
X90872022Y-61372150D01*
X90952638Y-61221328D01*
X91061130Y-61089130D01*
X91193328Y-60980638D01*
X91344150Y-60900022D01*
X91507811Y-60850376D01*
X91684234Y-60833000D01*
X146313766Y-60833000D01*
X146490189Y-60850376D01*
G37*
%TD.AperFunction*%
D30*
X86920103Y-119074897D02*
X87126886Y-119244598D01*
X87362802Y-119370698D01*
X87393467Y-119380000D01*
X87362802Y-119389302D01*
X87126886Y-119515402D01*
X86920103Y-119685103D01*
X86750402Y-119891886D01*
X86624302Y-120127802D01*
X86546650Y-120383786D01*
X86520430Y-120650000D01*
X86546650Y-120916214D01*
X86624302Y-121172198D01*
X86750402Y-121408114D01*
X86920103Y-121614897D01*
X87126886Y-121784598D01*
X87362802Y-121910698D01*
X87618786Y-121988350D01*
X87818294Y-122008000D01*
X88331706Y-122008000D01*
X88531214Y-121988350D01*
X88787198Y-121910698D01*
X89023114Y-121784598D01*
X89229897Y-121614897D01*
X89399598Y-121408114D01*
X89479836Y-121258000D01*
X92204159Y-121258000D01*
X92385956Y-121439797D01*
X92404999Y-121463001D01*
X92497579Y-121538979D01*
X92603203Y-121595436D01*
X92717811Y-121630202D01*
X92836999Y-121641941D01*
X92866860Y-121639000D01*
X97919159Y-121639000D01*
X99096543Y-122816385D01*
X99096543Y-124167000D01*
X99106351Y-124266585D01*
X99135399Y-124362343D01*
X99182571Y-124450595D01*
X99246052Y-124527948D01*
X99287545Y-124562000D01*
X95919929Y-124562000D01*
X96020254Y-124520444D01*
X96242675Y-124371828D01*
X96431828Y-124182675D01*
X96580444Y-123960254D01*
X96682813Y-123713114D01*
X96735000Y-123450751D01*
X96735000Y-123183249D01*
X96682813Y-122920886D01*
X96580444Y-122673746D01*
X96431828Y-122451325D01*
X96242675Y-122262172D01*
X96020254Y-122113556D01*
X95773114Y-122011187D01*
X95510751Y-121959000D01*
X95243249Y-121959000D01*
X94980886Y-122011187D01*
X94733746Y-122113556D01*
X94511325Y-122262172D01*
X94322172Y-122451325D01*
X94173556Y-122673746D01*
X94107000Y-122834426D01*
X94040444Y-122673746D01*
X93891828Y-122451325D01*
X93702675Y-122262172D01*
X93480254Y-122113556D01*
X93233114Y-122011187D01*
X92970751Y-121959000D01*
X92703249Y-121959000D01*
X92440886Y-122011187D01*
X92193746Y-122113556D01*
X91971325Y-122262172D01*
X91782172Y-122451325D01*
X91633556Y-122673746D01*
X91618953Y-122709000D01*
X87373842Y-122709000D01*
X85746210Y-121081369D01*
X85760813Y-121046114D01*
X85813000Y-120783751D01*
X85813000Y-120516249D01*
X85760813Y-120253886D01*
X85746210Y-120218631D01*
X86768797Y-119196044D01*
X86792001Y-119177001D01*
X86867979Y-119084421D01*
X86891621Y-119040191D01*
X86920103Y-119074897D01*
%TA.AperFunction,Conductor*%
D31*
G36*
X86920103Y-119074897D02*
G01*
X87126886Y-119244598D01*
X87362802Y-119370698D01*
X87393467Y-119380000D01*
X87362802Y-119389302D01*
X87126886Y-119515402D01*
X86920103Y-119685103D01*
X86750402Y-119891886D01*
X86624302Y-120127802D01*
X86546650Y-120383786D01*
X86520430Y-120650000D01*
X86546650Y-120916214D01*
X86624302Y-121172198D01*
X86750402Y-121408114D01*
X86920103Y-121614897D01*
X87126886Y-121784598D01*
X87362802Y-121910698D01*
X87618786Y-121988350D01*
X87818294Y-122008000D01*
X88331706Y-122008000D01*
X88531214Y-121988350D01*
X88787198Y-121910698D01*
X89023114Y-121784598D01*
X89229897Y-121614897D01*
X89399598Y-121408114D01*
X89479836Y-121258000D01*
X92204159Y-121258000D01*
X92385956Y-121439797D01*
X92404999Y-121463001D01*
X92497579Y-121538979D01*
X92603203Y-121595436D01*
X92717811Y-121630202D01*
X92836999Y-121641941D01*
X92866860Y-121639000D01*
X97919159Y-121639000D01*
X99096543Y-122816385D01*
X99096543Y-124167000D01*
X99106351Y-124266585D01*
X99135399Y-124362343D01*
X99182571Y-124450595D01*
X99246052Y-124527948D01*
X99287545Y-124562000D01*
X95919929Y-124562000D01*
X96020254Y-124520444D01*
X96242675Y-124371828D01*
X96431828Y-124182675D01*
X96580444Y-123960254D01*
X96682813Y-123713114D01*
X96735000Y-123450751D01*
X96735000Y-123183249D01*
X96682813Y-122920886D01*
X96580444Y-122673746D01*
X96431828Y-122451325D01*
X96242675Y-122262172D01*
X96020254Y-122113556D01*
X95773114Y-122011187D01*
X95510751Y-121959000D01*
X95243249Y-121959000D01*
X94980886Y-122011187D01*
X94733746Y-122113556D01*
X94511325Y-122262172D01*
X94322172Y-122451325D01*
X94173556Y-122673746D01*
X94107000Y-122834426D01*
X94040444Y-122673746D01*
X93891828Y-122451325D01*
X93702675Y-122262172D01*
X93480254Y-122113556D01*
X93233114Y-122011187D01*
X92970751Y-121959000D01*
X92703249Y-121959000D01*
X92440886Y-122011187D01*
X92193746Y-122113556D01*
X91971325Y-122262172D01*
X91782172Y-122451325D01*
X91633556Y-122673746D01*
X91618953Y-122709000D01*
X87373842Y-122709000D01*
X85746210Y-121081369D01*
X85760813Y-121046114D01*
X85813000Y-120783751D01*
X85813000Y-120516249D01*
X85760813Y-120253886D01*
X85746210Y-120218631D01*
X86768797Y-119196044D01*
X86792001Y-119177001D01*
X86867979Y-119084421D01*
X86891621Y-119040191D01*
X86920103Y-119074897D01*
G37*
%TD.AperFunction*%
D30*
X91307203Y-118093488D02*
X91372867Y-118173500D01*
X91307203Y-118253512D01*
X91236929Y-118384984D01*
X91193655Y-118527641D01*
X91179043Y-118675998D01*
X91179043Y-119576002D01*
X91193655Y-119724359D01*
X91236929Y-119867016D01*
X91307203Y-119998488D01*
X91342912Y-120042000D01*
X89479836Y-120042000D01*
X89399598Y-119891886D01*
X89229897Y-119685103D01*
X89023114Y-119515402D01*
X88787198Y-119389302D01*
X88756533Y-119380000D01*
X88787198Y-119370698D01*
X89023114Y-119244598D01*
X89229897Y-119074897D01*
X89399598Y-118868114D01*
X89525698Y-118632198D01*
X89603350Y-118376214D01*
X89616625Y-118241429D01*
X89692012Y-118303297D01*
X89823484Y-118373571D01*
X89966141Y-118416845D01*
X90114498Y-118431457D01*
X90639502Y-118431457D01*
X90787859Y-118416845D01*
X90930516Y-118373571D01*
X91061988Y-118303297D01*
X91177225Y-118208725D01*
X91271797Y-118093488D01*
X91289500Y-118060368D01*
X91307203Y-118093488D01*
%TA.AperFunction,Conductor*%
D31*
G36*
X91307203Y-118093488D02*
G01*
X91372867Y-118173500D01*
X91307203Y-118253512D01*
X91236929Y-118384984D01*
X91193655Y-118527641D01*
X91179043Y-118675998D01*
X91179043Y-119576002D01*
X91193655Y-119724359D01*
X91236929Y-119867016D01*
X91307203Y-119998488D01*
X91342912Y-120042000D01*
X89479836Y-120042000D01*
X89399598Y-119891886D01*
X89229897Y-119685103D01*
X89023114Y-119515402D01*
X88787198Y-119389302D01*
X88756533Y-119380000D01*
X88787198Y-119370698D01*
X89023114Y-119244598D01*
X89229897Y-119074897D01*
X89399598Y-118868114D01*
X89525698Y-118632198D01*
X89603350Y-118376214D01*
X89616625Y-118241429D01*
X89692012Y-118303297D01*
X89823484Y-118373571D01*
X89966141Y-118416845D01*
X90114498Y-118431457D01*
X90639502Y-118431457D01*
X90787859Y-118416845D01*
X90930516Y-118373571D01*
X91061988Y-118303297D01*
X91177225Y-118208725D01*
X91271797Y-118093488D01*
X91289500Y-118060368D01*
X91307203Y-118093488D01*
G37*
%TD.AperFunction*%
D30*
X146439000Y-109882000D02*
X138332857Y-109882000D01*
X138302999Y-109879059D01*
X138273141Y-109882000D01*
X138273139Y-109882000D01*
X138183811Y-109890798D01*
X138069203Y-109925564D01*
X137963579Y-109982021D01*
X137870999Y-110057999D01*
X137851961Y-110081197D01*
X135645160Y-112287999D01*
X135603738Y-112287999D01*
X135696444Y-112149254D01*
X135798813Y-111902114D01*
X135851000Y-111639751D01*
X135851000Y-111372249D01*
X135798813Y-111109886D01*
X135696444Y-110862746D01*
X135547828Y-110640325D01*
X135358675Y-110451172D01*
X135136254Y-110302556D01*
X134889114Y-110200187D01*
X134626751Y-110148000D01*
X134359249Y-110148000D01*
X134096886Y-110200187D01*
X133849746Y-110302556D01*
X133627325Y-110451172D01*
X133438172Y-110640325D01*
X133289556Y-110862746D01*
X133223000Y-111023426D01*
X133156444Y-110862746D01*
X133007828Y-110640325D01*
X132818675Y-110451172D01*
X132596254Y-110302556D01*
X132349114Y-110200187D01*
X132086751Y-110148000D01*
X131819249Y-110148000D01*
X131556886Y-110200187D01*
X131309746Y-110302556D01*
X131087325Y-110451172D01*
X130898172Y-110640325D01*
X130773457Y-110826975D01*
X130773457Y-110656000D01*
X130763649Y-110556415D01*
X130734601Y-110460657D01*
X130687429Y-110372405D01*
X130623948Y-110295052D01*
X130546595Y-110231571D01*
X130458343Y-110184399D01*
X130362585Y-110155351D01*
X130263000Y-110145543D01*
X128933832Y-110145543D01*
X129584613Y-109494762D01*
X129608764Y-109474942D01*
X129687866Y-109378555D01*
X129689961Y-109374635D01*
X129776014Y-109304014D01*
X129794000Y-109282098D01*
X129811986Y-109304014D01*
X129912070Y-109386150D01*
X130026254Y-109447183D01*
X130150151Y-109484767D01*
X130279000Y-109497457D01*
X130579000Y-109497457D01*
X130707849Y-109484767D01*
X130831746Y-109447183D01*
X130945930Y-109386150D01*
X131046014Y-109304014D01*
X131128150Y-109203930D01*
X131188513Y-109091000D01*
X131459597Y-109091000D01*
X131480703Y-109130487D01*
X131575276Y-109245724D01*
X131690513Y-109340297D01*
X131821986Y-109410571D01*
X131964642Y-109453845D01*
X132113000Y-109468457D01*
X133063000Y-109468457D01*
X133211358Y-109453845D01*
X133354014Y-109410571D01*
X133485487Y-109340297D01*
X133600724Y-109245724D01*
X133695297Y-109130487D01*
X133765571Y-108999014D01*
X133808845Y-108856358D01*
X133823457Y-108708000D01*
X133823457Y-108208000D01*
X133815364Y-108125833D01*
X134882198Y-107059000D01*
X145383912Y-107059000D01*
X145415000Y-107062062D01*
X145446088Y-107059000D01*
X145539090Y-107049840D01*
X145658410Y-107013645D01*
X145768377Y-106954866D01*
X145864764Y-106875764D01*
X145884584Y-106851613D01*
X146439000Y-106297197D01*
X146439000Y-109882000D01*
%TA.AperFunction,Conductor*%
D31*
G36*
X146439000Y-109882000D02*
G01*
X138332857Y-109882000D01*
X138302999Y-109879059D01*
X138273141Y-109882000D01*
X138273139Y-109882000D01*
X138183811Y-109890798D01*
X138069203Y-109925564D01*
X137963579Y-109982021D01*
X137870999Y-110057999D01*
X137851961Y-110081197D01*
X135645160Y-112287999D01*
X135603738Y-112287999D01*
X135696444Y-112149254D01*
X135798813Y-111902114D01*
X135851000Y-111639751D01*
X135851000Y-111372249D01*
X135798813Y-111109886D01*
X135696444Y-110862746D01*
X135547828Y-110640325D01*
X135358675Y-110451172D01*
X135136254Y-110302556D01*
X134889114Y-110200187D01*
X134626751Y-110148000D01*
X134359249Y-110148000D01*
X134096886Y-110200187D01*
X133849746Y-110302556D01*
X133627325Y-110451172D01*
X133438172Y-110640325D01*
X133289556Y-110862746D01*
X133223000Y-111023426D01*
X133156444Y-110862746D01*
X133007828Y-110640325D01*
X132818675Y-110451172D01*
X132596254Y-110302556D01*
X132349114Y-110200187D01*
X132086751Y-110148000D01*
X131819249Y-110148000D01*
X131556886Y-110200187D01*
X131309746Y-110302556D01*
X131087325Y-110451172D01*
X130898172Y-110640325D01*
X130773457Y-110826975D01*
X130773457Y-110656000D01*
X130763649Y-110556415D01*
X130734601Y-110460657D01*
X130687429Y-110372405D01*
X130623948Y-110295052D01*
X130546595Y-110231571D01*
X130458343Y-110184399D01*
X130362585Y-110155351D01*
X130263000Y-110145543D01*
X128933832Y-110145543D01*
X129584613Y-109494762D01*
X129608764Y-109474942D01*
X129687866Y-109378555D01*
X129689961Y-109374635D01*
X129776014Y-109304014D01*
X129794000Y-109282098D01*
X129811986Y-109304014D01*
X129912070Y-109386150D01*
X130026254Y-109447183D01*
X130150151Y-109484767D01*
X130279000Y-109497457D01*
X130579000Y-109497457D01*
X130707849Y-109484767D01*
X130831746Y-109447183D01*
X130945930Y-109386150D01*
X131046014Y-109304014D01*
X131128150Y-109203930D01*
X131188513Y-109091000D01*
X131459597Y-109091000D01*
X131480703Y-109130487D01*
X131575276Y-109245724D01*
X131690513Y-109340297D01*
X131821986Y-109410571D01*
X131964642Y-109453845D01*
X132113000Y-109468457D01*
X133063000Y-109468457D01*
X133211358Y-109453845D01*
X133354014Y-109410571D01*
X133485487Y-109340297D01*
X133600724Y-109245724D01*
X133695297Y-109130487D01*
X133765571Y-108999014D01*
X133808845Y-108856358D01*
X133823457Y-108708000D01*
X133823457Y-108208000D01*
X133815364Y-108125833D01*
X134882198Y-107059000D01*
X145383912Y-107059000D01*
X145415000Y-107062062D01*
X145446088Y-107059000D01*
X145539090Y-107049840D01*
X145658410Y-107013645D01*
X145768377Y-106954866D01*
X145864764Y-106875764D01*
X145884584Y-106851613D01*
X146439000Y-106297197D01*
X146439000Y-109882000D01*
G37*
%TD.AperFunction*%
D30*
X134058171Y-103203368D02*
X134077991Y-103227519D01*
X134174378Y-103306621D01*
X134284345Y-103365400D01*
X134401499Y-103400938D01*
X134403665Y-103401595D01*
X134527755Y-103413817D01*
X134558843Y-103410755D01*
X138107336Y-103410755D01*
X138138424Y-103413817D01*
X138169512Y-103410755D01*
X138262514Y-103401595D01*
X138381834Y-103365400D01*
X138491801Y-103306621D01*
X138588188Y-103227519D01*
X138608009Y-103203367D01*
X138768386Y-103042990D01*
X141851566Y-103042990D01*
X141847655Y-103047756D01*
X141675126Y-103370534D01*
X141568884Y-103720768D01*
X141533010Y-104085000D01*
X141568884Y-104449232D01*
X141675126Y-104799466D01*
X141847655Y-105122244D01*
X142079839Y-105405161D01*
X142362756Y-105637345D01*
X142653965Y-105793000D01*
X134651088Y-105793000D01*
X134620000Y-105789938D01*
X134588912Y-105793000D01*
X134495910Y-105802160D01*
X134376590Y-105838355D01*
X134266623Y-105897134D01*
X134210735Y-105943000D01*
X134170236Y-105976236D01*
X134150420Y-106000382D01*
X132703260Y-107447543D01*
X132113000Y-107447543D01*
X131964642Y-107462155D01*
X131821986Y-107505429D01*
X131690513Y-107575703D01*
X131575276Y-107670276D01*
X131480703Y-107785513D01*
X131459597Y-107825000D01*
X131239457Y-107825000D01*
X131239457Y-107187000D01*
X131226767Y-107058151D01*
X131189183Y-106934254D01*
X131128150Y-106820070D01*
X131046014Y-106719986D01*
X130945930Y-106637850D01*
X130900274Y-106613446D01*
X130878764Y-106587236D01*
X130854614Y-106567417D01*
X130414584Y-106127387D01*
X130394764Y-106103236D01*
X130298377Y-106024134D01*
X130188410Y-105965355D01*
X130069090Y-105929160D01*
X129976088Y-105920000D01*
X129945000Y-105916938D01*
X129913912Y-105920000D01*
X128809085Y-105920000D01*
X128777999Y-105916938D01*
X128746913Y-105920000D01*
X128746912Y-105920000D01*
X128653910Y-105929160D01*
X128534590Y-105965355D01*
X128424623Y-106024134D01*
X128328236Y-106103236D01*
X128308412Y-106127392D01*
X128098383Y-106337420D01*
X128074237Y-106357236D01*
X127995134Y-106453623D01*
X127936355Y-106563590D01*
X127900160Y-106682910D01*
X127899306Y-106691579D01*
X127887938Y-106807000D01*
X127891000Y-106838088D01*
X127891000Y-107283912D01*
X127887938Y-107315000D01*
X127891001Y-107346098D01*
X127891000Y-108761571D01*
X127488561Y-109164010D01*
X127339488Y-109164010D01*
X127379183Y-109089746D01*
X127416767Y-108965849D01*
X127429457Y-108837000D01*
X127429457Y-107187000D01*
X127416767Y-107058151D01*
X127379183Y-106934254D01*
X127318150Y-106820070D01*
X127252000Y-106739465D01*
X127252000Y-105693675D01*
X127255062Y-105662589D01*
X127252000Y-105631502D01*
X127242840Y-105538500D01*
X127206645Y-105419180D01*
X127147866Y-105309213D01*
X127068764Y-105212826D01*
X127044618Y-105193010D01*
X126391424Y-104539817D01*
X126469000Y-104547457D01*
X126769000Y-104547457D01*
X126897849Y-104534767D01*
X127021746Y-104497183D01*
X127135930Y-104436150D01*
X127236014Y-104354014D01*
X127254000Y-104332098D01*
X127271986Y-104354014D01*
X127372070Y-104436150D01*
X127417728Y-104460555D01*
X127439237Y-104486764D01*
X127463383Y-104506580D01*
X127903416Y-104946613D01*
X127923236Y-104970764D01*
X128019623Y-105049866D01*
X128129590Y-105108645D01*
X128248910Y-105144840D01*
X128341912Y-105154000D01*
X128341913Y-105154000D01*
X128372999Y-105157062D01*
X128404085Y-105154000D01*
X130651912Y-105154000D01*
X130683000Y-105157062D01*
X130714088Y-105154000D01*
X130807090Y-105144840D01*
X130926410Y-105108645D01*
X131036377Y-105049866D01*
X131132764Y-104970764D01*
X131152585Y-104946612D01*
X131489609Y-104609587D01*
X131513764Y-104589764D01*
X131592866Y-104493377D01*
X131651645Y-104383410D01*
X131687840Y-104264090D01*
X131697000Y-104171088D01*
X131697000Y-104171087D01*
X131700062Y-104140001D01*
X131697000Y-104108915D01*
X131697000Y-103513197D01*
X131701192Y-103509005D01*
X131821986Y-103573571D01*
X131964642Y-103616845D01*
X132113000Y-103631457D01*
X133063000Y-103631457D01*
X133211358Y-103616845D01*
X133354014Y-103573571D01*
X133485487Y-103503297D01*
X133600724Y-103408724D01*
X133695297Y-103293487D01*
X133765571Y-103162014D01*
X133808845Y-103019358D01*
X133814701Y-102959898D01*
X134058171Y-103203368D01*
%TA.AperFunction,Conductor*%
D31*
G36*
X134058171Y-103203368D02*
G01*
X134077991Y-103227519D01*
X134174378Y-103306621D01*
X134284345Y-103365400D01*
X134401499Y-103400938D01*
X134403665Y-103401595D01*
X134527755Y-103413817D01*
X134558843Y-103410755D01*
X138107336Y-103410755D01*
X138138424Y-103413817D01*
X138169512Y-103410755D01*
X138262514Y-103401595D01*
X138381834Y-103365400D01*
X138491801Y-103306621D01*
X138588188Y-103227519D01*
X138608009Y-103203367D01*
X138768386Y-103042990D01*
X141851566Y-103042990D01*
X141847655Y-103047756D01*
X141675126Y-103370534D01*
X141568884Y-103720768D01*
X141533010Y-104085000D01*
X141568884Y-104449232D01*
X141675126Y-104799466D01*
X141847655Y-105122244D01*
X142079839Y-105405161D01*
X142362756Y-105637345D01*
X142653965Y-105793000D01*
X134651088Y-105793000D01*
X134620000Y-105789938D01*
X134588912Y-105793000D01*
X134495910Y-105802160D01*
X134376590Y-105838355D01*
X134266623Y-105897134D01*
X134210735Y-105943000D01*
X134170236Y-105976236D01*
X134150420Y-106000382D01*
X132703260Y-107447543D01*
X132113000Y-107447543D01*
X131964642Y-107462155D01*
X131821986Y-107505429D01*
X131690513Y-107575703D01*
X131575276Y-107670276D01*
X131480703Y-107785513D01*
X131459597Y-107825000D01*
X131239457Y-107825000D01*
X131239457Y-107187000D01*
X131226767Y-107058151D01*
X131189183Y-106934254D01*
X131128150Y-106820070D01*
X131046014Y-106719986D01*
X130945930Y-106637850D01*
X130900274Y-106613446D01*
X130878764Y-106587236D01*
X130854614Y-106567417D01*
X130414584Y-106127387D01*
X130394764Y-106103236D01*
X130298377Y-106024134D01*
X130188410Y-105965355D01*
X130069090Y-105929160D01*
X129976088Y-105920000D01*
X129945000Y-105916938D01*
X129913912Y-105920000D01*
X128809085Y-105920000D01*
X128777999Y-105916938D01*
X128746913Y-105920000D01*
X128746912Y-105920000D01*
X128653910Y-105929160D01*
X128534590Y-105965355D01*
X128424623Y-106024134D01*
X128328236Y-106103236D01*
X128308412Y-106127392D01*
X128098383Y-106337420D01*
X128074237Y-106357236D01*
X127995134Y-106453623D01*
X127936355Y-106563590D01*
X127900160Y-106682910D01*
X127899306Y-106691579D01*
X127887938Y-106807000D01*
X127891000Y-106838088D01*
X127891000Y-107283912D01*
X127887938Y-107315000D01*
X127891001Y-107346098D01*
X127891000Y-108761571D01*
X127488561Y-109164010D01*
X127339488Y-109164010D01*
X127379183Y-109089746D01*
X127416767Y-108965849D01*
X127429457Y-108837000D01*
X127429457Y-107187000D01*
X127416767Y-107058151D01*
X127379183Y-106934254D01*
X127318150Y-106820070D01*
X127252000Y-106739465D01*
X127252000Y-105693675D01*
X127255062Y-105662589D01*
X127252000Y-105631502D01*
X127242840Y-105538500D01*
X127206645Y-105419180D01*
X127147866Y-105309213D01*
X127068764Y-105212826D01*
X127044618Y-105193010D01*
X126391424Y-104539817D01*
X126469000Y-104547457D01*
X126769000Y-104547457D01*
X126897849Y-104534767D01*
X127021746Y-104497183D01*
X127135930Y-104436150D01*
X127236014Y-104354014D01*
X127254000Y-104332098D01*
X127271986Y-104354014D01*
X127372070Y-104436150D01*
X127417728Y-104460555D01*
X127439237Y-104486764D01*
X127463383Y-104506580D01*
X127903416Y-104946613D01*
X127923236Y-104970764D01*
X128019623Y-105049866D01*
X128129590Y-105108645D01*
X128248910Y-105144840D01*
X128341912Y-105154000D01*
X128341913Y-105154000D01*
X128372999Y-105157062D01*
X128404085Y-105154000D01*
X130651912Y-105154000D01*
X130683000Y-105157062D01*
X130714088Y-105154000D01*
X130807090Y-105144840D01*
X130926410Y-105108645D01*
X131036377Y-105049866D01*
X131132764Y-104970764D01*
X131152585Y-104946612D01*
X131489609Y-104609587D01*
X131513764Y-104589764D01*
X131592866Y-104493377D01*
X131651645Y-104383410D01*
X131687840Y-104264090D01*
X131697000Y-104171088D01*
X131697000Y-104171087D01*
X131700062Y-104140001D01*
X131697000Y-104108915D01*
X131697000Y-103513197D01*
X131701192Y-103509005D01*
X131821986Y-103573571D01*
X131964642Y-103616845D01*
X132113000Y-103631457D01*
X133063000Y-103631457D01*
X133211358Y-103616845D01*
X133354014Y-103573571D01*
X133485487Y-103503297D01*
X133600724Y-103408724D01*
X133695297Y-103293487D01*
X133765571Y-103162014D01*
X133808845Y-103019358D01*
X133814701Y-102959898D01*
X134058171Y-103203368D01*
G37*
%TD.AperFunction*%
D30*
X123377703Y-99316988D02*
X123472275Y-99432225D01*
X123587512Y-99526797D01*
X123620632Y-99544500D01*
X123587512Y-99562203D01*
X123472275Y-99656775D01*
X123377703Y-99772012D01*
X123307429Y-99903484D01*
X123264155Y-100046141D01*
X123249543Y-100194498D01*
X123249543Y-100719502D01*
X123264155Y-100867859D01*
X123307429Y-101010516D01*
X123377703Y-101141988D01*
X123472275Y-101257225D01*
X123474438Y-101259000D01*
X123472275Y-101260775D01*
X123377703Y-101376012D01*
X123307429Y-101507484D01*
X123264155Y-101650141D01*
X123249543Y-101798498D01*
X123249543Y-102323502D01*
X123264155Y-102471859D01*
X123307429Y-102614516D01*
X123377703Y-102745988D01*
X123472275Y-102861225D01*
X123587512Y-102955797D01*
X123718984Y-103026071D01*
X123861641Y-103069345D01*
X124009998Y-103083957D01*
X124413760Y-103083957D01*
X124852011Y-103522209D01*
X124852010Y-104497511D01*
X124848948Y-104528600D01*
X124854972Y-104589764D01*
X124861170Y-104652689D01*
X124887184Y-104738445D01*
X124858594Y-104732758D01*
X124759009Y-104722950D01*
X124734449Y-104722950D01*
X124710000Y-104720542D01*
X124210000Y-104720542D01*
X124185551Y-104722950D01*
X124160991Y-104722950D01*
X124061406Y-104732758D01*
X123965273Y-104751880D01*
X123869517Y-104780927D01*
X123778961Y-104818436D01*
X123706148Y-104857355D01*
X123533434Y-104823000D01*
X123354574Y-104823000D01*
X123179150Y-104857894D01*
X123013905Y-104926341D01*
X122865188Y-105025711D01*
X122738715Y-105152184D01*
X122639345Y-105300901D01*
X122570898Y-105466146D01*
X122536004Y-105641570D01*
X122536004Y-105820430D01*
X122570898Y-105995854D01*
X122639345Y-106161099D01*
X122738715Y-106309816D01*
X122851899Y-106423000D01*
X120915105Y-106423000D01*
X120847816Y-106355711D01*
X120722658Y-106272083D01*
X121860123Y-105134618D01*
X121936740Y-105071740D01*
X122187669Y-104765982D01*
X122374126Y-104417146D01*
X122488945Y-104038637D01*
X122518000Y-103743638D01*
X122518000Y-103743629D01*
X122527714Y-103645001D01*
X122518000Y-103546373D01*
X122518000Y-100231362D01*
X122488945Y-99936363D01*
X122374126Y-99557854D01*
X122320457Y-99457447D01*
X122320457Y-99414740D01*
X122470197Y-99265000D01*
X123349915Y-99265000D01*
X123377703Y-99316988D01*
%TA.AperFunction,Conductor*%
D31*
G36*
X123377703Y-99316988D02*
G01*
X123472275Y-99432225D01*
X123587512Y-99526797D01*
X123620632Y-99544500D01*
X123587512Y-99562203D01*
X123472275Y-99656775D01*
X123377703Y-99772012D01*
X123307429Y-99903484D01*
X123264155Y-100046141D01*
X123249543Y-100194498D01*
X123249543Y-100719502D01*
X123264155Y-100867859D01*
X123307429Y-101010516D01*
X123377703Y-101141988D01*
X123472275Y-101257225D01*
X123474438Y-101259000D01*
X123472275Y-101260775D01*
X123377703Y-101376012D01*
X123307429Y-101507484D01*
X123264155Y-101650141D01*
X123249543Y-101798498D01*
X123249543Y-102323502D01*
X123264155Y-102471859D01*
X123307429Y-102614516D01*
X123377703Y-102745988D01*
X123472275Y-102861225D01*
X123587512Y-102955797D01*
X123718984Y-103026071D01*
X123861641Y-103069345D01*
X124009998Y-103083957D01*
X124413760Y-103083957D01*
X124852011Y-103522209D01*
X124852010Y-104497511D01*
X124848948Y-104528600D01*
X124854972Y-104589764D01*
X124861170Y-104652689D01*
X124887184Y-104738445D01*
X124858594Y-104732758D01*
X124759009Y-104722950D01*
X124734449Y-104722950D01*
X124710000Y-104720542D01*
X124210000Y-104720542D01*
X124185551Y-104722950D01*
X124160991Y-104722950D01*
X124061406Y-104732758D01*
X123965273Y-104751880D01*
X123869517Y-104780927D01*
X123778961Y-104818436D01*
X123706148Y-104857355D01*
X123533434Y-104823000D01*
X123354574Y-104823000D01*
X123179150Y-104857894D01*
X123013905Y-104926341D01*
X122865188Y-105025711D01*
X122738715Y-105152184D01*
X122639345Y-105300901D01*
X122570898Y-105466146D01*
X122536004Y-105641570D01*
X122536004Y-105820430D01*
X122570898Y-105995854D01*
X122639345Y-106161099D01*
X122738715Y-106309816D01*
X122851899Y-106423000D01*
X120915105Y-106423000D01*
X120847816Y-106355711D01*
X120722658Y-106272083D01*
X121860123Y-105134618D01*
X121936740Y-105071740D01*
X122187669Y-104765982D01*
X122374126Y-104417146D01*
X122488945Y-104038637D01*
X122518000Y-103743638D01*
X122518000Y-103743629D01*
X122527714Y-103645001D01*
X122518000Y-103546373D01*
X122518000Y-100231362D01*
X122488945Y-99936363D01*
X122374126Y-99557854D01*
X122320457Y-99457447D01*
X122320457Y-99414740D01*
X122470197Y-99265000D01*
X123349915Y-99265000D01*
X123377703Y-99316988D01*
G37*
%TD.AperFunction*%
D30*
X146439001Y-76871528D02*
X146439000Y-101528803D01*
X145898298Y-100988101D01*
X145952345Y-100922244D01*
X146124874Y-100599466D01*
X146231116Y-100249232D01*
X146266990Y-99885000D01*
X146231116Y-99520768D01*
X146124874Y-99170534D01*
X145952345Y-98847756D01*
X145720161Y-98564839D01*
X145437244Y-98332655D01*
X145114466Y-98160126D01*
X144764232Y-98053884D01*
X144491276Y-98027000D01*
X143308724Y-98027000D01*
X143035768Y-98053884D01*
X142685534Y-98160126D01*
X142362756Y-98332655D01*
X142079839Y-98564839D01*
X141847655Y-98847756D01*
X141675126Y-99170534D01*
X141568884Y-99520768D01*
X141533010Y-99885000D01*
X141568884Y-100249232D01*
X141675126Y-100599466D01*
X141847655Y-100922244D01*
X142079839Y-101205161D01*
X142362756Y-101437345D01*
X142685534Y-101609874D01*
X143035768Y-101716116D01*
X143308724Y-101743000D01*
X144491276Y-101743000D01*
X144764232Y-101716116D01*
X144819234Y-101699431D01*
X145544001Y-102424198D01*
X145544001Y-102620268D01*
X145437244Y-102532655D01*
X145114466Y-102360126D01*
X144764232Y-102253884D01*
X144491276Y-102227000D01*
X143308724Y-102227000D01*
X143035768Y-102253884D01*
X142980766Y-102270569D01*
X142694574Y-101984377D01*
X142674754Y-101960226D01*
X142578367Y-101881124D01*
X142468400Y-101822345D01*
X142349080Y-101786150D01*
X142256078Y-101776990D01*
X142224990Y-101773928D01*
X142193902Y-101776990D01*
X138537274Y-101776990D01*
X138506188Y-101773928D01*
X138475102Y-101776990D01*
X138475101Y-101776990D01*
X138382099Y-101786150D01*
X138262779Y-101822345D01*
X138152812Y-101881124D01*
X138056425Y-101960226D01*
X138036601Y-101984382D01*
X137876228Y-102144755D01*
X136585045Y-102144755D01*
X136592457Y-102069502D01*
X136592457Y-101544498D01*
X136577845Y-101396141D01*
X136534571Y-101253484D01*
X136464297Y-101122012D01*
X136387554Y-101028500D01*
X136464297Y-100934988D01*
X136534571Y-100803516D01*
X136577845Y-100660859D01*
X136592457Y-100512502D01*
X136592457Y-99987498D01*
X136577845Y-99839141D01*
X136534571Y-99696484D01*
X136464297Y-99565012D01*
X136369725Y-99449775D01*
X136254488Y-99355203D01*
X136221368Y-99337500D01*
X136254488Y-99319797D01*
X136369725Y-99225225D01*
X136464297Y-99109988D01*
X136534571Y-98978516D01*
X136577845Y-98835859D01*
X136592457Y-98687502D01*
X136592457Y-98162498D01*
X136577845Y-98014141D01*
X136534571Y-97871484D01*
X136464297Y-97740012D01*
X136369725Y-97624775D01*
X136254488Y-97530203D01*
X136123016Y-97459929D01*
X135980359Y-97416655D01*
X135832002Y-97402043D01*
X135657571Y-97402043D01*
X135101634Y-96846106D01*
X136490618Y-95457123D01*
X136678668Y-95227983D01*
X136865125Y-94879147D01*
X136947680Y-94607000D01*
X141745993Y-94607000D01*
X141795500Y-94611876D01*
X141845007Y-94607000D01*
X141845018Y-94607000D01*
X141884276Y-94603133D01*
X141847655Y-94647756D01*
X141675126Y-94970534D01*
X141568884Y-95320768D01*
X141533010Y-95685000D01*
X141568884Y-96049232D01*
X141675126Y-96399466D01*
X141847655Y-96722244D01*
X142079839Y-97005161D01*
X142362756Y-97237345D01*
X142685534Y-97409874D01*
X143035768Y-97516116D01*
X143308724Y-97543000D01*
X144491276Y-97543000D01*
X144764232Y-97516116D01*
X145114466Y-97409874D01*
X145437244Y-97237345D01*
X145720161Y-97005161D01*
X145952345Y-96722244D01*
X146124874Y-96399466D01*
X146231116Y-96049232D01*
X146266990Y-95685000D01*
X146231116Y-95320768D01*
X146124874Y-94970534D01*
X145952345Y-94647756D01*
X145720161Y-94364839D01*
X145437244Y-94132655D01*
X145114466Y-93960126D01*
X144764232Y-93853884D01*
X144491276Y-93827000D01*
X143308724Y-93827000D01*
X143035768Y-93853884D01*
X142935826Y-93884201D01*
X143477027Y-93343000D01*
X144491276Y-93343000D01*
X144764232Y-93316116D01*
X145114466Y-93209874D01*
X145437244Y-93037345D01*
X145720161Y-92805161D01*
X145952345Y-92522244D01*
X146124874Y-92199466D01*
X146231116Y-91849232D01*
X146266990Y-91485000D01*
X146231116Y-91120768D01*
X146124874Y-90770534D01*
X145952345Y-90447756D01*
X145720161Y-90164839D01*
X145437244Y-89932655D01*
X145114466Y-89760126D01*
X144764232Y-89653884D01*
X144491276Y-89627000D01*
X143467527Y-89627000D01*
X142983527Y-89143000D01*
X143116393Y-89143000D01*
X143127854Y-89149126D01*
X143506363Y-89263945D01*
X143900000Y-89302715D01*
X144293636Y-89263945D01*
X144672145Y-89149126D01*
X144727051Y-89119778D01*
X144764232Y-89116116D01*
X145114466Y-89009874D01*
X145437244Y-88837345D01*
X145720161Y-88605161D01*
X145952345Y-88322244D01*
X146124874Y-87999466D01*
X146231116Y-87649232D01*
X146266990Y-87285000D01*
X146231116Y-86920768D01*
X146124874Y-86570534D01*
X145952345Y-86247756D01*
X145908000Y-86193721D01*
X145908000Y-84176279D01*
X145952345Y-84122244D01*
X146124874Y-83799466D01*
X146231116Y-83449232D01*
X146266990Y-83085000D01*
X146231116Y-82720768D01*
X146124874Y-82370534D01*
X145952345Y-82047756D01*
X145720161Y-81764839D01*
X145437244Y-81532655D01*
X145114466Y-81360126D01*
X144764232Y-81253884D01*
X144727052Y-81250222D01*
X144672146Y-81220874D01*
X144293637Y-81106055D01*
X143998638Y-81077000D01*
X143900000Y-81067285D01*
X143801363Y-81077000D01*
X139798637Y-81077000D01*
X139700000Y-81067285D01*
X139601362Y-81077000D01*
X139306363Y-81106055D01*
X138927854Y-81220874D01*
X138872948Y-81250222D01*
X138835768Y-81253884D01*
X138485534Y-81360126D01*
X138162756Y-81532655D01*
X137879839Y-81764839D01*
X137647655Y-82047756D01*
X137475126Y-82370534D01*
X137368884Y-82720768D01*
X137333010Y-83085000D01*
X137368884Y-83449232D01*
X137455033Y-83733227D01*
X135392881Y-85795379D01*
X135392876Y-85795383D01*
X130613260Y-90575000D01*
X118593070Y-90575000D01*
X118585845Y-90501642D01*
X118542571Y-90358986D01*
X118472297Y-90227513D01*
X118377724Y-90112276D01*
X118262487Y-90017703D01*
X118131014Y-89947429D01*
X117988358Y-89904155D01*
X117840000Y-89889543D01*
X115840000Y-89889543D01*
X115691642Y-89904155D01*
X115548986Y-89947429D01*
X115417513Y-90017703D01*
X115302276Y-90112276D01*
X115207703Y-90227513D01*
X115137429Y-90358986D01*
X115094155Y-90501642D01*
X115079543Y-90650000D01*
X115079543Y-90812459D01*
X115061660Y-90871411D01*
X115049438Y-90995500D01*
X115058881Y-91091378D01*
X112624433Y-93525827D01*
X112532854Y-93487894D01*
X112357430Y-93453000D01*
X112287000Y-93453000D01*
X112287000Y-93382570D01*
X112252106Y-93207146D01*
X112183659Y-93041901D01*
X112084289Y-92893184D01*
X111957816Y-92766711D01*
X111809099Y-92667341D01*
X111684344Y-92615666D01*
X111728945Y-92468637D01*
X111758000Y-92173638D01*
X111758000Y-87746271D01*
X111837901Y-87799659D01*
X112003146Y-87868106D01*
X112178570Y-87903000D01*
X112357430Y-87903000D01*
X112532854Y-87868106D01*
X112698099Y-87799659D01*
X112846816Y-87700289D01*
X112944105Y-87603000D01*
X114131895Y-87603000D01*
X114229184Y-87700289D01*
X114377901Y-87799659D01*
X114543146Y-87868106D01*
X114718570Y-87903000D01*
X114897430Y-87903000D01*
X115072854Y-87868106D01*
X115238099Y-87799659D01*
X115386816Y-87700289D01*
X115513289Y-87573816D01*
X115612659Y-87425099D01*
X115681106Y-87259854D01*
X115716000Y-87084430D01*
X115716000Y-86905570D01*
X115681106Y-86730146D01*
X115612659Y-86564901D01*
X115513289Y-86416184D01*
X115386816Y-86289711D01*
X115238099Y-86190341D01*
X115072854Y-86121894D01*
X114897430Y-86087000D01*
X114718570Y-86087000D01*
X114543146Y-86121894D01*
X114377901Y-86190341D01*
X114229184Y-86289711D01*
X114131895Y-86387000D01*
X112944105Y-86387000D01*
X112846816Y-86289711D01*
X112842747Y-86286993D01*
X117419283Y-81710457D01*
X117840000Y-81710457D01*
X117988358Y-81695845D01*
X118131014Y-81652571D01*
X118262487Y-81582297D01*
X118377724Y-81487724D01*
X118402118Y-81458000D01*
X120717000Y-81458000D01*
X120717000Y-81917002D01*
X120717001Y-81917011D01*
X120717000Y-82931407D01*
X120639140Y-82946894D01*
X120473895Y-83015341D01*
X120325178Y-83114711D01*
X120198705Y-83241184D01*
X120099335Y-83389901D01*
X120030888Y-83555146D01*
X119995994Y-83730570D01*
X119995994Y-83909430D01*
X120030888Y-84084854D01*
X120099335Y-84250099D01*
X120198705Y-84398816D01*
X120325178Y-84525289D01*
X120473895Y-84624659D01*
X120639140Y-84693106D01*
X120814564Y-84728000D01*
X120910506Y-84728000D01*
X121047331Y-84983982D01*
X121298260Y-85289740D01*
X121374882Y-85352622D01*
X123097382Y-87075123D01*
X123160260Y-87151740D01*
X123236877Y-87214618D01*
X123466018Y-87402669D01*
X123814853Y-87589126D01*
X124135643Y-87686436D01*
X124193363Y-87703945D01*
X124368576Y-87721202D01*
X124587000Y-87742715D01*
X124685638Y-87733000D01*
X127343638Y-87733000D01*
X127638637Y-87703945D01*
X128017146Y-87589126D01*
X128072052Y-87559778D01*
X128109232Y-87556116D01*
X128459466Y-87449874D01*
X128782244Y-87277345D01*
X129065161Y-87045161D01*
X129297345Y-86762244D01*
X129469874Y-86439466D01*
X129576116Y-86089232D01*
X129611990Y-85725000D01*
X129576116Y-85360768D01*
X129469874Y-85010534D01*
X129297345Y-84687756D01*
X129065161Y-84404839D01*
X128782244Y-84172655D01*
X128459466Y-84000126D01*
X128109232Y-83893884D01*
X128072052Y-83890222D01*
X128017146Y-83860874D01*
X127638637Y-83746055D01*
X127343638Y-83717000D01*
X125418741Y-83717000D01*
X124733000Y-83031260D01*
X124733000Y-80281740D01*
X124774739Y-80240000D01*
X125395983Y-80240000D01*
X125192655Y-80487756D01*
X125020126Y-80810534D01*
X124913884Y-81160768D01*
X124878010Y-81525000D01*
X124913884Y-81889232D01*
X125020126Y-82239466D01*
X125192655Y-82562244D01*
X125424839Y-82845161D01*
X125707756Y-83077345D01*
X126030534Y-83249874D01*
X126380768Y-83356116D01*
X126653724Y-83383000D01*
X127836276Y-83383000D01*
X128109232Y-83356116D01*
X128459466Y-83249874D01*
X128782244Y-83077345D01*
X129065161Y-82845161D01*
X129297345Y-82562244D01*
X129345000Y-82473088D01*
X129392655Y-82562244D01*
X129624839Y-82845161D01*
X129907756Y-83077345D01*
X130230534Y-83249874D01*
X130580768Y-83356116D01*
X130853724Y-83383000D01*
X132036276Y-83383000D01*
X132309232Y-83356116D01*
X132659466Y-83249874D01*
X132982244Y-83077345D01*
X133265161Y-82845161D01*
X133497345Y-82562244D01*
X133669874Y-82239466D01*
X133776116Y-81889232D01*
X133811990Y-81525000D01*
X133776116Y-81160768D01*
X133669874Y-80810534D01*
X133497345Y-80487756D01*
X133294017Y-80240000D01*
X135311385Y-80240000D01*
X135370260Y-80311740D01*
X135676018Y-80562669D01*
X136024854Y-80749126D01*
X136403363Y-80863945D01*
X136698362Y-80893000D01*
X136698371Y-80893000D01*
X136796999Y-80902714D01*
X136895627Y-80893000D01*
X139601362Y-80893000D01*
X139700000Y-80902715D01*
X139798637Y-80893000D01*
X139798638Y-80893000D01*
X140093637Y-80863945D01*
X140472146Y-80749126D01*
X140527052Y-80719778D01*
X140564232Y-80716116D01*
X140914466Y-80609874D01*
X141237244Y-80437345D01*
X141520161Y-80205161D01*
X141752345Y-79922244D01*
X141800000Y-79833088D01*
X141847655Y-79922244D01*
X142079839Y-80205161D01*
X142362756Y-80437345D01*
X142685534Y-80609874D01*
X143035768Y-80716116D01*
X143308724Y-80743000D01*
X144491276Y-80743000D01*
X144764232Y-80716116D01*
X145114466Y-80609874D01*
X145437244Y-80437345D01*
X145720161Y-80205161D01*
X145952345Y-79922244D01*
X146124874Y-79599466D01*
X146231116Y-79249232D01*
X146266990Y-78885000D01*
X146231116Y-78520768D01*
X146124874Y-78170534D01*
X145952345Y-77847756D01*
X145720161Y-77564839D01*
X145437244Y-77332655D01*
X145114466Y-77160126D01*
X144764232Y-77053884D01*
X144491276Y-77027000D01*
X143308724Y-77027000D01*
X143035768Y-77053884D01*
X142685534Y-77160126D01*
X142492361Y-77263379D01*
X143062741Y-76693000D01*
X143801363Y-76693000D01*
X143900000Y-76702715D01*
X144293637Y-76663945D01*
X144672146Y-76549126D01*
X144727052Y-76519778D01*
X144764232Y-76516116D01*
X145114466Y-76409874D01*
X145437244Y-76237345D01*
X145639132Y-76071659D01*
X146439001Y-76871528D01*
%TA.AperFunction,Conductor*%
D31*
G36*
X146439001Y-76871528D02*
G01*
X146439000Y-101528803D01*
X145898298Y-100988101D01*
X145952345Y-100922244D01*
X146124874Y-100599466D01*
X146231116Y-100249232D01*
X146266990Y-99885000D01*
X146231116Y-99520768D01*
X146124874Y-99170534D01*
X145952345Y-98847756D01*
X145720161Y-98564839D01*
X145437244Y-98332655D01*
X145114466Y-98160126D01*
X144764232Y-98053884D01*
X144491276Y-98027000D01*
X143308724Y-98027000D01*
X143035768Y-98053884D01*
X142685534Y-98160126D01*
X142362756Y-98332655D01*
X142079839Y-98564839D01*
X141847655Y-98847756D01*
X141675126Y-99170534D01*
X141568884Y-99520768D01*
X141533010Y-99885000D01*
X141568884Y-100249232D01*
X141675126Y-100599466D01*
X141847655Y-100922244D01*
X142079839Y-101205161D01*
X142362756Y-101437345D01*
X142685534Y-101609874D01*
X143035768Y-101716116D01*
X143308724Y-101743000D01*
X144491276Y-101743000D01*
X144764232Y-101716116D01*
X144819234Y-101699431D01*
X145544001Y-102424198D01*
X145544001Y-102620268D01*
X145437244Y-102532655D01*
X145114466Y-102360126D01*
X144764232Y-102253884D01*
X144491276Y-102227000D01*
X143308724Y-102227000D01*
X143035768Y-102253884D01*
X142980766Y-102270569D01*
X142694574Y-101984377D01*
X142674754Y-101960226D01*
X142578367Y-101881124D01*
X142468400Y-101822345D01*
X142349080Y-101786150D01*
X142256078Y-101776990D01*
X142224990Y-101773928D01*
X142193902Y-101776990D01*
X138537274Y-101776990D01*
X138506188Y-101773928D01*
X138475102Y-101776990D01*
X138475101Y-101776990D01*
X138382099Y-101786150D01*
X138262779Y-101822345D01*
X138152812Y-101881124D01*
X138056425Y-101960226D01*
X138036601Y-101984382D01*
X137876228Y-102144755D01*
X136585045Y-102144755D01*
X136592457Y-102069502D01*
X136592457Y-101544498D01*
X136577845Y-101396141D01*
X136534571Y-101253484D01*
X136464297Y-101122012D01*
X136387554Y-101028500D01*
X136464297Y-100934988D01*
X136534571Y-100803516D01*
X136577845Y-100660859D01*
X136592457Y-100512502D01*
X136592457Y-99987498D01*
X136577845Y-99839141D01*
X136534571Y-99696484D01*
X136464297Y-99565012D01*
X136369725Y-99449775D01*
X136254488Y-99355203D01*
X136221368Y-99337500D01*
X136254488Y-99319797D01*
X136369725Y-99225225D01*
X136464297Y-99109988D01*
X136534571Y-98978516D01*
X136577845Y-98835859D01*
X136592457Y-98687502D01*
X136592457Y-98162498D01*
X136577845Y-98014141D01*
X136534571Y-97871484D01*
X136464297Y-97740012D01*
X136369725Y-97624775D01*
X136254488Y-97530203D01*
X136123016Y-97459929D01*
X135980359Y-97416655D01*
X135832002Y-97402043D01*
X135657571Y-97402043D01*
X135101634Y-96846106D01*
X136490618Y-95457123D01*
X136678668Y-95227983D01*
X136865125Y-94879147D01*
X136947680Y-94607000D01*
X141745993Y-94607000D01*
X141795500Y-94611876D01*
X141845007Y-94607000D01*
X141845018Y-94607000D01*
X141884276Y-94603133D01*
X141847655Y-94647756D01*
X141675126Y-94970534D01*
X141568884Y-95320768D01*
X141533010Y-95685000D01*
X141568884Y-96049232D01*
X141675126Y-96399466D01*
X141847655Y-96722244D01*
X142079839Y-97005161D01*
X142362756Y-97237345D01*
X142685534Y-97409874D01*
X143035768Y-97516116D01*
X143308724Y-97543000D01*
X144491276Y-97543000D01*
X144764232Y-97516116D01*
X145114466Y-97409874D01*
X145437244Y-97237345D01*
X145720161Y-97005161D01*
X145952345Y-96722244D01*
X146124874Y-96399466D01*
X146231116Y-96049232D01*
X146266990Y-95685000D01*
X146231116Y-95320768D01*
X146124874Y-94970534D01*
X145952345Y-94647756D01*
X145720161Y-94364839D01*
X145437244Y-94132655D01*
X145114466Y-93960126D01*
X144764232Y-93853884D01*
X144491276Y-93827000D01*
X143308724Y-93827000D01*
X143035768Y-93853884D01*
X142935826Y-93884201D01*
X143477027Y-93343000D01*
X144491276Y-93343000D01*
X144764232Y-93316116D01*
X145114466Y-93209874D01*
X145437244Y-93037345D01*
X145720161Y-92805161D01*
X145952345Y-92522244D01*
X146124874Y-92199466D01*
X146231116Y-91849232D01*
X146266990Y-91485000D01*
X146231116Y-91120768D01*
X146124874Y-90770534D01*
X145952345Y-90447756D01*
X145720161Y-90164839D01*
X145437244Y-89932655D01*
X145114466Y-89760126D01*
X144764232Y-89653884D01*
X144491276Y-89627000D01*
X143467527Y-89627000D01*
X142983527Y-89143000D01*
X143116393Y-89143000D01*
X143127854Y-89149126D01*
X143506363Y-89263945D01*
X143900000Y-89302715D01*
X144293636Y-89263945D01*
X144672145Y-89149126D01*
X144727051Y-89119778D01*
X144764232Y-89116116D01*
X145114466Y-89009874D01*
X145437244Y-88837345D01*
X145720161Y-88605161D01*
X145952345Y-88322244D01*
X146124874Y-87999466D01*
X146231116Y-87649232D01*
X146266990Y-87285000D01*
X146231116Y-86920768D01*
X146124874Y-86570534D01*
X145952345Y-86247756D01*
X145908000Y-86193721D01*
X145908000Y-84176279D01*
X145952345Y-84122244D01*
X146124874Y-83799466D01*
X146231116Y-83449232D01*
X146266990Y-83085000D01*
X146231116Y-82720768D01*
X146124874Y-82370534D01*
X145952345Y-82047756D01*
X145720161Y-81764839D01*
X145437244Y-81532655D01*
X145114466Y-81360126D01*
X144764232Y-81253884D01*
X144727052Y-81250222D01*
X144672146Y-81220874D01*
X144293637Y-81106055D01*
X143998638Y-81077000D01*
X143900000Y-81067285D01*
X143801363Y-81077000D01*
X139798637Y-81077000D01*
X139700000Y-81067285D01*
X139601362Y-81077000D01*
X139306363Y-81106055D01*
X138927854Y-81220874D01*
X138872948Y-81250222D01*
X138835768Y-81253884D01*
X138485534Y-81360126D01*
X138162756Y-81532655D01*
X137879839Y-81764839D01*
X137647655Y-82047756D01*
X137475126Y-82370534D01*
X137368884Y-82720768D01*
X137333010Y-83085000D01*
X137368884Y-83449232D01*
X137455033Y-83733227D01*
X135392881Y-85795379D01*
X135392876Y-85795383D01*
X130613260Y-90575000D01*
X118593070Y-90575000D01*
X118585845Y-90501642D01*
X118542571Y-90358986D01*
X118472297Y-90227513D01*
X118377724Y-90112276D01*
X118262487Y-90017703D01*
X118131014Y-89947429D01*
X117988358Y-89904155D01*
X117840000Y-89889543D01*
X115840000Y-89889543D01*
X115691642Y-89904155D01*
X115548986Y-89947429D01*
X115417513Y-90017703D01*
X115302276Y-90112276D01*
X115207703Y-90227513D01*
X115137429Y-90358986D01*
X115094155Y-90501642D01*
X115079543Y-90650000D01*
X115079543Y-90812459D01*
X115061660Y-90871411D01*
X115049438Y-90995500D01*
X115058881Y-91091378D01*
X112624433Y-93525827D01*
X112532854Y-93487894D01*
X112357430Y-93453000D01*
X112287000Y-93453000D01*
X112287000Y-93382570D01*
X112252106Y-93207146D01*
X112183659Y-93041901D01*
X112084289Y-92893184D01*
X111957816Y-92766711D01*
X111809099Y-92667341D01*
X111684344Y-92615666D01*
X111728945Y-92468637D01*
X111758000Y-92173638D01*
X111758000Y-87746271D01*
X111837901Y-87799659D01*
X112003146Y-87868106D01*
X112178570Y-87903000D01*
X112357430Y-87903000D01*
X112532854Y-87868106D01*
X112698099Y-87799659D01*
X112846816Y-87700289D01*
X112944105Y-87603000D01*
X114131895Y-87603000D01*
X114229184Y-87700289D01*
X114377901Y-87799659D01*
X114543146Y-87868106D01*
X114718570Y-87903000D01*
X114897430Y-87903000D01*
X115072854Y-87868106D01*
X115238099Y-87799659D01*
X115386816Y-87700289D01*
X115513289Y-87573816D01*
X115612659Y-87425099D01*
X115681106Y-87259854D01*
X115716000Y-87084430D01*
X115716000Y-86905570D01*
X115681106Y-86730146D01*
X115612659Y-86564901D01*
X115513289Y-86416184D01*
X115386816Y-86289711D01*
X115238099Y-86190341D01*
X115072854Y-86121894D01*
X114897430Y-86087000D01*
X114718570Y-86087000D01*
X114543146Y-86121894D01*
X114377901Y-86190341D01*
X114229184Y-86289711D01*
X114131895Y-86387000D01*
X112944105Y-86387000D01*
X112846816Y-86289711D01*
X112842747Y-86286993D01*
X117419283Y-81710457D01*
X117840000Y-81710457D01*
X117988358Y-81695845D01*
X118131014Y-81652571D01*
X118262487Y-81582297D01*
X118377724Y-81487724D01*
X118402118Y-81458000D01*
X120717000Y-81458000D01*
X120717000Y-81917002D01*
X120717001Y-81917011D01*
X120717000Y-82931407D01*
X120639140Y-82946894D01*
X120473895Y-83015341D01*
X120325178Y-83114711D01*
X120198705Y-83241184D01*
X120099335Y-83389901D01*
X120030888Y-83555146D01*
X119995994Y-83730570D01*
X119995994Y-83909430D01*
X120030888Y-84084854D01*
X120099335Y-84250099D01*
X120198705Y-84398816D01*
X120325178Y-84525289D01*
X120473895Y-84624659D01*
X120639140Y-84693106D01*
X120814564Y-84728000D01*
X120910506Y-84728000D01*
X121047331Y-84983982D01*
X121298260Y-85289740D01*
X121374882Y-85352622D01*
X123097382Y-87075123D01*
X123160260Y-87151740D01*
X123236877Y-87214618D01*
X123466018Y-87402669D01*
X123814853Y-87589126D01*
X124135643Y-87686436D01*
X124193363Y-87703945D01*
X124368576Y-87721202D01*
X124587000Y-87742715D01*
X124685638Y-87733000D01*
X127343638Y-87733000D01*
X127638637Y-87703945D01*
X128017146Y-87589126D01*
X128072052Y-87559778D01*
X128109232Y-87556116D01*
X128459466Y-87449874D01*
X128782244Y-87277345D01*
X129065161Y-87045161D01*
X129297345Y-86762244D01*
X129469874Y-86439466D01*
X129576116Y-86089232D01*
X129611990Y-85725000D01*
X129576116Y-85360768D01*
X129469874Y-85010534D01*
X129297345Y-84687756D01*
X129065161Y-84404839D01*
X128782244Y-84172655D01*
X128459466Y-84000126D01*
X128109232Y-83893884D01*
X128072052Y-83890222D01*
X128017146Y-83860874D01*
X127638637Y-83746055D01*
X127343638Y-83717000D01*
X125418741Y-83717000D01*
X124733000Y-83031260D01*
X124733000Y-80281740D01*
X124774739Y-80240000D01*
X125395983Y-80240000D01*
X125192655Y-80487756D01*
X125020126Y-80810534D01*
X124913884Y-81160768D01*
X124878010Y-81525000D01*
X124913884Y-81889232D01*
X125020126Y-82239466D01*
X125192655Y-82562244D01*
X125424839Y-82845161D01*
X125707756Y-83077345D01*
X126030534Y-83249874D01*
X126380768Y-83356116D01*
X126653724Y-83383000D01*
X127836276Y-83383000D01*
X128109232Y-83356116D01*
X128459466Y-83249874D01*
X128782244Y-83077345D01*
X129065161Y-82845161D01*
X129297345Y-82562244D01*
X129345000Y-82473088D01*
X129392655Y-82562244D01*
X129624839Y-82845161D01*
X129907756Y-83077345D01*
X130230534Y-83249874D01*
X130580768Y-83356116D01*
X130853724Y-83383000D01*
X132036276Y-83383000D01*
X132309232Y-83356116D01*
X132659466Y-83249874D01*
X132982244Y-83077345D01*
X133265161Y-82845161D01*
X133497345Y-82562244D01*
X133669874Y-82239466D01*
X133776116Y-81889232D01*
X133811990Y-81525000D01*
X133776116Y-81160768D01*
X133669874Y-80810534D01*
X133497345Y-80487756D01*
X133294017Y-80240000D01*
X135311385Y-80240000D01*
X135370260Y-80311740D01*
X135676018Y-80562669D01*
X136024854Y-80749126D01*
X136403363Y-80863945D01*
X136698362Y-80893000D01*
X136698371Y-80893000D01*
X136796999Y-80902714D01*
X136895627Y-80893000D01*
X139601362Y-80893000D01*
X139700000Y-80902715D01*
X139798637Y-80893000D01*
X139798638Y-80893000D01*
X140093637Y-80863945D01*
X140472146Y-80749126D01*
X140527052Y-80719778D01*
X140564232Y-80716116D01*
X140914466Y-80609874D01*
X141237244Y-80437345D01*
X141520161Y-80205161D01*
X141752345Y-79922244D01*
X141800000Y-79833088D01*
X141847655Y-79922244D01*
X142079839Y-80205161D01*
X142362756Y-80437345D01*
X142685534Y-80609874D01*
X143035768Y-80716116D01*
X143308724Y-80743000D01*
X144491276Y-80743000D01*
X144764232Y-80716116D01*
X145114466Y-80609874D01*
X145437244Y-80437345D01*
X145720161Y-80205161D01*
X145952345Y-79922244D01*
X146124874Y-79599466D01*
X146231116Y-79249232D01*
X146266990Y-78885000D01*
X146231116Y-78520768D01*
X146124874Y-78170534D01*
X145952345Y-77847756D01*
X145720161Y-77564839D01*
X145437244Y-77332655D01*
X145114466Y-77160126D01*
X144764232Y-77053884D01*
X144491276Y-77027000D01*
X143308724Y-77027000D01*
X143035768Y-77053884D01*
X142685534Y-77160126D01*
X142492361Y-77263379D01*
X143062741Y-76693000D01*
X143801363Y-76693000D01*
X143900000Y-76702715D01*
X144293637Y-76663945D01*
X144672146Y-76549126D01*
X144727052Y-76519778D01*
X144764232Y-76516116D01*
X145114466Y-76409874D01*
X145437244Y-76237345D01*
X145639132Y-76071659D01*
X146439001Y-76871528D01*
G37*
%TD.AperFunction*%
D30*
X141704692Y-90715220D02*
X141675126Y-90770534D01*
X141568884Y-91120768D01*
X141533010Y-91485000D01*
X141568884Y-91849232D01*
X141675126Y-92199466D01*
X141708001Y-92260972D01*
X141377973Y-92591000D01*
X137030675Y-92591000D01*
X137030675Y-92180702D01*
X138768387Y-90442990D01*
X141432463Y-90442990D01*
X141704692Y-90715220D01*
%TA.AperFunction,Conductor*%
D31*
G36*
X141704692Y-90715220D02*
G01*
X141675126Y-90770534D01*
X141568884Y-91120768D01*
X141533010Y-91485000D01*
X141568884Y-91849232D01*
X141675126Y-92199466D01*
X141708001Y-92260972D01*
X141377973Y-92591000D01*
X137030675Y-92591000D01*
X137030675Y-92180702D01*
X138768387Y-90442990D01*
X141432463Y-90442990D01*
X141704692Y-90715220D01*
G37*
%TD.AperFunction*%
%TD*%
D30*
%TO.N,GND*%
X146490189Y-38244376D02*
X146653850Y-38294022D01*
X146804672Y-38374638D01*
X146936870Y-38483130D01*
X147045362Y-38615328D01*
X147125978Y-38766150D01*
X147175624Y-38929811D01*
X147193000Y-39106234D01*
X147193000Y-42808766D01*
X147175624Y-42985189D01*
X147125978Y-43148850D01*
X147045362Y-43299672D01*
X146936870Y-43431870D01*
X146804672Y-43540362D01*
X146653850Y-43620978D01*
X146490189Y-43670624D01*
X146313766Y-43688000D01*
X145817127Y-43688000D01*
X145704127Y-43653722D01*
X145315000Y-43615396D01*
X144925872Y-43653722D01*
X144812872Y-43688000D01*
X141617127Y-43688000D01*
X141504127Y-43653722D01*
X141115000Y-43615396D01*
X140725872Y-43653722D01*
X140612872Y-43688000D01*
X137417127Y-43688000D01*
X137304127Y-43653722D01*
X136915000Y-43615396D01*
X136525872Y-43653722D01*
X136412872Y-43688000D01*
X134148857Y-43688000D01*
X133987369Y-43639013D01*
X133813900Y-43621928D01*
X131616100Y-43621928D01*
X131442631Y-43639013D01*
X131281143Y-43688000D01*
X126132127Y-43688000D01*
X126019127Y-43653722D01*
X125630000Y-43615396D01*
X125240872Y-43653722D01*
X125127872Y-43688000D01*
X121932127Y-43688000D01*
X121819127Y-43653722D01*
X121430000Y-43615396D01*
X121040872Y-43653722D01*
X120927872Y-43688000D01*
X117732127Y-43688000D01*
X117619127Y-43653722D01*
X117230000Y-43615396D01*
X116840872Y-43653722D01*
X116727872Y-43688000D01*
X114463857Y-43688000D01*
X114302369Y-43639013D01*
X114128900Y-43621928D01*
X111931100Y-43621928D01*
X111757631Y-43639013D01*
X111596143Y-43688000D01*
X106447127Y-43688000D01*
X106334127Y-43653722D01*
X105945000Y-43615396D01*
X105555872Y-43653722D01*
X105442872Y-43688000D01*
X102247127Y-43688000D01*
X102134127Y-43653722D01*
X101745000Y-43615396D01*
X101355872Y-43653722D01*
X101242872Y-43688000D01*
X98047127Y-43688000D01*
X97934127Y-43653722D01*
X97545000Y-43615396D01*
X97155872Y-43653722D01*
X97042872Y-43688000D01*
X94778857Y-43688000D01*
X94617369Y-43639013D01*
X94443900Y-43621928D01*
X92246100Y-43621928D01*
X92072631Y-43639013D01*
X91917783Y-43685986D01*
X91761811Y-43670624D01*
X91598150Y-43620978D01*
X91447328Y-43540362D01*
X91315130Y-43431870D01*
X91206638Y-43299672D01*
X91126022Y-43148850D01*
X91076376Y-42985189D01*
X91059000Y-42808766D01*
X91059000Y-39106234D01*
X91076376Y-38929811D01*
X91126022Y-38766150D01*
X91206638Y-38615328D01*
X91315130Y-38483130D01*
X91447328Y-38374638D01*
X91598150Y-38294022D01*
X91761811Y-38244376D01*
X91938234Y-38227000D01*
X146313766Y-38227000D01*
X146490189Y-38244376D01*
%TA.AperFunction,Conductor*%
D31*
G36*
X146490189Y-38244376D02*
G01*
X146653850Y-38294022D01*
X146804672Y-38374638D01*
X146936870Y-38483130D01*
X147045362Y-38615328D01*
X147125978Y-38766150D01*
X147175624Y-38929811D01*
X147193000Y-39106234D01*
X147193000Y-42808766D01*
X147175624Y-42985189D01*
X147125978Y-43148850D01*
X147045362Y-43299672D01*
X146936870Y-43431870D01*
X146804672Y-43540362D01*
X146653850Y-43620978D01*
X146490189Y-43670624D01*
X146313766Y-43688000D01*
X145817127Y-43688000D01*
X145704127Y-43653722D01*
X145315000Y-43615396D01*
X144925872Y-43653722D01*
X144812872Y-43688000D01*
X141617127Y-43688000D01*
X141504127Y-43653722D01*
X141115000Y-43615396D01*
X140725872Y-43653722D01*
X140612872Y-43688000D01*
X137417127Y-43688000D01*
X137304127Y-43653722D01*
X136915000Y-43615396D01*
X136525872Y-43653722D01*
X136412872Y-43688000D01*
X134148857Y-43688000D01*
X133987369Y-43639013D01*
X133813900Y-43621928D01*
X131616100Y-43621928D01*
X131442631Y-43639013D01*
X131281143Y-43688000D01*
X126132127Y-43688000D01*
X126019127Y-43653722D01*
X125630000Y-43615396D01*
X125240872Y-43653722D01*
X125127872Y-43688000D01*
X121932127Y-43688000D01*
X121819127Y-43653722D01*
X121430000Y-43615396D01*
X121040872Y-43653722D01*
X120927872Y-43688000D01*
X117732127Y-43688000D01*
X117619127Y-43653722D01*
X117230000Y-43615396D01*
X116840872Y-43653722D01*
X116727872Y-43688000D01*
X114463857Y-43688000D01*
X114302369Y-43639013D01*
X114128900Y-43621928D01*
X111931100Y-43621928D01*
X111757631Y-43639013D01*
X111596143Y-43688000D01*
X106447127Y-43688000D01*
X106334127Y-43653722D01*
X105945000Y-43615396D01*
X105555872Y-43653722D01*
X105442872Y-43688000D01*
X102247127Y-43688000D01*
X102134127Y-43653722D01*
X101745000Y-43615396D01*
X101355872Y-43653722D01*
X101242872Y-43688000D01*
X98047127Y-43688000D01*
X97934127Y-43653722D01*
X97545000Y-43615396D01*
X97155872Y-43653722D01*
X97042872Y-43688000D01*
X94778857Y-43688000D01*
X94617369Y-43639013D01*
X94443900Y-43621928D01*
X92246100Y-43621928D01*
X92072631Y-43639013D01*
X91917783Y-43685986D01*
X91761811Y-43670624D01*
X91598150Y-43620978D01*
X91447328Y-43540362D01*
X91315130Y-43431870D01*
X91206638Y-43299672D01*
X91126022Y-43148850D01*
X91076376Y-42985189D01*
X91059000Y-42808766D01*
X91059000Y-39106234D01*
X91076376Y-38929811D01*
X91126022Y-38766150D01*
X91206638Y-38615328D01*
X91315130Y-38483130D01*
X91447328Y-38374638D01*
X91598150Y-38294022D01*
X91761811Y-38244376D01*
X91938234Y-38227000D01*
X146313766Y-38227000D01*
X146490189Y-38244376D01*
G37*
%TD.AperFunction*%
%TD*%
M02*
