%TF.GenerationSoftware,KiCad,Pcbnew,(5.1.9)-1*%
%TF.CreationDate,2021-04-20T21:45:39+08:00*%
%TF.ProjectId,CSPS2ATX2.0,43535053-3241-4545-9832-2e302e6b6963,V2.0*%
%TF.SameCoordinates,Original*%
%TF.FileFunction,Paste,Bot*%
%TF.FilePolarity,Positive*%
%FSLAX46Y46*%
G04 Gerber Fmt 4.6, Leading zero omitted, Abs format (unit mm)*
G04 Created by KiCad (PCBNEW (5.1.9)-1) date 2021-04-20 21:45:39*
%MOMM*%
%LPD*%
G01*
G04 APERTURE LIST*
%ADD10R,0.600000X1.160000*%
%ADD11R,0.300000X1.160000*%
%ADD12R,3.500000X3.500000*%
%ADD13R,2.400000X2.000000*%
%ADD14R,1.600000X0.550000*%
%ADD15R,0.550000X1.600000*%
%ADD16R,2.180000X1.400000*%
G04 APERTURE END LIST*
D10*
%TO.C,J101*%
X127610000Y-118267000D03*
X128410000Y-118267000D03*
X127610000Y-118267000D03*
X128410000Y-118267000D03*
X134010000Y-118267000D03*
X134010000Y-118267000D03*
X133210000Y-118267000D03*
X133210000Y-118267000D03*
D11*
X129060000Y-118267000D03*
X130060000Y-118267000D03*
X129560000Y-118267000D03*
X132060000Y-118267000D03*
X132560000Y-118267000D03*
X130560000Y-118267000D03*
X131060000Y-118267000D03*
X131560000Y-118267000D03*
%TD*%
D12*
%TO.C,U4*%
X111760000Y-117475000D03*
X111760000Y-107950000D03*
X95885000Y-117475000D03*
X95885000Y-107950000D03*
%TD*%
D13*
%TO.C,Y101*%
X113665000Y-70849000D03*
X113665000Y-74549000D03*
%TD*%
%TO.C,U102*%
G36*
G01*
X120039000Y-115293000D02*
X120039000Y-115593000D01*
G75*
G02*
X119889000Y-115743000I-150000J0D01*
G01*
X118239000Y-115743000D01*
G75*
G02*
X118089000Y-115593000I0J150000D01*
G01*
X118089000Y-115293000D01*
G75*
G02*
X118239000Y-115143000I150000J0D01*
G01*
X119889000Y-115143000D01*
G75*
G02*
X120039000Y-115293000I0J-150000D01*
G01*
G37*
G36*
G01*
X120039000Y-116563000D02*
X120039000Y-116863000D01*
G75*
G02*
X119889000Y-117013000I-150000J0D01*
G01*
X118239000Y-117013000D01*
G75*
G02*
X118089000Y-116863000I0J150000D01*
G01*
X118089000Y-116563000D01*
G75*
G02*
X118239000Y-116413000I150000J0D01*
G01*
X119889000Y-116413000D01*
G75*
G02*
X120039000Y-116563000I0J-150000D01*
G01*
G37*
G36*
G01*
X120039000Y-117833000D02*
X120039000Y-118133000D01*
G75*
G02*
X119889000Y-118283000I-150000J0D01*
G01*
X118239000Y-118283000D01*
G75*
G02*
X118089000Y-118133000I0J150000D01*
G01*
X118089000Y-117833000D01*
G75*
G02*
X118239000Y-117683000I150000J0D01*
G01*
X119889000Y-117683000D01*
G75*
G02*
X120039000Y-117833000I0J-150000D01*
G01*
G37*
G36*
G01*
X120039000Y-119103000D02*
X120039000Y-119403000D01*
G75*
G02*
X119889000Y-119553000I-150000J0D01*
G01*
X118239000Y-119553000D01*
G75*
G02*
X118089000Y-119403000I0J150000D01*
G01*
X118089000Y-119103000D01*
G75*
G02*
X118239000Y-118953000I150000J0D01*
G01*
X119889000Y-118953000D01*
G75*
G02*
X120039000Y-119103000I0J-150000D01*
G01*
G37*
G36*
G01*
X120039000Y-120373000D02*
X120039000Y-120673000D01*
G75*
G02*
X119889000Y-120823000I-150000J0D01*
G01*
X118239000Y-120823000D01*
G75*
G02*
X118089000Y-120673000I0J150000D01*
G01*
X118089000Y-120373000D01*
G75*
G02*
X118239000Y-120223000I150000J0D01*
G01*
X119889000Y-120223000D01*
G75*
G02*
X120039000Y-120373000I0J-150000D01*
G01*
G37*
G36*
G01*
X120039000Y-121643000D02*
X120039000Y-121943000D01*
G75*
G02*
X119889000Y-122093000I-150000J0D01*
G01*
X118239000Y-122093000D01*
G75*
G02*
X118089000Y-121943000I0J150000D01*
G01*
X118089000Y-121643000D01*
G75*
G02*
X118239000Y-121493000I150000J0D01*
G01*
X119889000Y-121493000D01*
G75*
G02*
X120039000Y-121643000I0J-150000D01*
G01*
G37*
G36*
G01*
X120039000Y-122913000D02*
X120039000Y-123213000D01*
G75*
G02*
X119889000Y-123363000I-150000J0D01*
G01*
X118239000Y-123363000D01*
G75*
G02*
X118089000Y-123213000I0J150000D01*
G01*
X118089000Y-122913000D01*
G75*
G02*
X118239000Y-122763000I150000J0D01*
G01*
X119889000Y-122763000D01*
G75*
G02*
X120039000Y-122913000I0J-150000D01*
G01*
G37*
G36*
G01*
X120039000Y-124183000D02*
X120039000Y-124483000D01*
G75*
G02*
X119889000Y-124633000I-150000J0D01*
G01*
X118239000Y-124633000D01*
G75*
G02*
X118089000Y-124483000I0J150000D01*
G01*
X118089000Y-124183000D01*
G75*
G02*
X118239000Y-124033000I150000J0D01*
G01*
X119889000Y-124033000D01*
G75*
G02*
X120039000Y-124183000I0J-150000D01*
G01*
G37*
G36*
G01*
X124989000Y-124183000D02*
X124989000Y-124483000D01*
G75*
G02*
X124839000Y-124633000I-150000J0D01*
G01*
X123189000Y-124633000D01*
G75*
G02*
X123039000Y-124483000I0J150000D01*
G01*
X123039000Y-124183000D01*
G75*
G02*
X123189000Y-124033000I150000J0D01*
G01*
X124839000Y-124033000D01*
G75*
G02*
X124989000Y-124183000I0J-150000D01*
G01*
G37*
G36*
G01*
X124989000Y-122913000D02*
X124989000Y-123213000D01*
G75*
G02*
X124839000Y-123363000I-150000J0D01*
G01*
X123189000Y-123363000D01*
G75*
G02*
X123039000Y-123213000I0J150000D01*
G01*
X123039000Y-122913000D01*
G75*
G02*
X123189000Y-122763000I150000J0D01*
G01*
X124839000Y-122763000D01*
G75*
G02*
X124989000Y-122913000I0J-150000D01*
G01*
G37*
G36*
G01*
X124989000Y-121643000D02*
X124989000Y-121943000D01*
G75*
G02*
X124839000Y-122093000I-150000J0D01*
G01*
X123189000Y-122093000D01*
G75*
G02*
X123039000Y-121943000I0J150000D01*
G01*
X123039000Y-121643000D01*
G75*
G02*
X123189000Y-121493000I150000J0D01*
G01*
X124839000Y-121493000D01*
G75*
G02*
X124989000Y-121643000I0J-150000D01*
G01*
G37*
G36*
G01*
X124989000Y-120373000D02*
X124989000Y-120673000D01*
G75*
G02*
X124839000Y-120823000I-150000J0D01*
G01*
X123189000Y-120823000D01*
G75*
G02*
X123039000Y-120673000I0J150000D01*
G01*
X123039000Y-120373000D01*
G75*
G02*
X123189000Y-120223000I150000J0D01*
G01*
X124839000Y-120223000D01*
G75*
G02*
X124989000Y-120373000I0J-150000D01*
G01*
G37*
G36*
G01*
X124989000Y-119103000D02*
X124989000Y-119403000D01*
G75*
G02*
X124839000Y-119553000I-150000J0D01*
G01*
X123189000Y-119553000D01*
G75*
G02*
X123039000Y-119403000I0J150000D01*
G01*
X123039000Y-119103000D01*
G75*
G02*
X123189000Y-118953000I150000J0D01*
G01*
X124839000Y-118953000D01*
G75*
G02*
X124989000Y-119103000I0J-150000D01*
G01*
G37*
G36*
G01*
X124989000Y-117833000D02*
X124989000Y-118133000D01*
G75*
G02*
X124839000Y-118283000I-150000J0D01*
G01*
X123189000Y-118283000D01*
G75*
G02*
X123039000Y-118133000I0J150000D01*
G01*
X123039000Y-117833000D01*
G75*
G02*
X123189000Y-117683000I150000J0D01*
G01*
X124839000Y-117683000D01*
G75*
G02*
X124989000Y-117833000I0J-150000D01*
G01*
G37*
G36*
G01*
X124989000Y-116563000D02*
X124989000Y-116863000D01*
G75*
G02*
X124839000Y-117013000I-150000J0D01*
G01*
X123189000Y-117013000D01*
G75*
G02*
X123039000Y-116863000I0J150000D01*
G01*
X123039000Y-116563000D01*
G75*
G02*
X123189000Y-116413000I150000J0D01*
G01*
X124839000Y-116413000D01*
G75*
G02*
X124989000Y-116563000I0J-150000D01*
G01*
G37*
G36*
G01*
X124989000Y-115293000D02*
X124989000Y-115593000D01*
G75*
G02*
X124839000Y-115743000I-150000J0D01*
G01*
X123189000Y-115743000D01*
G75*
G02*
X123039000Y-115593000I0J150000D01*
G01*
X123039000Y-115293000D01*
G75*
G02*
X123189000Y-115143000I150000J0D01*
G01*
X124839000Y-115143000D01*
G75*
G02*
X124989000Y-115293000I0J-150000D01*
G01*
G37*
%TD*%
D14*
%TO.C,U101*%
X105986000Y-78480000D03*
X105986000Y-79280000D03*
X105986000Y-80080000D03*
X105986000Y-80880000D03*
X105986000Y-81680000D03*
X105986000Y-82480000D03*
X105986000Y-83280000D03*
X105986000Y-84080000D03*
D15*
X107436000Y-85530000D03*
X108236000Y-85530000D03*
X109036000Y-85530000D03*
X109836000Y-85530000D03*
X110636000Y-85530000D03*
X111436000Y-85530000D03*
X112236000Y-85530000D03*
X113036000Y-85530000D03*
D14*
X114486000Y-84080000D03*
X114486000Y-83280000D03*
X114486000Y-82480000D03*
X114486000Y-81680000D03*
X114486000Y-80880000D03*
X114486000Y-80080000D03*
X114486000Y-79280000D03*
X114486000Y-78480000D03*
D15*
X113036000Y-77030000D03*
X112236000Y-77030000D03*
X111436000Y-77030000D03*
X110636000Y-77030000D03*
X109836000Y-77030000D03*
X109036000Y-77030000D03*
X108236000Y-77030000D03*
X107436000Y-77030000D03*
%TD*%
D16*
%TO.C,SW101*%
X104104000Y-123698000D03*
X113284000Y-123698000D03*
%TD*%
%TO.C,R107*%
G36*
G01*
X113684000Y-91128002D02*
X113684000Y-90227998D01*
G75*
G02*
X113933998Y-89978000I249998J0D01*
G01*
X114459002Y-89978000D01*
G75*
G02*
X114709000Y-90227998I0J-249998D01*
G01*
X114709000Y-91128002D01*
G75*
G02*
X114459002Y-91378000I-249998J0D01*
G01*
X113933998Y-91378000D01*
G75*
G02*
X113684000Y-91128002I0J249998D01*
G01*
G37*
G36*
G01*
X111859000Y-91128002D02*
X111859000Y-90227998D01*
G75*
G02*
X112108998Y-89978000I249998J0D01*
G01*
X112634002Y-89978000D01*
G75*
G02*
X112884000Y-90227998I0J-249998D01*
G01*
X112884000Y-91128002D01*
G75*
G02*
X112634002Y-91378000I-249998J0D01*
G01*
X112108998Y-91378000D01*
G75*
G02*
X111859000Y-91128002I0J249998D01*
G01*
G37*
%TD*%
%TO.C,R106*%
G36*
G01*
X112884000Y-92132998D02*
X112884000Y-93033002D01*
G75*
G02*
X112634002Y-93283000I-249998J0D01*
G01*
X112108998Y-93283000D01*
G75*
G02*
X111859000Y-93033002I0J249998D01*
G01*
X111859000Y-92132998D01*
G75*
G02*
X112108998Y-91883000I249998J0D01*
G01*
X112634002Y-91883000D01*
G75*
G02*
X112884000Y-92132998I0J-249998D01*
G01*
G37*
G36*
G01*
X114709000Y-92132998D02*
X114709000Y-93033002D01*
G75*
G02*
X114459002Y-93283000I-249998J0D01*
G01*
X113933998Y-93283000D01*
G75*
G02*
X113684000Y-93033002I0J249998D01*
G01*
X113684000Y-92132998D01*
G75*
G02*
X113933998Y-91883000I249998J0D01*
G01*
X114459002Y-91883000D01*
G75*
G02*
X114709000Y-92132998I0J-249998D01*
G01*
G37*
%TD*%
%TO.C,R101*%
G36*
G01*
X110739500Y-121100002D02*
X110739500Y-120199998D01*
G75*
G02*
X110989498Y-119950000I249998J0D01*
G01*
X111514502Y-119950000D01*
G75*
G02*
X111764500Y-120199998I0J-249998D01*
G01*
X111764500Y-121100002D01*
G75*
G02*
X111514502Y-121350000I-249998J0D01*
G01*
X110989498Y-121350000D01*
G75*
G02*
X110739500Y-121100002I0J249998D01*
G01*
G37*
G36*
G01*
X108914500Y-121100002D02*
X108914500Y-120199998D01*
G75*
G02*
X109164498Y-119950000I249998J0D01*
G01*
X109689502Y-119950000D01*
G75*
G02*
X109939500Y-120199998I0J-249998D01*
G01*
X109939500Y-121100002D01*
G75*
G02*
X109689502Y-121350000I-249998J0D01*
G01*
X109164498Y-121350000D01*
G75*
G02*
X108914500Y-121100002I0J249998D01*
G01*
G37*
%TD*%
%TO.C,R6*%
G36*
G01*
X82912000Y-122993998D02*
X82912000Y-123894002D01*
G75*
G02*
X82662002Y-124144000I-249998J0D01*
G01*
X82136998Y-124144000D01*
G75*
G02*
X81887000Y-123894002I0J249998D01*
G01*
X81887000Y-122993998D01*
G75*
G02*
X82136998Y-122744000I249998J0D01*
G01*
X82662002Y-122744000D01*
G75*
G02*
X82912000Y-122993998I0J-249998D01*
G01*
G37*
G36*
G01*
X84737000Y-122993998D02*
X84737000Y-123894002D01*
G75*
G02*
X84487002Y-124144000I-249998J0D01*
G01*
X83961998Y-124144000D01*
G75*
G02*
X83712000Y-123894002I0J249998D01*
G01*
X83712000Y-122993998D01*
G75*
G02*
X83961998Y-122744000I249998J0D01*
G01*
X84487002Y-122744000D01*
G75*
G02*
X84737000Y-122993998I0J-249998D01*
G01*
G37*
%TD*%
%TO.C,R5*%
G36*
G01*
X86364500Y-122993998D02*
X86364500Y-123894002D01*
G75*
G02*
X86114502Y-124144000I-249998J0D01*
G01*
X85589498Y-124144000D01*
G75*
G02*
X85339500Y-123894002I0J249998D01*
G01*
X85339500Y-122993998D01*
G75*
G02*
X85589498Y-122744000I249998J0D01*
G01*
X86114502Y-122744000D01*
G75*
G02*
X86364500Y-122993998I0J-249998D01*
G01*
G37*
G36*
G01*
X88189500Y-122993998D02*
X88189500Y-123894002D01*
G75*
G02*
X87939502Y-124144000I-249998J0D01*
G01*
X87414498Y-124144000D01*
G75*
G02*
X87164500Y-123894002I0J249998D01*
G01*
X87164500Y-122993998D01*
G75*
G02*
X87414498Y-122744000I249998J0D01*
G01*
X87939502Y-122744000D01*
G75*
G02*
X88189500Y-122993998I0J-249998D01*
G01*
G37*
%TD*%
%TO.C,R1*%
G36*
G01*
X90747002Y-111487000D02*
X89846998Y-111487000D01*
G75*
G02*
X89597000Y-111237002I0J249998D01*
G01*
X89597000Y-110711998D01*
G75*
G02*
X89846998Y-110462000I249998J0D01*
G01*
X90747002Y-110462000D01*
G75*
G02*
X90997000Y-110711998I0J-249998D01*
G01*
X90997000Y-111237002D01*
G75*
G02*
X90747002Y-111487000I-249998J0D01*
G01*
G37*
G36*
G01*
X90747002Y-113312000D02*
X89846998Y-113312000D01*
G75*
G02*
X89597000Y-113062002I0J249998D01*
G01*
X89597000Y-112536998D01*
G75*
G02*
X89846998Y-112287000I249998J0D01*
G01*
X90747002Y-112287000D01*
G75*
G02*
X90997000Y-112536998I0J-249998D01*
G01*
X90997000Y-113062002D01*
G75*
G02*
X90747002Y-113312000I-249998J0D01*
G01*
G37*
%TD*%
%TO.C,C108*%
G36*
G01*
X115562000Y-118905000D02*
X115562000Y-119855000D01*
G75*
G02*
X115312000Y-120105000I-250000J0D01*
G01*
X114812000Y-120105000D01*
G75*
G02*
X114562000Y-119855000I0J250000D01*
G01*
X114562000Y-118905000D01*
G75*
G02*
X114812000Y-118655000I250000J0D01*
G01*
X115312000Y-118655000D01*
G75*
G02*
X115562000Y-118905000I0J-250000D01*
G01*
G37*
G36*
G01*
X117462000Y-118905000D02*
X117462000Y-119855000D01*
G75*
G02*
X117212000Y-120105000I-250000J0D01*
G01*
X116712000Y-120105000D01*
G75*
G02*
X116462000Y-119855000I0J250000D01*
G01*
X116462000Y-118905000D01*
G75*
G02*
X116712000Y-118655000I250000J0D01*
G01*
X117212000Y-118655000D01*
G75*
G02*
X117462000Y-118905000I0J-250000D01*
G01*
G37*
%TD*%
%TO.C,C107*%
G36*
G01*
X123960000Y-114140000D02*
X123960000Y-113190000D01*
G75*
G02*
X124210000Y-112940000I250000J0D01*
G01*
X124710000Y-112940000D01*
G75*
G02*
X124960000Y-113190000I0J-250000D01*
G01*
X124960000Y-114140000D01*
G75*
G02*
X124710000Y-114390000I-250000J0D01*
G01*
X124210000Y-114390000D01*
G75*
G02*
X123960000Y-114140000I0J250000D01*
G01*
G37*
G36*
G01*
X122060000Y-114140000D02*
X122060000Y-113190000D01*
G75*
G02*
X122310000Y-112940000I250000J0D01*
G01*
X122810000Y-112940000D01*
G75*
G02*
X123060000Y-113190000I0J-250000D01*
G01*
X123060000Y-114140000D01*
G75*
G02*
X122810000Y-114390000I-250000J0D01*
G01*
X122310000Y-114390000D01*
G75*
G02*
X122060000Y-114140000I0J250000D01*
G01*
G37*
%TD*%
%TO.C,C106*%
G36*
G01*
X126967000Y-114866000D02*
X126017000Y-114866000D01*
G75*
G02*
X125767000Y-114616000I0J250000D01*
G01*
X125767000Y-114116000D01*
G75*
G02*
X126017000Y-113866000I250000J0D01*
G01*
X126967000Y-113866000D01*
G75*
G02*
X127217000Y-114116000I0J-250000D01*
G01*
X127217000Y-114616000D01*
G75*
G02*
X126967000Y-114866000I-250000J0D01*
G01*
G37*
G36*
G01*
X126967000Y-116766000D02*
X126017000Y-116766000D01*
G75*
G02*
X125767000Y-116516000I0J250000D01*
G01*
X125767000Y-116016000D01*
G75*
G02*
X126017000Y-115766000I250000J0D01*
G01*
X126967000Y-115766000D01*
G75*
G02*
X127217000Y-116016000I0J-250000D01*
G01*
X127217000Y-116516000D01*
G75*
G02*
X126967000Y-116766000I-250000J0D01*
G01*
G37*
%TD*%
%TO.C,C105*%
G36*
G01*
X107323000Y-121125000D02*
X107323000Y-120175000D01*
G75*
G02*
X107573000Y-119925000I250000J0D01*
G01*
X108073000Y-119925000D01*
G75*
G02*
X108323000Y-120175000I0J-250000D01*
G01*
X108323000Y-121125000D01*
G75*
G02*
X108073000Y-121375000I-250000J0D01*
G01*
X107573000Y-121375000D01*
G75*
G02*
X107323000Y-121125000I0J250000D01*
G01*
G37*
G36*
G01*
X105423000Y-121125000D02*
X105423000Y-120175000D01*
G75*
G02*
X105673000Y-119925000I250000J0D01*
G01*
X106173000Y-119925000D01*
G75*
G02*
X106423000Y-120175000I0J-250000D01*
G01*
X106423000Y-121125000D01*
G75*
G02*
X106173000Y-121375000I-250000J0D01*
G01*
X105673000Y-121375000D01*
G75*
G02*
X105423000Y-121125000I0J250000D01*
G01*
G37*
%TD*%
%TO.C,C104*%
G36*
G01*
X111092000Y-89903000D02*
X110142000Y-89903000D01*
G75*
G02*
X109892000Y-89653000I0J250000D01*
G01*
X109892000Y-89153000D01*
G75*
G02*
X110142000Y-88903000I250000J0D01*
G01*
X111092000Y-88903000D01*
G75*
G02*
X111342000Y-89153000I0J-250000D01*
G01*
X111342000Y-89653000D01*
G75*
G02*
X111092000Y-89903000I-250000J0D01*
G01*
G37*
G36*
G01*
X111092000Y-88003000D02*
X110142000Y-88003000D01*
G75*
G02*
X109892000Y-87753000I0J250000D01*
G01*
X109892000Y-87253000D01*
G75*
G02*
X110142000Y-87003000I250000J0D01*
G01*
X111092000Y-87003000D01*
G75*
G02*
X111342000Y-87253000I0J-250000D01*
G01*
X111342000Y-87753000D01*
G75*
G02*
X111092000Y-88003000I-250000J0D01*
G01*
G37*
%TD*%
%TO.C,C103*%
G36*
G01*
X110371000Y-75278000D02*
X110371000Y-74328000D01*
G75*
G02*
X110621000Y-74078000I250000J0D01*
G01*
X111121000Y-74078000D01*
G75*
G02*
X111371000Y-74328000I0J-250000D01*
G01*
X111371000Y-75278000D01*
G75*
G02*
X111121000Y-75528000I-250000J0D01*
G01*
X110621000Y-75528000D01*
G75*
G02*
X110371000Y-75278000I0J250000D01*
G01*
G37*
G36*
G01*
X108471000Y-75278000D02*
X108471000Y-74328000D01*
G75*
G02*
X108721000Y-74078000I250000J0D01*
G01*
X109221000Y-74078000D01*
G75*
G02*
X109471000Y-74328000I0J-250000D01*
G01*
X109471000Y-75278000D01*
G75*
G02*
X109221000Y-75528000I-250000J0D01*
G01*
X108721000Y-75528000D01*
G75*
G02*
X108471000Y-75278000I0J250000D01*
G01*
G37*
%TD*%
%TO.C,C102*%
G36*
G01*
X109471000Y-70010000D02*
X109471000Y-70960000D01*
G75*
G02*
X109221000Y-71210000I-250000J0D01*
G01*
X108721000Y-71210000D01*
G75*
G02*
X108471000Y-70960000I0J250000D01*
G01*
X108471000Y-70010000D01*
G75*
G02*
X108721000Y-69760000I250000J0D01*
G01*
X109221000Y-69760000D01*
G75*
G02*
X109471000Y-70010000I0J-250000D01*
G01*
G37*
G36*
G01*
X111371000Y-70010000D02*
X111371000Y-70960000D01*
G75*
G02*
X111121000Y-71210000I-250000J0D01*
G01*
X110621000Y-71210000D01*
G75*
G02*
X110371000Y-70960000I0J250000D01*
G01*
X110371000Y-70010000D01*
G75*
G02*
X110621000Y-69760000I250000J0D01*
G01*
X111121000Y-69760000D01*
G75*
G02*
X111371000Y-70010000I0J-250000D01*
G01*
G37*
%TD*%
%TO.C,C101*%
G36*
G01*
X109471000Y-72042000D02*
X109471000Y-72992000D01*
G75*
G02*
X109221000Y-73242000I-250000J0D01*
G01*
X108721000Y-73242000D01*
G75*
G02*
X108471000Y-72992000I0J250000D01*
G01*
X108471000Y-72042000D01*
G75*
G02*
X108721000Y-71792000I250000J0D01*
G01*
X109221000Y-71792000D01*
G75*
G02*
X109471000Y-72042000I0J-250000D01*
G01*
G37*
G36*
G01*
X111371000Y-72042000D02*
X111371000Y-72992000D01*
G75*
G02*
X111121000Y-73242000I-250000J0D01*
G01*
X110621000Y-73242000D01*
G75*
G02*
X110371000Y-72992000I0J250000D01*
G01*
X110371000Y-72042000D01*
G75*
G02*
X110621000Y-71792000I250000J0D01*
G01*
X111121000Y-71792000D01*
G75*
G02*
X111371000Y-72042000I0J-250000D01*
G01*
G37*
%TD*%
%TO.C,C7*%
G36*
G01*
X104672000Y-100346000D02*
X104672000Y-102346000D01*
G75*
G02*
X104422000Y-102596000I-250000J0D01*
G01*
X101422000Y-102596000D01*
G75*
G02*
X101172000Y-102346000I0J250000D01*
G01*
X101172000Y-100346000D01*
G75*
G02*
X101422000Y-100096000I250000J0D01*
G01*
X104422000Y-100096000D01*
G75*
G02*
X104672000Y-100346000I0J-250000D01*
G01*
G37*
G36*
G01*
X111172000Y-100346000D02*
X111172000Y-102346000D01*
G75*
G02*
X110922000Y-102596000I-250000J0D01*
G01*
X107922000Y-102596000D01*
G75*
G02*
X107672000Y-102346000I0J250000D01*
G01*
X107672000Y-100346000D01*
G75*
G02*
X107922000Y-100096000I250000J0D01*
G01*
X110922000Y-100096000D01*
G75*
G02*
X111172000Y-100346000I0J-250000D01*
G01*
G37*
%TD*%
M02*
